G04 #@! TF.GenerationSoftware,KiCad,Pcbnew,(5.1.10)-1*
G04 #@! TF.CreationDate,2021-09-16T20:11:19-04:00*
G04 #@! TF.ProjectId,Space Invaders,53706163-6520-4496-9e76-61646572732e,rev?*
G04 #@! TF.SameCoordinates,Original*
G04 #@! TF.FileFunction,Copper,L1,Top*
G04 #@! TF.FilePolarity,Positive*
%FSLAX46Y46*%
G04 Gerber Fmt 4.6, Leading zero omitted, Abs format (unit mm)*
G04 Created by KiCad (PCBNEW (5.1.10)-1) date 2021-09-16 20:11:19*
%MOMM*%
%LPD*%
G01*
G04 APERTURE LIST*
G04 #@! TA.AperFunction,ComponentPad*
%ADD10C,3.000000*%
G04 #@! TD*
G04 #@! TA.AperFunction,ComponentPad*
%ADD11O,1.600000X1.600000*%
G04 #@! TD*
G04 #@! TA.AperFunction,ComponentPad*
%ADD12R,1.600000X1.600000*%
G04 #@! TD*
G04 #@! TA.AperFunction,ComponentPad*
%ADD13C,2.600000*%
G04 #@! TD*
G04 #@! TA.AperFunction,ComponentPad*
%ADD14R,2.600000X2.600000*%
G04 #@! TD*
G04 #@! TA.AperFunction,ComponentPad*
%ADD15C,1.440000*%
G04 #@! TD*
G04 #@! TA.AperFunction,ComponentPad*
%ADD16O,2.000000X1.905000*%
G04 #@! TD*
G04 #@! TA.AperFunction,ComponentPad*
%ADD17R,2.000000X1.905000*%
G04 #@! TD*
G04 #@! TA.AperFunction,ComponentPad*
%ADD18O,1.800000X1.275000*%
G04 #@! TD*
G04 #@! TA.AperFunction,ComponentPad*
%ADD19R,1.800000X1.275000*%
G04 #@! TD*
G04 #@! TA.AperFunction,ComponentPad*
%ADD20C,1.600000*%
G04 #@! TD*
G04 #@! TA.AperFunction,ComponentPad*
%ADD21O,1.905000X2.000000*%
G04 #@! TD*
G04 #@! TA.AperFunction,ComponentPad*
%ADD22R,1.905000X2.000000*%
G04 #@! TD*
G04 #@! TA.AperFunction,ComponentPad*
%ADD23R,1.050000X1.500000*%
G04 #@! TD*
G04 #@! TA.AperFunction,ComponentPad*
%ADD24O,1.050000X1.500000*%
G04 #@! TD*
G04 #@! TA.AperFunction,ComponentPad*
%ADD25O,2.000000X2.000000*%
G04 #@! TD*
G04 #@! TA.AperFunction,ComponentPad*
%ADD26C,2.000000*%
G04 #@! TD*
G04 #@! TA.AperFunction,ComponentPad*
%ADD27O,3.200000X3.200000*%
G04 #@! TD*
G04 #@! TA.AperFunction,ComponentPad*
%ADD28R,3.200000X3.200000*%
G04 #@! TD*
G04 #@! TA.AperFunction,ComponentPad*
%ADD29C,2.400000*%
G04 #@! TD*
G04 #@! TA.AperFunction,ComponentPad*
%ADD30R,2.400000X2.400000*%
G04 #@! TD*
G04 #@! TA.AperFunction,ComponentPad*
%ADD31R,2.000000X2.000000*%
G04 #@! TD*
G04 #@! TA.AperFunction,ComponentPad*
%ADD32O,1.700000X1.700000*%
G04 #@! TD*
G04 #@! TA.AperFunction,ComponentPad*
%ADD33R,1.700000X1.700000*%
G04 #@! TD*
G04 #@! TA.AperFunction,Conductor*
%ADD34C,2.000000*%
G04 #@! TD*
G04 #@! TA.AperFunction,Conductor*
%ADD35C,1.000000*%
G04 #@! TD*
G04 #@! TA.AperFunction,Conductor*
%ADD36C,0.250000*%
G04 #@! TD*
G04 #@! TA.AperFunction,Conductor*
%ADD37C,0.500000*%
G04 #@! TD*
G04 APERTURE END LIST*
D10*
X133350000Y-76200000D03*
D11*
X138430000Y-88900000D03*
X130810000Y-81280000D03*
X135890000Y-88900000D03*
X133350000Y-81280000D03*
X133350000Y-88900000D03*
X135890000Y-81280000D03*
X130810000Y-88900000D03*
D12*
X138430000Y-81280000D03*
D11*
X121920000Y-88900000D03*
X114300000Y-81280000D03*
X119380000Y-88900000D03*
X116840000Y-81280000D03*
X116840000Y-88900000D03*
X119380000Y-81280000D03*
X114300000Y-88900000D03*
D12*
X121920000Y-81280000D03*
D11*
X121920000Y-73660000D03*
X106680000Y-66040000D03*
X119380000Y-73660000D03*
X109220000Y-66040000D03*
X116840000Y-73660000D03*
X111760000Y-66040000D03*
X114300000Y-73660000D03*
X114300000Y-66040000D03*
X111760000Y-73660000D03*
X116840000Y-66040000D03*
X109220000Y-73660000D03*
X119380000Y-66040000D03*
X106680000Y-73660000D03*
D12*
X121920000Y-66040000D03*
D13*
X66040000Y-35560000D03*
X66040000Y-40640000D03*
X66040000Y-45720000D03*
X66040000Y-50800000D03*
X66040000Y-55880000D03*
X66040000Y-60960000D03*
X66040000Y-66040000D03*
X66040000Y-71120000D03*
X66040000Y-76200000D03*
X66040000Y-81280000D03*
D14*
X66040000Y-86360000D03*
D15*
X130810000Y-57150000D03*
X128270000Y-59690000D03*
X130810000Y-62230000D03*
D16*
X138430000Y-62230000D03*
X138430000Y-59690000D03*
D17*
X138430000Y-57150000D03*
D18*
X138430000Y-46170000D03*
X138430000Y-44470000D03*
X138430000Y-42770000D03*
X138430000Y-41070000D03*
D19*
X138430000Y-39370000D03*
D11*
X123190000Y-48260000D03*
D20*
X113030000Y-48260000D03*
D11*
X123190000Y-52070000D03*
D20*
X123190000Y-62230000D03*
D11*
X135890000Y-52070000D03*
D20*
X125730000Y-52070000D03*
D11*
X111760000Y-62230000D03*
D20*
X111760000Y-52070000D03*
D11*
X107950000Y-62230000D03*
D20*
X107950000Y-52070000D03*
D11*
X115570000Y-62230000D03*
D20*
X115570000Y-52070000D03*
D11*
X110490000Y-78740000D03*
D20*
X110490000Y-88900000D03*
D11*
X104140000Y-62230000D03*
D20*
X104140000Y-52070000D03*
D11*
X119380000Y-62230000D03*
D20*
X119380000Y-52070000D03*
D11*
X106680000Y-78740000D03*
D20*
X106680000Y-88900000D03*
D11*
X99060000Y-76200000D03*
D20*
X99060000Y-86360000D03*
D11*
X102870000Y-86360000D03*
D20*
X102870000Y-76200000D03*
D11*
X127000000Y-80010000D03*
D20*
X127000000Y-90170000D03*
D21*
X87630000Y-59690000D03*
X90170000Y-59690000D03*
D22*
X92710000Y-59690000D03*
D21*
X87630000Y-66040000D03*
X90170000Y-66040000D03*
D22*
X92710000Y-66040000D03*
D23*
X91440000Y-55880000D03*
D24*
X93980000Y-55880000D03*
X92710000Y-55880000D03*
D21*
X87630000Y-72390000D03*
X90170000Y-72390000D03*
D22*
X92710000Y-72390000D03*
D23*
X96520000Y-50800000D03*
D24*
X99060000Y-50800000D03*
X97790000Y-50800000D03*
D21*
X87630000Y-78740000D03*
X90170000Y-78740000D03*
D22*
X92710000Y-78740000D03*
D25*
X109220000Y-44450000D03*
D26*
X124460000Y-44450000D03*
D27*
X118110000Y-39370000D03*
D28*
X133350000Y-39370000D03*
D29*
X90805000Y-45640000D03*
D30*
X90805000Y-40640000D03*
D20*
X138430000Y-49570000D03*
X138430000Y-52070000D03*
D26*
X103505000Y-43100000D03*
D31*
X103505000Y-38100000D03*
D20*
X89860000Y-86360000D03*
D12*
X86360000Y-86360000D03*
D20*
X97870000Y-88900000D03*
X102870000Y-88900000D03*
X102870000Y-73620000D03*
X102870000Y-71120000D03*
D32*
X116840000Y-77470000D03*
X119380000Y-77470000D03*
X121920000Y-77470000D03*
X124460000Y-77470000D03*
D33*
X127000000Y-77470000D03*
D34*
X124460000Y-44450000D02*
X129540000Y-39370000D01*
X129540000Y-39370000D02*
X133350000Y-39370000D01*
D35*
X133350000Y-39370000D02*
X138430000Y-39370000D01*
D36*
X116840000Y-77470000D02*
X116840000Y-73660000D01*
X119380000Y-77470000D02*
X119380000Y-73660000D01*
D37*
X134620000Y-66040000D02*
X138430000Y-62230000D01*
X121920000Y-88900000D02*
X124460000Y-88900000D01*
X133350000Y-88900000D02*
X130810000Y-86360000D01*
X130810000Y-86360000D02*
X124460000Y-86360000D01*
X124460000Y-88900000D02*
X124460000Y-86360000D01*
X125730000Y-90170000D02*
X124460000Y-88900000D01*
X127000000Y-90170000D02*
X125730000Y-90170000D01*
X129540000Y-80010000D02*
X124460000Y-85090000D01*
X124460000Y-85090000D02*
X124460000Y-77470000D01*
X124460000Y-86360000D02*
X124460000Y-85090000D01*
X121920000Y-66040000D02*
X121920000Y-67310000D01*
X129540000Y-74930000D02*
X129540000Y-80010000D01*
X134620000Y-66040000D02*
X127635000Y-73025000D01*
X127635000Y-73025000D02*
X129540000Y-74930000D01*
X121920000Y-67310000D02*
X127635000Y-73025000D01*
D36*
X114300000Y-66040000D02*
X118110000Y-69850000D01*
X118110000Y-69850000D02*
X123190000Y-69850000D01*
X123190000Y-69850000D02*
X127000000Y-73660000D01*
X127000000Y-73660000D02*
X127000000Y-77470000D01*
X127000000Y-77470000D02*
X127000000Y-80010000D01*
D37*
X91440000Y-55880000D02*
X66040000Y-55880000D01*
X96520000Y-50800000D02*
X66040000Y-50800000D01*
D34*
X90170000Y-78740000D02*
X90170000Y-81280000D01*
X90170000Y-81280000D02*
X83820000Y-81280000D01*
X78740000Y-76200000D02*
X66040000Y-76200000D01*
X83820000Y-81280000D02*
X78740000Y-76200000D01*
X90170000Y-72390000D02*
X90170000Y-74930000D01*
X90170000Y-74930000D02*
X83820000Y-74930000D01*
X80010000Y-71120000D02*
X66040000Y-71120000D01*
X83820000Y-74930000D02*
X80010000Y-71120000D01*
X90170000Y-66040000D02*
X90170000Y-68580000D01*
X90170000Y-68580000D02*
X83820000Y-68580000D01*
X81280000Y-66040000D02*
X66040000Y-66040000D01*
X83820000Y-68580000D02*
X81280000Y-66040000D01*
X90170000Y-59690000D02*
X90170000Y-62230000D01*
X90170000Y-62230000D02*
X83820000Y-62230000D01*
X82550000Y-60960000D02*
X66040000Y-60960000D01*
X83820000Y-62230000D02*
X82550000Y-60960000D01*
D37*
X66040000Y-81280000D02*
X80010000Y-81280000D01*
X80010000Y-81280000D02*
X82550000Y-83820000D01*
X96520000Y-83820000D02*
X99060000Y-86360000D01*
X82550000Y-83820000D02*
X96520000Y-83820000D01*
X99060000Y-86360000D02*
X102870000Y-86360000D01*
D35*
X133350000Y-81280000D02*
X133350000Y-76200000D01*
D34*
X105410000Y-40640000D02*
X109220000Y-44450000D01*
X66040000Y-40640000D02*
X105410000Y-40640000D01*
D35*
X109220000Y-44450000D02*
X113030000Y-48260000D01*
D36*
X106680000Y-78740000D02*
X106680000Y-73660000D01*
X106680000Y-78740000D02*
X92710000Y-78740000D01*
X119380000Y-66040000D02*
X119380000Y-62230000D01*
X119380000Y-62230000D02*
X113030000Y-55880000D01*
X113030000Y-55880000D02*
X101600000Y-55880000D01*
X97790000Y-52070000D02*
X97790000Y-50800000D01*
X101600000Y-55880000D02*
X97790000Y-52070000D01*
X106680000Y-64770000D02*
X104140000Y-62230000D01*
X106680000Y-66040000D02*
X106680000Y-64770000D01*
X104140000Y-62230000D02*
X101600000Y-62230000D01*
X101600000Y-62230000D02*
X92710000Y-71120000D01*
X92710000Y-71120000D02*
X92710000Y-72390000D01*
X116840000Y-63500000D02*
X115570000Y-62230000D01*
X116840000Y-66040000D02*
X116840000Y-63500000D01*
X92710000Y-54880000D02*
X92710000Y-55880000D01*
X96520000Y-53340000D02*
X94250000Y-53340000D01*
X94250000Y-53340000D02*
X92710000Y-54880000D01*
X100330000Y-57150000D02*
X96520000Y-53340000D01*
X110490000Y-57150000D02*
X100330000Y-57150000D01*
X115570000Y-62230000D02*
X110490000Y-57150000D01*
X109220000Y-63500000D02*
X107950000Y-62230000D01*
X109220000Y-66040000D02*
X109220000Y-63500000D01*
X101600000Y-59690000D02*
X95250000Y-66040000D01*
X95250000Y-66040000D02*
X92710000Y-66040000D01*
X105410000Y-59690000D02*
X101600000Y-59690000D01*
X107950000Y-62230000D02*
X105410000Y-59690000D01*
X111760000Y-66040000D02*
X111760000Y-62230000D01*
X99060000Y-59690000D02*
X92710000Y-59690000D01*
X100330000Y-58420000D02*
X99060000Y-59690000D01*
X107950000Y-58420000D02*
X100330000Y-58420000D01*
X111760000Y-62230000D02*
X107950000Y-58420000D01*
X114300000Y-73660000D02*
X114300000Y-71120000D01*
X102870000Y-71120000D02*
X114300000Y-71120000D01*
X112395000Y-76835000D02*
X111760000Y-76200000D01*
X112395000Y-83185000D02*
X112395000Y-76835000D01*
X116840000Y-87630000D02*
X112395000Y-83185000D01*
X111760000Y-76200000D02*
X111760000Y-73660000D01*
X116840000Y-88900000D02*
X116840000Y-87630000D01*
X114300000Y-88900000D02*
X111760000Y-86360000D01*
X111760000Y-86360000D02*
X109220000Y-83820000D01*
X109220000Y-83820000D02*
X108585000Y-83185000D01*
X108585000Y-76835000D02*
X109220000Y-76200000D01*
X108585000Y-83185000D02*
X108585000Y-76835000D01*
X109220000Y-76200000D02*
X109220000Y-73660000D01*
D37*
X95330000Y-86360000D02*
X97870000Y-88900000D01*
X89860000Y-86360000D02*
X95330000Y-86360000D01*
X128270000Y-91440000D02*
X130810000Y-88900000D01*
X100410000Y-91440000D02*
X128270000Y-91440000D01*
X97870000Y-88900000D02*
X100410000Y-91440000D01*
D35*
X138430000Y-49570000D02*
X138430000Y-46170000D01*
D34*
X103505000Y-35560000D02*
X103505000Y-38100000D01*
X66040000Y-35560000D02*
X103505000Y-35560000D01*
D35*
X140950000Y-44470000D02*
X140970000Y-44450000D01*
X138430000Y-44470000D02*
X140950000Y-44470000D01*
X138430000Y-57150000D02*
X140970000Y-57150000D01*
X140970000Y-44490000D02*
X140950000Y-44470000D01*
X140970000Y-57150000D02*
X140970000Y-44490000D01*
X140970000Y-44490000D02*
X140970000Y-35560000D01*
X103505000Y-35560000D02*
X140970000Y-35560000D01*
X123190000Y-48260000D02*
X123190000Y-52070000D01*
X123190000Y-52070000D02*
X125730000Y-52070000D01*
X136730000Y-41070000D02*
X138430000Y-41070000D01*
X125730000Y-52070000D02*
X136730000Y-41070000D01*
D36*
X102870000Y-76200000D02*
X102870000Y-73660000D01*
D37*
X102870000Y-88900000D02*
X104140000Y-88900000D01*
X104140000Y-88900000D02*
X106680000Y-86360000D01*
X107950000Y-86360000D02*
X110490000Y-88900000D01*
X106680000Y-86360000D02*
X107950000Y-86360000D01*
D35*
X135890000Y-52070000D02*
X138430000Y-52070000D01*
X125730000Y-62230000D02*
X128270000Y-59690000D01*
X123190000Y-62230000D02*
X125730000Y-62230000D01*
D37*
X86360000Y-86360000D02*
X66040000Y-86360000D01*
M02*
