M48
; DRILL file {KiCad (5.1.10)-1} date 09/16/21 20:11:30
; FORMAT={-:-/ absolute / metric / decimal}
; #@! TF.CreationDate,2021-09-16T20:11:30-04:00
; #@! TF.GenerationSoftware,Kicad,Pcbnew,(5.1.10)-1
; #@! TF.FileFunction,Plated,1,2,PTH
FMAT,2
METRIC
T1C0.750
T2C0.800
T3C1.000
T4C1.100
T5C1.200
T6C1.300
T7C1.500
T8C1.600
%
G90
G05
T1
X91.44Y-55.88
X92.71Y-55.88
X93.98Y-55.88
X96.52Y-50.8
X97.79Y-50.8
X99.06Y-50.8
T2
X86.36Y-86.36
X89.86Y-86.36
X97.87Y-88.9
X99.06Y-76.2
X99.06Y-86.36
X102.87Y-71.12
X102.87Y-73.62
X102.87Y-76.2
X102.87Y-86.36
X102.87Y-88.9
X104.14Y-52.07
X104.14Y-62.23
X106.68Y-66.04
X106.68Y-73.66
X106.68Y-78.74
X106.68Y-88.9
X107.95Y-52.07
X107.95Y-62.23
X109.22Y-66.04
X109.22Y-73.66
X110.49Y-78.74
X110.49Y-88.9
X111.76Y-52.07
X111.76Y-62.23
X111.76Y-66.04
X111.76Y-73.66
X113.03Y-48.26
X114.3Y-66.04
X114.3Y-73.66
X114.3Y-81.28
X114.3Y-88.9
X115.57Y-52.07
X115.57Y-62.23
X116.84Y-66.04
X116.84Y-73.66
X116.84Y-81.28
X116.84Y-88.9
X119.38Y-52.07
X119.38Y-62.23
X119.38Y-66.04
X119.38Y-73.66
X119.38Y-81.28
X119.38Y-88.9
X121.92Y-66.04
X121.92Y-73.66
X121.92Y-81.28
X121.92Y-88.9
X123.19Y-48.26
X123.19Y-52.07
X123.19Y-62.23
X125.73Y-52.07
X127.0Y-80.01
X127.0Y-90.17
X128.27Y-59.69
X130.81Y-57.15
X130.81Y-62.23
X130.81Y-81.28
X130.81Y-88.9
X133.35Y-81.28
X133.35Y-88.9
X135.89Y-52.07
X135.89Y-81.28
X135.89Y-88.9
X138.43Y-49.57
X138.43Y-52.07
X138.43Y-81.28
X138.43Y-88.9
T3
X103.505Y-38.1
X103.505Y-43.1
X109.22Y-44.45
X116.84Y-77.47
X119.38Y-77.47
X121.92Y-77.47
X124.46Y-44.45
X124.46Y-77.47
X127.0Y-77.47
T4
X87.63Y-59.69
X87.63Y-66.04
X87.63Y-72.39
X87.63Y-78.74
X90.17Y-59.69
X90.17Y-66.04
X90.17Y-72.39
X90.17Y-78.74
X92.71Y-59.69
X92.71Y-66.04
X92.71Y-72.39
X92.71Y-78.74
X138.43Y-39.37
X138.43Y-41.07
X138.43Y-42.77
X138.43Y-44.47
X138.43Y-46.17
X138.43Y-57.15
X138.43Y-59.69
X138.43Y-62.23
T5
X90.805Y-40.64
X90.805Y-45.64
T6
X66.04Y-35.56
X66.04Y-40.64
X66.04Y-45.72
X66.04Y-50.8
X66.04Y-55.88
X66.04Y-60.96
X66.04Y-66.04
X66.04Y-71.12
X66.04Y-76.2
X66.04Y-81.28
X66.04Y-86.36
T7
X133.35Y-76.2
T8
X118.11Y-39.37
X133.35Y-39.37
T0
M30
