%FSLAX45Y45*%
G04 Gerber Fmt 4.5, Leading zero omitted, Abs format (unit mm)*
G04 Created by KiCad (PCBNEW (5.1.10)-1) date 2021-09-16 20:11:32*
%MOMM*%
%LPD*%
G01*
G04 APERTURE LIST*
%TA.AperFunction,Profile*%
%ADD10C,0.050000*%
%TD*%
%ADD11C,0.200000*%
%ADD12C,0.300000*%
G04 APERTURE END LIST*
D10*
X5969000Y-9271000D02*
X5969000Y-3175000D01*
X14224000Y-9271000D02*
X5969000Y-9271000D01*
X14224000Y-3175000D02*
X14224000Y-9271000D01*
X5969000Y-3175000D02*
X14224000Y-3175000D01*
D11*
D12*
X6252928Y-9739214D02*
X6252928Y-9439214D01*
X6324357Y-9439214D01*
X6367214Y-9453500D01*
X6395786Y-9482072D01*
X6410071Y-9510643D01*
X6424357Y-9567786D01*
X6424357Y-9610643D01*
X6410071Y-9667786D01*
X6395786Y-9696357D01*
X6367214Y-9724929D01*
X6324357Y-9739214D01*
X6252928Y-9739214D01*
X6552928Y-9739214D02*
X6552928Y-9539214D01*
X6552928Y-9596357D02*
X6567214Y-9567786D01*
X6581500Y-9553500D01*
X6610071Y-9539214D01*
X6638643Y-9539214D01*
X6738643Y-9739214D02*
X6738643Y-9539214D01*
X6738643Y-9439214D02*
X6724357Y-9453500D01*
X6738643Y-9467786D01*
X6752928Y-9453500D01*
X6738643Y-9439214D01*
X6738643Y-9467786D01*
X6924357Y-9739214D02*
X6895786Y-9724929D01*
X6881500Y-9696357D01*
X6881500Y-9439214D01*
X7081500Y-9739214D02*
X7052928Y-9724929D01*
X7038643Y-9696357D01*
X7038643Y-9439214D01*
X7424357Y-9739214D02*
X7424357Y-9439214D01*
X7524357Y-9653500D01*
X7624357Y-9439214D01*
X7624357Y-9739214D01*
X7895786Y-9739214D02*
X7895786Y-9582072D01*
X7881500Y-9553500D01*
X7852928Y-9539214D01*
X7795786Y-9539214D01*
X7767214Y-9553500D01*
X7895786Y-9724929D02*
X7867214Y-9739214D01*
X7795786Y-9739214D01*
X7767214Y-9724929D01*
X7752928Y-9696357D01*
X7752928Y-9667786D01*
X7767214Y-9639214D01*
X7795786Y-9624929D01*
X7867214Y-9624929D01*
X7895786Y-9610643D01*
X8038643Y-9539214D02*
X8038643Y-9839214D01*
X8038643Y-9553500D02*
X8067214Y-9539214D01*
X8124357Y-9539214D01*
X8152928Y-9553500D01*
X8167214Y-9567786D01*
X8181500Y-9596357D01*
X8181500Y-9682072D01*
X8167214Y-9710643D01*
X8152928Y-9724929D01*
X8124357Y-9739214D01*
X8067214Y-9739214D01*
X8038643Y-9724929D01*
X8310071Y-9710643D02*
X8324357Y-9724929D01*
X8310071Y-9739214D01*
X8295786Y-9724929D01*
X8310071Y-9710643D01*
X8310071Y-9739214D01*
X8310071Y-9553500D02*
X8324357Y-9567786D01*
X8310071Y-9582072D01*
X8295786Y-9567786D01*
X8310071Y-9553500D01*
X8310071Y-9582072D01*
M02*
