%FSLAX45Y45*%
G04 Gerber Fmt 4.5, Leading zero omitted, Abs format (unit mm)*
G04 Created by KiCad (PCBNEW (5.1.10)-1) date 2021-09-16 20:11:32*
%MOMM*%
%LPD*%
G01*
G04 APERTURE LIST*
%TA.AperFunction,Profile*%
%ADD10C,0.050000*%
%TD*%
%ADD11C,0.200000*%
%ADD12C,0.300000*%
G04 APERTURE END LIST*
D10*
X5969000Y-9271000D02*
X5969000Y-3175000D01*
X14224000Y-9271000D02*
X5969000Y-9271000D01*
X14224000Y-3175000D02*
X14224000Y-9271000D01*
X5969000Y-3175000D02*
X14224000Y-3175000D01*
D11*
X9106500Y-5550500D02*
X9181500Y-5625500D01*
X9181500Y-5550500D02*
X9106500Y-5625500D01*
X9233500Y-5550500D02*
X9308500Y-5625500D01*
X9308500Y-5550500D02*
X9233500Y-5625500D01*
X9360500Y-5550500D02*
X9435500Y-5625500D01*
X9435500Y-5550500D02*
X9360500Y-5625500D01*
X9614500Y-5042500D02*
X9689500Y-5117500D01*
X9689500Y-5042500D02*
X9614500Y-5117500D01*
X9741500Y-5042500D02*
X9816500Y-5117500D01*
X9816500Y-5042500D02*
X9741500Y-5117500D01*
X9868500Y-5042500D02*
X9943500Y-5117500D01*
X9943500Y-5042500D02*
X9868500Y-5117500D01*
X8676000Y-8636000D02*
G75*
G03*
X8676000Y-8636000I-40000J0D01*
G01*
X9026000Y-8636000D02*
G75*
G03*
X9026000Y-8636000I-40000J0D01*
G01*
X9827000Y-8890000D02*
G75*
G03*
X9827000Y-8890000I-40000J0D01*
G01*
X9946000Y-7620000D02*
G75*
G03*
X9946000Y-7620000I-40000J0D01*
G01*
X9946000Y-8636000D02*
G75*
G03*
X9946000Y-8636000I-40000J0D01*
G01*
X10327000Y-7112000D02*
G75*
G03*
X10327000Y-7112000I-40000J0D01*
G01*
X10327000Y-7362000D02*
G75*
G03*
X10327000Y-7362000I-40000J0D01*
G01*
X10327000Y-7620000D02*
G75*
G03*
X10327000Y-7620000I-40000J0D01*
G01*
X10327000Y-8636000D02*
G75*
G03*
X10327000Y-8636000I-40000J0D01*
G01*
X10327000Y-8890000D02*
G75*
G03*
X10327000Y-8890000I-40000J0D01*
G01*
X10454000Y-5207000D02*
G75*
G03*
X10454000Y-5207000I-40000J0D01*
G01*
X10454000Y-6223000D02*
G75*
G03*
X10454000Y-6223000I-40000J0D01*
G01*
X10708000Y-6604000D02*
G75*
G03*
X10708000Y-6604000I-40000J0D01*
G01*
X10708000Y-7366000D02*
G75*
G03*
X10708000Y-7366000I-40000J0D01*
G01*
X10708000Y-7874000D02*
G75*
G03*
X10708000Y-7874000I-40000J0D01*
G01*
X10708000Y-8890000D02*
G75*
G03*
X10708000Y-8890000I-40000J0D01*
G01*
X10835000Y-5207000D02*
G75*
G03*
X10835000Y-5207000I-40000J0D01*
G01*
X10835000Y-6223000D02*
G75*
G03*
X10835000Y-6223000I-40000J0D01*
G01*
X10962000Y-6604000D02*
G75*
G03*
X10962000Y-6604000I-40000J0D01*
G01*
X10962000Y-7366000D02*
G75*
G03*
X10962000Y-7366000I-40000J0D01*
G01*
X11089000Y-7874000D02*
G75*
G03*
X11089000Y-7874000I-40000J0D01*
G01*
X11089000Y-8890000D02*
G75*
G03*
X11089000Y-8890000I-40000J0D01*
G01*
X11216000Y-5207000D02*
G75*
G03*
X11216000Y-5207000I-40000J0D01*
G01*
X11216000Y-6223000D02*
G75*
G03*
X11216000Y-6223000I-40000J0D01*
G01*
X11216000Y-6604000D02*
G75*
G03*
X11216000Y-6604000I-40000J0D01*
G01*
X11216000Y-7366000D02*
G75*
G03*
X11216000Y-7366000I-40000J0D01*
G01*
X11343000Y-4826000D02*
G75*
G03*
X11343000Y-4826000I-40000J0D01*
G01*
X11470000Y-6604000D02*
G75*
G03*
X11470000Y-6604000I-40000J0D01*
G01*
X11470000Y-7366000D02*
G75*
G03*
X11470000Y-7366000I-40000J0D01*
G01*
X11470000Y-8128000D02*
G75*
G03*
X11470000Y-8128000I-40000J0D01*
G01*
X11470000Y-8890000D02*
G75*
G03*
X11470000Y-8890000I-40000J0D01*
G01*
X11597000Y-5207000D02*
G75*
G03*
X11597000Y-5207000I-40000J0D01*
G01*
X11597000Y-6223000D02*
G75*
G03*
X11597000Y-6223000I-40000J0D01*
G01*
X11724000Y-6604000D02*
G75*
G03*
X11724000Y-6604000I-40000J0D01*
G01*
X11724000Y-7366000D02*
G75*
G03*
X11724000Y-7366000I-40000J0D01*
G01*
X11724000Y-8128000D02*
G75*
G03*
X11724000Y-8128000I-40000J0D01*
G01*
X11724000Y-8890000D02*
G75*
G03*
X11724000Y-8890000I-40000J0D01*
G01*
X11978000Y-5207000D02*
G75*
G03*
X11978000Y-5207000I-40000J0D01*
G01*
X11978000Y-6223000D02*
G75*
G03*
X11978000Y-6223000I-40000J0D01*
G01*
X11978000Y-6604000D02*
G75*
G03*
X11978000Y-6604000I-40000J0D01*
G01*
X11978000Y-7366000D02*
G75*
G03*
X11978000Y-7366000I-40000J0D01*
G01*
X11978000Y-8128000D02*
G75*
G03*
X11978000Y-8128000I-40000J0D01*
G01*
X11978000Y-8890000D02*
G75*
G03*
X11978000Y-8890000I-40000J0D01*
G01*
X12232000Y-6604000D02*
G75*
G03*
X12232000Y-6604000I-40000J0D01*
G01*
X12232000Y-7366000D02*
G75*
G03*
X12232000Y-7366000I-40000J0D01*
G01*
X12232000Y-8128000D02*
G75*
G03*
X12232000Y-8128000I-40000J0D01*
G01*
X12232000Y-8890000D02*
G75*
G03*
X12232000Y-8890000I-40000J0D01*
G01*
X12359000Y-4826000D02*
G75*
G03*
X12359000Y-4826000I-40000J0D01*
G01*
X12359000Y-5207000D02*
G75*
G03*
X12359000Y-5207000I-40000J0D01*
G01*
X12359000Y-6223000D02*
G75*
G03*
X12359000Y-6223000I-40000J0D01*
G01*
X12613000Y-5207000D02*
G75*
G03*
X12613000Y-5207000I-40000J0D01*
G01*
X12740000Y-8001000D02*
G75*
G03*
X12740000Y-8001000I-40000J0D01*
G01*
X12740000Y-9017000D02*
G75*
G03*
X12740000Y-9017000I-40000J0D01*
G01*
X12867000Y-5969000D02*
G75*
G03*
X12867000Y-5969000I-40000J0D01*
G01*
X13121000Y-5715000D02*
G75*
G03*
X13121000Y-5715000I-40000J0D01*
G01*
X13121000Y-6223000D02*
G75*
G03*
X13121000Y-6223000I-40000J0D01*
G01*
X13121000Y-8128000D02*
G75*
G03*
X13121000Y-8128000I-40000J0D01*
G01*
X13121000Y-8890000D02*
G75*
G03*
X13121000Y-8890000I-40000J0D01*
G01*
X13375000Y-8128000D02*
G75*
G03*
X13375000Y-8128000I-40000J0D01*
G01*
X13375000Y-8890000D02*
G75*
G03*
X13375000Y-8890000I-40000J0D01*
G01*
X13629000Y-5207000D02*
G75*
G03*
X13629000Y-5207000I-40000J0D01*
G01*
X13629000Y-8128000D02*
G75*
G03*
X13629000Y-8128000I-40000J0D01*
G01*
X13629000Y-8890000D02*
G75*
G03*
X13629000Y-8890000I-40000J0D01*
G01*
X13883000Y-4957000D02*
G75*
G03*
X13883000Y-4957000I-40000J0D01*
G01*
X13883000Y-5207000D02*
G75*
G03*
X13883000Y-5207000I-40000J0D01*
G01*
X13883000Y-8128000D02*
G75*
G03*
X13883000Y-8128000I-40000J0D01*
G01*
X13883000Y-8890000D02*
G75*
G03*
X13883000Y-8890000I-40000J0D01*
G01*
X10350500Y-3760000D02*
X10350500Y-3860000D01*
X10300500Y-3810000D02*
X10400500Y-3810000D01*
X10350500Y-4260000D02*
X10350500Y-4360000D01*
X10300500Y-4310000D02*
X10400500Y-4310000D01*
X10922000Y-4395000D02*
X10922000Y-4495000D01*
X10872000Y-4445000D02*
X10972000Y-4445000D01*
X11684000Y-7697000D02*
X11684000Y-7797000D01*
X11634000Y-7747000D02*
X11734000Y-7747000D01*
X11938000Y-7697000D02*
X11938000Y-7797000D01*
X11888000Y-7747000D02*
X11988000Y-7747000D01*
X12192000Y-7697000D02*
X12192000Y-7797000D01*
X12142000Y-7747000D02*
X12242000Y-7747000D01*
X12446000Y-4395000D02*
X12446000Y-4495000D01*
X12396000Y-4445000D02*
X12496000Y-4445000D01*
X12446000Y-7697000D02*
X12446000Y-7797000D01*
X12396000Y-7747000D02*
X12496000Y-7747000D01*
X12700000Y-7697000D02*
X12700000Y-7797000D01*
X12650000Y-7747000D02*
X12750000Y-7747000D01*
X8801891Y-6007891D02*
X8801891Y-5930109D01*
X8724109Y-5930109D01*
X8724109Y-6007891D01*
X8801891Y-6007891D01*
X8801891Y-6642891D02*
X8801891Y-6565109D01*
X8724109Y-6565109D01*
X8724109Y-6642891D01*
X8801891Y-6642891D01*
X8801891Y-7277891D02*
X8801891Y-7200109D01*
X8724109Y-7200109D01*
X8724109Y-7277891D01*
X8801891Y-7277891D01*
X8801891Y-7912891D02*
X8801891Y-7835109D01*
X8724109Y-7835109D01*
X8724109Y-7912891D01*
X8801891Y-7912891D01*
X9055891Y-6007891D02*
X9055891Y-5930109D01*
X8978109Y-5930109D01*
X8978109Y-6007891D01*
X9055891Y-6007891D01*
X9055891Y-6642891D02*
X9055891Y-6565109D01*
X8978109Y-6565109D01*
X8978109Y-6642891D01*
X9055891Y-6642891D01*
X9055891Y-7277891D02*
X9055891Y-7200109D01*
X8978109Y-7200109D01*
X8978109Y-7277891D01*
X9055891Y-7277891D01*
X9055891Y-7912891D02*
X9055891Y-7835109D01*
X8978109Y-7835109D01*
X8978109Y-7912891D01*
X9055891Y-7912891D01*
X9309891Y-6007891D02*
X9309891Y-5930109D01*
X9232109Y-5930109D01*
X9232109Y-6007891D01*
X9309891Y-6007891D01*
X9309891Y-6642891D02*
X9309891Y-6565109D01*
X9232109Y-6565109D01*
X9232109Y-6642891D01*
X9309891Y-6642891D01*
X9309891Y-7277891D02*
X9309891Y-7200109D01*
X9232109Y-7200109D01*
X9232109Y-7277891D01*
X9309891Y-7277891D01*
X9309891Y-7912891D02*
X9309891Y-7835109D01*
X9232109Y-7835109D01*
X9232109Y-7912891D01*
X9309891Y-7912891D01*
X13881891Y-3975891D02*
X13881891Y-3898109D01*
X13804109Y-3898109D01*
X13804109Y-3975891D01*
X13881891Y-3975891D01*
X13881891Y-4145891D02*
X13881891Y-4068109D01*
X13804109Y-4068109D01*
X13804109Y-4145891D01*
X13881891Y-4145891D01*
X13881891Y-4315891D02*
X13881891Y-4238109D01*
X13804109Y-4238109D01*
X13804109Y-4315891D01*
X13881891Y-4315891D01*
X13881891Y-4485891D02*
X13881891Y-4408109D01*
X13804109Y-4408109D01*
X13804109Y-4485891D01*
X13881891Y-4485891D01*
X13881891Y-4655891D02*
X13881891Y-4578109D01*
X13804109Y-4578109D01*
X13804109Y-4655891D01*
X13881891Y-4655891D01*
X13881891Y-5753891D02*
X13881891Y-5676109D01*
X13804109Y-5676109D01*
X13804109Y-5753891D01*
X13881891Y-5753891D01*
X13881891Y-6007891D02*
X13881891Y-5930109D01*
X13804109Y-5930109D01*
X13804109Y-6007891D01*
X13881891Y-6007891D01*
X13881891Y-6261891D02*
X13881891Y-6184109D01*
X13804109Y-6184109D01*
X13804109Y-6261891D01*
X13881891Y-6261891D01*
X9080500Y-4124000D02*
X9140500Y-4064000D01*
X9080500Y-4004000D01*
X9020500Y-4064000D01*
X9080500Y-4124000D01*
X9080500Y-4624000D02*
X9140500Y-4564000D01*
X9080500Y-4504000D01*
X9020500Y-4564000D01*
X9080500Y-4624000D01*
X6539000Y-3491000D02*
X6669000Y-3621000D01*
X6669000Y-3491000D02*
X6539000Y-3621000D01*
X6669000Y-3556000D02*
G75*
G03*
X6669000Y-3556000I-65000J0D01*
G01*
X6539000Y-3999000D02*
X6669000Y-4129000D01*
X6669000Y-3999000D02*
X6539000Y-4129000D01*
X6669000Y-4064000D02*
G75*
G03*
X6669000Y-4064000I-65000J0D01*
G01*
X6539000Y-4507000D02*
X6669000Y-4637000D01*
X6669000Y-4507000D02*
X6539000Y-4637000D01*
X6669000Y-4572000D02*
G75*
G03*
X6669000Y-4572000I-65000J0D01*
G01*
X6539000Y-5015000D02*
X6669000Y-5145000D01*
X6669000Y-5015000D02*
X6539000Y-5145000D01*
X6669000Y-5080000D02*
G75*
G03*
X6669000Y-5080000I-65000J0D01*
G01*
X6539000Y-5523000D02*
X6669000Y-5653000D01*
X6669000Y-5523000D02*
X6539000Y-5653000D01*
X6669000Y-5588000D02*
G75*
G03*
X6669000Y-5588000I-65000J0D01*
G01*
X6539000Y-6031000D02*
X6669000Y-6161000D01*
X6669000Y-6031000D02*
X6539000Y-6161000D01*
X6669000Y-6096000D02*
G75*
G03*
X6669000Y-6096000I-65000J0D01*
G01*
X6539000Y-6539000D02*
X6669000Y-6669000D01*
X6669000Y-6539000D02*
X6539000Y-6669000D01*
X6669000Y-6604000D02*
G75*
G03*
X6669000Y-6604000I-65000J0D01*
G01*
X6539000Y-7047000D02*
X6669000Y-7177000D01*
X6669000Y-7047000D02*
X6539000Y-7177000D01*
X6669000Y-7112000D02*
G75*
G03*
X6669000Y-7112000I-65000J0D01*
G01*
X6539000Y-7555000D02*
X6669000Y-7685000D01*
X6669000Y-7555000D02*
X6539000Y-7685000D01*
X6669000Y-7620000D02*
G75*
G03*
X6669000Y-7620000I-65000J0D01*
G01*
X6539000Y-8063000D02*
X6669000Y-8193000D01*
X6669000Y-8063000D02*
X6539000Y-8193000D01*
X6669000Y-8128000D02*
G75*
G03*
X6669000Y-8128000I-65000J0D01*
G01*
X6539000Y-8571000D02*
X6669000Y-8701000D01*
X6669000Y-8571000D02*
X6539000Y-8701000D01*
X6669000Y-8636000D02*
G75*
G03*
X6669000Y-8636000I-65000J0D01*
G01*
X13260000Y-7545000D02*
X13410000Y-7695000D01*
X13410000Y-7545000D02*
X13260000Y-7695000D01*
X13335000Y-7545000D02*
X13335000Y-7695000D01*
X13260000Y-7620000D02*
X13410000Y-7620000D01*
X11731000Y-3857000D02*
X11891000Y-4017000D01*
X11891000Y-3857000D02*
X11731000Y-4017000D01*
X11867569Y-3993569D02*
X11867569Y-3880431D01*
X11754431Y-3880431D01*
X11754431Y-3993569D01*
X11867569Y-3993569D01*
X13255000Y-3857000D02*
X13415000Y-4017000D01*
X13415000Y-3857000D02*
X13255000Y-4017000D01*
X13391569Y-3993569D02*
X13391569Y-3880431D01*
X13278431Y-3880431D01*
X13278431Y-3993569D01*
X13391569Y-3993569D01*
D12*
X6252928Y-9739214D02*
X6252928Y-9439214D01*
X6324357Y-9439214D01*
X6367214Y-9453500D01*
X6395786Y-9482072D01*
X6410071Y-9510643D01*
X6424357Y-9567786D01*
X6424357Y-9610643D01*
X6410071Y-9667786D01*
X6395786Y-9696357D01*
X6367214Y-9724929D01*
X6324357Y-9739214D01*
X6252928Y-9739214D01*
X6552928Y-9739214D02*
X6552928Y-9539214D01*
X6552928Y-9596357D02*
X6567214Y-9567786D01*
X6581500Y-9553500D01*
X6610071Y-9539214D01*
X6638643Y-9539214D01*
X6738643Y-9739214D02*
X6738643Y-9539214D01*
X6738643Y-9439214D02*
X6724357Y-9453500D01*
X6738643Y-9467786D01*
X6752928Y-9453500D01*
X6738643Y-9439214D01*
X6738643Y-9467786D01*
X6924357Y-9739214D02*
X6895786Y-9724929D01*
X6881500Y-9696357D01*
X6881500Y-9439214D01*
X7081500Y-9739214D02*
X7052928Y-9724929D01*
X7038643Y-9696357D01*
X7038643Y-9439214D01*
X7424357Y-9739214D02*
X7424357Y-9439214D01*
X7524357Y-9653500D01*
X7624357Y-9439214D01*
X7624357Y-9739214D01*
X7895786Y-9739214D02*
X7895786Y-9582072D01*
X7881500Y-9553500D01*
X7852928Y-9539214D01*
X7795786Y-9539214D01*
X7767214Y-9553500D01*
X7895786Y-9724929D02*
X7867214Y-9739214D01*
X7795786Y-9739214D01*
X7767214Y-9724929D01*
X7752928Y-9696357D01*
X7752928Y-9667786D01*
X7767214Y-9639214D01*
X7795786Y-9624929D01*
X7867214Y-9624929D01*
X7895786Y-9610643D01*
X8038643Y-9539214D02*
X8038643Y-9839214D01*
X8038643Y-9553500D02*
X8067214Y-9539214D01*
X8124357Y-9539214D01*
X8152928Y-9553500D01*
X8167214Y-9567786D01*
X8181500Y-9596357D01*
X8181500Y-9682072D01*
X8167214Y-9710643D01*
X8152928Y-9724929D01*
X8124357Y-9739214D01*
X8067214Y-9739214D01*
X8038643Y-9724929D01*
X8310071Y-9710643D02*
X8324357Y-9724929D01*
X8310071Y-9739214D01*
X8295786Y-9724929D01*
X8310071Y-9710643D01*
X8310071Y-9739214D01*
X8310071Y-9553500D02*
X8324357Y-9567786D01*
X8310071Y-9582072D01*
X8295786Y-9567786D01*
X8310071Y-9553500D01*
X8310071Y-9582072D01*
X5891500Y-10196000D02*
X5966500Y-10271000D01*
X5966500Y-10196000D02*
X5891500Y-10271000D01*
X6310071Y-10069214D02*
X6338643Y-10069214D01*
X6367214Y-10083500D01*
X6381500Y-10097786D01*
X6395786Y-10126357D01*
X6410071Y-10183500D01*
X6410071Y-10254929D01*
X6395786Y-10312072D01*
X6381500Y-10340643D01*
X6367214Y-10354929D01*
X6338643Y-10369214D01*
X6310071Y-10369214D01*
X6281500Y-10354929D01*
X6267214Y-10340643D01*
X6252928Y-10312072D01*
X6238643Y-10254929D01*
X6238643Y-10183500D01*
X6252928Y-10126357D01*
X6267214Y-10097786D01*
X6281500Y-10083500D01*
X6310071Y-10069214D01*
X6538643Y-10340643D02*
X6552928Y-10354929D01*
X6538643Y-10369214D01*
X6524357Y-10354929D01*
X6538643Y-10340643D01*
X6538643Y-10369214D01*
X6652928Y-10069214D02*
X6852928Y-10069214D01*
X6724357Y-10369214D01*
X7110071Y-10069214D02*
X6967214Y-10069214D01*
X6952928Y-10212072D01*
X6967214Y-10197786D01*
X6995786Y-10183500D01*
X7067214Y-10183500D01*
X7095786Y-10197786D01*
X7110071Y-10212072D01*
X7124357Y-10240643D01*
X7124357Y-10312072D01*
X7110071Y-10340643D01*
X7095786Y-10354929D01*
X7067214Y-10369214D01*
X6995786Y-10369214D01*
X6967214Y-10354929D01*
X6952928Y-10340643D01*
X7310071Y-10069214D02*
X7338643Y-10069214D01*
X7367214Y-10083500D01*
X7381500Y-10097786D01*
X7395786Y-10126357D01*
X7410071Y-10183500D01*
X7410071Y-10254929D01*
X7395786Y-10312072D01*
X7381500Y-10340643D01*
X7367214Y-10354929D01*
X7338643Y-10369214D01*
X7310071Y-10369214D01*
X7281500Y-10354929D01*
X7267214Y-10340643D01*
X7252928Y-10312072D01*
X7238643Y-10254929D01*
X7238643Y-10183500D01*
X7252928Y-10126357D01*
X7267214Y-10097786D01*
X7281500Y-10083500D01*
X7310071Y-10069214D01*
X7538643Y-10369214D02*
X7538643Y-10169214D01*
X7538643Y-10197786D02*
X7552928Y-10183500D01*
X7581500Y-10169214D01*
X7624357Y-10169214D01*
X7652928Y-10183500D01*
X7667214Y-10212072D01*
X7667214Y-10369214D01*
X7667214Y-10212072D02*
X7681500Y-10183500D01*
X7710071Y-10169214D01*
X7752928Y-10169214D01*
X7781500Y-10183500D01*
X7795786Y-10212072D01*
X7795786Y-10369214D01*
X7938643Y-10369214D02*
X7938643Y-10169214D01*
X7938643Y-10197786D02*
X7952928Y-10183500D01*
X7981500Y-10169214D01*
X8024357Y-10169214D01*
X8052928Y-10183500D01*
X8067214Y-10212072D01*
X8067214Y-10369214D01*
X8067214Y-10212072D02*
X8081500Y-10183500D01*
X8110071Y-10169214D01*
X8152928Y-10169214D01*
X8181500Y-10183500D01*
X8195786Y-10212072D01*
X8195786Y-10369214D01*
X8781500Y-10054929D02*
X8524357Y-10440643D01*
X9167214Y-10069214D02*
X9195786Y-10069214D01*
X9224357Y-10083500D01*
X9238643Y-10097786D01*
X9252928Y-10126357D01*
X9267214Y-10183500D01*
X9267214Y-10254929D01*
X9252928Y-10312072D01*
X9238643Y-10340643D01*
X9224357Y-10354929D01*
X9195786Y-10369214D01*
X9167214Y-10369214D01*
X9138643Y-10354929D01*
X9124357Y-10340643D01*
X9110071Y-10312072D01*
X9095786Y-10254929D01*
X9095786Y-10183500D01*
X9110071Y-10126357D01*
X9124357Y-10097786D01*
X9138643Y-10083500D01*
X9167214Y-10069214D01*
X9395786Y-10340643D02*
X9410071Y-10354929D01*
X9395786Y-10369214D01*
X9381500Y-10354929D01*
X9395786Y-10340643D01*
X9395786Y-10369214D01*
X9595786Y-10069214D02*
X9624357Y-10069214D01*
X9652928Y-10083500D01*
X9667214Y-10097786D01*
X9681500Y-10126357D01*
X9695786Y-10183500D01*
X9695786Y-10254929D01*
X9681500Y-10312072D01*
X9667214Y-10340643D01*
X9652928Y-10354929D01*
X9624357Y-10369214D01*
X9595786Y-10369214D01*
X9567214Y-10354929D01*
X9552928Y-10340643D01*
X9538643Y-10312072D01*
X9524357Y-10254929D01*
X9524357Y-10183500D01*
X9538643Y-10126357D01*
X9552928Y-10097786D01*
X9567214Y-10083500D01*
X9595786Y-10069214D01*
X9810071Y-10097786D02*
X9824357Y-10083500D01*
X9852928Y-10069214D01*
X9924357Y-10069214D01*
X9952928Y-10083500D01*
X9967214Y-10097786D01*
X9981500Y-10126357D01*
X9981500Y-10154929D01*
X9967214Y-10197786D01*
X9795786Y-10369214D01*
X9981500Y-10369214D01*
X10124357Y-10369214D02*
X10181500Y-10369214D01*
X10210071Y-10354929D01*
X10224357Y-10340643D01*
X10252928Y-10297786D01*
X10267214Y-10240643D01*
X10267214Y-10126357D01*
X10252928Y-10097786D01*
X10238643Y-10083500D01*
X10210071Y-10069214D01*
X10152928Y-10069214D01*
X10124357Y-10083500D01*
X10110071Y-10097786D01*
X10095786Y-10126357D01*
X10095786Y-10197786D01*
X10110071Y-10226357D01*
X10124357Y-10240643D01*
X10152928Y-10254929D01*
X10210071Y-10254929D01*
X10238643Y-10240643D01*
X10252928Y-10226357D01*
X10267214Y-10197786D01*
X10538643Y-10069214D02*
X10395786Y-10069214D01*
X10381500Y-10212072D01*
X10395786Y-10197786D01*
X10424357Y-10183500D01*
X10495786Y-10183500D01*
X10524357Y-10197786D01*
X10538643Y-10212072D01*
X10552928Y-10240643D01*
X10552928Y-10312072D01*
X10538643Y-10340643D01*
X10524357Y-10354929D01*
X10495786Y-10369214D01*
X10424357Y-10369214D01*
X10395786Y-10354929D01*
X10381500Y-10340643D01*
X10667214Y-10069214D02*
X10667214Y-10126357D01*
X10781500Y-10069214D02*
X10781500Y-10126357D01*
X11224357Y-10483500D02*
X11210071Y-10469214D01*
X11181500Y-10426357D01*
X11167214Y-10397786D01*
X11152928Y-10354929D01*
X11138643Y-10283500D01*
X11138643Y-10226357D01*
X11152928Y-10154929D01*
X11167214Y-10112072D01*
X11181500Y-10083500D01*
X11210071Y-10040643D01*
X11224357Y-10026357D01*
X11467214Y-10069214D02*
X11410071Y-10069214D01*
X11381500Y-10083500D01*
X11367214Y-10097786D01*
X11338643Y-10140643D01*
X11324357Y-10197786D01*
X11324357Y-10312072D01*
X11338643Y-10340643D01*
X11352928Y-10354929D01*
X11381500Y-10369214D01*
X11438643Y-10369214D01*
X11467214Y-10354929D01*
X11481500Y-10340643D01*
X11495786Y-10312072D01*
X11495786Y-10240643D01*
X11481500Y-10212072D01*
X11467214Y-10197786D01*
X11438643Y-10183500D01*
X11381500Y-10183500D01*
X11352928Y-10197786D01*
X11338643Y-10212072D01*
X11324357Y-10240643D01*
X11852928Y-10369214D02*
X11852928Y-10069214D01*
X11981500Y-10369214D02*
X11981500Y-10212072D01*
X11967214Y-10183500D01*
X11938643Y-10169214D01*
X11895786Y-10169214D01*
X11867214Y-10183500D01*
X11852928Y-10197786D01*
X12167214Y-10369214D02*
X12138643Y-10354929D01*
X12124357Y-10340643D01*
X12110071Y-10312072D01*
X12110071Y-10226357D01*
X12124357Y-10197786D01*
X12138643Y-10183500D01*
X12167214Y-10169214D01*
X12210071Y-10169214D01*
X12238643Y-10183500D01*
X12252928Y-10197786D01*
X12267214Y-10226357D01*
X12267214Y-10312072D01*
X12252928Y-10340643D01*
X12238643Y-10354929D01*
X12210071Y-10369214D01*
X12167214Y-10369214D01*
X12438643Y-10369214D02*
X12410071Y-10354929D01*
X12395786Y-10326357D01*
X12395786Y-10069214D01*
X12667214Y-10354929D02*
X12638643Y-10369214D01*
X12581500Y-10369214D01*
X12552928Y-10354929D01*
X12538643Y-10326357D01*
X12538643Y-10212072D01*
X12552928Y-10183500D01*
X12581500Y-10169214D01*
X12638643Y-10169214D01*
X12667214Y-10183500D01*
X12681500Y-10212072D01*
X12681500Y-10240643D01*
X12538643Y-10269214D01*
X12795786Y-10354929D02*
X12824357Y-10369214D01*
X12881500Y-10369214D01*
X12910071Y-10354929D01*
X12924357Y-10326357D01*
X12924357Y-10312072D01*
X12910071Y-10283500D01*
X12881500Y-10269214D01*
X12838643Y-10269214D01*
X12810071Y-10254929D01*
X12795786Y-10226357D01*
X12795786Y-10212072D01*
X12810071Y-10183500D01*
X12838643Y-10169214D01*
X12881500Y-10169214D01*
X12910071Y-10183500D01*
X13024357Y-10483500D02*
X13038643Y-10469214D01*
X13067214Y-10426357D01*
X13081500Y-10397786D01*
X13095786Y-10354929D01*
X13110071Y-10283500D01*
X13110071Y-10226357D01*
X13095786Y-10154929D01*
X13081500Y-10112072D01*
X13067214Y-10083500D01*
X13038643Y-10040643D01*
X13024357Y-10026357D01*
X5966500Y-10629500D02*
G75*
G03*
X5966500Y-10629500I-40000J0D01*
G01*
X6310071Y-10465214D02*
X6338643Y-10465214D01*
X6367214Y-10479500D01*
X6381500Y-10493786D01*
X6395786Y-10522357D01*
X6410071Y-10579500D01*
X6410071Y-10650929D01*
X6395786Y-10708072D01*
X6381500Y-10736643D01*
X6367214Y-10750929D01*
X6338643Y-10765214D01*
X6310071Y-10765214D01*
X6281500Y-10750929D01*
X6267214Y-10736643D01*
X6252928Y-10708072D01*
X6238643Y-10650929D01*
X6238643Y-10579500D01*
X6252928Y-10522357D01*
X6267214Y-10493786D01*
X6281500Y-10479500D01*
X6310071Y-10465214D01*
X6538643Y-10736643D02*
X6552928Y-10750929D01*
X6538643Y-10765214D01*
X6524357Y-10750929D01*
X6538643Y-10736643D01*
X6538643Y-10765214D01*
X6724357Y-10593786D02*
X6695786Y-10579500D01*
X6681500Y-10565214D01*
X6667214Y-10536643D01*
X6667214Y-10522357D01*
X6681500Y-10493786D01*
X6695786Y-10479500D01*
X6724357Y-10465214D01*
X6781500Y-10465214D01*
X6810071Y-10479500D01*
X6824357Y-10493786D01*
X6838643Y-10522357D01*
X6838643Y-10536643D01*
X6824357Y-10565214D01*
X6810071Y-10579500D01*
X6781500Y-10593786D01*
X6724357Y-10593786D01*
X6695786Y-10608072D01*
X6681500Y-10622357D01*
X6667214Y-10650929D01*
X6667214Y-10708072D01*
X6681500Y-10736643D01*
X6695786Y-10750929D01*
X6724357Y-10765214D01*
X6781500Y-10765214D01*
X6810071Y-10750929D01*
X6824357Y-10736643D01*
X6838643Y-10708072D01*
X6838643Y-10650929D01*
X6824357Y-10622357D01*
X6810071Y-10608072D01*
X6781500Y-10593786D01*
X7024357Y-10465214D02*
X7052928Y-10465214D01*
X7081500Y-10479500D01*
X7095786Y-10493786D01*
X7110071Y-10522357D01*
X7124357Y-10579500D01*
X7124357Y-10650929D01*
X7110071Y-10708072D01*
X7095786Y-10736643D01*
X7081500Y-10750929D01*
X7052928Y-10765214D01*
X7024357Y-10765214D01*
X6995786Y-10750929D01*
X6981500Y-10736643D01*
X6967214Y-10708072D01*
X6952928Y-10650929D01*
X6952928Y-10579500D01*
X6967214Y-10522357D01*
X6981500Y-10493786D01*
X6995786Y-10479500D01*
X7024357Y-10465214D01*
X7310071Y-10465214D02*
X7338643Y-10465214D01*
X7367214Y-10479500D01*
X7381500Y-10493786D01*
X7395786Y-10522357D01*
X7410071Y-10579500D01*
X7410071Y-10650929D01*
X7395786Y-10708072D01*
X7381500Y-10736643D01*
X7367214Y-10750929D01*
X7338643Y-10765214D01*
X7310071Y-10765214D01*
X7281500Y-10750929D01*
X7267214Y-10736643D01*
X7252928Y-10708072D01*
X7238643Y-10650929D01*
X7238643Y-10579500D01*
X7252928Y-10522357D01*
X7267214Y-10493786D01*
X7281500Y-10479500D01*
X7310071Y-10465214D01*
X7538643Y-10765214D02*
X7538643Y-10565214D01*
X7538643Y-10593786D02*
X7552928Y-10579500D01*
X7581500Y-10565214D01*
X7624357Y-10565214D01*
X7652928Y-10579500D01*
X7667214Y-10608072D01*
X7667214Y-10765214D01*
X7667214Y-10608072D02*
X7681500Y-10579500D01*
X7710071Y-10565214D01*
X7752928Y-10565214D01*
X7781500Y-10579500D01*
X7795786Y-10608072D01*
X7795786Y-10765214D01*
X7938643Y-10765214D02*
X7938643Y-10565214D01*
X7938643Y-10593786D02*
X7952928Y-10579500D01*
X7981500Y-10565214D01*
X8024357Y-10565214D01*
X8052928Y-10579500D01*
X8067214Y-10608072D01*
X8067214Y-10765214D01*
X8067214Y-10608072D02*
X8081500Y-10579500D01*
X8110071Y-10565214D01*
X8152928Y-10565214D01*
X8181500Y-10579500D01*
X8195786Y-10608072D01*
X8195786Y-10765214D01*
X8781500Y-10450929D02*
X8524357Y-10836643D01*
X9167214Y-10465214D02*
X9195786Y-10465214D01*
X9224357Y-10479500D01*
X9238643Y-10493786D01*
X9252928Y-10522357D01*
X9267214Y-10579500D01*
X9267214Y-10650929D01*
X9252928Y-10708072D01*
X9238643Y-10736643D01*
X9224357Y-10750929D01*
X9195786Y-10765214D01*
X9167214Y-10765214D01*
X9138643Y-10750929D01*
X9124357Y-10736643D01*
X9110071Y-10708072D01*
X9095786Y-10650929D01*
X9095786Y-10579500D01*
X9110071Y-10522357D01*
X9124357Y-10493786D01*
X9138643Y-10479500D01*
X9167214Y-10465214D01*
X9395786Y-10736643D02*
X9410071Y-10750929D01*
X9395786Y-10765214D01*
X9381500Y-10750929D01*
X9395786Y-10736643D01*
X9395786Y-10765214D01*
X9595786Y-10465214D02*
X9624357Y-10465214D01*
X9652928Y-10479500D01*
X9667214Y-10493786D01*
X9681500Y-10522357D01*
X9695786Y-10579500D01*
X9695786Y-10650929D01*
X9681500Y-10708072D01*
X9667214Y-10736643D01*
X9652928Y-10750929D01*
X9624357Y-10765214D01*
X9595786Y-10765214D01*
X9567214Y-10750929D01*
X9552928Y-10736643D01*
X9538643Y-10708072D01*
X9524357Y-10650929D01*
X9524357Y-10579500D01*
X9538643Y-10522357D01*
X9552928Y-10493786D01*
X9567214Y-10479500D01*
X9595786Y-10465214D01*
X9795786Y-10465214D02*
X9981500Y-10465214D01*
X9881500Y-10579500D01*
X9924357Y-10579500D01*
X9952928Y-10593786D01*
X9967214Y-10608072D01*
X9981500Y-10636643D01*
X9981500Y-10708072D01*
X9967214Y-10736643D01*
X9952928Y-10750929D01*
X9924357Y-10765214D01*
X9838643Y-10765214D01*
X9810071Y-10750929D01*
X9795786Y-10736643D01*
X10267214Y-10765214D02*
X10095786Y-10765214D01*
X10181500Y-10765214D02*
X10181500Y-10465214D01*
X10152928Y-10508072D01*
X10124357Y-10536643D01*
X10095786Y-10550929D01*
X10538643Y-10465214D02*
X10395786Y-10465214D01*
X10381500Y-10608072D01*
X10395786Y-10593786D01*
X10424357Y-10579500D01*
X10495786Y-10579500D01*
X10524357Y-10593786D01*
X10538643Y-10608072D01*
X10552928Y-10636643D01*
X10552928Y-10708072D01*
X10538643Y-10736643D01*
X10524357Y-10750929D01*
X10495786Y-10765214D01*
X10424357Y-10765214D01*
X10395786Y-10750929D01*
X10381500Y-10736643D01*
X10667214Y-10465214D02*
X10667214Y-10522357D01*
X10781500Y-10465214D02*
X10781500Y-10522357D01*
X11224357Y-10879500D02*
X11210071Y-10865214D01*
X11181500Y-10822357D01*
X11167214Y-10793786D01*
X11152928Y-10750929D01*
X11138643Y-10679500D01*
X11138643Y-10622357D01*
X11152928Y-10550929D01*
X11167214Y-10508072D01*
X11181500Y-10479500D01*
X11210071Y-10436643D01*
X11224357Y-10422357D01*
X11467214Y-10465214D02*
X11410071Y-10465214D01*
X11381500Y-10479500D01*
X11367214Y-10493786D01*
X11338643Y-10536643D01*
X11324357Y-10593786D01*
X11324357Y-10708072D01*
X11338643Y-10736643D01*
X11352928Y-10750929D01*
X11381500Y-10765214D01*
X11438643Y-10765214D01*
X11467214Y-10750929D01*
X11481500Y-10736643D01*
X11495786Y-10708072D01*
X11495786Y-10636643D01*
X11481500Y-10608072D01*
X11467214Y-10593786D01*
X11438643Y-10579500D01*
X11381500Y-10579500D01*
X11352928Y-10593786D01*
X11338643Y-10608072D01*
X11324357Y-10636643D01*
X11595786Y-10465214D02*
X11795786Y-10465214D01*
X11667214Y-10765214D01*
X12138643Y-10765214D02*
X12138643Y-10465214D01*
X12267214Y-10765214D02*
X12267214Y-10608072D01*
X12252928Y-10579500D01*
X12224357Y-10565214D01*
X12181500Y-10565214D01*
X12152928Y-10579500D01*
X12138643Y-10593786D01*
X12452928Y-10765214D02*
X12424357Y-10750929D01*
X12410071Y-10736643D01*
X12395786Y-10708072D01*
X12395786Y-10622357D01*
X12410071Y-10593786D01*
X12424357Y-10579500D01*
X12452928Y-10565214D01*
X12495786Y-10565214D01*
X12524357Y-10579500D01*
X12538643Y-10593786D01*
X12552928Y-10622357D01*
X12552928Y-10708072D01*
X12538643Y-10736643D01*
X12524357Y-10750929D01*
X12495786Y-10765214D01*
X12452928Y-10765214D01*
X12724357Y-10765214D02*
X12695786Y-10750929D01*
X12681500Y-10722357D01*
X12681500Y-10465214D01*
X12952928Y-10750929D02*
X12924357Y-10765214D01*
X12867214Y-10765214D01*
X12838643Y-10750929D01*
X12824357Y-10722357D01*
X12824357Y-10608072D01*
X12838643Y-10579500D01*
X12867214Y-10565214D01*
X12924357Y-10565214D01*
X12952928Y-10579500D01*
X12967214Y-10608072D01*
X12967214Y-10636643D01*
X12824357Y-10665214D01*
X13081500Y-10750929D02*
X13110071Y-10765214D01*
X13167214Y-10765214D01*
X13195786Y-10750929D01*
X13210071Y-10722357D01*
X13210071Y-10708072D01*
X13195786Y-10679500D01*
X13167214Y-10665214D01*
X13124357Y-10665214D01*
X13095786Y-10650929D01*
X13081500Y-10622357D01*
X13081500Y-10608072D01*
X13095786Y-10579500D01*
X13124357Y-10565214D01*
X13167214Y-10565214D01*
X13195786Y-10579500D01*
X13310071Y-10879500D02*
X13324357Y-10865214D01*
X13352928Y-10822357D01*
X13367214Y-10793786D01*
X13381500Y-10750929D01*
X13395786Y-10679500D01*
X13395786Y-10622357D01*
X13381500Y-10550929D01*
X13367214Y-10508072D01*
X13352928Y-10479500D01*
X13324357Y-10436643D01*
X13310071Y-10422357D01*
X5916500Y-10975500D02*
X5916500Y-11075500D01*
X5866500Y-11025500D02*
X5966500Y-11025500D01*
X6410071Y-11161214D02*
X6238643Y-11161214D01*
X6324357Y-11161214D02*
X6324357Y-10861214D01*
X6295786Y-10904072D01*
X6267214Y-10932643D01*
X6238643Y-10946929D01*
X6538643Y-11132643D02*
X6552928Y-11146929D01*
X6538643Y-11161214D01*
X6524357Y-11146929D01*
X6538643Y-11132643D01*
X6538643Y-11161214D01*
X6738643Y-10861214D02*
X6767214Y-10861214D01*
X6795786Y-10875500D01*
X6810071Y-10889786D01*
X6824357Y-10918357D01*
X6838643Y-10975500D01*
X6838643Y-11046929D01*
X6824357Y-11104072D01*
X6810071Y-11132643D01*
X6795786Y-11146929D01*
X6767214Y-11161214D01*
X6738643Y-11161214D01*
X6710071Y-11146929D01*
X6695786Y-11132643D01*
X6681500Y-11104072D01*
X6667214Y-11046929D01*
X6667214Y-10975500D01*
X6681500Y-10918357D01*
X6695786Y-10889786D01*
X6710071Y-10875500D01*
X6738643Y-10861214D01*
X7024357Y-10861214D02*
X7052928Y-10861214D01*
X7081500Y-10875500D01*
X7095786Y-10889786D01*
X7110071Y-10918357D01*
X7124357Y-10975500D01*
X7124357Y-11046929D01*
X7110071Y-11104072D01*
X7095786Y-11132643D01*
X7081500Y-11146929D01*
X7052928Y-11161214D01*
X7024357Y-11161214D01*
X6995786Y-11146929D01*
X6981500Y-11132643D01*
X6967214Y-11104072D01*
X6952928Y-11046929D01*
X6952928Y-10975500D01*
X6967214Y-10918357D01*
X6981500Y-10889786D01*
X6995786Y-10875500D01*
X7024357Y-10861214D01*
X7310071Y-10861214D02*
X7338643Y-10861214D01*
X7367214Y-10875500D01*
X7381500Y-10889786D01*
X7395786Y-10918357D01*
X7410071Y-10975500D01*
X7410071Y-11046929D01*
X7395786Y-11104072D01*
X7381500Y-11132643D01*
X7367214Y-11146929D01*
X7338643Y-11161214D01*
X7310071Y-11161214D01*
X7281500Y-11146929D01*
X7267214Y-11132643D01*
X7252928Y-11104072D01*
X7238643Y-11046929D01*
X7238643Y-10975500D01*
X7252928Y-10918357D01*
X7267214Y-10889786D01*
X7281500Y-10875500D01*
X7310071Y-10861214D01*
X7538643Y-11161214D02*
X7538643Y-10961214D01*
X7538643Y-10989786D02*
X7552928Y-10975500D01*
X7581500Y-10961214D01*
X7624357Y-10961214D01*
X7652928Y-10975500D01*
X7667214Y-11004072D01*
X7667214Y-11161214D01*
X7667214Y-11004072D02*
X7681500Y-10975500D01*
X7710071Y-10961214D01*
X7752928Y-10961214D01*
X7781500Y-10975500D01*
X7795786Y-11004072D01*
X7795786Y-11161214D01*
X7938643Y-11161214D02*
X7938643Y-10961214D01*
X7938643Y-10989786D02*
X7952928Y-10975500D01*
X7981500Y-10961214D01*
X8024357Y-10961214D01*
X8052928Y-10975500D01*
X8067214Y-11004072D01*
X8067214Y-11161214D01*
X8067214Y-11004072D02*
X8081500Y-10975500D01*
X8110071Y-10961214D01*
X8152928Y-10961214D01*
X8181500Y-10975500D01*
X8195786Y-11004072D01*
X8195786Y-11161214D01*
X8781500Y-10846929D02*
X8524357Y-11232643D01*
X9167214Y-10861214D02*
X9195786Y-10861214D01*
X9224357Y-10875500D01*
X9238643Y-10889786D01*
X9252928Y-10918357D01*
X9267214Y-10975500D01*
X9267214Y-11046929D01*
X9252928Y-11104072D01*
X9238643Y-11132643D01*
X9224357Y-11146929D01*
X9195786Y-11161214D01*
X9167214Y-11161214D01*
X9138643Y-11146929D01*
X9124357Y-11132643D01*
X9110071Y-11104072D01*
X9095786Y-11046929D01*
X9095786Y-10975500D01*
X9110071Y-10918357D01*
X9124357Y-10889786D01*
X9138643Y-10875500D01*
X9167214Y-10861214D01*
X9395786Y-11132643D02*
X9410071Y-11146929D01*
X9395786Y-11161214D01*
X9381500Y-11146929D01*
X9395786Y-11132643D01*
X9395786Y-11161214D01*
X9595786Y-10861214D02*
X9624357Y-10861214D01*
X9652928Y-10875500D01*
X9667214Y-10889786D01*
X9681500Y-10918357D01*
X9695786Y-10975500D01*
X9695786Y-11046929D01*
X9681500Y-11104072D01*
X9667214Y-11132643D01*
X9652928Y-11146929D01*
X9624357Y-11161214D01*
X9595786Y-11161214D01*
X9567214Y-11146929D01*
X9552928Y-11132643D01*
X9538643Y-11104072D01*
X9524357Y-11046929D01*
X9524357Y-10975500D01*
X9538643Y-10918357D01*
X9552928Y-10889786D01*
X9567214Y-10875500D01*
X9595786Y-10861214D01*
X9795786Y-10861214D02*
X9981500Y-10861214D01*
X9881500Y-10975500D01*
X9924357Y-10975500D01*
X9952928Y-10989786D01*
X9967214Y-11004072D01*
X9981500Y-11032643D01*
X9981500Y-11104072D01*
X9967214Y-11132643D01*
X9952928Y-11146929D01*
X9924357Y-11161214D01*
X9838643Y-11161214D01*
X9810071Y-11146929D01*
X9795786Y-11132643D01*
X10124357Y-11161214D02*
X10181500Y-11161214D01*
X10210071Y-11146929D01*
X10224357Y-11132643D01*
X10252928Y-11089786D01*
X10267214Y-11032643D01*
X10267214Y-10918357D01*
X10252928Y-10889786D01*
X10238643Y-10875500D01*
X10210071Y-10861214D01*
X10152928Y-10861214D01*
X10124357Y-10875500D01*
X10110071Y-10889786D01*
X10095786Y-10918357D01*
X10095786Y-10989786D01*
X10110071Y-11018357D01*
X10124357Y-11032643D01*
X10152928Y-11046929D01*
X10210071Y-11046929D01*
X10238643Y-11032643D01*
X10252928Y-11018357D01*
X10267214Y-10989786D01*
X10524357Y-10961214D02*
X10524357Y-11161214D01*
X10452928Y-10846929D02*
X10381500Y-11061214D01*
X10567214Y-11061214D01*
X10667214Y-10861214D02*
X10667214Y-10918357D01*
X10781500Y-10861214D02*
X10781500Y-10918357D01*
X11224357Y-11275500D02*
X11210071Y-11261214D01*
X11181500Y-11218357D01*
X11167214Y-11189786D01*
X11152928Y-11146929D01*
X11138643Y-11075500D01*
X11138643Y-11018357D01*
X11152928Y-10946929D01*
X11167214Y-10904072D01*
X11181500Y-10875500D01*
X11210071Y-10832643D01*
X11224357Y-10818357D01*
X11352928Y-11161214D02*
X11410071Y-11161214D01*
X11438643Y-11146929D01*
X11452928Y-11132643D01*
X11481500Y-11089786D01*
X11495786Y-11032643D01*
X11495786Y-10918357D01*
X11481500Y-10889786D01*
X11467214Y-10875500D01*
X11438643Y-10861214D01*
X11381500Y-10861214D01*
X11352928Y-10875500D01*
X11338643Y-10889786D01*
X11324357Y-10918357D01*
X11324357Y-10989786D01*
X11338643Y-11018357D01*
X11352928Y-11032643D01*
X11381500Y-11046929D01*
X11438643Y-11046929D01*
X11467214Y-11032643D01*
X11481500Y-11018357D01*
X11495786Y-10989786D01*
X11852928Y-11161214D02*
X11852928Y-10861214D01*
X11981500Y-11161214D02*
X11981500Y-11004072D01*
X11967214Y-10975500D01*
X11938643Y-10961214D01*
X11895786Y-10961214D01*
X11867214Y-10975500D01*
X11852928Y-10989786D01*
X12167214Y-11161214D02*
X12138643Y-11146929D01*
X12124357Y-11132643D01*
X12110071Y-11104072D01*
X12110071Y-11018357D01*
X12124357Y-10989786D01*
X12138643Y-10975500D01*
X12167214Y-10961214D01*
X12210071Y-10961214D01*
X12238643Y-10975500D01*
X12252928Y-10989786D01*
X12267214Y-11018357D01*
X12267214Y-11104072D01*
X12252928Y-11132643D01*
X12238643Y-11146929D01*
X12210071Y-11161214D01*
X12167214Y-11161214D01*
X12438643Y-11161214D02*
X12410071Y-11146929D01*
X12395786Y-11118357D01*
X12395786Y-10861214D01*
X12667214Y-11146929D02*
X12638643Y-11161214D01*
X12581500Y-11161214D01*
X12552928Y-11146929D01*
X12538643Y-11118357D01*
X12538643Y-11004072D01*
X12552928Y-10975500D01*
X12581500Y-10961214D01*
X12638643Y-10961214D01*
X12667214Y-10975500D01*
X12681500Y-11004072D01*
X12681500Y-11032643D01*
X12538643Y-11061214D01*
X12795786Y-11146929D02*
X12824357Y-11161214D01*
X12881500Y-11161214D01*
X12910071Y-11146929D01*
X12924357Y-11118357D01*
X12924357Y-11104072D01*
X12910071Y-11075500D01*
X12881500Y-11061214D01*
X12838643Y-11061214D01*
X12810071Y-11046929D01*
X12795786Y-11018357D01*
X12795786Y-11004072D01*
X12810071Y-10975500D01*
X12838643Y-10961214D01*
X12881500Y-10961214D01*
X12910071Y-10975500D01*
X13024357Y-11275500D02*
X13038643Y-11261214D01*
X13067214Y-11218357D01*
X13081500Y-11189786D01*
X13095786Y-11146929D01*
X13110071Y-11075500D01*
X13110071Y-11018357D01*
X13095786Y-10946929D01*
X13081500Y-10904072D01*
X13067214Y-10875500D01*
X13038643Y-10832643D01*
X13024357Y-10818357D01*
X5950391Y-11460391D02*
X5950391Y-11382609D01*
X5872609Y-11382609D01*
X5872609Y-11460391D01*
X5950391Y-11460391D01*
X6410071Y-11557214D02*
X6238643Y-11557214D01*
X6324357Y-11557214D02*
X6324357Y-11257214D01*
X6295786Y-11300071D01*
X6267214Y-11328643D01*
X6238643Y-11342929D01*
X6538643Y-11528643D02*
X6552928Y-11542929D01*
X6538643Y-11557214D01*
X6524357Y-11542929D01*
X6538643Y-11528643D01*
X6538643Y-11557214D01*
X6838643Y-11557214D02*
X6667214Y-11557214D01*
X6752928Y-11557214D02*
X6752928Y-11257214D01*
X6724357Y-11300071D01*
X6695786Y-11328643D01*
X6667214Y-11342929D01*
X7024357Y-11257214D02*
X7052928Y-11257214D01*
X7081500Y-11271500D01*
X7095786Y-11285786D01*
X7110071Y-11314357D01*
X7124357Y-11371500D01*
X7124357Y-11442929D01*
X7110071Y-11500071D01*
X7095786Y-11528643D01*
X7081500Y-11542929D01*
X7052928Y-11557214D01*
X7024357Y-11557214D01*
X6995786Y-11542929D01*
X6981500Y-11528643D01*
X6967214Y-11500071D01*
X6952928Y-11442929D01*
X6952928Y-11371500D01*
X6967214Y-11314357D01*
X6981500Y-11285786D01*
X6995786Y-11271500D01*
X7024357Y-11257214D01*
X7310071Y-11257214D02*
X7338643Y-11257214D01*
X7367214Y-11271500D01*
X7381500Y-11285786D01*
X7395786Y-11314357D01*
X7410071Y-11371500D01*
X7410071Y-11442929D01*
X7395786Y-11500071D01*
X7381500Y-11528643D01*
X7367214Y-11542929D01*
X7338643Y-11557214D01*
X7310071Y-11557214D01*
X7281500Y-11542929D01*
X7267214Y-11528643D01*
X7252928Y-11500071D01*
X7238643Y-11442929D01*
X7238643Y-11371500D01*
X7252928Y-11314357D01*
X7267214Y-11285786D01*
X7281500Y-11271500D01*
X7310071Y-11257214D01*
X7538643Y-11557214D02*
X7538643Y-11357214D01*
X7538643Y-11385786D02*
X7552928Y-11371500D01*
X7581500Y-11357214D01*
X7624357Y-11357214D01*
X7652928Y-11371500D01*
X7667214Y-11400071D01*
X7667214Y-11557214D01*
X7667214Y-11400071D02*
X7681500Y-11371500D01*
X7710071Y-11357214D01*
X7752928Y-11357214D01*
X7781500Y-11371500D01*
X7795786Y-11400071D01*
X7795786Y-11557214D01*
X7938643Y-11557214D02*
X7938643Y-11357214D01*
X7938643Y-11385786D02*
X7952928Y-11371500D01*
X7981500Y-11357214D01*
X8024357Y-11357214D01*
X8052928Y-11371500D01*
X8067214Y-11400071D01*
X8067214Y-11557214D01*
X8067214Y-11400071D02*
X8081500Y-11371500D01*
X8110071Y-11357214D01*
X8152928Y-11357214D01*
X8181500Y-11371500D01*
X8195786Y-11400071D01*
X8195786Y-11557214D01*
X8781500Y-11242929D02*
X8524357Y-11628643D01*
X9167214Y-11257214D02*
X9195786Y-11257214D01*
X9224357Y-11271500D01*
X9238643Y-11285786D01*
X9252928Y-11314357D01*
X9267214Y-11371500D01*
X9267214Y-11442929D01*
X9252928Y-11500071D01*
X9238643Y-11528643D01*
X9224357Y-11542929D01*
X9195786Y-11557214D01*
X9167214Y-11557214D01*
X9138643Y-11542929D01*
X9124357Y-11528643D01*
X9110071Y-11500071D01*
X9095786Y-11442929D01*
X9095786Y-11371500D01*
X9110071Y-11314357D01*
X9124357Y-11285786D01*
X9138643Y-11271500D01*
X9167214Y-11257214D01*
X9395786Y-11528643D02*
X9410071Y-11542929D01*
X9395786Y-11557214D01*
X9381500Y-11542929D01*
X9395786Y-11528643D01*
X9395786Y-11557214D01*
X9595786Y-11257214D02*
X9624357Y-11257214D01*
X9652928Y-11271500D01*
X9667214Y-11285786D01*
X9681500Y-11314357D01*
X9695786Y-11371500D01*
X9695786Y-11442929D01*
X9681500Y-11500071D01*
X9667214Y-11528643D01*
X9652928Y-11542929D01*
X9624357Y-11557214D01*
X9595786Y-11557214D01*
X9567214Y-11542929D01*
X9552928Y-11528643D01*
X9538643Y-11500071D01*
X9524357Y-11442929D01*
X9524357Y-11371500D01*
X9538643Y-11314357D01*
X9552928Y-11285786D01*
X9567214Y-11271500D01*
X9595786Y-11257214D01*
X9952928Y-11357214D02*
X9952928Y-11557214D01*
X9881500Y-11242929D02*
X9810071Y-11457214D01*
X9995786Y-11457214D01*
X10081500Y-11257214D02*
X10267214Y-11257214D01*
X10167214Y-11371500D01*
X10210071Y-11371500D01*
X10238643Y-11385786D01*
X10252928Y-11400071D01*
X10267214Y-11428643D01*
X10267214Y-11500071D01*
X10252928Y-11528643D01*
X10238643Y-11542929D01*
X10210071Y-11557214D01*
X10124357Y-11557214D01*
X10095786Y-11542929D01*
X10081500Y-11528643D01*
X10367214Y-11257214D02*
X10552928Y-11257214D01*
X10452928Y-11371500D01*
X10495786Y-11371500D01*
X10524357Y-11385786D01*
X10538643Y-11400071D01*
X10552928Y-11428643D01*
X10552928Y-11500071D01*
X10538643Y-11528643D01*
X10524357Y-11542929D01*
X10495786Y-11557214D01*
X10410071Y-11557214D01*
X10381500Y-11542929D01*
X10367214Y-11528643D01*
X10667214Y-11257214D02*
X10667214Y-11314357D01*
X10781500Y-11257214D02*
X10781500Y-11314357D01*
X11224357Y-11671500D02*
X11210071Y-11657214D01*
X11181500Y-11614357D01*
X11167214Y-11585786D01*
X11152928Y-11542929D01*
X11138643Y-11471500D01*
X11138643Y-11414357D01*
X11152928Y-11342929D01*
X11167214Y-11300071D01*
X11181500Y-11271500D01*
X11210071Y-11228643D01*
X11224357Y-11214357D01*
X11324357Y-11285786D02*
X11338643Y-11271500D01*
X11367214Y-11257214D01*
X11438643Y-11257214D01*
X11467214Y-11271500D01*
X11481500Y-11285786D01*
X11495786Y-11314357D01*
X11495786Y-11342929D01*
X11481500Y-11385786D01*
X11310071Y-11557214D01*
X11495786Y-11557214D01*
X11681500Y-11257214D02*
X11710071Y-11257214D01*
X11738643Y-11271500D01*
X11752928Y-11285786D01*
X11767214Y-11314357D01*
X11781500Y-11371500D01*
X11781500Y-11442929D01*
X11767214Y-11500071D01*
X11752928Y-11528643D01*
X11738643Y-11542929D01*
X11710071Y-11557214D01*
X11681500Y-11557214D01*
X11652928Y-11542929D01*
X11638643Y-11528643D01*
X11624357Y-11500071D01*
X11610071Y-11442929D01*
X11610071Y-11371500D01*
X11624357Y-11314357D01*
X11638643Y-11285786D01*
X11652928Y-11271500D01*
X11681500Y-11257214D01*
X12138643Y-11557214D02*
X12138643Y-11257214D01*
X12267214Y-11557214D02*
X12267214Y-11400071D01*
X12252928Y-11371500D01*
X12224357Y-11357214D01*
X12181500Y-11357214D01*
X12152928Y-11371500D01*
X12138643Y-11385786D01*
X12452928Y-11557214D02*
X12424357Y-11542929D01*
X12410071Y-11528643D01*
X12395786Y-11500071D01*
X12395786Y-11414357D01*
X12410071Y-11385786D01*
X12424357Y-11371500D01*
X12452928Y-11357214D01*
X12495786Y-11357214D01*
X12524357Y-11371500D01*
X12538643Y-11385786D01*
X12552928Y-11414357D01*
X12552928Y-11500071D01*
X12538643Y-11528643D01*
X12524357Y-11542929D01*
X12495786Y-11557214D01*
X12452928Y-11557214D01*
X12724357Y-11557214D02*
X12695786Y-11542929D01*
X12681500Y-11514357D01*
X12681500Y-11257214D01*
X12952928Y-11542929D02*
X12924357Y-11557214D01*
X12867214Y-11557214D01*
X12838643Y-11542929D01*
X12824357Y-11514357D01*
X12824357Y-11400071D01*
X12838643Y-11371500D01*
X12867214Y-11357214D01*
X12924357Y-11357214D01*
X12952928Y-11371500D01*
X12967214Y-11400071D01*
X12967214Y-11428643D01*
X12824357Y-11457214D01*
X13081500Y-11542929D02*
X13110071Y-11557214D01*
X13167214Y-11557214D01*
X13195786Y-11542929D01*
X13210071Y-11514357D01*
X13210071Y-11500071D01*
X13195786Y-11471500D01*
X13167214Y-11457214D01*
X13124357Y-11457214D01*
X13095786Y-11442929D01*
X13081500Y-11414357D01*
X13081500Y-11400071D01*
X13095786Y-11371500D01*
X13124357Y-11357214D01*
X13167214Y-11357214D01*
X13195786Y-11371500D01*
X13310071Y-11671500D02*
X13324357Y-11657214D01*
X13352928Y-11614357D01*
X13367214Y-11585786D01*
X13381500Y-11542929D01*
X13395786Y-11471500D01*
X13395786Y-11414357D01*
X13381500Y-11342929D01*
X13367214Y-11300071D01*
X13352928Y-11271500D01*
X13324357Y-11228643D01*
X13310071Y-11214357D01*
X5906500Y-11877500D02*
X5966500Y-11817500D01*
X5906500Y-11757500D01*
X5846500Y-11817500D01*
X5906500Y-11877500D01*
X6410071Y-11953214D02*
X6238643Y-11953214D01*
X6324357Y-11953214D02*
X6324357Y-11653214D01*
X6295786Y-11696071D01*
X6267214Y-11724643D01*
X6238643Y-11738929D01*
X6538643Y-11924643D02*
X6552928Y-11938929D01*
X6538643Y-11953214D01*
X6524357Y-11938929D01*
X6538643Y-11924643D01*
X6538643Y-11953214D01*
X6667214Y-11681786D02*
X6681500Y-11667500D01*
X6710071Y-11653214D01*
X6781500Y-11653214D01*
X6810071Y-11667500D01*
X6824357Y-11681786D01*
X6838643Y-11710357D01*
X6838643Y-11738929D01*
X6824357Y-11781786D01*
X6652928Y-11953214D01*
X6838643Y-11953214D01*
X7024357Y-11653214D02*
X7052928Y-11653214D01*
X7081500Y-11667500D01*
X7095786Y-11681786D01*
X7110071Y-11710357D01*
X7124357Y-11767500D01*
X7124357Y-11838929D01*
X7110071Y-11896071D01*
X7095786Y-11924643D01*
X7081500Y-11938929D01*
X7052928Y-11953214D01*
X7024357Y-11953214D01*
X6995786Y-11938929D01*
X6981500Y-11924643D01*
X6967214Y-11896071D01*
X6952928Y-11838929D01*
X6952928Y-11767500D01*
X6967214Y-11710357D01*
X6981500Y-11681786D01*
X6995786Y-11667500D01*
X7024357Y-11653214D01*
X7310071Y-11653214D02*
X7338643Y-11653214D01*
X7367214Y-11667500D01*
X7381500Y-11681786D01*
X7395786Y-11710357D01*
X7410071Y-11767500D01*
X7410071Y-11838929D01*
X7395786Y-11896071D01*
X7381500Y-11924643D01*
X7367214Y-11938929D01*
X7338643Y-11953214D01*
X7310071Y-11953214D01*
X7281500Y-11938929D01*
X7267214Y-11924643D01*
X7252928Y-11896071D01*
X7238643Y-11838929D01*
X7238643Y-11767500D01*
X7252928Y-11710357D01*
X7267214Y-11681786D01*
X7281500Y-11667500D01*
X7310071Y-11653214D01*
X7538643Y-11953214D02*
X7538643Y-11753214D01*
X7538643Y-11781786D02*
X7552928Y-11767500D01*
X7581500Y-11753214D01*
X7624357Y-11753214D01*
X7652928Y-11767500D01*
X7667214Y-11796071D01*
X7667214Y-11953214D01*
X7667214Y-11796071D02*
X7681500Y-11767500D01*
X7710071Y-11753214D01*
X7752928Y-11753214D01*
X7781500Y-11767500D01*
X7795786Y-11796071D01*
X7795786Y-11953214D01*
X7938643Y-11953214D02*
X7938643Y-11753214D01*
X7938643Y-11781786D02*
X7952928Y-11767500D01*
X7981500Y-11753214D01*
X8024357Y-11753214D01*
X8052928Y-11767500D01*
X8067214Y-11796071D01*
X8067214Y-11953214D01*
X8067214Y-11796071D02*
X8081500Y-11767500D01*
X8110071Y-11753214D01*
X8152928Y-11753214D01*
X8181500Y-11767500D01*
X8195786Y-11796071D01*
X8195786Y-11953214D01*
X8781500Y-11638929D02*
X8524357Y-12024643D01*
X9167214Y-11653214D02*
X9195786Y-11653214D01*
X9224357Y-11667500D01*
X9238643Y-11681786D01*
X9252928Y-11710357D01*
X9267214Y-11767500D01*
X9267214Y-11838929D01*
X9252928Y-11896071D01*
X9238643Y-11924643D01*
X9224357Y-11938929D01*
X9195786Y-11953214D01*
X9167214Y-11953214D01*
X9138643Y-11938929D01*
X9124357Y-11924643D01*
X9110071Y-11896071D01*
X9095786Y-11838929D01*
X9095786Y-11767500D01*
X9110071Y-11710357D01*
X9124357Y-11681786D01*
X9138643Y-11667500D01*
X9167214Y-11653214D01*
X9395786Y-11924643D02*
X9410071Y-11938929D01*
X9395786Y-11953214D01*
X9381500Y-11938929D01*
X9395786Y-11924643D01*
X9395786Y-11953214D01*
X9595786Y-11653214D02*
X9624357Y-11653214D01*
X9652928Y-11667500D01*
X9667214Y-11681786D01*
X9681500Y-11710357D01*
X9695786Y-11767500D01*
X9695786Y-11838929D01*
X9681500Y-11896071D01*
X9667214Y-11924643D01*
X9652928Y-11938929D01*
X9624357Y-11953214D01*
X9595786Y-11953214D01*
X9567214Y-11938929D01*
X9552928Y-11924643D01*
X9538643Y-11896071D01*
X9524357Y-11838929D01*
X9524357Y-11767500D01*
X9538643Y-11710357D01*
X9552928Y-11681786D01*
X9567214Y-11667500D01*
X9595786Y-11653214D01*
X9952928Y-11753214D02*
X9952928Y-11953214D01*
X9881500Y-11638929D02*
X9810071Y-11853214D01*
X9995786Y-11853214D01*
X10081500Y-11653214D02*
X10281500Y-11653214D01*
X10152928Y-11953214D01*
X10381500Y-11681786D02*
X10395786Y-11667500D01*
X10424357Y-11653214D01*
X10495786Y-11653214D01*
X10524357Y-11667500D01*
X10538643Y-11681786D01*
X10552928Y-11710357D01*
X10552928Y-11738929D01*
X10538643Y-11781786D01*
X10367214Y-11953214D01*
X10552928Y-11953214D01*
X10667214Y-11653214D02*
X10667214Y-11710357D01*
X10781500Y-11653214D02*
X10781500Y-11710357D01*
X11224357Y-12067500D02*
X11210071Y-12053214D01*
X11181500Y-12010357D01*
X11167214Y-11981786D01*
X11152928Y-11938929D01*
X11138643Y-11867500D01*
X11138643Y-11810357D01*
X11152928Y-11738929D01*
X11167214Y-11696071D01*
X11181500Y-11667500D01*
X11210071Y-11624643D01*
X11224357Y-11610357D01*
X11324357Y-11681786D02*
X11338643Y-11667500D01*
X11367214Y-11653214D01*
X11438643Y-11653214D01*
X11467214Y-11667500D01*
X11481500Y-11681786D01*
X11495786Y-11710357D01*
X11495786Y-11738929D01*
X11481500Y-11781786D01*
X11310071Y-11953214D01*
X11495786Y-11953214D01*
X11852928Y-11953214D02*
X11852928Y-11653214D01*
X11981500Y-11953214D02*
X11981500Y-11796071D01*
X11967214Y-11767500D01*
X11938643Y-11753214D01*
X11895786Y-11753214D01*
X11867214Y-11767500D01*
X11852928Y-11781786D01*
X12167214Y-11953214D02*
X12138643Y-11938929D01*
X12124357Y-11924643D01*
X12110071Y-11896071D01*
X12110071Y-11810357D01*
X12124357Y-11781786D01*
X12138643Y-11767500D01*
X12167214Y-11753214D01*
X12210071Y-11753214D01*
X12238643Y-11767500D01*
X12252928Y-11781786D01*
X12267214Y-11810357D01*
X12267214Y-11896071D01*
X12252928Y-11924643D01*
X12238643Y-11938929D01*
X12210071Y-11953214D01*
X12167214Y-11953214D01*
X12438643Y-11953214D02*
X12410071Y-11938929D01*
X12395786Y-11910357D01*
X12395786Y-11653214D01*
X12667214Y-11938929D02*
X12638643Y-11953214D01*
X12581500Y-11953214D01*
X12552928Y-11938929D01*
X12538643Y-11910357D01*
X12538643Y-11796071D01*
X12552928Y-11767500D01*
X12581500Y-11753214D01*
X12638643Y-11753214D01*
X12667214Y-11767500D01*
X12681500Y-11796071D01*
X12681500Y-11824643D01*
X12538643Y-11853214D01*
X12795786Y-11938929D02*
X12824357Y-11953214D01*
X12881500Y-11953214D01*
X12910071Y-11938929D01*
X12924357Y-11910357D01*
X12924357Y-11896071D01*
X12910071Y-11867500D01*
X12881500Y-11853214D01*
X12838643Y-11853214D01*
X12810071Y-11838929D01*
X12795786Y-11810357D01*
X12795786Y-11796071D01*
X12810071Y-11767500D01*
X12838643Y-11753214D01*
X12881500Y-11753214D01*
X12910071Y-11767500D01*
X13024357Y-12067500D02*
X13038643Y-12053214D01*
X13067214Y-12010357D01*
X13081500Y-11981786D01*
X13095786Y-11938929D01*
X13110071Y-11867500D01*
X13110071Y-11810357D01*
X13095786Y-11738929D01*
X13081500Y-11696071D01*
X13067214Y-11667500D01*
X13038643Y-11624643D01*
X13024357Y-11610357D01*
X5836500Y-12148500D02*
X5966500Y-12278500D01*
X5966500Y-12148500D02*
X5836500Y-12278500D01*
X5966500Y-12213500D02*
G75*
G03*
X5966500Y-12213500I-65000J0D01*
G01*
X6410071Y-12349214D02*
X6238643Y-12349214D01*
X6324357Y-12349214D02*
X6324357Y-12049214D01*
X6295786Y-12092071D01*
X6267214Y-12120643D01*
X6238643Y-12134929D01*
X6538643Y-12320643D02*
X6552928Y-12334929D01*
X6538643Y-12349214D01*
X6524357Y-12334929D01*
X6538643Y-12320643D01*
X6538643Y-12349214D01*
X6652928Y-12049214D02*
X6838643Y-12049214D01*
X6738643Y-12163500D01*
X6781500Y-12163500D01*
X6810071Y-12177786D01*
X6824357Y-12192071D01*
X6838643Y-12220643D01*
X6838643Y-12292071D01*
X6824357Y-12320643D01*
X6810071Y-12334929D01*
X6781500Y-12349214D01*
X6695786Y-12349214D01*
X6667214Y-12334929D01*
X6652928Y-12320643D01*
X7024357Y-12049214D02*
X7052928Y-12049214D01*
X7081500Y-12063500D01*
X7095786Y-12077786D01*
X7110071Y-12106357D01*
X7124357Y-12163500D01*
X7124357Y-12234929D01*
X7110071Y-12292071D01*
X7095786Y-12320643D01*
X7081500Y-12334929D01*
X7052928Y-12349214D01*
X7024357Y-12349214D01*
X6995786Y-12334929D01*
X6981500Y-12320643D01*
X6967214Y-12292071D01*
X6952928Y-12234929D01*
X6952928Y-12163500D01*
X6967214Y-12106357D01*
X6981500Y-12077786D01*
X6995786Y-12063500D01*
X7024357Y-12049214D01*
X7310071Y-12049214D02*
X7338643Y-12049214D01*
X7367214Y-12063500D01*
X7381500Y-12077786D01*
X7395786Y-12106357D01*
X7410071Y-12163500D01*
X7410071Y-12234929D01*
X7395786Y-12292071D01*
X7381500Y-12320643D01*
X7367214Y-12334929D01*
X7338643Y-12349214D01*
X7310071Y-12349214D01*
X7281500Y-12334929D01*
X7267214Y-12320643D01*
X7252928Y-12292071D01*
X7238643Y-12234929D01*
X7238643Y-12163500D01*
X7252928Y-12106357D01*
X7267214Y-12077786D01*
X7281500Y-12063500D01*
X7310071Y-12049214D01*
X7538643Y-12349214D02*
X7538643Y-12149214D01*
X7538643Y-12177786D02*
X7552928Y-12163500D01*
X7581500Y-12149214D01*
X7624357Y-12149214D01*
X7652928Y-12163500D01*
X7667214Y-12192071D01*
X7667214Y-12349214D01*
X7667214Y-12192071D02*
X7681500Y-12163500D01*
X7710071Y-12149214D01*
X7752928Y-12149214D01*
X7781500Y-12163500D01*
X7795786Y-12192071D01*
X7795786Y-12349214D01*
X7938643Y-12349214D02*
X7938643Y-12149214D01*
X7938643Y-12177786D02*
X7952928Y-12163500D01*
X7981500Y-12149214D01*
X8024357Y-12149214D01*
X8052928Y-12163500D01*
X8067214Y-12192071D01*
X8067214Y-12349214D01*
X8067214Y-12192071D02*
X8081500Y-12163500D01*
X8110071Y-12149214D01*
X8152928Y-12149214D01*
X8181500Y-12163500D01*
X8195786Y-12192071D01*
X8195786Y-12349214D01*
X8781500Y-12034929D02*
X8524357Y-12420643D01*
X9167214Y-12049214D02*
X9195786Y-12049214D01*
X9224357Y-12063500D01*
X9238643Y-12077786D01*
X9252928Y-12106357D01*
X9267214Y-12163500D01*
X9267214Y-12234929D01*
X9252928Y-12292071D01*
X9238643Y-12320643D01*
X9224357Y-12334929D01*
X9195786Y-12349214D01*
X9167214Y-12349214D01*
X9138643Y-12334929D01*
X9124357Y-12320643D01*
X9110071Y-12292071D01*
X9095786Y-12234929D01*
X9095786Y-12163500D01*
X9110071Y-12106357D01*
X9124357Y-12077786D01*
X9138643Y-12063500D01*
X9167214Y-12049214D01*
X9395786Y-12320643D02*
X9410071Y-12334929D01*
X9395786Y-12349214D01*
X9381500Y-12334929D01*
X9395786Y-12320643D01*
X9395786Y-12349214D01*
X9595786Y-12049214D02*
X9624357Y-12049214D01*
X9652928Y-12063500D01*
X9667214Y-12077786D01*
X9681500Y-12106357D01*
X9695786Y-12163500D01*
X9695786Y-12234929D01*
X9681500Y-12292071D01*
X9667214Y-12320643D01*
X9652928Y-12334929D01*
X9624357Y-12349214D01*
X9595786Y-12349214D01*
X9567214Y-12334929D01*
X9552928Y-12320643D01*
X9538643Y-12292071D01*
X9524357Y-12234929D01*
X9524357Y-12163500D01*
X9538643Y-12106357D01*
X9552928Y-12077786D01*
X9567214Y-12063500D01*
X9595786Y-12049214D01*
X9967214Y-12049214D02*
X9824357Y-12049214D01*
X9810071Y-12192071D01*
X9824357Y-12177786D01*
X9852928Y-12163500D01*
X9924357Y-12163500D01*
X9952928Y-12177786D01*
X9967214Y-12192071D01*
X9981500Y-12220643D01*
X9981500Y-12292071D01*
X9967214Y-12320643D01*
X9952928Y-12334929D01*
X9924357Y-12349214D01*
X9852928Y-12349214D01*
X9824357Y-12334929D01*
X9810071Y-12320643D01*
X10267214Y-12349214D02*
X10095786Y-12349214D01*
X10181500Y-12349214D02*
X10181500Y-12049214D01*
X10152928Y-12092071D01*
X10124357Y-12120643D01*
X10095786Y-12134929D01*
X10381500Y-12077786D02*
X10395786Y-12063500D01*
X10424357Y-12049214D01*
X10495786Y-12049214D01*
X10524357Y-12063500D01*
X10538643Y-12077786D01*
X10552928Y-12106357D01*
X10552928Y-12134929D01*
X10538643Y-12177786D01*
X10367214Y-12349214D01*
X10552928Y-12349214D01*
X10667214Y-12049214D02*
X10667214Y-12106357D01*
X10781500Y-12049214D02*
X10781500Y-12106357D01*
X11224357Y-12463500D02*
X11210071Y-12449214D01*
X11181500Y-12406357D01*
X11167214Y-12377786D01*
X11152928Y-12334929D01*
X11138643Y-12263500D01*
X11138643Y-12206357D01*
X11152928Y-12134929D01*
X11167214Y-12092071D01*
X11181500Y-12063500D01*
X11210071Y-12020643D01*
X11224357Y-12006357D01*
X11495786Y-12349214D02*
X11324357Y-12349214D01*
X11410071Y-12349214D02*
X11410071Y-12049214D01*
X11381500Y-12092071D01*
X11352928Y-12120643D01*
X11324357Y-12134929D01*
X11781500Y-12349214D02*
X11610071Y-12349214D01*
X11695786Y-12349214D02*
X11695786Y-12049214D01*
X11667214Y-12092071D01*
X11638643Y-12120643D01*
X11610071Y-12134929D01*
X12138643Y-12349214D02*
X12138643Y-12049214D01*
X12267214Y-12349214D02*
X12267214Y-12192071D01*
X12252928Y-12163500D01*
X12224357Y-12149214D01*
X12181500Y-12149214D01*
X12152928Y-12163500D01*
X12138643Y-12177786D01*
X12452928Y-12349214D02*
X12424357Y-12334929D01*
X12410071Y-12320643D01*
X12395786Y-12292071D01*
X12395786Y-12206357D01*
X12410071Y-12177786D01*
X12424357Y-12163500D01*
X12452928Y-12149214D01*
X12495786Y-12149214D01*
X12524357Y-12163500D01*
X12538643Y-12177786D01*
X12552928Y-12206357D01*
X12552928Y-12292071D01*
X12538643Y-12320643D01*
X12524357Y-12334929D01*
X12495786Y-12349214D01*
X12452928Y-12349214D01*
X12724357Y-12349214D02*
X12695786Y-12334929D01*
X12681500Y-12306357D01*
X12681500Y-12049214D01*
X12952928Y-12334929D02*
X12924357Y-12349214D01*
X12867214Y-12349214D01*
X12838643Y-12334929D01*
X12824357Y-12306357D01*
X12824357Y-12192071D01*
X12838643Y-12163500D01*
X12867214Y-12149214D01*
X12924357Y-12149214D01*
X12952928Y-12163500D01*
X12967214Y-12192071D01*
X12967214Y-12220643D01*
X12824357Y-12249214D01*
X13081500Y-12334929D02*
X13110071Y-12349214D01*
X13167214Y-12349214D01*
X13195786Y-12334929D01*
X13210071Y-12306357D01*
X13210071Y-12292071D01*
X13195786Y-12263500D01*
X13167214Y-12249214D01*
X13124357Y-12249214D01*
X13095786Y-12234929D01*
X13081500Y-12206357D01*
X13081500Y-12192071D01*
X13095786Y-12163500D01*
X13124357Y-12149214D01*
X13167214Y-12149214D01*
X13195786Y-12163500D01*
X13310071Y-12463500D02*
X13324357Y-12449214D01*
X13352928Y-12406357D01*
X13367214Y-12377786D01*
X13381500Y-12334929D01*
X13395786Y-12263500D01*
X13395786Y-12206357D01*
X13381500Y-12134929D01*
X13367214Y-12092071D01*
X13352928Y-12063500D01*
X13324357Y-12020643D01*
X13310071Y-12006357D01*
X5816500Y-12534500D02*
X5966500Y-12684500D01*
X5966500Y-12534500D02*
X5816500Y-12684500D01*
X5891500Y-12534500D02*
X5891500Y-12684500D01*
X5816500Y-12609500D02*
X5966500Y-12609500D01*
X6410071Y-12745214D02*
X6238643Y-12745214D01*
X6324357Y-12745214D02*
X6324357Y-12445214D01*
X6295786Y-12488071D01*
X6267214Y-12516643D01*
X6238643Y-12530929D01*
X6538643Y-12716643D02*
X6552928Y-12730929D01*
X6538643Y-12745214D01*
X6524357Y-12730929D01*
X6538643Y-12716643D01*
X6538643Y-12745214D01*
X6824357Y-12445214D02*
X6681500Y-12445214D01*
X6667214Y-12588071D01*
X6681500Y-12573786D01*
X6710071Y-12559500D01*
X6781500Y-12559500D01*
X6810071Y-12573786D01*
X6824357Y-12588071D01*
X6838643Y-12616643D01*
X6838643Y-12688071D01*
X6824357Y-12716643D01*
X6810071Y-12730929D01*
X6781500Y-12745214D01*
X6710071Y-12745214D01*
X6681500Y-12730929D01*
X6667214Y-12716643D01*
X7024357Y-12445214D02*
X7052928Y-12445214D01*
X7081500Y-12459500D01*
X7095786Y-12473786D01*
X7110071Y-12502357D01*
X7124357Y-12559500D01*
X7124357Y-12630929D01*
X7110071Y-12688071D01*
X7095786Y-12716643D01*
X7081500Y-12730929D01*
X7052928Y-12745214D01*
X7024357Y-12745214D01*
X6995786Y-12730929D01*
X6981500Y-12716643D01*
X6967214Y-12688071D01*
X6952928Y-12630929D01*
X6952928Y-12559500D01*
X6967214Y-12502357D01*
X6981500Y-12473786D01*
X6995786Y-12459500D01*
X7024357Y-12445214D01*
X7310071Y-12445214D02*
X7338643Y-12445214D01*
X7367214Y-12459500D01*
X7381500Y-12473786D01*
X7395786Y-12502357D01*
X7410071Y-12559500D01*
X7410071Y-12630929D01*
X7395786Y-12688071D01*
X7381500Y-12716643D01*
X7367214Y-12730929D01*
X7338643Y-12745214D01*
X7310071Y-12745214D01*
X7281500Y-12730929D01*
X7267214Y-12716643D01*
X7252928Y-12688071D01*
X7238643Y-12630929D01*
X7238643Y-12559500D01*
X7252928Y-12502357D01*
X7267214Y-12473786D01*
X7281500Y-12459500D01*
X7310071Y-12445214D01*
X7538643Y-12745214D02*
X7538643Y-12545214D01*
X7538643Y-12573786D02*
X7552928Y-12559500D01*
X7581500Y-12545214D01*
X7624357Y-12545214D01*
X7652928Y-12559500D01*
X7667214Y-12588071D01*
X7667214Y-12745214D01*
X7667214Y-12588071D02*
X7681500Y-12559500D01*
X7710071Y-12545214D01*
X7752928Y-12545214D01*
X7781500Y-12559500D01*
X7795786Y-12588071D01*
X7795786Y-12745214D01*
X7938643Y-12745214D02*
X7938643Y-12545214D01*
X7938643Y-12573786D02*
X7952928Y-12559500D01*
X7981500Y-12545214D01*
X8024357Y-12545214D01*
X8052928Y-12559500D01*
X8067214Y-12588071D01*
X8067214Y-12745214D01*
X8067214Y-12588071D02*
X8081500Y-12559500D01*
X8110071Y-12545214D01*
X8152928Y-12545214D01*
X8181500Y-12559500D01*
X8195786Y-12588071D01*
X8195786Y-12745214D01*
X8781500Y-12430929D02*
X8524357Y-12816643D01*
X9167214Y-12445214D02*
X9195786Y-12445214D01*
X9224357Y-12459500D01*
X9238643Y-12473786D01*
X9252928Y-12502357D01*
X9267214Y-12559500D01*
X9267214Y-12630929D01*
X9252928Y-12688071D01*
X9238643Y-12716643D01*
X9224357Y-12730929D01*
X9195786Y-12745214D01*
X9167214Y-12745214D01*
X9138643Y-12730929D01*
X9124357Y-12716643D01*
X9110071Y-12688071D01*
X9095786Y-12630929D01*
X9095786Y-12559500D01*
X9110071Y-12502357D01*
X9124357Y-12473786D01*
X9138643Y-12459500D01*
X9167214Y-12445214D01*
X9395786Y-12716643D02*
X9410071Y-12730929D01*
X9395786Y-12745214D01*
X9381500Y-12730929D01*
X9395786Y-12716643D01*
X9395786Y-12745214D01*
X9595786Y-12445214D02*
X9624357Y-12445214D01*
X9652928Y-12459500D01*
X9667214Y-12473786D01*
X9681500Y-12502357D01*
X9695786Y-12559500D01*
X9695786Y-12630929D01*
X9681500Y-12688071D01*
X9667214Y-12716643D01*
X9652928Y-12730929D01*
X9624357Y-12745214D01*
X9595786Y-12745214D01*
X9567214Y-12730929D01*
X9552928Y-12716643D01*
X9538643Y-12688071D01*
X9524357Y-12630929D01*
X9524357Y-12559500D01*
X9538643Y-12502357D01*
X9552928Y-12473786D01*
X9567214Y-12459500D01*
X9595786Y-12445214D01*
X9967214Y-12445214D02*
X9824357Y-12445214D01*
X9810071Y-12588071D01*
X9824357Y-12573786D01*
X9852928Y-12559500D01*
X9924357Y-12559500D01*
X9952928Y-12573786D01*
X9967214Y-12588071D01*
X9981500Y-12616643D01*
X9981500Y-12688071D01*
X9967214Y-12716643D01*
X9952928Y-12730929D01*
X9924357Y-12745214D01*
X9852928Y-12745214D01*
X9824357Y-12730929D01*
X9810071Y-12716643D01*
X10124357Y-12745214D02*
X10181500Y-12745214D01*
X10210071Y-12730929D01*
X10224357Y-12716643D01*
X10252928Y-12673786D01*
X10267214Y-12616643D01*
X10267214Y-12502357D01*
X10252928Y-12473786D01*
X10238643Y-12459500D01*
X10210071Y-12445214D01*
X10152928Y-12445214D01*
X10124357Y-12459500D01*
X10110071Y-12473786D01*
X10095786Y-12502357D01*
X10095786Y-12573786D01*
X10110071Y-12602357D01*
X10124357Y-12616643D01*
X10152928Y-12630929D01*
X10210071Y-12630929D01*
X10238643Y-12616643D01*
X10252928Y-12602357D01*
X10267214Y-12573786D01*
X10552928Y-12745214D02*
X10381500Y-12745214D01*
X10467214Y-12745214D02*
X10467214Y-12445214D01*
X10438643Y-12488071D01*
X10410071Y-12516643D01*
X10381500Y-12530929D01*
X10667214Y-12445214D02*
X10667214Y-12502357D01*
X10781500Y-12445214D02*
X10781500Y-12502357D01*
X11224357Y-12859500D02*
X11210071Y-12845214D01*
X11181500Y-12802357D01*
X11167214Y-12773786D01*
X11152928Y-12730929D01*
X11138643Y-12659500D01*
X11138643Y-12602357D01*
X11152928Y-12530929D01*
X11167214Y-12488071D01*
X11181500Y-12459500D01*
X11210071Y-12416643D01*
X11224357Y-12402357D01*
X11495786Y-12745214D02*
X11324357Y-12745214D01*
X11410071Y-12745214D02*
X11410071Y-12445214D01*
X11381500Y-12488071D01*
X11352928Y-12516643D01*
X11324357Y-12530929D01*
X11852928Y-12745214D02*
X11852928Y-12445214D01*
X11981500Y-12745214D02*
X11981500Y-12588071D01*
X11967214Y-12559500D01*
X11938643Y-12545214D01*
X11895786Y-12545214D01*
X11867214Y-12559500D01*
X11852928Y-12573786D01*
X12167214Y-12745214D02*
X12138643Y-12730929D01*
X12124357Y-12716643D01*
X12110071Y-12688071D01*
X12110071Y-12602357D01*
X12124357Y-12573786D01*
X12138643Y-12559500D01*
X12167214Y-12545214D01*
X12210071Y-12545214D01*
X12238643Y-12559500D01*
X12252928Y-12573786D01*
X12267214Y-12602357D01*
X12267214Y-12688071D01*
X12252928Y-12716643D01*
X12238643Y-12730929D01*
X12210071Y-12745214D01*
X12167214Y-12745214D01*
X12438643Y-12745214D02*
X12410071Y-12730929D01*
X12395786Y-12702357D01*
X12395786Y-12445214D01*
X12667214Y-12730929D02*
X12638643Y-12745214D01*
X12581500Y-12745214D01*
X12552928Y-12730929D01*
X12538643Y-12702357D01*
X12538643Y-12588071D01*
X12552928Y-12559500D01*
X12581500Y-12545214D01*
X12638643Y-12545214D01*
X12667214Y-12559500D01*
X12681500Y-12588071D01*
X12681500Y-12616643D01*
X12538643Y-12645214D01*
X12781500Y-12859500D02*
X12795786Y-12845214D01*
X12824357Y-12802357D01*
X12838643Y-12773786D01*
X12852928Y-12730929D01*
X12867214Y-12659500D01*
X12867214Y-12602357D01*
X12852928Y-12530929D01*
X12838643Y-12488071D01*
X12824357Y-12459500D01*
X12795786Y-12416643D01*
X12781500Y-12402357D01*
X5806500Y-12925500D02*
X5966500Y-13085500D01*
X5966500Y-12925500D02*
X5806500Y-13085500D01*
X5943069Y-13062069D02*
X5943069Y-12948931D01*
X5829931Y-12948931D01*
X5829931Y-13062069D01*
X5943069Y-13062069D01*
X6410071Y-13141214D02*
X6238643Y-13141214D01*
X6324357Y-13141214D02*
X6324357Y-12841214D01*
X6295786Y-12884071D01*
X6267214Y-12912643D01*
X6238643Y-12926929D01*
X6538643Y-13112643D02*
X6552928Y-13126929D01*
X6538643Y-13141214D01*
X6524357Y-13126929D01*
X6538643Y-13112643D01*
X6538643Y-13141214D01*
X6810071Y-12841214D02*
X6752928Y-12841214D01*
X6724357Y-12855500D01*
X6710071Y-12869786D01*
X6681500Y-12912643D01*
X6667214Y-12969786D01*
X6667214Y-13084071D01*
X6681500Y-13112643D01*
X6695786Y-13126929D01*
X6724357Y-13141214D01*
X6781500Y-13141214D01*
X6810071Y-13126929D01*
X6824357Y-13112643D01*
X6838643Y-13084071D01*
X6838643Y-13012643D01*
X6824357Y-12984071D01*
X6810071Y-12969786D01*
X6781500Y-12955500D01*
X6724357Y-12955500D01*
X6695786Y-12969786D01*
X6681500Y-12984071D01*
X6667214Y-13012643D01*
X7024357Y-12841214D02*
X7052928Y-12841214D01*
X7081500Y-12855500D01*
X7095786Y-12869786D01*
X7110071Y-12898357D01*
X7124357Y-12955500D01*
X7124357Y-13026929D01*
X7110071Y-13084071D01*
X7095786Y-13112643D01*
X7081500Y-13126929D01*
X7052928Y-13141214D01*
X7024357Y-13141214D01*
X6995786Y-13126929D01*
X6981500Y-13112643D01*
X6967214Y-13084071D01*
X6952928Y-13026929D01*
X6952928Y-12955500D01*
X6967214Y-12898357D01*
X6981500Y-12869786D01*
X6995786Y-12855500D01*
X7024357Y-12841214D01*
X7310071Y-12841214D02*
X7338643Y-12841214D01*
X7367214Y-12855500D01*
X7381500Y-12869786D01*
X7395786Y-12898357D01*
X7410071Y-12955500D01*
X7410071Y-13026929D01*
X7395786Y-13084071D01*
X7381500Y-13112643D01*
X7367214Y-13126929D01*
X7338643Y-13141214D01*
X7310071Y-13141214D01*
X7281500Y-13126929D01*
X7267214Y-13112643D01*
X7252928Y-13084071D01*
X7238643Y-13026929D01*
X7238643Y-12955500D01*
X7252928Y-12898357D01*
X7267214Y-12869786D01*
X7281500Y-12855500D01*
X7310071Y-12841214D01*
X7538643Y-13141214D02*
X7538643Y-12941214D01*
X7538643Y-12969786D02*
X7552928Y-12955500D01*
X7581500Y-12941214D01*
X7624357Y-12941214D01*
X7652928Y-12955500D01*
X7667214Y-12984071D01*
X7667214Y-13141214D01*
X7667214Y-12984071D02*
X7681500Y-12955500D01*
X7710071Y-12941214D01*
X7752928Y-12941214D01*
X7781500Y-12955500D01*
X7795786Y-12984071D01*
X7795786Y-13141214D01*
X7938643Y-13141214D02*
X7938643Y-12941214D01*
X7938643Y-12969786D02*
X7952928Y-12955500D01*
X7981500Y-12941214D01*
X8024357Y-12941214D01*
X8052928Y-12955500D01*
X8067214Y-12984071D01*
X8067214Y-13141214D01*
X8067214Y-12984071D02*
X8081500Y-12955500D01*
X8110071Y-12941214D01*
X8152928Y-12941214D01*
X8181500Y-12955500D01*
X8195786Y-12984071D01*
X8195786Y-13141214D01*
X8781500Y-12826929D02*
X8524357Y-13212643D01*
X9167214Y-12841214D02*
X9195786Y-12841214D01*
X9224357Y-12855500D01*
X9238643Y-12869786D01*
X9252928Y-12898357D01*
X9267214Y-12955500D01*
X9267214Y-13026929D01*
X9252928Y-13084071D01*
X9238643Y-13112643D01*
X9224357Y-13126929D01*
X9195786Y-13141214D01*
X9167214Y-13141214D01*
X9138643Y-13126929D01*
X9124357Y-13112643D01*
X9110071Y-13084071D01*
X9095786Y-13026929D01*
X9095786Y-12955500D01*
X9110071Y-12898357D01*
X9124357Y-12869786D01*
X9138643Y-12855500D01*
X9167214Y-12841214D01*
X9395786Y-13112643D02*
X9410071Y-13126929D01*
X9395786Y-13141214D01*
X9381500Y-13126929D01*
X9395786Y-13112643D01*
X9395786Y-13141214D01*
X9595786Y-12841214D02*
X9624357Y-12841214D01*
X9652928Y-12855500D01*
X9667214Y-12869786D01*
X9681500Y-12898357D01*
X9695786Y-12955500D01*
X9695786Y-13026929D01*
X9681500Y-13084071D01*
X9667214Y-13112643D01*
X9652928Y-13126929D01*
X9624357Y-13141214D01*
X9595786Y-13141214D01*
X9567214Y-13126929D01*
X9552928Y-13112643D01*
X9538643Y-13084071D01*
X9524357Y-13026929D01*
X9524357Y-12955500D01*
X9538643Y-12898357D01*
X9552928Y-12869786D01*
X9567214Y-12855500D01*
X9595786Y-12841214D01*
X9952928Y-12841214D02*
X9895786Y-12841214D01*
X9867214Y-12855500D01*
X9852928Y-12869786D01*
X9824357Y-12912643D01*
X9810071Y-12969786D01*
X9810071Y-13084071D01*
X9824357Y-13112643D01*
X9838643Y-13126929D01*
X9867214Y-13141214D01*
X9924357Y-13141214D01*
X9952928Y-13126929D01*
X9967214Y-13112643D01*
X9981500Y-13084071D01*
X9981500Y-13012643D01*
X9967214Y-12984071D01*
X9952928Y-12969786D01*
X9924357Y-12955500D01*
X9867214Y-12955500D01*
X9838643Y-12969786D01*
X9824357Y-12984071D01*
X9810071Y-13012643D01*
X10081500Y-12841214D02*
X10267214Y-12841214D01*
X10167214Y-12955500D01*
X10210071Y-12955500D01*
X10238643Y-12969786D01*
X10252928Y-12984071D01*
X10267214Y-13012643D01*
X10267214Y-13084071D01*
X10252928Y-13112643D01*
X10238643Y-13126929D01*
X10210071Y-13141214D01*
X10124357Y-13141214D01*
X10095786Y-13126929D01*
X10081500Y-13112643D01*
X10452928Y-12841214D02*
X10481500Y-12841214D01*
X10510071Y-12855500D01*
X10524357Y-12869786D01*
X10538643Y-12898357D01*
X10552928Y-12955500D01*
X10552928Y-13026929D01*
X10538643Y-13084071D01*
X10524357Y-13112643D01*
X10510071Y-13126929D01*
X10481500Y-13141214D01*
X10452928Y-13141214D01*
X10424357Y-13126929D01*
X10410071Y-13112643D01*
X10395786Y-13084071D01*
X10381500Y-13026929D01*
X10381500Y-12955500D01*
X10395786Y-12898357D01*
X10410071Y-12869786D01*
X10424357Y-12855500D01*
X10452928Y-12841214D01*
X10667214Y-12841214D02*
X10667214Y-12898357D01*
X10781500Y-12841214D02*
X10781500Y-12898357D01*
X11224357Y-13255500D02*
X11210071Y-13241214D01*
X11181500Y-13198357D01*
X11167214Y-13169786D01*
X11152928Y-13126929D01*
X11138643Y-13055500D01*
X11138643Y-12998357D01*
X11152928Y-12926929D01*
X11167214Y-12884071D01*
X11181500Y-12855500D01*
X11210071Y-12812643D01*
X11224357Y-12798357D01*
X11324357Y-12869786D02*
X11338643Y-12855500D01*
X11367214Y-12841214D01*
X11438643Y-12841214D01*
X11467214Y-12855500D01*
X11481500Y-12869786D01*
X11495786Y-12898357D01*
X11495786Y-12926929D01*
X11481500Y-12969786D01*
X11310071Y-13141214D01*
X11495786Y-13141214D01*
X11852928Y-13141214D02*
X11852928Y-12841214D01*
X11981500Y-13141214D02*
X11981500Y-12984071D01*
X11967214Y-12955500D01*
X11938643Y-12941214D01*
X11895786Y-12941214D01*
X11867214Y-12955500D01*
X11852928Y-12969786D01*
X12167214Y-13141214D02*
X12138643Y-13126929D01*
X12124357Y-13112643D01*
X12110071Y-13084071D01*
X12110071Y-12998357D01*
X12124357Y-12969786D01*
X12138643Y-12955500D01*
X12167214Y-12941214D01*
X12210071Y-12941214D01*
X12238643Y-12955500D01*
X12252928Y-12969786D01*
X12267214Y-12998357D01*
X12267214Y-13084071D01*
X12252928Y-13112643D01*
X12238643Y-13126929D01*
X12210071Y-13141214D01*
X12167214Y-13141214D01*
X12438643Y-13141214D02*
X12410071Y-13126929D01*
X12395786Y-13098357D01*
X12395786Y-12841214D01*
X12667214Y-13126929D02*
X12638643Y-13141214D01*
X12581500Y-13141214D01*
X12552928Y-13126929D01*
X12538643Y-13098357D01*
X12538643Y-12984071D01*
X12552928Y-12955500D01*
X12581500Y-12941214D01*
X12638643Y-12941214D01*
X12667214Y-12955500D01*
X12681500Y-12984071D01*
X12681500Y-13012643D01*
X12538643Y-13041214D01*
X12795786Y-13126929D02*
X12824357Y-13141214D01*
X12881500Y-13141214D01*
X12910071Y-13126929D01*
X12924357Y-13098357D01*
X12924357Y-13084071D01*
X12910071Y-13055500D01*
X12881500Y-13041214D01*
X12838643Y-13041214D01*
X12810071Y-13026929D01*
X12795786Y-12998357D01*
X12795786Y-12984071D01*
X12810071Y-12955500D01*
X12838643Y-12941214D01*
X12881500Y-12941214D01*
X12910071Y-12955500D01*
X13024357Y-13255500D02*
X13038643Y-13241214D01*
X13067214Y-13198357D01*
X13081500Y-13169786D01*
X13095786Y-13126929D01*
X13110071Y-13055500D01*
X13110071Y-12998357D01*
X13095786Y-12926929D01*
X13081500Y-12884071D01*
X13067214Y-12855500D01*
X13038643Y-12812643D01*
X13024357Y-12798357D01*
M02*
