G04 #@! TF.GenerationSoftware,KiCad,Pcbnew,(5.1.10)-1*
G04 #@! TF.CreationDate,2021-09-16T20:11:19-04:00*
G04 #@! TF.ProjectId,Space Invaders,53706163-6520-4496-9e76-61646572732e,rev?*
G04 #@! TF.SameCoordinates,Original*
G04 #@! TF.FileFunction,Copper,L2,Bot*
G04 #@! TF.FilePolarity,Positive*
%FSLAX46Y46*%
G04 Gerber Fmt 4.6, Leading zero omitted, Abs format (unit mm)*
G04 Created by KiCad (PCBNEW (5.1.10)-1) date 2021-09-16 20:11:19*
%MOMM*%
%LPD*%
G01*
G04 APERTURE LIST*
G04 #@! TA.AperFunction,ComponentPad*
%ADD10C,3.000000*%
G04 #@! TD*
G04 #@! TA.AperFunction,ComponentPad*
%ADD11O,1.600000X1.600000*%
G04 #@! TD*
G04 #@! TA.AperFunction,ComponentPad*
%ADD12R,1.600000X1.600000*%
G04 #@! TD*
G04 #@! TA.AperFunction,ComponentPad*
%ADD13C,2.600000*%
G04 #@! TD*
G04 #@! TA.AperFunction,ComponentPad*
%ADD14R,2.600000X2.600000*%
G04 #@! TD*
G04 #@! TA.AperFunction,ComponentPad*
%ADD15C,1.440000*%
G04 #@! TD*
G04 #@! TA.AperFunction,ComponentPad*
%ADD16O,2.000000X1.905000*%
G04 #@! TD*
G04 #@! TA.AperFunction,ComponentPad*
%ADD17R,2.000000X1.905000*%
G04 #@! TD*
G04 #@! TA.AperFunction,ComponentPad*
%ADD18O,1.800000X1.275000*%
G04 #@! TD*
G04 #@! TA.AperFunction,ComponentPad*
%ADD19R,1.800000X1.275000*%
G04 #@! TD*
G04 #@! TA.AperFunction,ComponentPad*
%ADD20C,1.600000*%
G04 #@! TD*
G04 #@! TA.AperFunction,ComponentPad*
%ADD21O,1.905000X2.000000*%
G04 #@! TD*
G04 #@! TA.AperFunction,ComponentPad*
%ADD22R,1.905000X2.000000*%
G04 #@! TD*
G04 #@! TA.AperFunction,ComponentPad*
%ADD23R,1.050000X1.500000*%
G04 #@! TD*
G04 #@! TA.AperFunction,ComponentPad*
%ADD24O,1.050000X1.500000*%
G04 #@! TD*
G04 #@! TA.AperFunction,ComponentPad*
%ADD25O,2.000000X2.000000*%
G04 #@! TD*
G04 #@! TA.AperFunction,ComponentPad*
%ADD26C,2.000000*%
G04 #@! TD*
G04 #@! TA.AperFunction,ComponentPad*
%ADD27O,3.200000X3.200000*%
G04 #@! TD*
G04 #@! TA.AperFunction,ComponentPad*
%ADD28R,3.200000X3.200000*%
G04 #@! TD*
G04 #@! TA.AperFunction,ComponentPad*
%ADD29C,2.400000*%
G04 #@! TD*
G04 #@! TA.AperFunction,ComponentPad*
%ADD30R,2.400000X2.400000*%
G04 #@! TD*
G04 #@! TA.AperFunction,ComponentPad*
%ADD31R,2.000000X2.000000*%
G04 #@! TD*
G04 #@! TA.AperFunction,ComponentPad*
%ADD32O,1.700000X1.700000*%
G04 #@! TD*
G04 #@! TA.AperFunction,ComponentPad*
%ADD33R,1.700000X1.700000*%
G04 #@! TD*
G04 #@! TA.AperFunction,Conductor*
%ADD34C,1.000000*%
G04 #@! TD*
G04 #@! TA.AperFunction,Conductor*
%ADD35C,0.254000*%
G04 #@! TD*
G04 #@! TA.AperFunction,Conductor*
%ADD36C,0.100000*%
G04 #@! TD*
G04 APERTURE END LIST*
D10*
X133350000Y-76200000D03*
D11*
X138430000Y-88900000D03*
X130810000Y-81280000D03*
X135890000Y-88900000D03*
X133350000Y-81280000D03*
X133350000Y-88900000D03*
X135890000Y-81280000D03*
X130810000Y-88900000D03*
D12*
X138430000Y-81280000D03*
D11*
X121920000Y-88900000D03*
X114300000Y-81280000D03*
X119380000Y-88900000D03*
X116840000Y-81280000D03*
X116840000Y-88900000D03*
X119380000Y-81280000D03*
X114300000Y-88900000D03*
D12*
X121920000Y-81280000D03*
D11*
X121920000Y-73660000D03*
X106680000Y-66040000D03*
X119380000Y-73660000D03*
X109220000Y-66040000D03*
X116840000Y-73660000D03*
X111760000Y-66040000D03*
X114300000Y-73660000D03*
X114300000Y-66040000D03*
X111760000Y-73660000D03*
X116840000Y-66040000D03*
X109220000Y-73660000D03*
X119380000Y-66040000D03*
X106680000Y-73660000D03*
D12*
X121920000Y-66040000D03*
D13*
X66040000Y-35560000D03*
X66040000Y-40640000D03*
X66040000Y-45720000D03*
X66040000Y-50800000D03*
X66040000Y-55880000D03*
X66040000Y-60960000D03*
X66040000Y-66040000D03*
X66040000Y-71120000D03*
X66040000Y-76200000D03*
X66040000Y-81280000D03*
D14*
X66040000Y-86360000D03*
D15*
X130810000Y-57150000D03*
X128270000Y-59690000D03*
X130810000Y-62230000D03*
D16*
X138430000Y-62230000D03*
X138430000Y-59690000D03*
D17*
X138430000Y-57150000D03*
D18*
X138430000Y-46170000D03*
X138430000Y-44470000D03*
X138430000Y-42770000D03*
X138430000Y-41070000D03*
D19*
X138430000Y-39370000D03*
D11*
X123190000Y-48260000D03*
D20*
X113030000Y-48260000D03*
D11*
X123190000Y-52070000D03*
D20*
X123190000Y-62230000D03*
D11*
X135890000Y-52070000D03*
D20*
X125730000Y-52070000D03*
D11*
X111760000Y-62230000D03*
D20*
X111760000Y-52070000D03*
D11*
X107950000Y-62230000D03*
D20*
X107950000Y-52070000D03*
D11*
X115570000Y-62230000D03*
D20*
X115570000Y-52070000D03*
D11*
X110490000Y-78740000D03*
D20*
X110490000Y-88900000D03*
D11*
X104140000Y-62230000D03*
D20*
X104140000Y-52070000D03*
D11*
X119380000Y-62230000D03*
D20*
X119380000Y-52070000D03*
D11*
X106680000Y-78740000D03*
D20*
X106680000Y-88900000D03*
D11*
X99060000Y-76200000D03*
D20*
X99060000Y-86360000D03*
D11*
X102870000Y-86360000D03*
D20*
X102870000Y-76200000D03*
D11*
X127000000Y-80010000D03*
D20*
X127000000Y-90170000D03*
D21*
X87630000Y-59690000D03*
X90170000Y-59690000D03*
D22*
X92710000Y-59690000D03*
D21*
X87630000Y-66040000D03*
X90170000Y-66040000D03*
D22*
X92710000Y-66040000D03*
D23*
X91440000Y-55880000D03*
D24*
X93980000Y-55880000D03*
X92710000Y-55880000D03*
D21*
X87630000Y-72390000D03*
X90170000Y-72390000D03*
D22*
X92710000Y-72390000D03*
D23*
X96520000Y-50800000D03*
D24*
X99060000Y-50800000D03*
X97790000Y-50800000D03*
D21*
X87630000Y-78740000D03*
X90170000Y-78740000D03*
D22*
X92710000Y-78740000D03*
D25*
X109220000Y-44450000D03*
D26*
X124460000Y-44450000D03*
D27*
X118110000Y-39370000D03*
D28*
X133350000Y-39370000D03*
D29*
X90805000Y-45640000D03*
D30*
X90805000Y-40640000D03*
D20*
X138430000Y-49570000D03*
X138430000Y-52070000D03*
D26*
X103505000Y-43100000D03*
D31*
X103505000Y-38100000D03*
D20*
X89860000Y-86360000D03*
D12*
X86360000Y-86360000D03*
D20*
X97870000Y-88900000D03*
X102870000Y-88900000D03*
X102870000Y-73620000D03*
X102870000Y-71120000D03*
D32*
X116840000Y-77470000D03*
X119380000Y-77470000D03*
X121920000Y-77470000D03*
X124460000Y-77470000D03*
D33*
X127000000Y-77470000D03*
D34*
X133350000Y-81280000D02*
X133350000Y-86360000D01*
X133350000Y-86360000D02*
X102870000Y-86360000D01*
D35*
X140843000Y-91313000D02*
X127872311Y-91313000D01*
X127914759Y-91284637D01*
X128114637Y-91084759D01*
X128271680Y-90849727D01*
X128379853Y-90588574D01*
X128435000Y-90311335D01*
X128435000Y-90028665D01*
X128379853Y-89751426D01*
X128271680Y-89490273D01*
X128114637Y-89255241D01*
X127914759Y-89055363D01*
X127679727Y-88898320D01*
X127418574Y-88790147D01*
X127141335Y-88735000D01*
X126858665Y-88735000D01*
X126581426Y-88790147D01*
X126320273Y-88898320D01*
X126085241Y-89055363D01*
X125885363Y-89255241D01*
X125728320Y-89490273D01*
X125620147Y-89751426D01*
X125565000Y-90028665D01*
X125565000Y-90311335D01*
X125620147Y-90588574D01*
X125728320Y-90849727D01*
X125885363Y-91084759D01*
X126085241Y-91284637D01*
X126127689Y-91313000D01*
X61087000Y-91313000D01*
X61087000Y-88758665D01*
X96435000Y-88758665D01*
X96435000Y-89041335D01*
X96490147Y-89318574D01*
X96598320Y-89579727D01*
X96755363Y-89814759D01*
X96955241Y-90014637D01*
X97190273Y-90171680D01*
X97451426Y-90279853D01*
X97728665Y-90335000D01*
X98011335Y-90335000D01*
X98288574Y-90279853D01*
X98549727Y-90171680D01*
X98784759Y-90014637D01*
X98984637Y-89814759D01*
X99141680Y-89579727D01*
X99249853Y-89318574D01*
X99305000Y-89041335D01*
X99305000Y-88758665D01*
X99249853Y-88481426D01*
X99141680Y-88220273D01*
X98984637Y-87985241D01*
X98784759Y-87785363D01*
X98748534Y-87761158D01*
X98918665Y-87795000D01*
X99201335Y-87795000D01*
X99478574Y-87739853D01*
X99739727Y-87631680D01*
X99974759Y-87474637D01*
X100174637Y-87274759D01*
X100331680Y-87039727D01*
X100439853Y-86778574D01*
X100495000Y-86501335D01*
X100495000Y-86218665D01*
X101435000Y-86218665D01*
X101435000Y-86501335D01*
X101490147Y-86778574D01*
X101598320Y-87039727D01*
X101755363Y-87274759D01*
X101955241Y-87474637D01*
X102187759Y-87630000D01*
X101955241Y-87785363D01*
X101755363Y-87985241D01*
X101598320Y-88220273D01*
X101490147Y-88481426D01*
X101435000Y-88758665D01*
X101435000Y-89041335D01*
X101490147Y-89318574D01*
X101598320Y-89579727D01*
X101755363Y-89814759D01*
X101955241Y-90014637D01*
X102190273Y-90171680D01*
X102451426Y-90279853D01*
X102728665Y-90335000D01*
X103011335Y-90335000D01*
X103288574Y-90279853D01*
X103549727Y-90171680D01*
X103784759Y-90014637D01*
X103984637Y-89814759D01*
X104141680Y-89579727D01*
X104249853Y-89318574D01*
X104305000Y-89041335D01*
X104305000Y-88758665D01*
X104249853Y-88481426D01*
X104141680Y-88220273D01*
X103984637Y-87985241D01*
X103784759Y-87785363D01*
X103552241Y-87630000D01*
X103754284Y-87495000D01*
X110197847Y-87495000D01*
X110071426Y-87520147D01*
X109810273Y-87628320D01*
X109575241Y-87785363D01*
X109375363Y-87985241D01*
X109218320Y-88220273D01*
X109110147Y-88481426D01*
X109055000Y-88758665D01*
X109055000Y-89041335D01*
X109110147Y-89318574D01*
X109218320Y-89579727D01*
X109375363Y-89814759D01*
X109575241Y-90014637D01*
X109810273Y-90171680D01*
X110071426Y-90279853D01*
X110348665Y-90335000D01*
X110631335Y-90335000D01*
X110908574Y-90279853D01*
X111169727Y-90171680D01*
X111404759Y-90014637D01*
X111604637Y-89814759D01*
X111761680Y-89579727D01*
X111869853Y-89318574D01*
X111925000Y-89041335D01*
X111925000Y-88758665D01*
X111869853Y-88481426D01*
X111761680Y-88220273D01*
X111604637Y-87985241D01*
X111404759Y-87785363D01*
X111169727Y-87628320D01*
X110908574Y-87520147D01*
X110782153Y-87495000D01*
X114007847Y-87495000D01*
X113881426Y-87520147D01*
X113620273Y-87628320D01*
X113385241Y-87785363D01*
X113185363Y-87985241D01*
X113028320Y-88220273D01*
X112920147Y-88481426D01*
X112865000Y-88758665D01*
X112865000Y-89041335D01*
X112920147Y-89318574D01*
X113028320Y-89579727D01*
X113185363Y-89814759D01*
X113385241Y-90014637D01*
X113620273Y-90171680D01*
X113881426Y-90279853D01*
X114158665Y-90335000D01*
X114441335Y-90335000D01*
X114718574Y-90279853D01*
X114979727Y-90171680D01*
X115214759Y-90014637D01*
X115414637Y-89814759D01*
X115570000Y-89582241D01*
X115725363Y-89814759D01*
X115925241Y-90014637D01*
X116160273Y-90171680D01*
X116421426Y-90279853D01*
X116698665Y-90335000D01*
X116981335Y-90335000D01*
X117258574Y-90279853D01*
X117519727Y-90171680D01*
X117754759Y-90014637D01*
X117954637Y-89814759D01*
X118111680Y-89579727D01*
X118219853Y-89318574D01*
X118275000Y-89041335D01*
X118275000Y-88758665D01*
X118219853Y-88481426D01*
X118111680Y-88220273D01*
X117954637Y-87985241D01*
X117754759Y-87785363D01*
X117519727Y-87628320D01*
X117258574Y-87520147D01*
X117132153Y-87495000D01*
X121627847Y-87495000D01*
X121501426Y-87520147D01*
X121240273Y-87628320D01*
X121005241Y-87785363D01*
X120805363Y-87985241D01*
X120648320Y-88220273D01*
X120540147Y-88481426D01*
X120485000Y-88758665D01*
X120485000Y-89041335D01*
X120540147Y-89318574D01*
X120648320Y-89579727D01*
X120805363Y-89814759D01*
X121005241Y-90014637D01*
X121240273Y-90171680D01*
X121501426Y-90279853D01*
X121778665Y-90335000D01*
X122061335Y-90335000D01*
X122338574Y-90279853D01*
X122599727Y-90171680D01*
X122834759Y-90014637D01*
X123034637Y-89814759D01*
X123191680Y-89579727D01*
X123299853Y-89318574D01*
X123355000Y-89041335D01*
X123355000Y-88758665D01*
X123299853Y-88481426D01*
X123191680Y-88220273D01*
X123034637Y-87985241D01*
X122834759Y-87785363D01*
X122599727Y-87628320D01*
X122338574Y-87520147D01*
X122212153Y-87495000D01*
X130517847Y-87495000D01*
X130391426Y-87520147D01*
X130130273Y-87628320D01*
X129895241Y-87785363D01*
X129695363Y-87985241D01*
X129538320Y-88220273D01*
X129430147Y-88481426D01*
X129375000Y-88758665D01*
X129375000Y-89041335D01*
X129430147Y-89318574D01*
X129538320Y-89579727D01*
X129695363Y-89814759D01*
X129895241Y-90014637D01*
X130130273Y-90171680D01*
X130391426Y-90279853D01*
X130668665Y-90335000D01*
X130951335Y-90335000D01*
X131228574Y-90279853D01*
X131489727Y-90171680D01*
X131724759Y-90014637D01*
X131924637Y-89814759D01*
X132080000Y-89582241D01*
X132235363Y-89814759D01*
X132435241Y-90014637D01*
X132670273Y-90171680D01*
X132931426Y-90279853D01*
X133208665Y-90335000D01*
X133491335Y-90335000D01*
X133768574Y-90279853D01*
X134029727Y-90171680D01*
X134264759Y-90014637D01*
X134464637Y-89814759D01*
X134620000Y-89582241D01*
X134775363Y-89814759D01*
X134975241Y-90014637D01*
X135210273Y-90171680D01*
X135471426Y-90279853D01*
X135748665Y-90335000D01*
X136031335Y-90335000D01*
X136308574Y-90279853D01*
X136569727Y-90171680D01*
X136804759Y-90014637D01*
X137004637Y-89814759D01*
X137160000Y-89582241D01*
X137315363Y-89814759D01*
X137515241Y-90014637D01*
X137750273Y-90171680D01*
X138011426Y-90279853D01*
X138288665Y-90335000D01*
X138571335Y-90335000D01*
X138848574Y-90279853D01*
X139109727Y-90171680D01*
X139344759Y-90014637D01*
X139544637Y-89814759D01*
X139701680Y-89579727D01*
X139809853Y-89318574D01*
X139865000Y-89041335D01*
X139865000Y-88758665D01*
X139809853Y-88481426D01*
X139701680Y-88220273D01*
X139544637Y-87985241D01*
X139344759Y-87785363D01*
X139109727Y-87628320D01*
X138848574Y-87520147D01*
X138571335Y-87465000D01*
X138288665Y-87465000D01*
X138011426Y-87520147D01*
X137750273Y-87628320D01*
X137515241Y-87785363D01*
X137315363Y-87985241D01*
X137160000Y-88217759D01*
X137004637Y-87985241D01*
X136804759Y-87785363D01*
X136569727Y-87628320D01*
X136308574Y-87520147D01*
X136031335Y-87465000D01*
X135748665Y-87465000D01*
X135471426Y-87520147D01*
X135210273Y-87628320D01*
X134975241Y-87785363D01*
X134775363Y-87985241D01*
X134620000Y-88217759D01*
X134464637Y-87985241D01*
X134264759Y-87785363D01*
X134029727Y-87628320D01*
X133768574Y-87520147D01*
X133563865Y-87479427D01*
X133572499Y-87478577D01*
X133786447Y-87413676D01*
X133983623Y-87308284D01*
X134156449Y-87166449D01*
X134298284Y-86993623D01*
X134403676Y-86796447D01*
X134468577Y-86582499D01*
X134485000Y-86415752D01*
X134490491Y-86360000D01*
X134485000Y-86304248D01*
X134485000Y-82164284D01*
X134621680Y-81959727D01*
X134729853Y-81698574D01*
X134785000Y-81421335D01*
X134785000Y-81138665D01*
X134729853Y-80861426D01*
X134621680Y-80600273D01*
X134541317Y-80480000D01*
X136991928Y-80480000D01*
X136991928Y-82080000D01*
X137004188Y-82204482D01*
X137040498Y-82324180D01*
X137099463Y-82434494D01*
X137178815Y-82531185D01*
X137275506Y-82610537D01*
X137385820Y-82669502D01*
X137505518Y-82705812D01*
X137630000Y-82718072D01*
X139230000Y-82718072D01*
X139354482Y-82705812D01*
X139474180Y-82669502D01*
X139584494Y-82610537D01*
X139681185Y-82531185D01*
X139760537Y-82434494D01*
X139819502Y-82324180D01*
X139855812Y-82204482D01*
X139868072Y-82080000D01*
X139868072Y-80480000D01*
X139855812Y-80355518D01*
X139819502Y-80235820D01*
X139760537Y-80125506D01*
X139681185Y-80028815D01*
X139584494Y-79949463D01*
X139474180Y-79890498D01*
X139354482Y-79854188D01*
X139230000Y-79841928D01*
X137630000Y-79841928D01*
X137505518Y-79854188D01*
X137385820Y-79890498D01*
X137275506Y-79949463D01*
X137178815Y-80028815D01*
X137099463Y-80125506D01*
X137040498Y-80235820D01*
X137004188Y-80355518D01*
X136991928Y-80480000D01*
X134541317Y-80480000D01*
X134464637Y-80365241D01*
X134264759Y-80165363D01*
X134029727Y-80008320D01*
X133768574Y-79900147D01*
X133491335Y-79845000D01*
X133208665Y-79845000D01*
X132931426Y-79900147D01*
X132670273Y-80008320D01*
X132435241Y-80165363D01*
X132235363Y-80365241D01*
X132078320Y-80600273D01*
X131970147Y-80861426D01*
X131915000Y-81138665D01*
X131915000Y-81421335D01*
X131970147Y-81698574D01*
X132078320Y-81959727D01*
X132215000Y-82164284D01*
X132215001Y-85225000D01*
X103754284Y-85225000D01*
X103549727Y-85088320D01*
X103288574Y-84980147D01*
X103011335Y-84925000D01*
X102728665Y-84925000D01*
X102451426Y-84980147D01*
X102190273Y-85088320D01*
X101955241Y-85245363D01*
X101755363Y-85445241D01*
X101598320Y-85680273D01*
X101490147Y-85941426D01*
X101435000Y-86218665D01*
X100495000Y-86218665D01*
X100439853Y-85941426D01*
X100331680Y-85680273D01*
X100174637Y-85445241D01*
X99974759Y-85245363D01*
X99739727Y-85088320D01*
X99478574Y-84980147D01*
X99201335Y-84925000D01*
X98918665Y-84925000D01*
X98641426Y-84980147D01*
X98380273Y-85088320D01*
X98145241Y-85245363D01*
X97945363Y-85445241D01*
X97788320Y-85680273D01*
X97680147Y-85941426D01*
X97625000Y-86218665D01*
X97625000Y-86501335D01*
X97680147Y-86778574D01*
X97788320Y-87039727D01*
X97945363Y-87274759D01*
X98145241Y-87474637D01*
X98181466Y-87498842D01*
X98011335Y-87465000D01*
X97728665Y-87465000D01*
X97451426Y-87520147D01*
X97190273Y-87628320D01*
X96955241Y-87785363D01*
X96755363Y-87985241D01*
X96598320Y-88220273D01*
X96490147Y-88481426D01*
X96435000Y-88758665D01*
X61087000Y-88758665D01*
X61087000Y-85060000D01*
X64101928Y-85060000D01*
X64101928Y-87660000D01*
X64114188Y-87784482D01*
X64150498Y-87904180D01*
X64209463Y-88014494D01*
X64288815Y-88111185D01*
X64385506Y-88190537D01*
X64495820Y-88249502D01*
X64615518Y-88285812D01*
X64740000Y-88298072D01*
X67340000Y-88298072D01*
X67464482Y-88285812D01*
X67584180Y-88249502D01*
X67694494Y-88190537D01*
X67791185Y-88111185D01*
X67870537Y-88014494D01*
X67929502Y-87904180D01*
X67965812Y-87784482D01*
X67978072Y-87660000D01*
X67978072Y-85560000D01*
X84921928Y-85560000D01*
X84921928Y-87160000D01*
X84934188Y-87284482D01*
X84970498Y-87404180D01*
X85029463Y-87514494D01*
X85108815Y-87611185D01*
X85205506Y-87690537D01*
X85315820Y-87749502D01*
X85435518Y-87785812D01*
X85560000Y-87798072D01*
X87160000Y-87798072D01*
X87284482Y-87785812D01*
X87404180Y-87749502D01*
X87514494Y-87690537D01*
X87611185Y-87611185D01*
X87690537Y-87514494D01*
X87749502Y-87404180D01*
X87785812Y-87284482D01*
X87798072Y-87160000D01*
X87798072Y-86218665D01*
X88425000Y-86218665D01*
X88425000Y-86501335D01*
X88480147Y-86778574D01*
X88588320Y-87039727D01*
X88745363Y-87274759D01*
X88945241Y-87474637D01*
X89180273Y-87631680D01*
X89441426Y-87739853D01*
X89718665Y-87795000D01*
X90001335Y-87795000D01*
X90278574Y-87739853D01*
X90539727Y-87631680D01*
X90774759Y-87474637D01*
X90974637Y-87274759D01*
X91131680Y-87039727D01*
X91239853Y-86778574D01*
X91295000Y-86501335D01*
X91295000Y-86218665D01*
X91239853Y-85941426D01*
X91131680Y-85680273D01*
X90974637Y-85445241D01*
X90774759Y-85245363D01*
X90539727Y-85088320D01*
X90278574Y-84980147D01*
X90001335Y-84925000D01*
X89718665Y-84925000D01*
X89441426Y-84980147D01*
X89180273Y-85088320D01*
X88945241Y-85245363D01*
X88745363Y-85445241D01*
X88588320Y-85680273D01*
X88480147Y-85941426D01*
X88425000Y-86218665D01*
X87798072Y-86218665D01*
X87798072Y-85560000D01*
X87785812Y-85435518D01*
X87749502Y-85315820D01*
X87690537Y-85205506D01*
X87611185Y-85108815D01*
X87514494Y-85029463D01*
X87404180Y-84970498D01*
X87284482Y-84934188D01*
X87160000Y-84921928D01*
X85560000Y-84921928D01*
X85435518Y-84934188D01*
X85315820Y-84970498D01*
X85205506Y-85029463D01*
X85108815Y-85108815D01*
X85029463Y-85205506D01*
X84970498Y-85315820D01*
X84934188Y-85435518D01*
X84921928Y-85560000D01*
X67978072Y-85560000D01*
X67978072Y-85060000D01*
X67965812Y-84935518D01*
X67929502Y-84815820D01*
X67870537Y-84705506D01*
X67791185Y-84608815D01*
X67694494Y-84529463D01*
X67584180Y-84470498D01*
X67464482Y-84434188D01*
X67340000Y-84421928D01*
X64740000Y-84421928D01*
X64615518Y-84434188D01*
X64495820Y-84470498D01*
X64385506Y-84529463D01*
X64288815Y-84608815D01*
X64209463Y-84705506D01*
X64150498Y-84815820D01*
X64114188Y-84935518D01*
X64101928Y-85060000D01*
X61087000Y-85060000D01*
X61087000Y-81089419D01*
X64105000Y-81089419D01*
X64105000Y-81470581D01*
X64179361Y-81844419D01*
X64325225Y-82196566D01*
X64536987Y-82513491D01*
X64806509Y-82783013D01*
X65123434Y-82994775D01*
X65475581Y-83140639D01*
X65849419Y-83215000D01*
X66230581Y-83215000D01*
X66604419Y-83140639D01*
X66956566Y-82994775D01*
X67273491Y-82783013D01*
X67543013Y-82513491D01*
X67754775Y-82196566D01*
X67900639Y-81844419D01*
X67975000Y-81470581D01*
X67975000Y-81089419D01*
X67900639Y-80715581D01*
X67754775Y-80363434D01*
X67543013Y-80046509D01*
X67273491Y-79776987D01*
X66956566Y-79565225D01*
X66604419Y-79419361D01*
X66230581Y-79345000D01*
X65849419Y-79345000D01*
X65475581Y-79419361D01*
X65123434Y-79565225D01*
X64806509Y-79776987D01*
X64536987Y-80046509D01*
X64325225Y-80363434D01*
X64179361Y-80715581D01*
X64105000Y-81089419D01*
X61087000Y-81089419D01*
X61087000Y-78614514D01*
X88582500Y-78614514D01*
X88582500Y-78865485D01*
X88605470Y-79098703D01*
X88696245Y-79397948D01*
X88843655Y-79673734D01*
X89042037Y-79915463D01*
X89283765Y-80113845D01*
X89559551Y-80261255D01*
X89858796Y-80352030D01*
X90170000Y-80382681D01*
X90481203Y-80352030D01*
X90780448Y-80261255D01*
X91056234Y-80113845D01*
X91182095Y-80010553D01*
X91226963Y-80094494D01*
X91306315Y-80191185D01*
X91403006Y-80270537D01*
X91513320Y-80329502D01*
X91633018Y-80365812D01*
X91757500Y-80378072D01*
X93662500Y-80378072D01*
X93786982Y-80365812D01*
X93906680Y-80329502D01*
X94016994Y-80270537D01*
X94113685Y-80191185D01*
X94193037Y-80094494D01*
X94252002Y-79984180D01*
X94288312Y-79864482D01*
X94300572Y-79740000D01*
X94300572Y-78598665D01*
X105245000Y-78598665D01*
X105245000Y-78881335D01*
X105300147Y-79158574D01*
X105408320Y-79419727D01*
X105565363Y-79654759D01*
X105765241Y-79854637D01*
X106000273Y-80011680D01*
X106261426Y-80119853D01*
X106538665Y-80175000D01*
X106821335Y-80175000D01*
X107098574Y-80119853D01*
X107359727Y-80011680D01*
X107594759Y-79854637D01*
X107794637Y-79654759D01*
X107951680Y-79419727D01*
X108059853Y-79158574D01*
X108115000Y-78881335D01*
X108115000Y-78598665D01*
X108059853Y-78321426D01*
X107951680Y-78060273D01*
X107794637Y-77825241D01*
X107594759Y-77625363D01*
X107359727Y-77468320D01*
X107098574Y-77360147D01*
X106915547Y-77323740D01*
X115355000Y-77323740D01*
X115355000Y-77616260D01*
X115412068Y-77903158D01*
X115524010Y-78173411D01*
X115686525Y-78416632D01*
X115893368Y-78623475D01*
X116136589Y-78785990D01*
X116406842Y-78897932D01*
X116693740Y-78955000D01*
X116986260Y-78955000D01*
X117273158Y-78897932D01*
X117543411Y-78785990D01*
X117786632Y-78623475D01*
X117993475Y-78416632D01*
X118110000Y-78242240D01*
X118226525Y-78416632D01*
X118433368Y-78623475D01*
X118676589Y-78785990D01*
X118946842Y-78897932D01*
X119233740Y-78955000D01*
X119526260Y-78955000D01*
X119813158Y-78897932D01*
X120083411Y-78785990D01*
X120326632Y-78623475D01*
X120533475Y-78416632D01*
X120695990Y-78173411D01*
X120807932Y-77903158D01*
X120865000Y-77616260D01*
X120865000Y-77323740D01*
X122975000Y-77323740D01*
X122975000Y-77616260D01*
X123032068Y-77903158D01*
X123144010Y-78173411D01*
X123306525Y-78416632D01*
X123513368Y-78623475D01*
X123756589Y-78785990D01*
X124026842Y-78897932D01*
X124313740Y-78955000D01*
X124606260Y-78955000D01*
X124893158Y-78897932D01*
X125163411Y-78785990D01*
X125406632Y-78623475D01*
X125538487Y-78491620D01*
X125560498Y-78564180D01*
X125619463Y-78674494D01*
X125698815Y-78771185D01*
X125795506Y-78850537D01*
X125905820Y-78909502D01*
X126025518Y-78945812D01*
X126033961Y-78946643D01*
X125885363Y-79095241D01*
X125728320Y-79330273D01*
X125620147Y-79591426D01*
X125565000Y-79868665D01*
X125565000Y-80151335D01*
X125620147Y-80428574D01*
X125728320Y-80689727D01*
X125885363Y-80924759D01*
X126085241Y-81124637D01*
X126320273Y-81281680D01*
X126581426Y-81389853D01*
X126858665Y-81445000D01*
X127141335Y-81445000D01*
X127418574Y-81389853D01*
X127679727Y-81281680D01*
X127914759Y-81124637D01*
X128114637Y-80924759D01*
X128271680Y-80689727D01*
X128379853Y-80428574D01*
X128435000Y-80151335D01*
X128435000Y-79868665D01*
X128379853Y-79591426D01*
X128271680Y-79330273D01*
X128114637Y-79095241D01*
X127966039Y-78946643D01*
X127974482Y-78945812D01*
X128094180Y-78909502D01*
X128204494Y-78850537D01*
X128301185Y-78771185D01*
X128380537Y-78674494D01*
X128439502Y-78564180D01*
X128475812Y-78444482D01*
X128488072Y-78320000D01*
X128488072Y-76620000D01*
X128475812Y-76495518D01*
X128439502Y-76375820D01*
X128380537Y-76265506D01*
X128301185Y-76168815D01*
X128204494Y-76089463D01*
X128094180Y-76030498D01*
X127974482Y-75994188D01*
X127929127Y-75989721D01*
X131215000Y-75989721D01*
X131215000Y-76410279D01*
X131297047Y-76822756D01*
X131457988Y-77211302D01*
X131691637Y-77560983D01*
X131989017Y-77858363D01*
X132338698Y-78092012D01*
X132727244Y-78252953D01*
X133139721Y-78335000D01*
X133560279Y-78335000D01*
X133972756Y-78252953D01*
X134361302Y-78092012D01*
X134710983Y-77858363D01*
X135008363Y-77560983D01*
X135242012Y-77211302D01*
X135402953Y-76822756D01*
X135485000Y-76410279D01*
X135485000Y-75989721D01*
X135402953Y-75577244D01*
X135242012Y-75188698D01*
X135008363Y-74839017D01*
X134710983Y-74541637D01*
X134361302Y-74307988D01*
X133972756Y-74147047D01*
X133560279Y-74065000D01*
X133139721Y-74065000D01*
X132727244Y-74147047D01*
X132338698Y-74307988D01*
X131989017Y-74541637D01*
X131691637Y-74839017D01*
X131457988Y-75188698D01*
X131297047Y-75577244D01*
X131215000Y-75989721D01*
X127929127Y-75989721D01*
X127850000Y-75981928D01*
X126150000Y-75981928D01*
X126025518Y-75994188D01*
X125905820Y-76030498D01*
X125795506Y-76089463D01*
X125698815Y-76168815D01*
X125619463Y-76265506D01*
X125560498Y-76375820D01*
X125538487Y-76448380D01*
X125406632Y-76316525D01*
X125163411Y-76154010D01*
X124893158Y-76042068D01*
X124606260Y-75985000D01*
X124313740Y-75985000D01*
X124026842Y-76042068D01*
X123756589Y-76154010D01*
X123513368Y-76316525D01*
X123306525Y-76523368D01*
X123144010Y-76766589D01*
X123032068Y-77036842D01*
X122975000Y-77323740D01*
X120865000Y-77323740D01*
X120807932Y-77036842D01*
X120695990Y-76766589D01*
X120533475Y-76523368D01*
X120326632Y-76316525D01*
X120083411Y-76154010D01*
X119813158Y-76042068D01*
X119526260Y-75985000D01*
X119233740Y-75985000D01*
X118946842Y-76042068D01*
X118676589Y-76154010D01*
X118433368Y-76316525D01*
X118226525Y-76523368D01*
X118110000Y-76697760D01*
X117993475Y-76523368D01*
X117786632Y-76316525D01*
X117543411Y-76154010D01*
X117273158Y-76042068D01*
X116986260Y-75985000D01*
X116693740Y-75985000D01*
X116406842Y-76042068D01*
X116136589Y-76154010D01*
X115893368Y-76316525D01*
X115686525Y-76523368D01*
X115524010Y-76766589D01*
X115412068Y-77036842D01*
X115355000Y-77323740D01*
X106915547Y-77323740D01*
X106821335Y-77305000D01*
X106538665Y-77305000D01*
X106261426Y-77360147D01*
X106000273Y-77468320D01*
X105765241Y-77625363D01*
X105565363Y-77825241D01*
X105408320Y-78060273D01*
X105300147Y-78321426D01*
X105245000Y-78598665D01*
X94300572Y-78598665D01*
X94300572Y-77740000D01*
X94288312Y-77615518D01*
X94252002Y-77495820D01*
X94193037Y-77385506D01*
X94113685Y-77288815D01*
X94016994Y-77209463D01*
X93906680Y-77150498D01*
X93786982Y-77114188D01*
X93662500Y-77101928D01*
X91757500Y-77101928D01*
X91633018Y-77114188D01*
X91513320Y-77150498D01*
X91403006Y-77209463D01*
X91306315Y-77288815D01*
X91226963Y-77385506D01*
X91182095Y-77469446D01*
X91056235Y-77366155D01*
X90780449Y-77218745D01*
X90481204Y-77127970D01*
X90170000Y-77097319D01*
X89858797Y-77127970D01*
X89559552Y-77218745D01*
X89283766Y-77366155D01*
X89042037Y-77564537D01*
X88843655Y-77806265D01*
X88696245Y-78082051D01*
X88605470Y-78381296D01*
X88582500Y-78614514D01*
X61087000Y-78614514D01*
X61087000Y-76009419D01*
X64105000Y-76009419D01*
X64105000Y-76390581D01*
X64179361Y-76764419D01*
X64325225Y-77116566D01*
X64536987Y-77433491D01*
X64806509Y-77703013D01*
X65123434Y-77914775D01*
X65475581Y-78060639D01*
X65849419Y-78135000D01*
X66230581Y-78135000D01*
X66604419Y-78060639D01*
X66956566Y-77914775D01*
X67273491Y-77703013D01*
X67543013Y-77433491D01*
X67754775Y-77116566D01*
X67900639Y-76764419D01*
X67975000Y-76390581D01*
X67975000Y-76009419D01*
X67900639Y-75635581D01*
X67754775Y-75283434D01*
X67543013Y-74966509D01*
X67273491Y-74696987D01*
X66956566Y-74485225D01*
X66604419Y-74339361D01*
X66230581Y-74265000D01*
X65849419Y-74265000D01*
X65475581Y-74339361D01*
X65123434Y-74485225D01*
X64806509Y-74696987D01*
X64536987Y-74966509D01*
X64325225Y-75283434D01*
X64179361Y-75635581D01*
X64105000Y-76009419D01*
X61087000Y-76009419D01*
X61087000Y-70929419D01*
X64105000Y-70929419D01*
X64105000Y-71310581D01*
X64179361Y-71684419D01*
X64325225Y-72036566D01*
X64536987Y-72353491D01*
X64806509Y-72623013D01*
X65123434Y-72834775D01*
X65475581Y-72980639D01*
X65849419Y-73055000D01*
X66230581Y-73055000D01*
X66604419Y-72980639D01*
X66956566Y-72834775D01*
X67273491Y-72623013D01*
X67543013Y-72353491D01*
X67602465Y-72264514D01*
X88582500Y-72264514D01*
X88582500Y-72515485D01*
X88605470Y-72748703D01*
X88696245Y-73047948D01*
X88843655Y-73323734D01*
X89042037Y-73565463D01*
X89283765Y-73763845D01*
X89559551Y-73911255D01*
X89858796Y-74002030D01*
X90170000Y-74032681D01*
X90481203Y-74002030D01*
X90780448Y-73911255D01*
X91056234Y-73763845D01*
X91182095Y-73660553D01*
X91226963Y-73744494D01*
X91306315Y-73841185D01*
X91403006Y-73920537D01*
X91513320Y-73979502D01*
X91633018Y-74015812D01*
X91757500Y-74028072D01*
X93662500Y-74028072D01*
X93786982Y-74015812D01*
X93906680Y-73979502D01*
X94016994Y-73920537D01*
X94113685Y-73841185D01*
X94193037Y-73744494D01*
X94252002Y-73634180D01*
X94288312Y-73514482D01*
X94300572Y-73390000D01*
X94300572Y-71390000D01*
X94288312Y-71265518D01*
X94252002Y-71145820D01*
X94193037Y-71035506D01*
X94146389Y-70978665D01*
X101435000Y-70978665D01*
X101435000Y-71261335D01*
X101490147Y-71538574D01*
X101598320Y-71799727D01*
X101755363Y-72034759D01*
X101955241Y-72234637D01*
X102157827Y-72370000D01*
X101955241Y-72505363D01*
X101755363Y-72705241D01*
X101598320Y-72940273D01*
X101490147Y-73201426D01*
X101435000Y-73478665D01*
X101435000Y-73761335D01*
X101490147Y-74038574D01*
X101598320Y-74299727D01*
X101755363Y-74534759D01*
X101955241Y-74734637D01*
X102190273Y-74891680D01*
X102234501Y-74910000D01*
X102190273Y-74928320D01*
X101955241Y-75085363D01*
X101755363Y-75285241D01*
X101598320Y-75520273D01*
X101490147Y-75781426D01*
X101435000Y-76058665D01*
X101435000Y-76341335D01*
X101490147Y-76618574D01*
X101598320Y-76879727D01*
X101755363Y-77114759D01*
X101955241Y-77314637D01*
X102190273Y-77471680D01*
X102451426Y-77579853D01*
X102728665Y-77635000D01*
X103011335Y-77635000D01*
X103288574Y-77579853D01*
X103549727Y-77471680D01*
X103784759Y-77314637D01*
X103984637Y-77114759D01*
X104141680Y-76879727D01*
X104249853Y-76618574D01*
X104305000Y-76341335D01*
X104305000Y-76058665D01*
X104249853Y-75781426D01*
X104141680Y-75520273D01*
X103984637Y-75285241D01*
X103784759Y-75085363D01*
X103549727Y-74928320D01*
X103505499Y-74910000D01*
X103549727Y-74891680D01*
X103784759Y-74734637D01*
X103984637Y-74534759D01*
X104141680Y-74299727D01*
X104249853Y-74038574D01*
X104305000Y-73761335D01*
X104305000Y-73518665D01*
X105245000Y-73518665D01*
X105245000Y-73801335D01*
X105300147Y-74078574D01*
X105408320Y-74339727D01*
X105565363Y-74574759D01*
X105765241Y-74774637D01*
X106000273Y-74931680D01*
X106261426Y-75039853D01*
X106538665Y-75095000D01*
X106821335Y-75095000D01*
X107098574Y-75039853D01*
X107359727Y-74931680D01*
X107594759Y-74774637D01*
X107794637Y-74574759D01*
X107950000Y-74342241D01*
X108105363Y-74574759D01*
X108305241Y-74774637D01*
X108540273Y-74931680D01*
X108801426Y-75039853D01*
X109078665Y-75095000D01*
X109361335Y-75095000D01*
X109638574Y-75039853D01*
X109899727Y-74931680D01*
X110134759Y-74774637D01*
X110334637Y-74574759D01*
X110490000Y-74342241D01*
X110645363Y-74574759D01*
X110845241Y-74774637D01*
X111080273Y-74931680D01*
X111341426Y-75039853D01*
X111618665Y-75095000D01*
X111901335Y-75095000D01*
X112178574Y-75039853D01*
X112439727Y-74931680D01*
X112674759Y-74774637D01*
X112874637Y-74574759D01*
X113030000Y-74342241D01*
X113185363Y-74574759D01*
X113385241Y-74774637D01*
X113620273Y-74931680D01*
X113881426Y-75039853D01*
X114158665Y-75095000D01*
X114441335Y-75095000D01*
X114718574Y-75039853D01*
X114979727Y-74931680D01*
X115214759Y-74774637D01*
X115414637Y-74574759D01*
X115570000Y-74342241D01*
X115725363Y-74574759D01*
X115925241Y-74774637D01*
X116160273Y-74931680D01*
X116421426Y-75039853D01*
X116698665Y-75095000D01*
X116981335Y-75095000D01*
X117258574Y-75039853D01*
X117519727Y-74931680D01*
X117754759Y-74774637D01*
X117954637Y-74574759D01*
X118110000Y-74342241D01*
X118265363Y-74574759D01*
X118465241Y-74774637D01*
X118700273Y-74931680D01*
X118961426Y-75039853D01*
X119238665Y-75095000D01*
X119521335Y-75095000D01*
X119798574Y-75039853D01*
X120059727Y-74931680D01*
X120294759Y-74774637D01*
X120494637Y-74574759D01*
X120651680Y-74339727D01*
X120759853Y-74078574D01*
X120815000Y-73801335D01*
X120815000Y-73518665D01*
X120759853Y-73241426D01*
X120651680Y-72980273D01*
X120494637Y-72745241D01*
X120294759Y-72545363D01*
X120059727Y-72388320D01*
X119798574Y-72280147D01*
X119521335Y-72225000D01*
X119238665Y-72225000D01*
X118961426Y-72280147D01*
X118700273Y-72388320D01*
X118465241Y-72545363D01*
X118265363Y-72745241D01*
X118110000Y-72977759D01*
X117954637Y-72745241D01*
X117754759Y-72545363D01*
X117519727Y-72388320D01*
X117258574Y-72280147D01*
X116981335Y-72225000D01*
X116698665Y-72225000D01*
X116421426Y-72280147D01*
X116160273Y-72388320D01*
X115925241Y-72545363D01*
X115725363Y-72745241D01*
X115570000Y-72977759D01*
X115414637Y-72745241D01*
X115214759Y-72545363D01*
X114979727Y-72388320D01*
X114718574Y-72280147D01*
X114441335Y-72225000D01*
X114158665Y-72225000D01*
X113881426Y-72280147D01*
X113620273Y-72388320D01*
X113385241Y-72545363D01*
X113185363Y-72745241D01*
X113030000Y-72977759D01*
X112874637Y-72745241D01*
X112674759Y-72545363D01*
X112439727Y-72388320D01*
X112178574Y-72280147D01*
X111901335Y-72225000D01*
X111618665Y-72225000D01*
X111341426Y-72280147D01*
X111080273Y-72388320D01*
X110845241Y-72545363D01*
X110645363Y-72745241D01*
X110490000Y-72977759D01*
X110334637Y-72745241D01*
X110134759Y-72545363D01*
X109899727Y-72388320D01*
X109638574Y-72280147D01*
X109361335Y-72225000D01*
X109078665Y-72225000D01*
X108801426Y-72280147D01*
X108540273Y-72388320D01*
X108305241Y-72545363D01*
X108105363Y-72745241D01*
X107950000Y-72977759D01*
X107794637Y-72745241D01*
X107594759Y-72545363D01*
X107359727Y-72388320D01*
X107098574Y-72280147D01*
X106821335Y-72225000D01*
X106538665Y-72225000D01*
X106261426Y-72280147D01*
X106000273Y-72388320D01*
X105765241Y-72545363D01*
X105565363Y-72745241D01*
X105408320Y-72980273D01*
X105300147Y-73241426D01*
X105245000Y-73518665D01*
X104305000Y-73518665D01*
X104305000Y-73478665D01*
X104249853Y-73201426D01*
X104141680Y-72940273D01*
X103984637Y-72705241D01*
X103784759Y-72505363D01*
X103582173Y-72370000D01*
X103784759Y-72234637D01*
X103984637Y-72034759D01*
X104141680Y-71799727D01*
X104249853Y-71538574D01*
X104305000Y-71261335D01*
X104305000Y-70978665D01*
X104249853Y-70701426D01*
X104141680Y-70440273D01*
X103984637Y-70205241D01*
X103784759Y-70005363D01*
X103549727Y-69848320D01*
X103288574Y-69740147D01*
X103011335Y-69685000D01*
X102728665Y-69685000D01*
X102451426Y-69740147D01*
X102190273Y-69848320D01*
X101955241Y-70005363D01*
X101755363Y-70205241D01*
X101598320Y-70440273D01*
X101490147Y-70701426D01*
X101435000Y-70978665D01*
X94146389Y-70978665D01*
X94113685Y-70938815D01*
X94016994Y-70859463D01*
X93906680Y-70800498D01*
X93786982Y-70764188D01*
X93662500Y-70751928D01*
X91757500Y-70751928D01*
X91633018Y-70764188D01*
X91513320Y-70800498D01*
X91403006Y-70859463D01*
X91306315Y-70938815D01*
X91226963Y-71035506D01*
X91182095Y-71119446D01*
X91056235Y-71016155D01*
X90780449Y-70868745D01*
X90481204Y-70777970D01*
X90170000Y-70747319D01*
X89858797Y-70777970D01*
X89559552Y-70868745D01*
X89283766Y-71016155D01*
X89042037Y-71214537D01*
X88843655Y-71456265D01*
X88696245Y-71732051D01*
X88605470Y-72031296D01*
X88582500Y-72264514D01*
X67602465Y-72264514D01*
X67754775Y-72036566D01*
X67900639Y-71684419D01*
X67975000Y-71310581D01*
X67975000Y-70929419D01*
X67900639Y-70555581D01*
X67754775Y-70203434D01*
X67543013Y-69886509D01*
X67273491Y-69616987D01*
X66956566Y-69405225D01*
X66604419Y-69259361D01*
X66230581Y-69185000D01*
X65849419Y-69185000D01*
X65475581Y-69259361D01*
X65123434Y-69405225D01*
X64806509Y-69616987D01*
X64536987Y-69886509D01*
X64325225Y-70203434D01*
X64179361Y-70555581D01*
X64105000Y-70929419D01*
X61087000Y-70929419D01*
X61087000Y-65849419D01*
X64105000Y-65849419D01*
X64105000Y-66230581D01*
X64179361Y-66604419D01*
X64325225Y-66956566D01*
X64536987Y-67273491D01*
X64806509Y-67543013D01*
X65123434Y-67754775D01*
X65475581Y-67900639D01*
X65849419Y-67975000D01*
X66230581Y-67975000D01*
X66604419Y-67900639D01*
X66956566Y-67754775D01*
X67273491Y-67543013D01*
X67543013Y-67273491D01*
X67754775Y-66956566D01*
X67900639Y-66604419D01*
X67975000Y-66230581D01*
X67975000Y-65914514D01*
X88582500Y-65914514D01*
X88582500Y-66165485D01*
X88605470Y-66398703D01*
X88696245Y-66697948D01*
X88843655Y-66973734D01*
X89042037Y-67215463D01*
X89283765Y-67413845D01*
X89559551Y-67561255D01*
X89858796Y-67652030D01*
X90170000Y-67682681D01*
X90481203Y-67652030D01*
X90780448Y-67561255D01*
X91056234Y-67413845D01*
X91182095Y-67310553D01*
X91226963Y-67394494D01*
X91306315Y-67491185D01*
X91403006Y-67570537D01*
X91513320Y-67629502D01*
X91633018Y-67665812D01*
X91757500Y-67678072D01*
X93662500Y-67678072D01*
X93786982Y-67665812D01*
X93906680Y-67629502D01*
X94016994Y-67570537D01*
X94113685Y-67491185D01*
X94193037Y-67394494D01*
X94252002Y-67284180D01*
X94288312Y-67164482D01*
X94300572Y-67040000D01*
X94300572Y-65898665D01*
X105245000Y-65898665D01*
X105245000Y-66181335D01*
X105300147Y-66458574D01*
X105408320Y-66719727D01*
X105565363Y-66954759D01*
X105765241Y-67154637D01*
X106000273Y-67311680D01*
X106261426Y-67419853D01*
X106538665Y-67475000D01*
X106821335Y-67475000D01*
X107098574Y-67419853D01*
X107359727Y-67311680D01*
X107594759Y-67154637D01*
X107794637Y-66954759D01*
X107950000Y-66722241D01*
X108105363Y-66954759D01*
X108305241Y-67154637D01*
X108540273Y-67311680D01*
X108801426Y-67419853D01*
X109078665Y-67475000D01*
X109361335Y-67475000D01*
X109638574Y-67419853D01*
X109899727Y-67311680D01*
X110134759Y-67154637D01*
X110334637Y-66954759D01*
X110490000Y-66722241D01*
X110645363Y-66954759D01*
X110845241Y-67154637D01*
X111080273Y-67311680D01*
X111341426Y-67419853D01*
X111618665Y-67475000D01*
X111901335Y-67475000D01*
X112178574Y-67419853D01*
X112439727Y-67311680D01*
X112674759Y-67154637D01*
X112874637Y-66954759D01*
X113030000Y-66722241D01*
X113185363Y-66954759D01*
X113385241Y-67154637D01*
X113620273Y-67311680D01*
X113881426Y-67419853D01*
X114158665Y-67475000D01*
X114441335Y-67475000D01*
X114718574Y-67419853D01*
X114979727Y-67311680D01*
X115214759Y-67154637D01*
X115414637Y-66954759D01*
X115570000Y-66722241D01*
X115725363Y-66954759D01*
X115925241Y-67154637D01*
X116160273Y-67311680D01*
X116421426Y-67419853D01*
X116698665Y-67475000D01*
X116981335Y-67475000D01*
X117258574Y-67419853D01*
X117519727Y-67311680D01*
X117754759Y-67154637D01*
X117954637Y-66954759D01*
X118110000Y-66722241D01*
X118265363Y-66954759D01*
X118465241Y-67154637D01*
X118700273Y-67311680D01*
X118961426Y-67419853D01*
X119238665Y-67475000D01*
X119521335Y-67475000D01*
X119798574Y-67419853D01*
X120059727Y-67311680D01*
X120294759Y-67154637D01*
X120493357Y-66956039D01*
X120494188Y-66964482D01*
X120530498Y-67084180D01*
X120589463Y-67194494D01*
X120668815Y-67291185D01*
X120765506Y-67370537D01*
X120875820Y-67429502D01*
X120995518Y-67465812D01*
X121120000Y-67478072D01*
X122720000Y-67478072D01*
X122844482Y-67465812D01*
X122964180Y-67429502D01*
X123074494Y-67370537D01*
X123171185Y-67291185D01*
X123250537Y-67194494D01*
X123309502Y-67084180D01*
X123345812Y-66964482D01*
X123358072Y-66840000D01*
X123358072Y-65240000D01*
X123345812Y-65115518D01*
X123309502Y-64995820D01*
X123250537Y-64885506D01*
X123171185Y-64788815D01*
X123074494Y-64709463D01*
X122964180Y-64650498D01*
X122844482Y-64614188D01*
X122720000Y-64601928D01*
X121120000Y-64601928D01*
X120995518Y-64614188D01*
X120875820Y-64650498D01*
X120765506Y-64709463D01*
X120668815Y-64788815D01*
X120589463Y-64885506D01*
X120530498Y-64995820D01*
X120494188Y-65115518D01*
X120493357Y-65123961D01*
X120294759Y-64925363D01*
X120059727Y-64768320D01*
X119798574Y-64660147D01*
X119521335Y-64605000D01*
X119238665Y-64605000D01*
X118961426Y-64660147D01*
X118700273Y-64768320D01*
X118465241Y-64925363D01*
X118265363Y-65125241D01*
X118110000Y-65357759D01*
X117954637Y-65125241D01*
X117754759Y-64925363D01*
X117519727Y-64768320D01*
X117258574Y-64660147D01*
X116981335Y-64605000D01*
X116698665Y-64605000D01*
X116421426Y-64660147D01*
X116160273Y-64768320D01*
X115925241Y-64925363D01*
X115725363Y-65125241D01*
X115570000Y-65357759D01*
X115414637Y-65125241D01*
X115214759Y-64925363D01*
X114979727Y-64768320D01*
X114718574Y-64660147D01*
X114441335Y-64605000D01*
X114158665Y-64605000D01*
X113881426Y-64660147D01*
X113620273Y-64768320D01*
X113385241Y-64925363D01*
X113185363Y-65125241D01*
X113030000Y-65357759D01*
X112874637Y-65125241D01*
X112674759Y-64925363D01*
X112439727Y-64768320D01*
X112178574Y-64660147D01*
X111901335Y-64605000D01*
X111618665Y-64605000D01*
X111341426Y-64660147D01*
X111080273Y-64768320D01*
X110845241Y-64925363D01*
X110645363Y-65125241D01*
X110490000Y-65357759D01*
X110334637Y-65125241D01*
X110134759Y-64925363D01*
X109899727Y-64768320D01*
X109638574Y-64660147D01*
X109361335Y-64605000D01*
X109078665Y-64605000D01*
X108801426Y-64660147D01*
X108540273Y-64768320D01*
X108305241Y-64925363D01*
X108105363Y-65125241D01*
X107950000Y-65357759D01*
X107794637Y-65125241D01*
X107594759Y-64925363D01*
X107359727Y-64768320D01*
X107098574Y-64660147D01*
X106821335Y-64605000D01*
X106538665Y-64605000D01*
X106261426Y-64660147D01*
X106000273Y-64768320D01*
X105765241Y-64925363D01*
X105565363Y-65125241D01*
X105408320Y-65360273D01*
X105300147Y-65621426D01*
X105245000Y-65898665D01*
X94300572Y-65898665D01*
X94300572Y-65040000D01*
X94288312Y-64915518D01*
X94252002Y-64795820D01*
X94193037Y-64685506D01*
X94113685Y-64588815D01*
X94016994Y-64509463D01*
X93906680Y-64450498D01*
X93786982Y-64414188D01*
X93662500Y-64401928D01*
X91757500Y-64401928D01*
X91633018Y-64414188D01*
X91513320Y-64450498D01*
X91403006Y-64509463D01*
X91306315Y-64588815D01*
X91226963Y-64685506D01*
X91182095Y-64769446D01*
X91056235Y-64666155D01*
X90780449Y-64518745D01*
X90481204Y-64427970D01*
X90170000Y-64397319D01*
X89858797Y-64427970D01*
X89559552Y-64518745D01*
X89283766Y-64666155D01*
X89042037Y-64864537D01*
X88843655Y-65106265D01*
X88696245Y-65382051D01*
X88605470Y-65681296D01*
X88582500Y-65914514D01*
X67975000Y-65914514D01*
X67975000Y-65849419D01*
X67900639Y-65475581D01*
X67754775Y-65123434D01*
X67543013Y-64806509D01*
X67273491Y-64536987D01*
X66956566Y-64325225D01*
X66604419Y-64179361D01*
X66230581Y-64105000D01*
X65849419Y-64105000D01*
X65475581Y-64179361D01*
X65123434Y-64325225D01*
X64806509Y-64536987D01*
X64536987Y-64806509D01*
X64325225Y-65123434D01*
X64179361Y-65475581D01*
X64105000Y-65849419D01*
X61087000Y-65849419D01*
X61087000Y-60769419D01*
X64105000Y-60769419D01*
X64105000Y-61150581D01*
X64179361Y-61524419D01*
X64325225Y-61876566D01*
X64536987Y-62193491D01*
X64806509Y-62463013D01*
X65123434Y-62674775D01*
X65475581Y-62820639D01*
X65849419Y-62895000D01*
X66230581Y-62895000D01*
X66604419Y-62820639D01*
X66956566Y-62674775D01*
X67273491Y-62463013D01*
X67543013Y-62193491D01*
X67613055Y-62088665D01*
X102705000Y-62088665D01*
X102705000Y-62371335D01*
X102760147Y-62648574D01*
X102868320Y-62909727D01*
X103025363Y-63144759D01*
X103225241Y-63344637D01*
X103460273Y-63501680D01*
X103721426Y-63609853D01*
X103998665Y-63665000D01*
X104281335Y-63665000D01*
X104558574Y-63609853D01*
X104819727Y-63501680D01*
X105054759Y-63344637D01*
X105254637Y-63144759D01*
X105411680Y-62909727D01*
X105519853Y-62648574D01*
X105575000Y-62371335D01*
X105575000Y-62088665D01*
X106515000Y-62088665D01*
X106515000Y-62371335D01*
X106570147Y-62648574D01*
X106678320Y-62909727D01*
X106835363Y-63144759D01*
X107035241Y-63344637D01*
X107270273Y-63501680D01*
X107531426Y-63609853D01*
X107808665Y-63665000D01*
X108091335Y-63665000D01*
X108368574Y-63609853D01*
X108629727Y-63501680D01*
X108864759Y-63344637D01*
X109064637Y-63144759D01*
X109221680Y-62909727D01*
X109329853Y-62648574D01*
X109385000Y-62371335D01*
X109385000Y-62088665D01*
X110325000Y-62088665D01*
X110325000Y-62371335D01*
X110380147Y-62648574D01*
X110488320Y-62909727D01*
X110645363Y-63144759D01*
X110845241Y-63344637D01*
X111080273Y-63501680D01*
X111341426Y-63609853D01*
X111618665Y-63665000D01*
X111901335Y-63665000D01*
X112178574Y-63609853D01*
X112439727Y-63501680D01*
X112674759Y-63344637D01*
X112874637Y-63144759D01*
X113031680Y-62909727D01*
X113139853Y-62648574D01*
X113195000Y-62371335D01*
X113195000Y-62088665D01*
X114135000Y-62088665D01*
X114135000Y-62371335D01*
X114190147Y-62648574D01*
X114298320Y-62909727D01*
X114455363Y-63144759D01*
X114655241Y-63344637D01*
X114890273Y-63501680D01*
X115151426Y-63609853D01*
X115428665Y-63665000D01*
X115711335Y-63665000D01*
X115988574Y-63609853D01*
X116249727Y-63501680D01*
X116484759Y-63344637D01*
X116684637Y-63144759D01*
X116841680Y-62909727D01*
X116949853Y-62648574D01*
X117005000Y-62371335D01*
X117005000Y-62088665D01*
X117945000Y-62088665D01*
X117945000Y-62371335D01*
X118000147Y-62648574D01*
X118108320Y-62909727D01*
X118265363Y-63144759D01*
X118465241Y-63344637D01*
X118700273Y-63501680D01*
X118961426Y-63609853D01*
X119238665Y-63665000D01*
X119521335Y-63665000D01*
X119798574Y-63609853D01*
X120059727Y-63501680D01*
X120294759Y-63344637D01*
X120494637Y-63144759D01*
X120651680Y-62909727D01*
X120759853Y-62648574D01*
X120815000Y-62371335D01*
X120815000Y-62088665D01*
X121755000Y-62088665D01*
X121755000Y-62371335D01*
X121810147Y-62648574D01*
X121918320Y-62909727D01*
X122075363Y-63144759D01*
X122275241Y-63344637D01*
X122510273Y-63501680D01*
X122771426Y-63609853D01*
X123048665Y-63665000D01*
X123331335Y-63665000D01*
X123608574Y-63609853D01*
X123869727Y-63501680D01*
X124104759Y-63344637D01*
X124304637Y-63144759D01*
X124461680Y-62909727D01*
X124569853Y-62648574D01*
X124625000Y-62371335D01*
X124625000Y-62096544D01*
X129455000Y-62096544D01*
X129455000Y-62363456D01*
X129507072Y-62625239D01*
X129609215Y-62871833D01*
X129757503Y-63093762D01*
X129946238Y-63282497D01*
X130168167Y-63430785D01*
X130414761Y-63532928D01*
X130676544Y-63585000D01*
X130943456Y-63585000D01*
X131205239Y-63532928D01*
X131451833Y-63430785D01*
X131673762Y-63282497D01*
X131862497Y-63093762D01*
X132010785Y-62871833D01*
X132112928Y-62625239D01*
X132165000Y-62363456D01*
X132165000Y-62230000D01*
X136787319Y-62230000D01*
X136817970Y-62541204D01*
X136908745Y-62840449D01*
X137056155Y-63116235D01*
X137254537Y-63357963D01*
X137496265Y-63556345D01*
X137772051Y-63703755D01*
X138071296Y-63794530D01*
X138304514Y-63817500D01*
X138555486Y-63817500D01*
X138788704Y-63794530D01*
X139087949Y-63703755D01*
X139363735Y-63556345D01*
X139605463Y-63357963D01*
X139803845Y-63116235D01*
X139951255Y-62840449D01*
X140042030Y-62541204D01*
X140072681Y-62230000D01*
X140042030Y-61918796D01*
X139951255Y-61619551D01*
X139803845Y-61343765D01*
X139605463Y-61102037D01*
X139363735Y-60903655D01*
X139087949Y-60756245D01*
X138788704Y-60665470D01*
X138555486Y-60642500D01*
X138304514Y-60642500D01*
X138071296Y-60665470D01*
X137772051Y-60756245D01*
X137496265Y-60903655D01*
X137254537Y-61102037D01*
X137056155Y-61343765D01*
X136908745Y-61619551D01*
X136817970Y-61918796D01*
X136787319Y-62230000D01*
X132165000Y-62230000D01*
X132165000Y-62096544D01*
X132112928Y-61834761D01*
X132010785Y-61588167D01*
X131862497Y-61366238D01*
X131673762Y-61177503D01*
X131451833Y-61029215D01*
X131205239Y-60927072D01*
X130943456Y-60875000D01*
X130676544Y-60875000D01*
X130414761Y-60927072D01*
X130168167Y-61029215D01*
X129946238Y-61177503D01*
X129757503Y-61366238D01*
X129609215Y-61588167D01*
X129507072Y-61834761D01*
X129455000Y-62096544D01*
X124625000Y-62096544D01*
X124625000Y-62088665D01*
X124569853Y-61811426D01*
X124461680Y-61550273D01*
X124304637Y-61315241D01*
X124104759Y-61115363D01*
X123869727Y-60958320D01*
X123608574Y-60850147D01*
X123331335Y-60795000D01*
X123048665Y-60795000D01*
X122771426Y-60850147D01*
X122510273Y-60958320D01*
X122275241Y-61115363D01*
X122075363Y-61315241D01*
X121918320Y-61550273D01*
X121810147Y-61811426D01*
X121755000Y-62088665D01*
X120815000Y-62088665D01*
X120759853Y-61811426D01*
X120651680Y-61550273D01*
X120494637Y-61315241D01*
X120294759Y-61115363D01*
X120059727Y-60958320D01*
X119798574Y-60850147D01*
X119521335Y-60795000D01*
X119238665Y-60795000D01*
X118961426Y-60850147D01*
X118700273Y-60958320D01*
X118465241Y-61115363D01*
X118265363Y-61315241D01*
X118108320Y-61550273D01*
X118000147Y-61811426D01*
X117945000Y-62088665D01*
X117005000Y-62088665D01*
X116949853Y-61811426D01*
X116841680Y-61550273D01*
X116684637Y-61315241D01*
X116484759Y-61115363D01*
X116249727Y-60958320D01*
X115988574Y-60850147D01*
X115711335Y-60795000D01*
X115428665Y-60795000D01*
X115151426Y-60850147D01*
X114890273Y-60958320D01*
X114655241Y-61115363D01*
X114455363Y-61315241D01*
X114298320Y-61550273D01*
X114190147Y-61811426D01*
X114135000Y-62088665D01*
X113195000Y-62088665D01*
X113139853Y-61811426D01*
X113031680Y-61550273D01*
X112874637Y-61315241D01*
X112674759Y-61115363D01*
X112439727Y-60958320D01*
X112178574Y-60850147D01*
X111901335Y-60795000D01*
X111618665Y-60795000D01*
X111341426Y-60850147D01*
X111080273Y-60958320D01*
X110845241Y-61115363D01*
X110645363Y-61315241D01*
X110488320Y-61550273D01*
X110380147Y-61811426D01*
X110325000Y-62088665D01*
X109385000Y-62088665D01*
X109329853Y-61811426D01*
X109221680Y-61550273D01*
X109064637Y-61315241D01*
X108864759Y-61115363D01*
X108629727Y-60958320D01*
X108368574Y-60850147D01*
X108091335Y-60795000D01*
X107808665Y-60795000D01*
X107531426Y-60850147D01*
X107270273Y-60958320D01*
X107035241Y-61115363D01*
X106835363Y-61315241D01*
X106678320Y-61550273D01*
X106570147Y-61811426D01*
X106515000Y-62088665D01*
X105575000Y-62088665D01*
X105519853Y-61811426D01*
X105411680Y-61550273D01*
X105254637Y-61315241D01*
X105054759Y-61115363D01*
X104819727Y-60958320D01*
X104558574Y-60850147D01*
X104281335Y-60795000D01*
X103998665Y-60795000D01*
X103721426Y-60850147D01*
X103460273Y-60958320D01*
X103225241Y-61115363D01*
X103025363Y-61315241D01*
X102868320Y-61550273D01*
X102760147Y-61811426D01*
X102705000Y-62088665D01*
X67613055Y-62088665D01*
X67754775Y-61876566D01*
X67900639Y-61524419D01*
X67975000Y-61150581D01*
X67975000Y-60769419D01*
X67900639Y-60395581D01*
X67754775Y-60043434D01*
X67543013Y-59726509D01*
X67381018Y-59564514D01*
X88582500Y-59564514D01*
X88582500Y-59815485D01*
X88605470Y-60048703D01*
X88696245Y-60347948D01*
X88843655Y-60623734D01*
X89042037Y-60865463D01*
X89283765Y-61063845D01*
X89559551Y-61211255D01*
X89858796Y-61302030D01*
X90170000Y-61332681D01*
X90481203Y-61302030D01*
X90780448Y-61211255D01*
X91056234Y-61063845D01*
X91182095Y-60960553D01*
X91226963Y-61044494D01*
X91306315Y-61141185D01*
X91403006Y-61220537D01*
X91513320Y-61279502D01*
X91633018Y-61315812D01*
X91757500Y-61328072D01*
X93662500Y-61328072D01*
X93786982Y-61315812D01*
X93906680Y-61279502D01*
X94016994Y-61220537D01*
X94113685Y-61141185D01*
X94193037Y-61044494D01*
X94252002Y-60934180D01*
X94288312Y-60814482D01*
X94300572Y-60690000D01*
X94300572Y-59556544D01*
X126915000Y-59556544D01*
X126915000Y-59823456D01*
X126967072Y-60085239D01*
X127069215Y-60331833D01*
X127217503Y-60553762D01*
X127406238Y-60742497D01*
X127628167Y-60890785D01*
X127874761Y-60992928D01*
X128136544Y-61045000D01*
X128403456Y-61045000D01*
X128665239Y-60992928D01*
X128911833Y-60890785D01*
X129133762Y-60742497D01*
X129322497Y-60553762D01*
X129470785Y-60331833D01*
X129572928Y-60085239D01*
X129625000Y-59823456D01*
X129625000Y-59556544D01*
X129572928Y-59294761D01*
X129470785Y-59048167D01*
X129322497Y-58826238D01*
X129133762Y-58637503D01*
X128911833Y-58489215D01*
X128665239Y-58387072D01*
X128403456Y-58335000D01*
X128136544Y-58335000D01*
X127874761Y-58387072D01*
X127628167Y-58489215D01*
X127406238Y-58637503D01*
X127217503Y-58826238D01*
X127069215Y-59048167D01*
X126967072Y-59294761D01*
X126915000Y-59556544D01*
X94300572Y-59556544D01*
X94300572Y-58690000D01*
X94288312Y-58565518D01*
X94252002Y-58445820D01*
X94193037Y-58335506D01*
X94113685Y-58238815D01*
X94016994Y-58159463D01*
X93906680Y-58100498D01*
X93786982Y-58064188D01*
X93662500Y-58051928D01*
X91757500Y-58051928D01*
X91633018Y-58064188D01*
X91513320Y-58100498D01*
X91403006Y-58159463D01*
X91306315Y-58238815D01*
X91226963Y-58335506D01*
X91182095Y-58419446D01*
X91056235Y-58316155D01*
X90780449Y-58168745D01*
X90481204Y-58077970D01*
X90170000Y-58047319D01*
X89858797Y-58077970D01*
X89559552Y-58168745D01*
X89283766Y-58316155D01*
X89042037Y-58514537D01*
X88843655Y-58756265D01*
X88696245Y-59032051D01*
X88605470Y-59331296D01*
X88582500Y-59564514D01*
X67381018Y-59564514D01*
X67273491Y-59456987D01*
X66956566Y-59245225D01*
X66604419Y-59099361D01*
X66230581Y-59025000D01*
X65849419Y-59025000D01*
X65475581Y-59099361D01*
X65123434Y-59245225D01*
X64806509Y-59456987D01*
X64536987Y-59726509D01*
X64325225Y-60043434D01*
X64179361Y-60395581D01*
X64105000Y-60769419D01*
X61087000Y-60769419D01*
X61087000Y-55689419D01*
X64105000Y-55689419D01*
X64105000Y-56070581D01*
X64179361Y-56444419D01*
X64325225Y-56796566D01*
X64536987Y-57113491D01*
X64806509Y-57383013D01*
X65123434Y-57594775D01*
X65475581Y-57740639D01*
X65849419Y-57815000D01*
X66230581Y-57815000D01*
X66604419Y-57740639D01*
X66956566Y-57594775D01*
X67273491Y-57383013D01*
X67543013Y-57113491D01*
X67754775Y-56796566D01*
X67900639Y-56444419D01*
X67975000Y-56070581D01*
X67975000Y-55689419D01*
X67900639Y-55315581D01*
X67823769Y-55130000D01*
X90276928Y-55130000D01*
X90276928Y-56630000D01*
X90289188Y-56754482D01*
X90325498Y-56874180D01*
X90384463Y-56984494D01*
X90463815Y-57081185D01*
X90560506Y-57160537D01*
X90670820Y-57219502D01*
X90790518Y-57255812D01*
X90915000Y-57268072D01*
X91965000Y-57268072D01*
X92089482Y-57255812D01*
X92209180Y-57219502D01*
X92273902Y-57184907D01*
X92482601Y-57248215D01*
X92710000Y-57270612D01*
X92937400Y-57248215D01*
X93156060Y-57181885D01*
X93357579Y-57074171D01*
X93534212Y-56929212D01*
X93679171Y-56752579D01*
X93786885Y-56551059D01*
X93853215Y-56332399D01*
X93866501Y-56197500D01*
X136791928Y-56197500D01*
X136791928Y-58102500D01*
X136804188Y-58226982D01*
X136840498Y-58346680D01*
X136899463Y-58456994D01*
X136978815Y-58553685D01*
X137075506Y-58633037D01*
X137185820Y-58692002D01*
X137305518Y-58728312D01*
X137430000Y-58740572D01*
X139430000Y-58740572D01*
X139554482Y-58728312D01*
X139674180Y-58692002D01*
X139784494Y-58633037D01*
X139881185Y-58553685D01*
X139960537Y-58456994D01*
X140019502Y-58346680D01*
X140055812Y-58226982D01*
X140068072Y-58102500D01*
X140068072Y-56197500D01*
X140055812Y-56073018D01*
X140019502Y-55953320D01*
X139960537Y-55843006D01*
X139881185Y-55746315D01*
X139784494Y-55666963D01*
X139674180Y-55607998D01*
X139554482Y-55571688D01*
X139430000Y-55559428D01*
X137430000Y-55559428D01*
X137305518Y-55571688D01*
X137185820Y-55607998D01*
X137075506Y-55666963D01*
X136978815Y-55746315D01*
X136899463Y-55843006D01*
X136840498Y-55953320D01*
X136804188Y-56073018D01*
X136791928Y-56197500D01*
X93866501Y-56197500D01*
X93870000Y-56161978D01*
X93870000Y-55598021D01*
X93853215Y-55427600D01*
X93786885Y-55208940D01*
X93679171Y-55007421D01*
X93534212Y-54830788D01*
X93357578Y-54685829D01*
X93156059Y-54578115D01*
X92937399Y-54511785D01*
X92710000Y-54489388D01*
X92482600Y-54511785D01*
X92273902Y-54575093D01*
X92209180Y-54540498D01*
X92089482Y-54504188D01*
X91965000Y-54491928D01*
X90915000Y-54491928D01*
X90790518Y-54504188D01*
X90670820Y-54540498D01*
X90560506Y-54599463D01*
X90463815Y-54678815D01*
X90384463Y-54775506D01*
X90325498Y-54885820D01*
X90289188Y-55005518D01*
X90276928Y-55130000D01*
X67823769Y-55130000D01*
X67754775Y-54963434D01*
X67543013Y-54646509D01*
X67273491Y-54376987D01*
X66956566Y-54165225D01*
X66604419Y-54019361D01*
X66230581Y-53945000D01*
X65849419Y-53945000D01*
X65475581Y-54019361D01*
X65123434Y-54165225D01*
X64806509Y-54376987D01*
X64536987Y-54646509D01*
X64325225Y-54963434D01*
X64179361Y-55315581D01*
X64105000Y-55689419D01*
X61087000Y-55689419D01*
X61087000Y-50609419D01*
X64105000Y-50609419D01*
X64105000Y-50990581D01*
X64179361Y-51364419D01*
X64325225Y-51716566D01*
X64536987Y-52033491D01*
X64806509Y-52303013D01*
X65123434Y-52514775D01*
X65475581Y-52660639D01*
X65849419Y-52735000D01*
X66230581Y-52735000D01*
X66604419Y-52660639D01*
X66956566Y-52514775D01*
X67273491Y-52303013D01*
X67543013Y-52033491D01*
X67754775Y-51716566D01*
X67900639Y-51364419D01*
X67975000Y-50990581D01*
X67975000Y-50609419D01*
X67900639Y-50235581D01*
X67823769Y-50050000D01*
X95356928Y-50050000D01*
X95356928Y-51550000D01*
X95369188Y-51674482D01*
X95405498Y-51794180D01*
X95464463Y-51904494D01*
X95543815Y-52001185D01*
X95640506Y-52080537D01*
X95750820Y-52139502D01*
X95870518Y-52175812D01*
X95995000Y-52188072D01*
X97045000Y-52188072D01*
X97169482Y-52175812D01*
X97289180Y-52139502D01*
X97353902Y-52104907D01*
X97562601Y-52168215D01*
X97790000Y-52190612D01*
X98017400Y-52168215D01*
X98236060Y-52101885D01*
X98437579Y-51994171D01*
X98517398Y-51928665D01*
X121755000Y-51928665D01*
X121755000Y-52211335D01*
X121810147Y-52488574D01*
X121918320Y-52749727D01*
X122075363Y-52984759D01*
X122275241Y-53184637D01*
X122510273Y-53341680D01*
X122771426Y-53449853D01*
X123048665Y-53505000D01*
X123331335Y-53505000D01*
X123608574Y-53449853D01*
X123869727Y-53341680D01*
X124104759Y-53184637D01*
X124304637Y-52984759D01*
X124460000Y-52752241D01*
X124615363Y-52984759D01*
X124815241Y-53184637D01*
X125050273Y-53341680D01*
X125311426Y-53449853D01*
X125588665Y-53505000D01*
X125871335Y-53505000D01*
X126148574Y-53449853D01*
X126409727Y-53341680D01*
X126644759Y-53184637D01*
X126844637Y-52984759D01*
X127001680Y-52749727D01*
X127109853Y-52488574D01*
X127165000Y-52211335D01*
X127165000Y-51928665D01*
X134455000Y-51928665D01*
X134455000Y-52211335D01*
X134510147Y-52488574D01*
X134618320Y-52749727D01*
X134775363Y-52984759D01*
X134975241Y-53184637D01*
X135210273Y-53341680D01*
X135471426Y-53449853D01*
X135748665Y-53505000D01*
X136031335Y-53505000D01*
X136308574Y-53449853D01*
X136569727Y-53341680D01*
X136804759Y-53184637D01*
X137004637Y-52984759D01*
X137160000Y-52752241D01*
X137315363Y-52984759D01*
X137515241Y-53184637D01*
X137750273Y-53341680D01*
X138011426Y-53449853D01*
X138288665Y-53505000D01*
X138571335Y-53505000D01*
X138848574Y-53449853D01*
X139109727Y-53341680D01*
X139344759Y-53184637D01*
X139544637Y-52984759D01*
X139701680Y-52749727D01*
X139809853Y-52488574D01*
X139865000Y-52211335D01*
X139865000Y-51928665D01*
X139809853Y-51651426D01*
X139701680Y-51390273D01*
X139544637Y-51155241D01*
X139344759Y-50955363D01*
X139142173Y-50820000D01*
X139344759Y-50684637D01*
X139544637Y-50484759D01*
X139701680Y-50249727D01*
X139809853Y-49988574D01*
X139865000Y-49711335D01*
X139865000Y-49428665D01*
X139809853Y-49151426D01*
X139701680Y-48890273D01*
X139544637Y-48655241D01*
X139344759Y-48455363D01*
X139109727Y-48298320D01*
X138848574Y-48190147D01*
X138571335Y-48135000D01*
X138288665Y-48135000D01*
X138011426Y-48190147D01*
X137750273Y-48298320D01*
X137515241Y-48455363D01*
X137315363Y-48655241D01*
X137158320Y-48890273D01*
X137050147Y-49151426D01*
X136995000Y-49428665D01*
X136995000Y-49711335D01*
X137050147Y-49988574D01*
X137158320Y-50249727D01*
X137315363Y-50484759D01*
X137515241Y-50684637D01*
X137717827Y-50820000D01*
X137515241Y-50955363D01*
X137315363Y-51155241D01*
X137160000Y-51387759D01*
X137004637Y-51155241D01*
X136804759Y-50955363D01*
X136569727Y-50798320D01*
X136308574Y-50690147D01*
X136031335Y-50635000D01*
X135748665Y-50635000D01*
X135471426Y-50690147D01*
X135210273Y-50798320D01*
X134975241Y-50955363D01*
X134775363Y-51155241D01*
X134618320Y-51390273D01*
X134510147Y-51651426D01*
X134455000Y-51928665D01*
X127165000Y-51928665D01*
X127109853Y-51651426D01*
X127001680Y-51390273D01*
X126844637Y-51155241D01*
X126644759Y-50955363D01*
X126409727Y-50798320D01*
X126148574Y-50690147D01*
X125871335Y-50635000D01*
X125588665Y-50635000D01*
X125311426Y-50690147D01*
X125050273Y-50798320D01*
X124815241Y-50955363D01*
X124615363Y-51155241D01*
X124460000Y-51387759D01*
X124304637Y-51155241D01*
X124104759Y-50955363D01*
X123869727Y-50798320D01*
X123608574Y-50690147D01*
X123331335Y-50635000D01*
X123048665Y-50635000D01*
X122771426Y-50690147D01*
X122510273Y-50798320D01*
X122275241Y-50955363D01*
X122075363Y-51155241D01*
X121918320Y-51390273D01*
X121810147Y-51651426D01*
X121755000Y-51928665D01*
X98517398Y-51928665D01*
X98614212Y-51849212D01*
X98759171Y-51672579D01*
X98866885Y-51471059D01*
X98933215Y-51252399D01*
X98950000Y-51081978D01*
X98950000Y-50518021D01*
X98933215Y-50347600D01*
X98866885Y-50128940D01*
X98759171Y-49927421D01*
X98614212Y-49750788D01*
X98437578Y-49605829D01*
X98236059Y-49498115D01*
X98017399Y-49431785D01*
X97790000Y-49409388D01*
X97562600Y-49431785D01*
X97353902Y-49495093D01*
X97289180Y-49460498D01*
X97169482Y-49424188D01*
X97045000Y-49411928D01*
X95995000Y-49411928D01*
X95870518Y-49424188D01*
X95750820Y-49460498D01*
X95640506Y-49519463D01*
X95543815Y-49598815D01*
X95464463Y-49695506D01*
X95405498Y-49805820D01*
X95369188Y-49925518D01*
X95356928Y-50050000D01*
X67823769Y-50050000D01*
X67754775Y-49883434D01*
X67543013Y-49566509D01*
X67273491Y-49296987D01*
X66956566Y-49085225D01*
X66604419Y-48939361D01*
X66230581Y-48865000D01*
X65849419Y-48865000D01*
X65475581Y-48939361D01*
X65123434Y-49085225D01*
X64806509Y-49296987D01*
X64536987Y-49566509D01*
X64325225Y-49883434D01*
X64179361Y-50235581D01*
X64105000Y-50609419D01*
X61087000Y-50609419D01*
X61087000Y-48118665D01*
X111595000Y-48118665D01*
X111595000Y-48401335D01*
X111650147Y-48678574D01*
X111758320Y-48939727D01*
X111915363Y-49174759D01*
X112115241Y-49374637D01*
X112350273Y-49531680D01*
X112611426Y-49639853D01*
X112888665Y-49695000D01*
X113171335Y-49695000D01*
X113448574Y-49639853D01*
X113709727Y-49531680D01*
X113944759Y-49374637D01*
X114144637Y-49174759D01*
X114301680Y-48939727D01*
X114409853Y-48678574D01*
X114465000Y-48401335D01*
X114465000Y-48118665D01*
X121755000Y-48118665D01*
X121755000Y-48401335D01*
X121810147Y-48678574D01*
X121918320Y-48939727D01*
X122075363Y-49174759D01*
X122275241Y-49374637D01*
X122510273Y-49531680D01*
X122771426Y-49639853D01*
X123048665Y-49695000D01*
X123331335Y-49695000D01*
X123608574Y-49639853D01*
X123869727Y-49531680D01*
X124104759Y-49374637D01*
X124304637Y-49174759D01*
X124461680Y-48939727D01*
X124569853Y-48678574D01*
X124625000Y-48401335D01*
X124625000Y-48118665D01*
X124569853Y-47841426D01*
X124461680Y-47580273D01*
X124304637Y-47345241D01*
X124104759Y-47145363D01*
X123869727Y-46988320D01*
X123608574Y-46880147D01*
X123331335Y-46825000D01*
X123048665Y-46825000D01*
X122771426Y-46880147D01*
X122510273Y-46988320D01*
X122275241Y-47145363D01*
X122075363Y-47345241D01*
X121918320Y-47580273D01*
X121810147Y-47841426D01*
X121755000Y-48118665D01*
X114465000Y-48118665D01*
X114409853Y-47841426D01*
X114301680Y-47580273D01*
X114144637Y-47345241D01*
X113944759Y-47145363D01*
X113709727Y-46988320D01*
X113448574Y-46880147D01*
X113171335Y-46825000D01*
X112888665Y-46825000D01*
X112611426Y-46880147D01*
X112350273Y-46988320D01*
X112115241Y-47145363D01*
X111915363Y-47345241D01*
X111758320Y-47580273D01*
X111650147Y-47841426D01*
X111595000Y-48118665D01*
X61087000Y-48118665D01*
X61087000Y-44288967D01*
X107585000Y-44288967D01*
X107585000Y-44611033D01*
X107647832Y-44926912D01*
X107771082Y-45224463D01*
X107950013Y-45492252D01*
X108177748Y-45719987D01*
X108445537Y-45898918D01*
X108743088Y-46022168D01*
X109058967Y-46085000D01*
X109381033Y-46085000D01*
X109696912Y-46022168D01*
X109994463Y-45898918D01*
X110262252Y-45719987D01*
X110489987Y-45492252D01*
X110668918Y-45224463D01*
X110792168Y-44926912D01*
X110855000Y-44611033D01*
X110855000Y-44288967D01*
X122825000Y-44288967D01*
X122825000Y-44611033D01*
X122887832Y-44926912D01*
X123011082Y-45224463D01*
X123190013Y-45492252D01*
X123417748Y-45719987D01*
X123685537Y-45898918D01*
X123983088Y-46022168D01*
X124298967Y-46085000D01*
X124621033Y-46085000D01*
X124936912Y-46022168D01*
X125234463Y-45898918D01*
X125502252Y-45719987D01*
X125729987Y-45492252D01*
X125908918Y-45224463D01*
X126032168Y-44926912D01*
X126095000Y-44611033D01*
X126095000Y-44470000D01*
X136888843Y-44470000D01*
X136913412Y-44719454D01*
X136986175Y-44959321D01*
X137104336Y-45180384D01*
X137218916Y-45320000D01*
X137104336Y-45459616D01*
X136986175Y-45680679D01*
X136913412Y-45920546D01*
X136888843Y-46170000D01*
X136913412Y-46419454D01*
X136986175Y-46659321D01*
X137104336Y-46880384D01*
X137263353Y-47074147D01*
X137457116Y-47233164D01*
X137678179Y-47351325D01*
X137918046Y-47424088D01*
X138104987Y-47442500D01*
X138755013Y-47442500D01*
X138941954Y-47424088D01*
X139181821Y-47351325D01*
X139402884Y-47233164D01*
X139596647Y-47074147D01*
X139755664Y-46880384D01*
X139873825Y-46659321D01*
X139946588Y-46419454D01*
X139971157Y-46170000D01*
X139946588Y-45920546D01*
X139873825Y-45680679D01*
X139755664Y-45459616D01*
X139641084Y-45320000D01*
X139755664Y-45180384D01*
X139873825Y-44959321D01*
X139946588Y-44719454D01*
X139971157Y-44470000D01*
X139946588Y-44220546D01*
X139873825Y-43980679D01*
X139755664Y-43759616D01*
X139596647Y-43565853D01*
X139402884Y-43406836D01*
X139181821Y-43288675D01*
X138941954Y-43215912D01*
X138755013Y-43197500D01*
X138104987Y-43197500D01*
X137918046Y-43215912D01*
X137678179Y-43288675D01*
X137457116Y-43406836D01*
X137263353Y-43565853D01*
X137104336Y-43759616D01*
X136986175Y-43980679D01*
X136913412Y-44220546D01*
X136888843Y-44470000D01*
X126095000Y-44470000D01*
X126095000Y-44288967D01*
X126032168Y-43973088D01*
X125908918Y-43675537D01*
X125729987Y-43407748D01*
X125502252Y-43180013D01*
X125234463Y-43001082D01*
X124936912Y-42877832D01*
X124621033Y-42815000D01*
X124298967Y-42815000D01*
X123983088Y-42877832D01*
X123685537Y-43001082D01*
X123417748Y-43180013D01*
X123190013Y-43407748D01*
X123011082Y-43675537D01*
X122887832Y-43973088D01*
X122825000Y-44288967D01*
X110855000Y-44288967D01*
X110792168Y-43973088D01*
X110668918Y-43675537D01*
X110489987Y-43407748D01*
X110262252Y-43180013D01*
X109994463Y-43001082D01*
X109696912Y-42877832D01*
X109381033Y-42815000D01*
X109058967Y-42815000D01*
X108743088Y-42877832D01*
X108445537Y-43001082D01*
X108177748Y-43180013D01*
X107950013Y-43407748D01*
X107771082Y-43675537D01*
X107647832Y-43973088D01*
X107585000Y-44288967D01*
X61087000Y-44288967D01*
X61087000Y-40449419D01*
X64105000Y-40449419D01*
X64105000Y-40830581D01*
X64179361Y-41204419D01*
X64325225Y-41556566D01*
X64536987Y-41873491D01*
X64806509Y-42143013D01*
X65123434Y-42354775D01*
X65475581Y-42500639D01*
X65849419Y-42575000D01*
X66230581Y-42575000D01*
X66604419Y-42500639D01*
X66956566Y-42354775D01*
X67273491Y-42143013D01*
X67543013Y-41873491D01*
X67754775Y-41556566D01*
X67900639Y-41204419D01*
X67975000Y-40830581D01*
X67975000Y-40449419D01*
X67900639Y-40075581D01*
X67754775Y-39723434D01*
X67565391Y-39440000D01*
X88966928Y-39440000D01*
X88966928Y-41840000D01*
X88979188Y-41964482D01*
X89015498Y-42084180D01*
X89074463Y-42194494D01*
X89153815Y-42291185D01*
X89250506Y-42370537D01*
X89360820Y-42429502D01*
X89480518Y-42465812D01*
X89605000Y-42478072D01*
X92005000Y-42478072D01*
X92129482Y-42465812D01*
X92249180Y-42429502D01*
X92359494Y-42370537D01*
X92456185Y-42291185D01*
X92535537Y-42194494D01*
X92594502Y-42084180D01*
X92630812Y-41964482D01*
X92643072Y-41840000D01*
X92643072Y-39440000D01*
X92630812Y-39315518D01*
X92594502Y-39195820D01*
X92535537Y-39085506D01*
X92456185Y-38988815D01*
X92359494Y-38909463D01*
X92249180Y-38850498D01*
X92129482Y-38814188D01*
X92005000Y-38801928D01*
X89605000Y-38801928D01*
X89480518Y-38814188D01*
X89360820Y-38850498D01*
X89250506Y-38909463D01*
X89153815Y-38988815D01*
X89074463Y-39085506D01*
X89015498Y-39195820D01*
X88979188Y-39315518D01*
X88966928Y-39440000D01*
X67565391Y-39440000D01*
X67543013Y-39406509D01*
X67273491Y-39136987D01*
X66956566Y-38925225D01*
X66604419Y-38779361D01*
X66230581Y-38705000D01*
X65849419Y-38705000D01*
X65475581Y-38779361D01*
X65123434Y-38925225D01*
X64806509Y-39136987D01*
X64536987Y-39406509D01*
X64325225Y-39723434D01*
X64179361Y-40075581D01*
X64105000Y-40449419D01*
X61087000Y-40449419D01*
X61087000Y-35369419D01*
X64105000Y-35369419D01*
X64105000Y-35750581D01*
X64179361Y-36124419D01*
X64325225Y-36476566D01*
X64536987Y-36793491D01*
X64806509Y-37063013D01*
X65123434Y-37274775D01*
X65475581Y-37420639D01*
X65849419Y-37495000D01*
X66230581Y-37495000D01*
X66604419Y-37420639D01*
X66956566Y-37274775D01*
X67218135Y-37100000D01*
X101866928Y-37100000D01*
X101866928Y-39100000D01*
X101879188Y-39224482D01*
X101915498Y-39344180D01*
X101974463Y-39454494D01*
X102053815Y-39551185D01*
X102150506Y-39630537D01*
X102260820Y-39689502D01*
X102380518Y-39725812D01*
X102505000Y-39738072D01*
X104505000Y-39738072D01*
X104629482Y-39725812D01*
X104749180Y-39689502D01*
X104859494Y-39630537D01*
X104956185Y-39551185D01*
X105035537Y-39454494D01*
X105094502Y-39344180D01*
X105130812Y-39224482D01*
X105143072Y-39100000D01*
X105143072Y-37770000D01*
X131111928Y-37770000D01*
X131111928Y-40970000D01*
X131124188Y-41094482D01*
X131160498Y-41214180D01*
X131219463Y-41324494D01*
X131298815Y-41421185D01*
X131395506Y-41500537D01*
X131505820Y-41559502D01*
X131625518Y-41595812D01*
X131750000Y-41608072D01*
X134950000Y-41608072D01*
X135074482Y-41595812D01*
X135194180Y-41559502D01*
X135304494Y-41500537D01*
X135401185Y-41421185D01*
X135480537Y-41324494D01*
X135539502Y-41214180D01*
X135575812Y-41094482D01*
X135578223Y-41070000D01*
X136888843Y-41070000D01*
X136913412Y-41319454D01*
X136986175Y-41559321D01*
X137104336Y-41780384D01*
X137263353Y-41974147D01*
X137457116Y-42133164D01*
X137678179Y-42251325D01*
X137918046Y-42324088D01*
X138104987Y-42342500D01*
X138755013Y-42342500D01*
X138941954Y-42324088D01*
X139181821Y-42251325D01*
X139402884Y-42133164D01*
X139596647Y-41974147D01*
X139755664Y-41780384D01*
X139873825Y-41559321D01*
X139946588Y-41319454D01*
X139971157Y-41070000D01*
X139946588Y-40820546D01*
X139873825Y-40580679D01*
X139797798Y-40438442D01*
X139860537Y-40361994D01*
X139919502Y-40251680D01*
X139955812Y-40131982D01*
X139968072Y-40007500D01*
X139968072Y-38732500D01*
X139955812Y-38608018D01*
X139919502Y-38488320D01*
X139860537Y-38378006D01*
X139781185Y-38281315D01*
X139684494Y-38201963D01*
X139574180Y-38142998D01*
X139454482Y-38106688D01*
X139330000Y-38094428D01*
X137530000Y-38094428D01*
X137405518Y-38106688D01*
X137285820Y-38142998D01*
X137175506Y-38201963D01*
X137078815Y-38281315D01*
X136999463Y-38378006D01*
X136940498Y-38488320D01*
X136904188Y-38608018D01*
X136891928Y-38732500D01*
X136891928Y-40007500D01*
X136904188Y-40131982D01*
X136940498Y-40251680D01*
X136999463Y-40361994D01*
X137062202Y-40438442D01*
X136986175Y-40580679D01*
X136913412Y-40820546D01*
X136888843Y-41070000D01*
X135578223Y-41070000D01*
X135588072Y-40970000D01*
X135588072Y-37770000D01*
X135575812Y-37645518D01*
X135539502Y-37525820D01*
X135480537Y-37415506D01*
X135401185Y-37318815D01*
X135304494Y-37239463D01*
X135194180Y-37180498D01*
X135074482Y-37144188D01*
X134950000Y-37131928D01*
X131750000Y-37131928D01*
X131625518Y-37144188D01*
X131505820Y-37180498D01*
X131395506Y-37239463D01*
X131298815Y-37318815D01*
X131219463Y-37415506D01*
X131160498Y-37525820D01*
X131124188Y-37645518D01*
X131111928Y-37770000D01*
X105143072Y-37770000D01*
X105143072Y-37100000D01*
X105130812Y-36975518D01*
X105094502Y-36855820D01*
X105035537Y-36745506D01*
X104956185Y-36648815D01*
X104859494Y-36569463D01*
X104749180Y-36510498D01*
X104629482Y-36474188D01*
X104505000Y-36461928D01*
X102505000Y-36461928D01*
X102380518Y-36474188D01*
X102260820Y-36510498D01*
X102150506Y-36569463D01*
X102053815Y-36648815D01*
X101974463Y-36745506D01*
X101915498Y-36855820D01*
X101879188Y-36975518D01*
X101866928Y-37100000D01*
X67218135Y-37100000D01*
X67273491Y-37063013D01*
X67543013Y-36793491D01*
X67754775Y-36476566D01*
X67900639Y-36124419D01*
X67975000Y-35750581D01*
X67975000Y-35369419D01*
X67900639Y-34995581D01*
X67754775Y-34643434D01*
X67543013Y-34326509D01*
X67273491Y-34056987D01*
X66956566Y-33845225D01*
X66604419Y-33699361D01*
X66230581Y-33625000D01*
X65849419Y-33625000D01*
X65475581Y-33699361D01*
X65123434Y-33845225D01*
X64806509Y-34056987D01*
X64536987Y-34326509D01*
X64325225Y-34643434D01*
X64179361Y-34995581D01*
X64105000Y-35369419D01*
X61087000Y-35369419D01*
X61087000Y-33147000D01*
X140843000Y-33147000D01*
X140843000Y-91313000D01*
G04 #@! TA.AperFunction,Conductor*
D36*
G36*
X140843000Y-91313000D02*
G01*
X127872311Y-91313000D01*
X127914759Y-91284637D01*
X128114637Y-91084759D01*
X128271680Y-90849727D01*
X128379853Y-90588574D01*
X128435000Y-90311335D01*
X128435000Y-90028665D01*
X128379853Y-89751426D01*
X128271680Y-89490273D01*
X128114637Y-89255241D01*
X127914759Y-89055363D01*
X127679727Y-88898320D01*
X127418574Y-88790147D01*
X127141335Y-88735000D01*
X126858665Y-88735000D01*
X126581426Y-88790147D01*
X126320273Y-88898320D01*
X126085241Y-89055363D01*
X125885363Y-89255241D01*
X125728320Y-89490273D01*
X125620147Y-89751426D01*
X125565000Y-90028665D01*
X125565000Y-90311335D01*
X125620147Y-90588574D01*
X125728320Y-90849727D01*
X125885363Y-91084759D01*
X126085241Y-91284637D01*
X126127689Y-91313000D01*
X61087000Y-91313000D01*
X61087000Y-88758665D01*
X96435000Y-88758665D01*
X96435000Y-89041335D01*
X96490147Y-89318574D01*
X96598320Y-89579727D01*
X96755363Y-89814759D01*
X96955241Y-90014637D01*
X97190273Y-90171680D01*
X97451426Y-90279853D01*
X97728665Y-90335000D01*
X98011335Y-90335000D01*
X98288574Y-90279853D01*
X98549727Y-90171680D01*
X98784759Y-90014637D01*
X98984637Y-89814759D01*
X99141680Y-89579727D01*
X99249853Y-89318574D01*
X99305000Y-89041335D01*
X99305000Y-88758665D01*
X99249853Y-88481426D01*
X99141680Y-88220273D01*
X98984637Y-87985241D01*
X98784759Y-87785363D01*
X98748534Y-87761158D01*
X98918665Y-87795000D01*
X99201335Y-87795000D01*
X99478574Y-87739853D01*
X99739727Y-87631680D01*
X99974759Y-87474637D01*
X100174637Y-87274759D01*
X100331680Y-87039727D01*
X100439853Y-86778574D01*
X100495000Y-86501335D01*
X100495000Y-86218665D01*
X101435000Y-86218665D01*
X101435000Y-86501335D01*
X101490147Y-86778574D01*
X101598320Y-87039727D01*
X101755363Y-87274759D01*
X101955241Y-87474637D01*
X102187759Y-87630000D01*
X101955241Y-87785363D01*
X101755363Y-87985241D01*
X101598320Y-88220273D01*
X101490147Y-88481426D01*
X101435000Y-88758665D01*
X101435000Y-89041335D01*
X101490147Y-89318574D01*
X101598320Y-89579727D01*
X101755363Y-89814759D01*
X101955241Y-90014637D01*
X102190273Y-90171680D01*
X102451426Y-90279853D01*
X102728665Y-90335000D01*
X103011335Y-90335000D01*
X103288574Y-90279853D01*
X103549727Y-90171680D01*
X103784759Y-90014637D01*
X103984637Y-89814759D01*
X104141680Y-89579727D01*
X104249853Y-89318574D01*
X104305000Y-89041335D01*
X104305000Y-88758665D01*
X104249853Y-88481426D01*
X104141680Y-88220273D01*
X103984637Y-87985241D01*
X103784759Y-87785363D01*
X103552241Y-87630000D01*
X103754284Y-87495000D01*
X110197847Y-87495000D01*
X110071426Y-87520147D01*
X109810273Y-87628320D01*
X109575241Y-87785363D01*
X109375363Y-87985241D01*
X109218320Y-88220273D01*
X109110147Y-88481426D01*
X109055000Y-88758665D01*
X109055000Y-89041335D01*
X109110147Y-89318574D01*
X109218320Y-89579727D01*
X109375363Y-89814759D01*
X109575241Y-90014637D01*
X109810273Y-90171680D01*
X110071426Y-90279853D01*
X110348665Y-90335000D01*
X110631335Y-90335000D01*
X110908574Y-90279853D01*
X111169727Y-90171680D01*
X111404759Y-90014637D01*
X111604637Y-89814759D01*
X111761680Y-89579727D01*
X111869853Y-89318574D01*
X111925000Y-89041335D01*
X111925000Y-88758665D01*
X111869853Y-88481426D01*
X111761680Y-88220273D01*
X111604637Y-87985241D01*
X111404759Y-87785363D01*
X111169727Y-87628320D01*
X110908574Y-87520147D01*
X110782153Y-87495000D01*
X114007847Y-87495000D01*
X113881426Y-87520147D01*
X113620273Y-87628320D01*
X113385241Y-87785363D01*
X113185363Y-87985241D01*
X113028320Y-88220273D01*
X112920147Y-88481426D01*
X112865000Y-88758665D01*
X112865000Y-89041335D01*
X112920147Y-89318574D01*
X113028320Y-89579727D01*
X113185363Y-89814759D01*
X113385241Y-90014637D01*
X113620273Y-90171680D01*
X113881426Y-90279853D01*
X114158665Y-90335000D01*
X114441335Y-90335000D01*
X114718574Y-90279853D01*
X114979727Y-90171680D01*
X115214759Y-90014637D01*
X115414637Y-89814759D01*
X115570000Y-89582241D01*
X115725363Y-89814759D01*
X115925241Y-90014637D01*
X116160273Y-90171680D01*
X116421426Y-90279853D01*
X116698665Y-90335000D01*
X116981335Y-90335000D01*
X117258574Y-90279853D01*
X117519727Y-90171680D01*
X117754759Y-90014637D01*
X117954637Y-89814759D01*
X118111680Y-89579727D01*
X118219853Y-89318574D01*
X118275000Y-89041335D01*
X118275000Y-88758665D01*
X118219853Y-88481426D01*
X118111680Y-88220273D01*
X117954637Y-87985241D01*
X117754759Y-87785363D01*
X117519727Y-87628320D01*
X117258574Y-87520147D01*
X117132153Y-87495000D01*
X121627847Y-87495000D01*
X121501426Y-87520147D01*
X121240273Y-87628320D01*
X121005241Y-87785363D01*
X120805363Y-87985241D01*
X120648320Y-88220273D01*
X120540147Y-88481426D01*
X120485000Y-88758665D01*
X120485000Y-89041335D01*
X120540147Y-89318574D01*
X120648320Y-89579727D01*
X120805363Y-89814759D01*
X121005241Y-90014637D01*
X121240273Y-90171680D01*
X121501426Y-90279853D01*
X121778665Y-90335000D01*
X122061335Y-90335000D01*
X122338574Y-90279853D01*
X122599727Y-90171680D01*
X122834759Y-90014637D01*
X123034637Y-89814759D01*
X123191680Y-89579727D01*
X123299853Y-89318574D01*
X123355000Y-89041335D01*
X123355000Y-88758665D01*
X123299853Y-88481426D01*
X123191680Y-88220273D01*
X123034637Y-87985241D01*
X122834759Y-87785363D01*
X122599727Y-87628320D01*
X122338574Y-87520147D01*
X122212153Y-87495000D01*
X130517847Y-87495000D01*
X130391426Y-87520147D01*
X130130273Y-87628320D01*
X129895241Y-87785363D01*
X129695363Y-87985241D01*
X129538320Y-88220273D01*
X129430147Y-88481426D01*
X129375000Y-88758665D01*
X129375000Y-89041335D01*
X129430147Y-89318574D01*
X129538320Y-89579727D01*
X129695363Y-89814759D01*
X129895241Y-90014637D01*
X130130273Y-90171680D01*
X130391426Y-90279853D01*
X130668665Y-90335000D01*
X130951335Y-90335000D01*
X131228574Y-90279853D01*
X131489727Y-90171680D01*
X131724759Y-90014637D01*
X131924637Y-89814759D01*
X132080000Y-89582241D01*
X132235363Y-89814759D01*
X132435241Y-90014637D01*
X132670273Y-90171680D01*
X132931426Y-90279853D01*
X133208665Y-90335000D01*
X133491335Y-90335000D01*
X133768574Y-90279853D01*
X134029727Y-90171680D01*
X134264759Y-90014637D01*
X134464637Y-89814759D01*
X134620000Y-89582241D01*
X134775363Y-89814759D01*
X134975241Y-90014637D01*
X135210273Y-90171680D01*
X135471426Y-90279853D01*
X135748665Y-90335000D01*
X136031335Y-90335000D01*
X136308574Y-90279853D01*
X136569727Y-90171680D01*
X136804759Y-90014637D01*
X137004637Y-89814759D01*
X137160000Y-89582241D01*
X137315363Y-89814759D01*
X137515241Y-90014637D01*
X137750273Y-90171680D01*
X138011426Y-90279853D01*
X138288665Y-90335000D01*
X138571335Y-90335000D01*
X138848574Y-90279853D01*
X139109727Y-90171680D01*
X139344759Y-90014637D01*
X139544637Y-89814759D01*
X139701680Y-89579727D01*
X139809853Y-89318574D01*
X139865000Y-89041335D01*
X139865000Y-88758665D01*
X139809853Y-88481426D01*
X139701680Y-88220273D01*
X139544637Y-87985241D01*
X139344759Y-87785363D01*
X139109727Y-87628320D01*
X138848574Y-87520147D01*
X138571335Y-87465000D01*
X138288665Y-87465000D01*
X138011426Y-87520147D01*
X137750273Y-87628320D01*
X137515241Y-87785363D01*
X137315363Y-87985241D01*
X137160000Y-88217759D01*
X137004637Y-87985241D01*
X136804759Y-87785363D01*
X136569727Y-87628320D01*
X136308574Y-87520147D01*
X136031335Y-87465000D01*
X135748665Y-87465000D01*
X135471426Y-87520147D01*
X135210273Y-87628320D01*
X134975241Y-87785363D01*
X134775363Y-87985241D01*
X134620000Y-88217759D01*
X134464637Y-87985241D01*
X134264759Y-87785363D01*
X134029727Y-87628320D01*
X133768574Y-87520147D01*
X133563865Y-87479427D01*
X133572499Y-87478577D01*
X133786447Y-87413676D01*
X133983623Y-87308284D01*
X134156449Y-87166449D01*
X134298284Y-86993623D01*
X134403676Y-86796447D01*
X134468577Y-86582499D01*
X134485000Y-86415752D01*
X134490491Y-86360000D01*
X134485000Y-86304248D01*
X134485000Y-82164284D01*
X134621680Y-81959727D01*
X134729853Y-81698574D01*
X134785000Y-81421335D01*
X134785000Y-81138665D01*
X134729853Y-80861426D01*
X134621680Y-80600273D01*
X134541317Y-80480000D01*
X136991928Y-80480000D01*
X136991928Y-82080000D01*
X137004188Y-82204482D01*
X137040498Y-82324180D01*
X137099463Y-82434494D01*
X137178815Y-82531185D01*
X137275506Y-82610537D01*
X137385820Y-82669502D01*
X137505518Y-82705812D01*
X137630000Y-82718072D01*
X139230000Y-82718072D01*
X139354482Y-82705812D01*
X139474180Y-82669502D01*
X139584494Y-82610537D01*
X139681185Y-82531185D01*
X139760537Y-82434494D01*
X139819502Y-82324180D01*
X139855812Y-82204482D01*
X139868072Y-82080000D01*
X139868072Y-80480000D01*
X139855812Y-80355518D01*
X139819502Y-80235820D01*
X139760537Y-80125506D01*
X139681185Y-80028815D01*
X139584494Y-79949463D01*
X139474180Y-79890498D01*
X139354482Y-79854188D01*
X139230000Y-79841928D01*
X137630000Y-79841928D01*
X137505518Y-79854188D01*
X137385820Y-79890498D01*
X137275506Y-79949463D01*
X137178815Y-80028815D01*
X137099463Y-80125506D01*
X137040498Y-80235820D01*
X137004188Y-80355518D01*
X136991928Y-80480000D01*
X134541317Y-80480000D01*
X134464637Y-80365241D01*
X134264759Y-80165363D01*
X134029727Y-80008320D01*
X133768574Y-79900147D01*
X133491335Y-79845000D01*
X133208665Y-79845000D01*
X132931426Y-79900147D01*
X132670273Y-80008320D01*
X132435241Y-80165363D01*
X132235363Y-80365241D01*
X132078320Y-80600273D01*
X131970147Y-80861426D01*
X131915000Y-81138665D01*
X131915000Y-81421335D01*
X131970147Y-81698574D01*
X132078320Y-81959727D01*
X132215000Y-82164284D01*
X132215001Y-85225000D01*
X103754284Y-85225000D01*
X103549727Y-85088320D01*
X103288574Y-84980147D01*
X103011335Y-84925000D01*
X102728665Y-84925000D01*
X102451426Y-84980147D01*
X102190273Y-85088320D01*
X101955241Y-85245363D01*
X101755363Y-85445241D01*
X101598320Y-85680273D01*
X101490147Y-85941426D01*
X101435000Y-86218665D01*
X100495000Y-86218665D01*
X100439853Y-85941426D01*
X100331680Y-85680273D01*
X100174637Y-85445241D01*
X99974759Y-85245363D01*
X99739727Y-85088320D01*
X99478574Y-84980147D01*
X99201335Y-84925000D01*
X98918665Y-84925000D01*
X98641426Y-84980147D01*
X98380273Y-85088320D01*
X98145241Y-85245363D01*
X97945363Y-85445241D01*
X97788320Y-85680273D01*
X97680147Y-85941426D01*
X97625000Y-86218665D01*
X97625000Y-86501335D01*
X97680147Y-86778574D01*
X97788320Y-87039727D01*
X97945363Y-87274759D01*
X98145241Y-87474637D01*
X98181466Y-87498842D01*
X98011335Y-87465000D01*
X97728665Y-87465000D01*
X97451426Y-87520147D01*
X97190273Y-87628320D01*
X96955241Y-87785363D01*
X96755363Y-87985241D01*
X96598320Y-88220273D01*
X96490147Y-88481426D01*
X96435000Y-88758665D01*
X61087000Y-88758665D01*
X61087000Y-85060000D01*
X64101928Y-85060000D01*
X64101928Y-87660000D01*
X64114188Y-87784482D01*
X64150498Y-87904180D01*
X64209463Y-88014494D01*
X64288815Y-88111185D01*
X64385506Y-88190537D01*
X64495820Y-88249502D01*
X64615518Y-88285812D01*
X64740000Y-88298072D01*
X67340000Y-88298072D01*
X67464482Y-88285812D01*
X67584180Y-88249502D01*
X67694494Y-88190537D01*
X67791185Y-88111185D01*
X67870537Y-88014494D01*
X67929502Y-87904180D01*
X67965812Y-87784482D01*
X67978072Y-87660000D01*
X67978072Y-85560000D01*
X84921928Y-85560000D01*
X84921928Y-87160000D01*
X84934188Y-87284482D01*
X84970498Y-87404180D01*
X85029463Y-87514494D01*
X85108815Y-87611185D01*
X85205506Y-87690537D01*
X85315820Y-87749502D01*
X85435518Y-87785812D01*
X85560000Y-87798072D01*
X87160000Y-87798072D01*
X87284482Y-87785812D01*
X87404180Y-87749502D01*
X87514494Y-87690537D01*
X87611185Y-87611185D01*
X87690537Y-87514494D01*
X87749502Y-87404180D01*
X87785812Y-87284482D01*
X87798072Y-87160000D01*
X87798072Y-86218665D01*
X88425000Y-86218665D01*
X88425000Y-86501335D01*
X88480147Y-86778574D01*
X88588320Y-87039727D01*
X88745363Y-87274759D01*
X88945241Y-87474637D01*
X89180273Y-87631680D01*
X89441426Y-87739853D01*
X89718665Y-87795000D01*
X90001335Y-87795000D01*
X90278574Y-87739853D01*
X90539727Y-87631680D01*
X90774759Y-87474637D01*
X90974637Y-87274759D01*
X91131680Y-87039727D01*
X91239853Y-86778574D01*
X91295000Y-86501335D01*
X91295000Y-86218665D01*
X91239853Y-85941426D01*
X91131680Y-85680273D01*
X90974637Y-85445241D01*
X90774759Y-85245363D01*
X90539727Y-85088320D01*
X90278574Y-84980147D01*
X90001335Y-84925000D01*
X89718665Y-84925000D01*
X89441426Y-84980147D01*
X89180273Y-85088320D01*
X88945241Y-85245363D01*
X88745363Y-85445241D01*
X88588320Y-85680273D01*
X88480147Y-85941426D01*
X88425000Y-86218665D01*
X87798072Y-86218665D01*
X87798072Y-85560000D01*
X87785812Y-85435518D01*
X87749502Y-85315820D01*
X87690537Y-85205506D01*
X87611185Y-85108815D01*
X87514494Y-85029463D01*
X87404180Y-84970498D01*
X87284482Y-84934188D01*
X87160000Y-84921928D01*
X85560000Y-84921928D01*
X85435518Y-84934188D01*
X85315820Y-84970498D01*
X85205506Y-85029463D01*
X85108815Y-85108815D01*
X85029463Y-85205506D01*
X84970498Y-85315820D01*
X84934188Y-85435518D01*
X84921928Y-85560000D01*
X67978072Y-85560000D01*
X67978072Y-85060000D01*
X67965812Y-84935518D01*
X67929502Y-84815820D01*
X67870537Y-84705506D01*
X67791185Y-84608815D01*
X67694494Y-84529463D01*
X67584180Y-84470498D01*
X67464482Y-84434188D01*
X67340000Y-84421928D01*
X64740000Y-84421928D01*
X64615518Y-84434188D01*
X64495820Y-84470498D01*
X64385506Y-84529463D01*
X64288815Y-84608815D01*
X64209463Y-84705506D01*
X64150498Y-84815820D01*
X64114188Y-84935518D01*
X64101928Y-85060000D01*
X61087000Y-85060000D01*
X61087000Y-81089419D01*
X64105000Y-81089419D01*
X64105000Y-81470581D01*
X64179361Y-81844419D01*
X64325225Y-82196566D01*
X64536987Y-82513491D01*
X64806509Y-82783013D01*
X65123434Y-82994775D01*
X65475581Y-83140639D01*
X65849419Y-83215000D01*
X66230581Y-83215000D01*
X66604419Y-83140639D01*
X66956566Y-82994775D01*
X67273491Y-82783013D01*
X67543013Y-82513491D01*
X67754775Y-82196566D01*
X67900639Y-81844419D01*
X67975000Y-81470581D01*
X67975000Y-81089419D01*
X67900639Y-80715581D01*
X67754775Y-80363434D01*
X67543013Y-80046509D01*
X67273491Y-79776987D01*
X66956566Y-79565225D01*
X66604419Y-79419361D01*
X66230581Y-79345000D01*
X65849419Y-79345000D01*
X65475581Y-79419361D01*
X65123434Y-79565225D01*
X64806509Y-79776987D01*
X64536987Y-80046509D01*
X64325225Y-80363434D01*
X64179361Y-80715581D01*
X64105000Y-81089419D01*
X61087000Y-81089419D01*
X61087000Y-78614514D01*
X88582500Y-78614514D01*
X88582500Y-78865485D01*
X88605470Y-79098703D01*
X88696245Y-79397948D01*
X88843655Y-79673734D01*
X89042037Y-79915463D01*
X89283765Y-80113845D01*
X89559551Y-80261255D01*
X89858796Y-80352030D01*
X90170000Y-80382681D01*
X90481203Y-80352030D01*
X90780448Y-80261255D01*
X91056234Y-80113845D01*
X91182095Y-80010553D01*
X91226963Y-80094494D01*
X91306315Y-80191185D01*
X91403006Y-80270537D01*
X91513320Y-80329502D01*
X91633018Y-80365812D01*
X91757500Y-80378072D01*
X93662500Y-80378072D01*
X93786982Y-80365812D01*
X93906680Y-80329502D01*
X94016994Y-80270537D01*
X94113685Y-80191185D01*
X94193037Y-80094494D01*
X94252002Y-79984180D01*
X94288312Y-79864482D01*
X94300572Y-79740000D01*
X94300572Y-78598665D01*
X105245000Y-78598665D01*
X105245000Y-78881335D01*
X105300147Y-79158574D01*
X105408320Y-79419727D01*
X105565363Y-79654759D01*
X105765241Y-79854637D01*
X106000273Y-80011680D01*
X106261426Y-80119853D01*
X106538665Y-80175000D01*
X106821335Y-80175000D01*
X107098574Y-80119853D01*
X107359727Y-80011680D01*
X107594759Y-79854637D01*
X107794637Y-79654759D01*
X107951680Y-79419727D01*
X108059853Y-79158574D01*
X108115000Y-78881335D01*
X108115000Y-78598665D01*
X108059853Y-78321426D01*
X107951680Y-78060273D01*
X107794637Y-77825241D01*
X107594759Y-77625363D01*
X107359727Y-77468320D01*
X107098574Y-77360147D01*
X106915547Y-77323740D01*
X115355000Y-77323740D01*
X115355000Y-77616260D01*
X115412068Y-77903158D01*
X115524010Y-78173411D01*
X115686525Y-78416632D01*
X115893368Y-78623475D01*
X116136589Y-78785990D01*
X116406842Y-78897932D01*
X116693740Y-78955000D01*
X116986260Y-78955000D01*
X117273158Y-78897932D01*
X117543411Y-78785990D01*
X117786632Y-78623475D01*
X117993475Y-78416632D01*
X118110000Y-78242240D01*
X118226525Y-78416632D01*
X118433368Y-78623475D01*
X118676589Y-78785990D01*
X118946842Y-78897932D01*
X119233740Y-78955000D01*
X119526260Y-78955000D01*
X119813158Y-78897932D01*
X120083411Y-78785990D01*
X120326632Y-78623475D01*
X120533475Y-78416632D01*
X120695990Y-78173411D01*
X120807932Y-77903158D01*
X120865000Y-77616260D01*
X120865000Y-77323740D01*
X122975000Y-77323740D01*
X122975000Y-77616260D01*
X123032068Y-77903158D01*
X123144010Y-78173411D01*
X123306525Y-78416632D01*
X123513368Y-78623475D01*
X123756589Y-78785990D01*
X124026842Y-78897932D01*
X124313740Y-78955000D01*
X124606260Y-78955000D01*
X124893158Y-78897932D01*
X125163411Y-78785990D01*
X125406632Y-78623475D01*
X125538487Y-78491620D01*
X125560498Y-78564180D01*
X125619463Y-78674494D01*
X125698815Y-78771185D01*
X125795506Y-78850537D01*
X125905820Y-78909502D01*
X126025518Y-78945812D01*
X126033961Y-78946643D01*
X125885363Y-79095241D01*
X125728320Y-79330273D01*
X125620147Y-79591426D01*
X125565000Y-79868665D01*
X125565000Y-80151335D01*
X125620147Y-80428574D01*
X125728320Y-80689727D01*
X125885363Y-80924759D01*
X126085241Y-81124637D01*
X126320273Y-81281680D01*
X126581426Y-81389853D01*
X126858665Y-81445000D01*
X127141335Y-81445000D01*
X127418574Y-81389853D01*
X127679727Y-81281680D01*
X127914759Y-81124637D01*
X128114637Y-80924759D01*
X128271680Y-80689727D01*
X128379853Y-80428574D01*
X128435000Y-80151335D01*
X128435000Y-79868665D01*
X128379853Y-79591426D01*
X128271680Y-79330273D01*
X128114637Y-79095241D01*
X127966039Y-78946643D01*
X127974482Y-78945812D01*
X128094180Y-78909502D01*
X128204494Y-78850537D01*
X128301185Y-78771185D01*
X128380537Y-78674494D01*
X128439502Y-78564180D01*
X128475812Y-78444482D01*
X128488072Y-78320000D01*
X128488072Y-76620000D01*
X128475812Y-76495518D01*
X128439502Y-76375820D01*
X128380537Y-76265506D01*
X128301185Y-76168815D01*
X128204494Y-76089463D01*
X128094180Y-76030498D01*
X127974482Y-75994188D01*
X127929127Y-75989721D01*
X131215000Y-75989721D01*
X131215000Y-76410279D01*
X131297047Y-76822756D01*
X131457988Y-77211302D01*
X131691637Y-77560983D01*
X131989017Y-77858363D01*
X132338698Y-78092012D01*
X132727244Y-78252953D01*
X133139721Y-78335000D01*
X133560279Y-78335000D01*
X133972756Y-78252953D01*
X134361302Y-78092012D01*
X134710983Y-77858363D01*
X135008363Y-77560983D01*
X135242012Y-77211302D01*
X135402953Y-76822756D01*
X135485000Y-76410279D01*
X135485000Y-75989721D01*
X135402953Y-75577244D01*
X135242012Y-75188698D01*
X135008363Y-74839017D01*
X134710983Y-74541637D01*
X134361302Y-74307988D01*
X133972756Y-74147047D01*
X133560279Y-74065000D01*
X133139721Y-74065000D01*
X132727244Y-74147047D01*
X132338698Y-74307988D01*
X131989017Y-74541637D01*
X131691637Y-74839017D01*
X131457988Y-75188698D01*
X131297047Y-75577244D01*
X131215000Y-75989721D01*
X127929127Y-75989721D01*
X127850000Y-75981928D01*
X126150000Y-75981928D01*
X126025518Y-75994188D01*
X125905820Y-76030498D01*
X125795506Y-76089463D01*
X125698815Y-76168815D01*
X125619463Y-76265506D01*
X125560498Y-76375820D01*
X125538487Y-76448380D01*
X125406632Y-76316525D01*
X125163411Y-76154010D01*
X124893158Y-76042068D01*
X124606260Y-75985000D01*
X124313740Y-75985000D01*
X124026842Y-76042068D01*
X123756589Y-76154010D01*
X123513368Y-76316525D01*
X123306525Y-76523368D01*
X123144010Y-76766589D01*
X123032068Y-77036842D01*
X122975000Y-77323740D01*
X120865000Y-77323740D01*
X120807932Y-77036842D01*
X120695990Y-76766589D01*
X120533475Y-76523368D01*
X120326632Y-76316525D01*
X120083411Y-76154010D01*
X119813158Y-76042068D01*
X119526260Y-75985000D01*
X119233740Y-75985000D01*
X118946842Y-76042068D01*
X118676589Y-76154010D01*
X118433368Y-76316525D01*
X118226525Y-76523368D01*
X118110000Y-76697760D01*
X117993475Y-76523368D01*
X117786632Y-76316525D01*
X117543411Y-76154010D01*
X117273158Y-76042068D01*
X116986260Y-75985000D01*
X116693740Y-75985000D01*
X116406842Y-76042068D01*
X116136589Y-76154010D01*
X115893368Y-76316525D01*
X115686525Y-76523368D01*
X115524010Y-76766589D01*
X115412068Y-77036842D01*
X115355000Y-77323740D01*
X106915547Y-77323740D01*
X106821335Y-77305000D01*
X106538665Y-77305000D01*
X106261426Y-77360147D01*
X106000273Y-77468320D01*
X105765241Y-77625363D01*
X105565363Y-77825241D01*
X105408320Y-78060273D01*
X105300147Y-78321426D01*
X105245000Y-78598665D01*
X94300572Y-78598665D01*
X94300572Y-77740000D01*
X94288312Y-77615518D01*
X94252002Y-77495820D01*
X94193037Y-77385506D01*
X94113685Y-77288815D01*
X94016994Y-77209463D01*
X93906680Y-77150498D01*
X93786982Y-77114188D01*
X93662500Y-77101928D01*
X91757500Y-77101928D01*
X91633018Y-77114188D01*
X91513320Y-77150498D01*
X91403006Y-77209463D01*
X91306315Y-77288815D01*
X91226963Y-77385506D01*
X91182095Y-77469446D01*
X91056235Y-77366155D01*
X90780449Y-77218745D01*
X90481204Y-77127970D01*
X90170000Y-77097319D01*
X89858797Y-77127970D01*
X89559552Y-77218745D01*
X89283766Y-77366155D01*
X89042037Y-77564537D01*
X88843655Y-77806265D01*
X88696245Y-78082051D01*
X88605470Y-78381296D01*
X88582500Y-78614514D01*
X61087000Y-78614514D01*
X61087000Y-76009419D01*
X64105000Y-76009419D01*
X64105000Y-76390581D01*
X64179361Y-76764419D01*
X64325225Y-77116566D01*
X64536987Y-77433491D01*
X64806509Y-77703013D01*
X65123434Y-77914775D01*
X65475581Y-78060639D01*
X65849419Y-78135000D01*
X66230581Y-78135000D01*
X66604419Y-78060639D01*
X66956566Y-77914775D01*
X67273491Y-77703013D01*
X67543013Y-77433491D01*
X67754775Y-77116566D01*
X67900639Y-76764419D01*
X67975000Y-76390581D01*
X67975000Y-76009419D01*
X67900639Y-75635581D01*
X67754775Y-75283434D01*
X67543013Y-74966509D01*
X67273491Y-74696987D01*
X66956566Y-74485225D01*
X66604419Y-74339361D01*
X66230581Y-74265000D01*
X65849419Y-74265000D01*
X65475581Y-74339361D01*
X65123434Y-74485225D01*
X64806509Y-74696987D01*
X64536987Y-74966509D01*
X64325225Y-75283434D01*
X64179361Y-75635581D01*
X64105000Y-76009419D01*
X61087000Y-76009419D01*
X61087000Y-70929419D01*
X64105000Y-70929419D01*
X64105000Y-71310581D01*
X64179361Y-71684419D01*
X64325225Y-72036566D01*
X64536987Y-72353491D01*
X64806509Y-72623013D01*
X65123434Y-72834775D01*
X65475581Y-72980639D01*
X65849419Y-73055000D01*
X66230581Y-73055000D01*
X66604419Y-72980639D01*
X66956566Y-72834775D01*
X67273491Y-72623013D01*
X67543013Y-72353491D01*
X67602465Y-72264514D01*
X88582500Y-72264514D01*
X88582500Y-72515485D01*
X88605470Y-72748703D01*
X88696245Y-73047948D01*
X88843655Y-73323734D01*
X89042037Y-73565463D01*
X89283765Y-73763845D01*
X89559551Y-73911255D01*
X89858796Y-74002030D01*
X90170000Y-74032681D01*
X90481203Y-74002030D01*
X90780448Y-73911255D01*
X91056234Y-73763845D01*
X91182095Y-73660553D01*
X91226963Y-73744494D01*
X91306315Y-73841185D01*
X91403006Y-73920537D01*
X91513320Y-73979502D01*
X91633018Y-74015812D01*
X91757500Y-74028072D01*
X93662500Y-74028072D01*
X93786982Y-74015812D01*
X93906680Y-73979502D01*
X94016994Y-73920537D01*
X94113685Y-73841185D01*
X94193037Y-73744494D01*
X94252002Y-73634180D01*
X94288312Y-73514482D01*
X94300572Y-73390000D01*
X94300572Y-71390000D01*
X94288312Y-71265518D01*
X94252002Y-71145820D01*
X94193037Y-71035506D01*
X94146389Y-70978665D01*
X101435000Y-70978665D01*
X101435000Y-71261335D01*
X101490147Y-71538574D01*
X101598320Y-71799727D01*
X101755363Y-72034759D01*
X101955241Y-72234637D01*
X102157827Y-72370000D01*
X101955241Y-72505363D01*
X101755363Y-72705241D01*
X101598320Y-72940273D01*
X101490147Y-73201426D01*
X101435000Y-73478665D01*
X101435000Y-73761335D01*
X101490147Y-74038574D01*
X101598320Y-74299727D01*
X101755363Y-74534759D01*
X101955241Y-74734637D01*
X102190273Y-74891680D01*
X102234501Y-74910000D01*
X102190273Y-74928320D01*
X101955241Y-75085363D01*
X101755363Y-75285241D01*
X101598320Y-75520273D01*
X101490147Y-75781426D01*
X101435000Y-76058665D01*
X101435000Y-76341335D01*
X101490147Y-76618574D01*
X101598320Y-76879727D01*
X101755363Y-77114759D01*
X101955241Y-77314637D01*
X102190273Y-77471680D01*
X102451426Y-77579853D01*
X102728665Y-77635000D01*
X103011335Y-77635000D01*
X103288574Y-77579853D01*
X103549727Y-77471680D01*
X103784759Y-77314637D01*
X103984637Y-77114759D01*
X104141680Y-76879727D01*
X104249853Y-76618574D01*
X104305000Y-76341335D01*
X104305000Y-76058665D01*
X104249853Y-75781426D01*
X104141680Y-75520273D01*
X103984637Y-75285241D01*
X103784759Y-75085363D01*
X103549727Y-74928320D01*
X103505499Y-74910000D01*
X103549727Y-74891680D01*
X103784759Y-74734637D01*
X103984637Y-74534759D01*
X104141680Y-74299727D01*
X104249853Y-74038574D01*
X104305000Y-73761335D01*
X104305000Y-73518665D01*
X105245000Y-73518665D01*
X105245000Y-73801335D01*
X105300147Y-74078574D01*
X105408320Y-74339727D01*
X105565363Y-74574759D01*
X105765241Y-74774637D01*
X106000273Y-74931680D01*
X106261426Y-75039853D01*
X106538665Y-75095000D01*
X106821335Y-75095000D01*
X107098574Y-75039853D01*
X107359727Y-74931680D01*
X107594759Y-74774637D01*
X107794637Y-74574759D01*
X107950000Y-74342241D01*
X108105363Y-74574759D01*
X108305241Y-74774637D01*
X108540273Y-74931680D01*
X108801426Y-75039853D01*
X109078665Y-75095000D01*
X109361335Y-75095000D01*
X109638574Y-75039853D01*
X109899727Y-74931680D01*
X110134759Y-74774637D01*
X110334637Y-74574759D01*
X110490000Y-74342241D01*
X110645363Y-74574759D01*
X110845241Y-74774637D01*
X111080273Y-74931680D01*
X111341426Y-75039853D01*
X111618665Y-75095000D01*
X111901335Y-75095000D01*
X112178574Y-75039853D01*
X112439727Y-74931680D01*
X112674759Y-74774637D01*
X112874637Y-74574759D01*
X113030000Y-74342241D01*
X113185363Y-74574759D01*
X113385241Y-74774637D01*
X113620273Y-74931680D01*
X113881426Y-75039853D01*
X114158665Y-75095000D01*
X114441335Y-75095000D01*
X114718574Y-75039853D01*
X114979727Y-74931680D01*
X115214759Y-74774637D01*
X115414637Y-74574759D01*
X115570000Y-74342241D01*
X115725363Y-74574759D01*
X115925241Y-74774637D01*
X116160273Y-74931680D01*
X116421426Y-75039853D01*
X116698665Y-75095000D01*
X116981335Y-75095000D01*
X117258574Y-75039853D01*
X117519727Y-74931680D01*
X117754759Y-74774637D01*
X117954637Y-74574759D01*
X118110000Y-74342241D01*
X118265363Y-74574759D01*
X118465241Y-74774637D01*
X118700273Y-74931680D01*
X118961426Y-75039853D01*
X119238665Y-75095000D01*
X119521335Y-75095000D01*
X119798574Y-75039853D01*
X120059727Y-74931680D01*
X120294759Y-74774637D01*
X120494637Y-74574759D01*
X120651680Y-74339727D01*
X120759853Y-74078574D01*
X120815000Y-73801335D01*
X120815000Y-73518665D01*
X120759853Y-73241426D01*
X120651680Y-72980273D01*
X120494637Y-72745241D01*
X120294759Y-72545363D01*
X120059727Y-72388320D01*
X119798574Y-72280147D01*
X119521335Y-72225000D01*
X119238665Y-72225000D01*
X118961426Y-72280147D01*
X118700273Y-72388320D01*
X118465241Y-72545363D01*
X118265363Y-72745241D01*
X118110000Y-72977759D01*
X117954637Y-72745241D01*
X117754759Y-72545363D01*
X117519727Y-72388320D01*
X117258574Y-72280147D01*
X116981335Y-72225000D01*
X116698665Y-72225000D01*
X116421426Y-72280147D01*
X116160273Y-72388320D01*
X115925241Y-72545363D01*
X115725363Y-72745241D01*
X115570000Y-72977759D01*
X115414637Y-72745241D01*
X115214759Y-72545363D01*
X114979727Y-72388320D01*
X114718574Y-72280147D01*
X114441335Y-72225000D01*
X114158665Y-72225000D01*
X113881426Y-72280147D01*
X113620273Y-72388320D01*
X113385241Y-72545363D01*
X113185363Y-72745241D01*
X113030000Y-72977759D01*
X112874637Y-72745241D01*
X112674759Y-72545363D01*
X112439727Y-72388320D01*
X112178574Y-72280147D01*
X111901335Y-72225000D01*
X111618665Y-72225000D01*
X111341426Y-72280147D01*
X111080273Y-72388320D01*
X110845241Y-72545363D01*
X110645363Y-72745241D01*
X110490000Y-72977759D01*
X110334637Y-72745241D01*
X110134759Y-72545363D01*
X109899727Y-72388320D01*
X109638574Y-72280147D01*
X109361335Y-72225000D01*
X109078665Y-72225000D01*
X108801426Y-72280147D01*
X108540273Y-72388320D01*
X108305241Y-72545363D01*
X108105363Y-72745241D01*
X107950000Y-72977759D01*
X107794637Y-72745241D01*
X107594759Y-72545363D01*
X107359727Y-72388320D01*
X107098574Y-72280147D01*
X106821335Y-72225000D01*
X106538665Y-72225000D01*
X106261426Y-72280147D01*
X106000273Y-72388320D01*
X105765241Y-72545363D01*
X105565363Y-72745241D01*
X105408320Y-72980273D01*
X105300147Y-73241426D01*
X105245000Y-73518665D01*
X104305000Y-73518665D01*
X104305000Y-73478665D01*
X104249853Y-73201426D01*
X104141680Y-72940273D01*
X103984637Y-72705241D01*
X103784759Y-72505363D01*
X103582173Y-72370000D01*
X103784759Y-72234637D01*
X103984637Y-72034759D01*
X104141680Y-71799727D01*
X104249853Y-71538574D01*
X104305000Y-71261335D01*
X104305000Y-70978665D01*
X104249853Y-70701426D01*
X104141680Y-70440273D01*
X103984637Y-70205241D01*
X103784759Y-70005363D01*
X103549727Y-69848320D01*
X103288574Y-69740147D01*
X103011335Y-69685000D01*
X102728665Y-69685000D01*
X102451426Y-69740147D01*
X102190273Y-69848320D01*
X101955241Y-70005363D01*
X101755363Y-70205241D01*
X101598320Y-70440273D01*
X101490147Y-70701426D01*
X101435000Y-70978665D01*
X94146389Y-70978665D01*
X94113685Y-70938815D01*
X94016994Y-70859463D01*
X93906680Y-70800498D01*
X93786982Y-70764188D01*
X93662500Y-70751928D01*
X91757500Y-70751928D01*
X91633018Y-70764188D01*
X91513320Y-70800498D01*
X91403006Y-70859463D01*
X91306315Y-70938815D01*
X91226963Y-71035506D01*
X91182095Y-71119446D01*
X91056235Y-71016155D01*
X90780449Y-70868745D01*
X90481204Y-70777970D01*
X90170000Y-70747319D01*
X89858797Y-70777970D01*
X89559552Y-70868745D01*
X89283766Y-71016155D01*
X89042037Y-71214537D01*
X88843655Y-71456265D01*
X88696245Y-71732051D01*
X88605470Y-72031296D01*
X88582500Y-72264514D01*
X67602465Y-72264514D01*
X67754775Y-72036566D01*
X67900639Y-71684419D01*
X67975000Y-71310581D01*
X67975000Y-70929419D01*
X67900639Y-70555581D01*
X67754775Y-70203434D01*
X67543013Y-69886509D01*
X67273491Y-69616987D01*
X66956566Y-69405225D01*
X66604419Y-69259361D01*
X66230581Y-69185000D01*
X65849419Y-69185000D01*
X65475581Y-69259361D01*
X65123434Y-69405225D01*
X64806509Y-69616987D01*
X64536987Y-69886509D01*
X64325225Y-70203434D01*
X64179361Y-70555581D01*
X64105000Y-70929419D01*
X61087000Y-70929419D01*
X61087000Y-65849419D01*
X64105000Y-65849419D01*
X64105000Y-66230581D01*
X64179361Y-66604419D01*
X64325225Y-66956566D01*
X64536987Y-67273491D01*
X64806509Y-67543013D01*
X65123434Y-67754775D01*
X65475581Y-67900639D01*
X65849419Y-67975000D01*
X66230581Y-67975000D01*
X66604419Y-67900639D01*
X66956566Y-67754775D01*
X67273491Y-67543013D01*
X67543013Y-67273491D01*
X67754775Y-66956566D01*
X67900639Y-66604419D01*
X67975000Y-66230581D01*
X67975000Y-65914514D01*
X88582500Y-65914514D01*
X88582500Y-66165485D01*
X88605470Y-66398703D01*
X88696245Y-66697948D01*
X88843655Y-66973734D01*
X89042037Y-67215463D01*
X89283765Y-67413845D01*
X89559551Y-67561255D01*
X89858796Y-67652030D01*
X90170000Y-67682681D01*
X90481203Y-67652030D01*
X90780448Y-67561255D01*
X91056234Y-67413845D01*
X91182095Y-67310553D01*
X91226963Y-67394494D01*
X91306315Y-67491185D01*
X91403006Y-67570537D01*
X91513320Y-67629502D01*
X91633018Y-67665812D01*
X91757500Y-67678072D01*
X93662500Y-67678072D01*
X93786982Y-67665812D01*
X93906680Y-67629502D01*
X94016994Y-67570537D01*
X94113685Y-67491185D01*
X94193037Y-67394494D01*
X94252002Y-67284180D01*
X94288312Y-67164482D01*
X94300572Y-67040000D01*
X94300572Y-65898665D01*
X105245000Y-65898665D01*
X105245000Y-66181335D01*
X105300147Y-66458574D01*
X105408320Y-66719727D01*
X105565363Y-66954759D01*
X105765241Y-67154637D01*
X106000273Y-67311680D01*
X106261426Y-67419853D01*
X106538665Y-67475000D01*
X106821335Y-67475000D01*
X107098574Y-67419853D01*
X107359727Y-67311680D01*
X107594759Y-67154637D01*
X107794637Y-66954759D01*
X107950000Y-66722241D01*
X108105363Y-66954759D01*
X108305241Y-67154637D01*
X108540273Y-67311680D01*
X108801426Y-67419853D01*
X109078665Y-67475000D01*
X109361335Y-67475000D01*
X109638574Y-67419853D01*
X109899727Y-67311680D01*
X110134759Y-67154637D01*
X110334637Y-66954759D01*
X110490000Y-66722241D01*
X110645363Y-66954759D01*
X110845241Y-67154637D01*
X111080273Y-67311680D01*
X111341426Y-67419853D01*
X111618665Y-67475000D01*
X111901335Y-67475000D01*
X112178574Y-67419853D01*
X112439727Y-67311680D01*
X112674759Y-67154637D01*
X112874637Y-66954759D01*
X113030000Y-66722241D01*
X113185363Y-66954759D01*
X113385241Y-67154637D01*
X113620273Y-67311680D01*
X113881426Y-67419853D01*
X114158665Y-67475000D01*
X114441335Y-67475000D01*
X114718574Y-67419853D01*
X114979727Y-67311680D01*
X115214759Y-67154637D01*
X115414637Y-66954759D01*
X115570000Y-66722241D01*
X115725363Y-66954759D01*
X115925241Y-67154637D01*
X116160273Y-67311680D01*
X116421426Y-67419853D01*
X116698665Y-67475000D01*
X116981335Y-67475000D01*
X117258574Y-67419853D01*
X117519727Y-67311680D01*
X117754759Y-67154637D01*
X117954637Y-66954759D01*
X118110000Y-66722241D01*
X118265363Y-66954759D01*
X118465241Y-67154637D01*
X118700273Y-67311680D01*
X118961426Y-67419853D01*
X119238665Y-67475000D01*
X119521335Y-67475000D01*
X119798574Y-67419853D01*
X120059727Y-67311680D01*
X120294759Y-67154637D01*
X120493357Y-66956039D01*
X120494188Y-66964482D01*
X120530498Y-67084180D01*
X120589463Y-67194494D01*
X120668815Y-67291185D01*
X120765506Y-67370537D01*
X120875820Y-67429502D01*
X120995518Y-67465812D01*
X121120000Y-67478072D01*
X122720000Y-67478072D01*
X122844482Y-67465812D01*
X122964180Y-67429502D01*
X123074494Y-67370537D01*
X123171185Y-67291185D01*
X123250537Y-67194494D01*
X123309502Y-67084180D01*
X123345812Y-66964482D01*
X123358072Y-66840000D01*
X123358072Y-65240000D01*
X123345812Y-65115518D01*
X123309502Y-64995820D01*
X123250537Y-64885506D01*
X123171185Y-64788815D01*
X123074494Y-64709463D01*
X122964180Y-64650498D01*
X122844482Y-64614188D01*
X122720000Y-64601928D01*
X121120000Y-64601928D01*
X120995518Y-64614188D01*
X120875820Y-64650498D01*
X120765506Y-64709463D01*
X120668815Y-64788815D01*
X120589463Y-64885506D01*
X120530498Y-64995820D01*
X120494188Y-65115518D01*
X120493357Y-65123961D01*
X120294759Y-64925363D01*
X120059727Y-64768320D01*
X119798574Y-64660147D01*
X119521335Y-64605000D01*
X119238665Y-64605000D01*
X118961426Y-64660147D01*
X118700273Y-64768320D01*
X118465241Y-64925363D01*
X118265363Y-65125241D01*
X118110000Y-65357759D01*
X117954637Y-65125241D01*
X117754759Y-64925363D01*
X117519727Y-64768320D01*
X117258574Y-64660147D01*
X116981335Y-64605000D01*
X116698665Y-64605000D01*
X116421426Y-64660147D01*
X116160273Y-64768320D01*
X115925241Y-64925363D01*
X115725363Y-65125241D01*
X115570000Y-65357759D01*
X115414637Y-65125241D01*
X115214759Y-64925363D01*
X114979727Y-64768320D01*
X114718574Y-64660147D01*
X114441335Y-64605000D01*
X114158665Y-64605000D01*
X113881426Y-64660147D01*
X113620273Y-64768320D01*
X113385241Y-64925363D01*
X113185363Y-65125241D01*
X113030000Y-65357759D01*
X112874637Y-65125241D01*
X112674759Y-64925363D01*
X112439727Y-64768320D01*
X112178574Y-64660147D01*
X111901335Y-64605000D01*
X111618665Y-64605000D01*
X111341426Y-64660147D01*
X111080273Y-64768320D01*
X110845241Y-64925363D01*
X110645363Y-65125241D01*
X110490000Y-65357759D01*
X110334637Y-65125241D01*
X110134759Y-64925363D01*
X109899727Y-64768320D01*
X109638574Y-64660147D01*
X109361335Y-64605000D01*
X109078665Y-64605000D01*
X108801426Y-64660147D01*
X108540273Y-64768320D01*
X108305241Y-64925363D01*
X108105363Y-65125241D01*
X107950000Y-65357759D01*
X107794637Y-65125241D01*
X107594759Y-64925363D01*
X107359727Y-64768320D01*
X107098574Y-64660147D01*
X106821335Y-64605000D01*
X106538665Y-64605000D01*
X106261426Y-64660147D01*
X106000273Y-64768320D01*
X105765241Y-64925363D01*
X105565363Y-65125241D01*
X105408320Y-65360273D01*
X105300147Y-65621426D01*
X105245000Y-65898665D01*
X94300572Y-65898665D01*
X94300572Y-65040000D01*
X94288312Y-64915518D01*
X94252002Y-64795820D01*
X94193037Y-64685506D01*
X94113685Y-64588815D01*
X94016994Y-64509463D01*
X93906680Y-64450498D01*
X93786982Y-64414188D01*
X93662500Y-64401928D01*
X91757500Y-64401928D01*
X91633018Y-64414188D01*
X91513320Y-64450498D01*
X91403006Y-64509463D01*
X91306315Y-64588815D01*
X91226963Y-64685506D01*
X91182095Y-64769446D01*
X91056235Y-64666155D01*
X90780449Y-64518745D01*
X90481204Y-64427970D01*
X90170000Y-64397319D01*
X89858797Y-64427970D01*
X89559552Y-64518745D01*
X89283766Y-64666155D01*
X89042037Y-64864537D01*
X88843655Y-65106265D01*
X88696245Y-65382051D01*
X88605470Y-65681296D01*
X88582500Y-65914514D01*
X67975000Y-65914514D01*
X67975000Y-65849419D01*
X67900639Y-65475581D01*
X67754775Y-65123434D01*
X67543013Y-64806509D01*
X67273491Y-64536987D01*
X66956566Y-64325225D01*
X66604419Y-64179361D01*
X66230581Y-64105000D01*
X65849419Y-64105000D01*
X65475581Y-64179361D01*
X65123434Y-64325225D01*
X64806509Y-64536987D01*
X64536987Y-64806509D01*
X64325225Y-65123434D01*
X64179361Y-65475581D01*
X64105000Y-65849419D01*
X61087000Y-65849419D01*
X61087000Y-60769419D01*
X64105000Y-60769419D01*
X64105000Y-61150581D01*
X64179361Y-61524419D01*
X64325225Y-61876566D01*
X64536987Y-62193491D01*
X64806509Y-62463013D01*
X65123434Y-62674775D01*
X65475581Y-62820639D01*
X65849419Y-62895000D01*
X66230581Y-62895000D01*
X66604419Y-62820639D01*
X66956566Y-62674775D01*
X67273491Y-62463013D01*
X67543013Y-62193491D01*
X67613055Y-62088665D01*
X102705000Y-62088665D01*
X102705000Y-62371335D01*
X102760147Y-62648574D01*
X102868320Y-62909727D01*
X103025363Y-63144759D01*
X103225241Y-63344637D01*
X103460273Y-63501680D01*
X103721426Y-63609853D01*
X103998665Y-63665000D01*
X104281335Y-63665000D01*
X104558574Y-63609853D01*
X104819727Y-63501680D01*
X105054759Y-63344637D01*
X105254637Y-63144759D01*
X105411680Y-62909727D01*
X105519853Y-62648574D01*
X105575000Y-62371335D01*
X105575000Y-62088665D01*
X106515000Y-62088665D01*
X106515000Y-62371335D01*
X106570147Y-62648574D01*
X106678320Y-62909727D01*
X106835363Y-63144759D01*
X107035241Y-63344637D01*
X107270273Y-63501680D01*
X107531426Y-63609853D01*
X107808665Y-63665000D01*
X108091335Y-63665000D01*
X108368574Y-63609853D01*
X108629727Y-63501680D01*
X108864759Y-63344637D01*
X109064637Y-63144759D01*
X109221680Y-62909727D01*
X109329853Y-62648574D01*
X109385000Y-62371335D01*
X109385000Y-62088665D01*
X110325000Y-62088665D01*
X110325000Y-62371335D01*
X110380147Y-62648574D01*
X110488320Y-62909727D01*
X110645363Y-63144759D01*
X110845241Y-63344637D01*
X111080273Y-63501680D01*
X111341426Y-63609853D01*
X111618665Y-63665000D01*
X111901335Y-63665000D01*
X112178574Y-63609853D01*
X112439727Y-63501680D01*
X112674759Y-63344637D01*
X112874637Y-63144759D01*
X113031680Y-62909727D01*
X113139853Y-62648574D01*
X113195000Y-62371335D01*
X113195000Y-62088665D01*
X114135000Y-62088665D01*
X114135000Y-62371335D01*
X114190147Y-62648574D01*
X114298320Y-62909727D01*
X114455363Y-63144759D01*
X114655241Y-63344637D01*
X114890273Y-63501680D01*
X115151426Y-63609853D01*
X115428665Y-63665000D01*
X115711335Y-63665000D01*
X115988574Y-63609853D01*
X116249727Y-63501680D01*
X116484759Y-63344637D01*
X116684637Y-63144759D01*
X116841680Y-62909727D01*
X116949853Y-62648574D01*
X117005000Y-62371335D01*
X117005000Y-62088665D01*
X117945000Y-62088665D01*
X117945000Y-62371335D01*
X118000147Y-62648574D01*
X118108320Y-62909727D01*
X118265363Y-63144759D01*
X118465241Y-63344637D01*
X118700273Y-63501680D01*
X118961426Y-63609853D01*
X119238665Y-63665000D01*
X119521335Y-63665000D01*
X119798574Y-63609853D01*
X120059727Y-63501680D01*
X120294759Y-63344637D01*
X120494637Y-63144759D01*
X120651680Y-62909727D01*
X120759853Y-62648574D01*
X120815000Y-62371335D01*
X120815000Y-62088665D01*
X121755000Y-62088665D01*
X121755000Y-62371335D01*
X121810147Y-62648574D01*
X121918320Y-62909727D01*
X122075363Y-63144759D01*
X122275241Y-63344637D01*
X122510273Y-63501680D01*
X122771426Y-63609853D01*
X123048665Y-63665000D01*
X123331335Y-63665000D01*
X123608574Y-63609853D01*
X123869727Y-63501680D01*
X124104759Y-63344637D01*
X124304637Y-63144759D01*
X124461680Y-62909727D01*
X124569853Y-62648574D01*
X124625000Y-62371335D01*
X124625000Y-62096544D01*
X129455000Y-62096544D01*
X129455000Y-62363456D01*
X129507072Y-62625239D01*
X129609215Y-62871833D01*
X129757503Y-63093762D01*
X129946238Y-63282497D01*
X130168167Y-63430785D01*
X130414761Y-63532928D01*
X130676544Y-63585000D01*
X130943456Y-63585000D01*
X131205239Y-63532928D01*
X131451833Y-63430785D01*
X131673762Y-63282497D01*
X131862497Y-63093762D01*
X132010785Y-62871833D01*
X132112928Y-62625239D01*
X132165000Y-62363456D01*
X132165000Y-62230000D01*
X136787319Y-62230000D01*
X136817970Y-62541204D01*
X136908745Y-62840449D01*
X137056155Y-63116235D01*
X137254537Y-63357963D01*
X137496265Y-63556345D01*
X137772051Y-63703755D01*
X138071296Y-63794530D01*
X138304514Y-63817500D01*
X138555486Y-63817500D01*
X138788704Y-63794530D01*
X139087949Y-63703755D01*
X139363735Y-63556345D01*
X139605463Y-63357963D01*
X139803845Y-63116235D01*
X139951255Y-62840449D01*
X140042030Y-62541204D01*
X140072681Y-62230000D01*
X140042030Y-61918796D01*
X139951255Y-61619551D01*
X139803845Y-61343765D01*
X139605463Y-61102037D01*
X139363735Y-60903655D01*
X139087949Y-60756245D01*
X138788704Y-60665470D01*
X138555486Y-60642500D01*
X138304514Y-60642500D01*
X138071296Y-60665470D01*
X137772051Y-60756245D01*
X137496265Y-60903655D01*
X137254537Y-61102037D01*
X137056155Y-61343765D01*
X136908745Y-61619551D01*
X136817970Y-61918796D01*
X136787319Y-62230000D01*
X132165000Y-62230000D01*
X132165000Y-62096544D01*
X132112928Y-61834761D01*
X132010785Y-61588167D01*
X131862497Y-61366238D01*
X131673762Y-61177503D01*
X131451833Y-61029215D01*
X131205239Y-60927072D01*
X130943456Y-60875000D01*
X130676544Y-60875000D01*
X130414761Y-60927072D01*
X130168167Y-61029215D01*
X129946238Y-61177503D01*
X129757503Y-61366238D01*
X129609215Y-61588167D01*
X129507072Y-61834761D01*
X129455000Y-62096544D01*
X124625000Y-62096544D01*
X124625000Y-62088665D01*
X124569853Y-61811426D01*
X124461680Y-61550273D01*
X124304637Y-61315241D01*
X124104759Y-61115363D01*
X123869727Y-60958320D01*
X123608574Y-60850147D01*
X123331335Y-60795000D01*
X123048665Y-60795000D01*
X122771426Y-60850147D01*
X122510273Y-60958320D01*
X122275241Y-61115363D01*
X122075363Y-61315241D01*
X121918320Y-61550273D01*
X121810147Y-61811426D01*
X121755000Y-62088665D01*
X120815000Y-62088665D01*
X120759853Y-61811426D01*
X120651680Y-61550273D01*
X120494637Y-61315241D01*
X120294759Y-61115363D01*
X120059727Y-60958320D01*
X119798574Y-60850147D01*
X119521335Y-60795000D01*
X119238665Y-60795000D01*
X118961426Y-60850147D01*
X118700273Y-60958320D01*
X118465241Y-61115363D01*
X118265363Y-61315241D01*
X118108320Y-61550273D01*
X118000147Y-61811426D01*
X117945000Y-62088665D01*
X117005000Y-62088665D01*
X116949853Y-61811426D01*
X116841680Y-61550273D01*
X116684637Y-61315241D01*
X116484759Y-61115363D01*
X116249727Y-60958320D01*
X115988574Y-60850147D01*
X115711335Y-60795000D01*
X115428665Y-60795000D01*
X115151426Y-60850147D01*
X114890273Y-60958320D01*
X114655241Y-61115363D01*
X114455363Y-61315241D01*
X114298320Y-61550273D01*
X114190147Y-61811426D01*
X114135000Y-62088665D01*
X113195000Y-62088665D01*
X113139853Y-61811426D01*
X113031680Y-61550273D01*
X112874637Y-61315241D01*
X112674759Y-61115363D01*
X112439727Y-60958320D01*
X112178574Y-60850147D01*
X111901335Y-60795000D01*
X111618665Y-60795000D01*
X111341426Y-60850147D01*
X111080273Y-60958320D01*
X110845241Y-61115363D01*
X110645363Y-61315241D01*
X110488320Y-61550273D01*
X110380147Y-61811426D01*
X110325000Y-62088665D01*
X109385000Y-62088665D01*
X109329853Y-61811426D01*
X109221680Y-61550273D01*
X109064637Y-61315241D01*
X108864759Y-61115363D01*
X108629727Y-60958320D01*
X108368574Y-60850147D01*
X108091335Y-60795000D01*
X107808665Y-60795000D01*
X107531426Y-60850147D01*
X107270273Y-60958320D01*
X107035241Y-61115363D01*
X106835363Y-61315241D01*
X106678320Y-61550273D01*
X106570147Y-61811426D01*
X106515000Y-62088665D01*
X105575000Y-62088665D01*
X105519853Y-61811426D01*
X105411680Y-61550273D01*
X105254637Y-61315241D01*
X105054759Y-61115363D01*
X104819727Y-60958320D01*
X104558574Y-60850147D01*
X104281335Y-60795000D01*
X103998665Y-60795000D01*
X103721426Y-60850147D01*
X103460273Y-60958320D01*
X103225241Y-61115363D01*
X103025363Y-61315241D01*
X102868320Y-61550273D01*
X102760147Y-61811426D01*
X102705000Y-62088665D01*
X67613055Y-62088665D01*
X67754775Y-61876566D01*
X67900639Y-61524419D01*
X67975000Y-61150581D01*
X67975000Y-60769419D01*
X67900639Y-60395581D01*
X67754775Y-60043434D01*
X67543013Y-59726509D01*
X67381018Y-59564514D01*
X88582500Y-59564514D01*
X88582500Y-59815485D01*
X88605470Y-60048703D01*
X88696245Y-60347948D01*
X88843655Y-60623734D01*
X89042037Y-60865463D01*
X89283765Y-61063845D01*
X89559551Y-61211255D01*
X89858796Y-61302030D01*
X90170000Y-61332681D01*
X90481203Y-61302030D01*
X90780448Y-61211255D01*
X91056234Y-61063845D01*
X91182095Y-60960553D01*
X91226963Y-61044494D01*
X91306315Y-61141185D01*
X91403006Y-61220537D01*
X91513320Y-61279502D01*
X91633018Y-61315812D01*
X91757500Y-61328072D01*
X93662500Y-61328072D01*
X93786982Y-61315812D01*
X93906680Y-61279502D01*
X94016994Y-61220537D01*
X94113685Y-61141185D01*
X94193037Y-61044494D01*
X94252002Y-60934180D01*
X94288312Y-60814482D01*
X94300572Y-60690000D01*
X94300572Y-59556544D01*
X126915000Y-59556544D01*
X126915000Y-59823456D01*
X126967072Y-60085239D01*
X127069215Y-60331833D01*
X127217503Y-60553762D01*
X127406238Y-60742497D01*
X127628167Y-60890785D01*
X127874761Y-60992928D01*
X128136544Y-61045000D01*
X128403456Y-61045000D01*
X128665239Y-60992928D01*
X128911833Y-60890785D01*
X129133762Y-60742497D01*
X129322497Y-60553762D01*
X129470785Y-60331833D01*
X129572928Y-60085239D01*
X129625000Y-59823456D01*
X129625000Y-59556544D01*
X129572928Y-59294761D01*
X129470785Y-59048167D01*
X129322497Y-58826238D01*
X129133762Y-58637503D01*
X128911833Y-58489215D01*
X128665239Y-58387072D01*
X128403456Y-58335000D01*
X128136544Y-58335000D01*
X127874761Y-58387072D01*
X127628167Y-58489215D01*
X127406238Y-58637503D01*
X127217503Y-58826238D01*
X127069215Y-59048167D01*
X126967072Y-59294761D01*
X126915000Y-59556544D01*
X94300572Y-59556544D01*
X94300572Y-58690000D01*
X94288312Y-58565518D01*
X94252002Y-58445820D01*
X94193037Y-58335506D01*
X94113685Y-58238815D01*
X94016994Y-58159463D01*
X93906680Y-58100498D01*
X93786982Y-58064188D01*
X93662500Y-58051928D01*
X91757500Y-58051928D01*
X91633018Y-58064188D01*
X91513320Y-58100498D01*
X91403006Y-58159463D01*
X91306315Y-58238815D01*
X91226963Y-58335506D01*
X91182095Y-58419446D01*
X91056235Y-58316155D01*
X90780449Y-58168745D01*
X90481204Y-58077970D01*
X90170000Y-58047319D01*
X89858797Y-58077970D01*
X89559552Y-58168745D01*
X89283766Y-58316155D01*
X89042037Y-58514537D01*
X88843655Y-58756265D01*
X88696245Y-59032051D01*
X88605470Y-59331296D01*
X88582500Y-59564514D01*
X67381018Y-59564514D01*
X67273491Y-59456987D01*
X66956566Y-59245225D01*
X66604419Y-59099361D01*
X66230581Y-59025000D01*
X65849419Y-59025000D01*
X65475581Y-59099361D01*
X65123434Y-59245225D01*
X64806509Y-59456987D01*
X64536987Y-59726509D01*
X64325225Y-60043434D01*
X64179361Y-60395581D01*
X64105000Y-60769419D01*
X61087000Y-60769419D01*
X61087000Y-55689419D01*
X64105000Y-55689419D01*
X64105000Y-56070581D01*
X64179361Y-56444419D01*
X64325225Y-56796566D01*
X64536987Y-57113491D01*
X64806509Y-57383013D01*
X65123434Y-57594775D01*
X65475581Y-57740639D01*
X65849419Y-57815000D01*
X66230581Y-57815000D01*
X66604419Y-57740639D01*
X66956566Y-57594775D01*
X67273491Y-57383013D01*
X67543013Y-57113491D01*
X67754775Y-56796566D01*
X67900639Y-56444419D01*
X67975000Y-56070581D01*
X67975000Y-55689419D01*
X67900639Y-55315581D01*
X67823769Y-55130000D01*
X90276928Y-55130000D01*
X90276928Y-56630000D01*
X90289188Y-56754482D01*
X90325498Y-56874180D01*
X90384463Y-56984494D01*
X90463815Y-57081185D01*
X90560506Y-57160537D01*
X90670820Y-57219502D01*
X90790518Y-57255812D01*
X90915000Y-57268072D01*
X91965000Y-57268072D01*
X92089482Y-57255812D01*
X92209180Y-57219502D01*
X92273902Y-57184907D01*
X92482601Y-57248215D01*
X92710000Y-57270612D01*
X92937400Y-57248215D01*
X93156060Y-57181885D01*
X93357579Y-57074171D01*
X93534212Y-56929212D01*
X93679171Y-56752579D01*
X93786885Y-56551059D01*
X93853215Y-56332399D01*
X93866501Y-56197500D01*
X136791928Y-56197500D01*
X136791928Y-58102500D01*
X136804188Y-58226982D01*
X136840498Y-58346680D01*
X136899463Y-58456994D01*
X136978815Y-58553685D01*
X137075506Y-58633037D01*
X137185820Y-58692002D01*
X137305518Y-58728312D01*
X137430000Y-58740572D01*
X139430000Y-58740572D01*
X139554482Y-58728312D01*
X139674180Y-58692002D01*
X139784494Y-58633037D01*
X139881185Y-58553685D01*
X139960537Y-58456994D01*
X140019502Y-58346680D01*
X140055812Y-58226982D01*
X140068072Y-58102500D01*
X140068072Y-56197500D01*
X140055812Y-56073018D01*
X140019502Y-55953320D01*
X139960537Y-55843006D01*
X139881185Y-55746315D01*
X139784494Y-55666963D01*
X139674180Y-55607998D01*
X139554482Y-55571688D01*
X139430000Y-55559428D01*
X137430000Y-55559428D01*
X137305518Y-55571688D01*
X137185820Y-55607998D01*
X137075506Y-55666963D01*
X136978815Y-55746315D01*
X136899463Y-55843006D01*
X136840498Y-55953320D01*
X136804188Y-56073018D01*
X136791928Y-56197500D01*
X93866501Y-56197500D01*
X93870000Y-56161978D01*
X93870000Y-55598021D01*
X93853215Y-55427600D01*
X93786885Y-55208940D01*
X93679171Y-55007421D01*
X93534212Y-54830788D01*
X93357578Y-54685829D01*
X93156059Y-54578115D01*
X92937399Y-54511785D01*
X92710000Y-54489388D01*
X92482600Y-54511785D01*
X92273902Y-54575093D01*
X92209180Y-54540498D01*
X92089482Y-54504188D01*
X91965000Y-54491928D01*
X90915000Y-54491928D01*
X90790518Y-54504188D01*
X90670820Y-54540498D01*
X90560506Y-54599463D01*
X90463815Y-54678815D01*
X90384463Y-54775506D01*
X90325498Y-54885820D01*
X90289188Y-55005518D01*
X90276928Y-55130000D01*
X67823769Y-55130000D01*
X67754775Y-54963434D01*
X67543013Y-54646509D01*
X67273491Y-54376987D01*
X66956566Y-54165225D01*
X66604419Y-54019361D01*
X66230581Y-53945000D01*
X65849419Y-53945000D01*
X65475581Y-54019361D01*
X65123434Y-54165225D01*
X64806509Y-54376987D01*
X64536987Y-54646509D01*
X64325225Y-54963434D01*
X64179361Y-55315581D01*
X64105000Y-55689419D01*
X61087000Y-55689419D01*
X61087000Y-50609419D01*
X64105000Y-50609419D01*
X64105000Y-50990581D01*
X64179361Y-51364419D01*
X64325225Y-51716566D01*
X64536987Y-52033491D01*
X64806509Y-52303013D01*
X65123434Y-52514775D01*
X65475581Y-52660639D01*
X65849419Y-52735000D01*
X66230581Y-52735000D01*
X66604419Y-52660639D01*
X66956566Y-52514775D01*
X67273491Y-52303013D01*
X67543013Y-52033491D01*
X67754775Y-51716566D01*
X67900639Y-51364419D01*
X67975000Y-50990581D01*
X67975000Y-50609419D01*
X67900639Y-50235581D01*
X67823769Y-50050000D01*
X95356928Y-50050000D01*
X95356928Y-51550000D01*
X95369188Y-51674482D01*
X95405498Y-51794180D01*
X95464463Y-51904494D01*
X95543815Y-52001185D01*
X95640506Y-52080537D01*
X95750820Y-52139502D01*
X95870518Y-52175812D01*
X95995000Y-52188072D01*
X97045000Y-52188072D01*
X97169482Y-52175812D01*
X97289180Y-52139502D01*
X97353902Y-52104907D01*
X97562601Y-52168215D01*
X97790000Y-52190612D01*
X98017400Y-52168215D01*
X98236060Y-52101885D01*
X98437579Y-51994171D01*
X98517398Y-51928665D01*
X121755000Y-51928665D01*
X121755000Y-52211335D01*
X121810147Y-52488574D01*
X121918320Y-52749727D01*
X122075363Y-52984759D01*
X122275241Y-53184637D01*
X122510273Y-53341680D01*
X122771426Y-53449853D01*
X123048665Y-53505000D01*
X123331335Y-53505000D01*
X123608574Y-53449853D01*
X123869727Y-53341680D01*
X124104759Y-53184637D01*
X124304637Y-52984759D01*
X124460000Y-52752241D01*
X124615363Y-52984759D01*
X124815241Y-53184637D01*
X125050273Y-53341680D01*
X125311426Y-53449853D01*
X125588665Y-53505000D01*
X125871335Y-53505000D01*
X126148574Y-53449853D01*
X126409727Y-53341680D01*
X126644759Y-53184637D01*
X126844637Y-52984759D01*
X127001680Y-52749727D01*
X127109853Y-52488574D01*
X127165000Y-52211335D01*
X127165000Y-51928665D01*
X134455000Y-51928665D01*
X134455000Y-52211335D01*
X134510147Y-52488574D01*
X134618320Y-52749727D01*
X134775363Y-52984759D01*
X134975241Y-53184637D01*
X135210273Y-53341680D01*
X135471426Y-53449853D01*
X135748665Y-53505000D01*
X136031335Y-53505000D01*
X136308574Y-53449853D01*
X136569727Y-53341680D01*
X136804759Y-53184637D01*
X137004637Y-52984759D01*
X137160000Y-52752241D01*
X137315363Y-52984759D01*
X137515241Y-53184637D01*
X137750273Y-53341680D01*
X138011426Y-53449853D01*
X138288665Y-53505000D01*
X138571335Y-53505000D01*
X138848574Y-53449853D01*
X139109727Y-53341680D01*
X139344759Y-53184637D01*
X139544637Y-52984759D01*
X139701680Y-52749727D01*
X139809853Y-52488574D01*
X139865000Y-52211335D01*
X139865000Y-51928665D01*
X139809853Y-51651426D01*
X139701680Y-51390273D01*
X139544637Y-51155241D01*
X139344759Y-50955363D01*
X139142173Y-50820000D01*
X139344759Y-50684637D01*
X139544637Y-50484759D01*
X139701680Y-50249727D01*
X139809853Y-49988574D01*
X139865000Y-49711335D01*
X139865000Y-49428665D01*
X139809853Y-49151426D01*
X139701680Y-48890273D01*
X139544637Y-48655241D01*
X139344759Y-48455363D01*
X139109727Y-48298320D01*
X138848574Y-48190147D01*
X138571335Y-48135000D01*
X138288665Y-48135000D01*
X138011426Y-48190147D01*
X137750273Y-48298320D01*
X137515241Y-48455363D01*
X137315363Y-48655241D01*
X137158320Y-48890273D01*
X137050147Y-49151426D01*
X136995000Y-49428665D01*
X136995000Y-49711335D01*
X137050147Y-49988574D01*
X137158320Y-50249727D01*
X137315363Y-50484759D01*
X137515241Y-50684637D01*
X137717827Y-50820000D01*
X137515241Y-50955363D01*
X137315363Y-51155241D01*
X137160000Y-51387759D01*
X137004637Y-51155241D01*
X136804759Y-50955363D01*
X136569727Y-50798320D01*
X136308574Y-50690147D01*
X136031335Y-50635000D01*
X135748665Y-50635000D01*
X135471426Y-50690147D01*
X135210273Y-50798320D01*
X134975241Y-50955363D01*
X134775363Y-51155241D01*
X134618320Y-51390273D01*
X134510147Y-51651426D01*
X134455000Y-51928665D01*
X127165000Y-51928665D01*
X127109853Y-51651426D01*
X127001680Y-51390273D01*
X126844637Y-51155241D01*
X126644759Y-50955363D01*
X126409727Y-50798320D01*
X126148574Y-50690147D01*
X125871335Y-50635000D01*
X125588665Y-50635000D01*
X125311426Y-50690147D01*
X125050273Y-50798320D01*
X124815241Y-50955363D01*
X124615363Y-51155241D01*
X124460000Y-51387759D01*
X124304637Y-51155241D01*
X124104759Y-50955363D01*
X123869727Y-50798320D01*
X123608574Y-50690147D01*
X123331335Y-50635000D01*
X123048665Y-50635000D01*
X122771426Y-50690147D01*
X122510273Y-50798320D01*
X122275241Y-50955363D01*
X122075363Y-51155241D01*
X121918320Y-51390273D01*
X121810147Y-51651426D01*
X121755000Y-51928665D01*
X98517398Y-51928665D01*
X98614212Y-51849212D01*
X98759171Y-51672579D01*
X98866885Y-51471059D01*
X98933215Y-51252399D01*
X98950000Y-51081978D01*
X98950000Y-50518021D01*
X98933215Y-50347600D01*
X98866885Y-50128940D01*
X98759171Y-49927421D01*
X98614212Y-49750788D01*
X98437578Y-49605829D01*
X98236059Y-49498115D01*
X98017399Y-49431785D01*
X97790000Y-49409388D01*
X97562600Y-49431785D01*
X97353902Y-49495093D01*
X97289180Y-49460498D01*
X97169482Y-49424188D01*
X97045000Y-49411928D01*
X95995000Y-49411928D01*
X95870518Y-49424188D01*
X95750820Y-49460498D01*
X95640506Y-49519463D01*
X95543815Y-49598815D01*
X95464463Y-49695506D01*
X95405498Y-49805820D01*
X95369188Y-49925518D01*
X95356928Y-50050000D01*
X67823769Y-50050000D01*
X67754775Y-49883434D01*
X67543013Y-49566509D01*
X67273491Y-49296987D01*
X66956566Y-49085225D01*
X66604419Y-48939361D01*
X66230581Y-48865000D01*
X65849419Y-48865000D01*
X65475581Y-48939361D01*
X65123434Y-49085225D01*
X64806509Y-49296987D01*
X64536987Y-49566509D01*
X64325225Y-49883434D01*
X64179361Y-50235581D01*
X64105000Y-50609419D01*
X61087000Y-50609419D01*
X61087000Y-48118665D01*
X111595000Y-48118665D01*
X111595000Y-48401335D01*
X111650147Y-48678574D01*
X111758320Y-48939727D01*
X111915363Y-49174759D01*
X112115241Y-49374637D01*
X112350273Y-49531680D01*
X112611426Y-49639853D01*
X112888665Y-49695000D01*
X113171335Y-49695000D01*
X113448574Y-49639853D01*
X113709727Y-49531680D01*
X113944759Y-49374637D01*
X114144637Y-49174759D01*
X114301680Y-48939727D01*
X114409853Y-48678574D01*
X114465000Y-48401335D01*
X114465000Y-48118665D01*
X121755000Y-48118665D01*
X121755000Y-48401335D01*
X121810147Y-48678574D01*
X121918320Y-48939727D01*
X122075363Y-49174759D01*
X122275241Y-49374637D01*
X122510273Y-49531680D01*
X122771426Y-49639853D01*
X123048665Y-49695000D01*
X123331335Y-49695000D01*
X123608574Y-49639853D01*
X123869727Y-49531680D01*
X124104759Y-49374637D01*
X124304637Y-49174759D01*
X124461680Y-48939727D01*
X124569853Y-48678574D01*
X124625000Y-48401335D01*
X124625000Y-48118665D01*
X124569853Y-47841426D01*
X124461680Y-47580273D01*
X124304637Y-47345241D01*
X124104759Y-47145363D01*
X123869727Y-46988320D01*
X123608574Y-46880147D01*
X123331335Y-46825000D01*
X123048665Y-46825000D01*
X122771426Y-46880147D01*
X122510273Y-46988320D01*
X122275241Y-47145363D01*
X122075363Y-47345241D01*
X121918320Y-47580273D01*
X121810147Y-47841426D01*
X121755000Y-48118665D01*
X114465000Y-48118665D01*
X114409853Y-47841426D01*
X114301680Y-47580273D01*
X114144637Y-47345241D01*
X113944759Y-47145363D01*
X113709727Y-46988320D01*
X113448574Y-46880147D01*
X113171335Y-46825000D01*
X112888665Y-46825000D01*
X112611426Y-46880147D01*
X112350273Y-46988320D01*
X112115241Y-47145363D01*
X111915363Y-47345241D01*
X111758320Y-47580273D01*
X111650147Y-47841426D01*
X111595000Y-48118665D01*
X61087000Y-48118665D01*
X61087000Y-44288967D01*
X107585000Y-44288967D01*
X107585000Y-44611033D01*
X107647832Y-44926912D01*
X107771082Y-45224463D01*
X107950013Y-45492252D01*
X108177748Y-45719987D01*
X108445537Y-45898918D01*
X108743088Y-46022168D01*
X109058967Y-46085000D01*
X109381033Y-46085000D01*
X109696912Y-46022168D01*
X109994463Y-45898918D01*
X110262252Y-45719987D01*
X110489987Y-45492252D01*
X110668918Y-45224463D01*
X110792168Y-44926912D01*
X110855000Y-44611033D01*
X110855000Y-44288967D01*
X122825000Y-44288967D01*
X122825000Y-44611033D01*
X122887832Y-44926912D01*
X123011082Y-45224463D01*
X123190013Y-45492252D01*
X123417748Y-45719987D01*
X123685537Y-45898918D01*
X123983088Y-46022168D01*
X124298967Y-46085000D01*
X124621033Y-46085000D01*
X124936912Y-46022168D01*
X125234463Y-45898918D01*
X125502252Y-45719987D01*
X125729987Y-45492252D01*
X125908918Y-45224463D01*
X126032168Y-44926912D01*
X126095000Y-44611033D01*
X126095000Y-44470000D01*
X136888843Y-44470000D01*
X136913412Y-44719454D01*
X136986175Y-44959321D01*
X137104336Y-45180384D01*
X137218916Y-45320000D01*
X137104336Y-45459616D01*
X136986175Y-45680679D01*
X136913412Y-45920546D01*
X136888843Y-46170000D01*
X136913412Y-46419454D01*
X136986175Y-46659321D01*
X137104336Y-46880384D01*
X137263353Y-47074147D01*
X137457116Y-47233164D01*
X137678179Y-47351325D01*
X137918046Y-47424088D01*
X138104987Y-47442500D01*
X138755013Y-47442500D01*
X138941954Y-47424088D01*
X139181821Y-47351325D01*
X139402884Y-47233164D01*
X139596647Y-47074147D01*
X139755664Y-46880384D01*
X139873825Y-46659321D01*
X139946588Y-46419454D01*
X139971157Y-46170000D01*
X139946588Y-45920546D01*
X139873825Y-45680679D01*
X139755664Y-45459616D01*
X139641084Y-45320000D01*
X139755664Y-45180384D01*
X139873825Y-44959321D01*
X139946588Y-44719454D01*
X139971157Y-44470000D01*
X139946588Y-44220546D01*
X139873825Y-43980679D01*
X139755664Y-43759616D01*
X139596647Y-43565853D01*
X139402884Y-43406836D01*
X139181821Y-43288675D01*
X138941954Y-43215912D01*
X138755013Y-43197500D01*
X138104987Y-43197500D01*
X137918046Y-43215912D01*
X137678179Y-43288675D01*
X137457116Y-43406836D01*
X137263353Y-43565853D01*
X137104336Y-43759616D01*
X136986175Y-43980679D01*
X136913412Y-44220546D01*
X136888843Y-44470000D01*
X126095000Y-44470000D01*
X126095000Y-44288967D01*
X126032168Y-43973088D01*
X125908918Y-43675537D01*
X125729987Y-43407748D01*
X125502252Y-43180013D01*
X125234463Y-43001082D01*
X124936912Y-42877832D01*
X124621033Y-42815000D01*
X124298967Y-42815000D01*
X123983088Y-42877832D01*
X123685537Y-43001082D01*
X123417748Y-43180013D01*
X123190013Y-43407748D01*
X123011082Y-43675537D01*
X122887832Y-43973088D01*
X122825000Y-44288967D01*
X110855000Y-44288967D01*
X110792168Y-43973088D01*
X110668918Y-43675537D01*
X110489987Y-43407748D01*
X110262252Y-43180013D01*
X109994463Y-43001082D01*
X109696912Y-42877832D01*
X109381033Y-42815000D01*
X109058967Y-42815000D01*
X108743088Y-42877832D01*
X108445537Y-43001082D01*
X108177748Y-43180013D01*
X107950013Y-43407748D01*
X107771082Y-43675537D01*
X107647832Y-43973088D01*
X107585000Y-44288967D01*
X61087000Y-44288967D01*
X61087000Y-40449419D01*
X64105000Y-40449419D01*
X64105000Y-40830581D01*
X64179361Y-41204419D01*
X64325225Y-41556566D01*
X64536987Y-41873491D01*
X64806509Y-42143013D01*
X65123434Y-42354775D01*
X65475581Y-42500639D01*
X65849419Y-42575000D01*
X66230581Y-42575000D01*
X66604419Y-42500639D01*
X66956566Y-42354775D01*
X67273491Y-42143013D01*
X67543013Y-41873491D01*
X67754775Y-41556566D01*
X67900639Y-41204419D01*
X67975000Y-40830581D01*
X67975000Y-40449419D01*
X67900639Y-40075581D01*
X67754775Y-39723434D01*
X67565391Y-39440000D01*
X88966928Y-39440000D01*
X88966928Y-41840000D01*
X88979188Y-41964482D01*
X89015498Y-42084180D01*
X89074463Y-42194494D01*
X89153815Y-42291185D01*
X89250506Y-42370537D01*
X89360820Y-42429502D01*
X89480518Y-42465812D01*
X89605000Y-42478072D01*
X92005000Y-42478072D01*
X92129482Y-42465812D01*
X92249180Y-42429502D01*
X92359494Y-42370537D01*
X92456185Y-42291185D01*
X92535537Y-42194494D01*
X92594502Y-42084180D01*
X92630812Y-41964482D01*
X92643072Y-41840000D01*
X92643072Y-39440000D01*
X92630812Y-39315518D01*
X92594502Y-39195820D01*
X92535537Y-39085506D01*
X92456185Y-38988815D01*
X92359494Y-38909463D01*
X92249180Y-38850498D01*
X92129482Y-38814188D01*
X92005000Y-38801928D01*
X89605000Y-38801928D01*
X89480518Y-38814188D01*
X89360820Y-38850498D01*
X89250506Y-38909463D01*
X89153815Y-38988815D01*
X89074463Y-39085506D01*
X89015498Y-39195820D01*
X88979188Y-39315518D01*
X88966928Y-39440000D01*
X67565391Y-39440000D01*
X67543013Y-39406509D01*
X67273491Y-39136987D01*
X66956566Y-38925225D01*
X66604419Y-38779361D01*
X66230581Y-38705000D01*
X65849419Y-38705000D01*
X65475581Y-38779361D01*
X65123434Y-38925225D01*
X64806509Y-39136987D01*
X64536987Y-39406509D01*
X64325225Y-39723434D01*
X64179361Y-40075581D01*
X64105000Y-40449419D01*
X61087000Y-40449419D01*
X61087000Y-35369419D01*
X64105000Y-35369419D01*
X64105000Y-35750581D01*
X64179361Y-36124419D01*
X64325225Y-36476566D01*
X64536987Y-36793491D01*
X64806509Y-37063013D01*
X65123434Y-37274775D01*
X65475581Y-37420639D01*
X65849419Y-37495000D01*
X66230581Y-37495000D01*
X66604419Y-37420639D01*
X66956566Y-37274775D01*
X67218135Y-37100000D01*
X101866928Y-37100000D01*
X101866928Y-39100000D01*
X101879188Y-39224482D01*
X101915498Y-39344180D01*
X101974463Y-39454494D01*
X102053815Y-39551185D01*
X102150506Y-39630537D01*
X102260820Y-39689502D01*
X102380518Y-39725812D01*
X102505000Y-39738072D01*
X104505000Y-39738072D01*
X104629482Y-39725812D01*
X104749180Y-39689502D01*
X104859494Y-39630537D01*
X104956185Y-39551185D01*
X105035537Y-39454494D01*
X105094502Y-39344180D01*
X105130812Y-39224482D01*
X105143072Y-39100000D01*
X105143072Y-37770000D01*
X131111928Y-37770000D01*
X131111928Y-40970000D01*
X131124188Y-41094482D01*
X131160498Y-41214180D01*
X131219463Y-41324494D01*
X131298815Y-41421185D01*
X131395506Y-41500537D01*
X131505820Y-41559502D01*
X131625518Y-41595812D01*
X131750000Y-41608072D01*
X134950000Y-41608072D01*
X135074482Y-41595812D01*
X135194180Y-41559502D01*
X135304494Y-41500537D01*
X135401185Y-41421185D01*
X135480537Y-41324494D01*
X135539502Y-41214180D01*
X135575812Y-41094482D01*
X135578223Y-41070000D01*
X136888843Y-41070000D01*
X136913412Y-41319454D01*
X136986175Y-41559321D01*
X137104336Y-41780384D01*
X137263353Y-41974147D01*
X137457116Y-42133164D01*
X137678179Y-42251325D01*
X137918046Y-42324088D01*
X138104987Y-42342500D01*
X138755013Y-42342500D01*
X138941954Y-42324088D01*
X139181821Y-42251325D01*
X139402884Y-42133164D01*
X139596647Y-41974147D01*
X139755664Y-41780384D01*
X139873825Y-41559321D01*
X139946588Y-41319454D01*
X139971157Y-41070000D01*
X139946588Y-40820546D01*
X139873825Y-40580679D01*
X139797798Y-40438442D01*
X139860537Y-40361994D01*
X139919502Y-40251680D01*
X139955812Y-40131982D01*
X139968072Y-40007500D01*
X139968072Y-38732500D01*
X139955812Y-38608018D01*
X139919502Y-38488320D01*
X139860537Y-38378006D01*
X139781185Y-38281315D01*
X139684494Y-38201963D01*
X139574180Y-38142998D01*
X139454482Y-38106688D01*
X139330000Y-38094428D01*
X137530000Y-38094428D01*
X137405518Y-38106688D01*
X137285820Y-38142998D01*
X137175506Y-38201963D01*
X137078815Y-38281315D01*
X136999463Y-38378006D01*
X136940498Y-38488320D01*
X136904188Y-38608018D01*
X136891928Y-38732500D01*
X136891928Y-40007500D01*
X136904188Y-40131982D01*
X136940498Y-40251680D01*
X136999463Y-40361994D01*
X137062202Y-40438442D01*
X136986175Y-40580679D01*
X136913412Y-40820546D01*
X136888843Y-41070000D01*
X135578223Y-41070000D01*
X135588072Y-40970000D01*
X135588072Y-37770000D01*
X135575812Y-37645518D01*
X135539502Y-37525820D01*
X135480537Y-37415506D01*
X135401185Y-37318815D01*
X135304494Y-37239463D01*
X135194180Y-37180498D01*
X135074482Y-37144188D01*
X134950000Y-37131928D01*
X131750000Y-37131928D01*
X131625518Y-37144188D01*
X131505820Y-37180498D01*
X131395506Y-37239463D01*
X131298815Y-37318815D01*
X131219463Y-37415506D01*
X131160498Y-37525820D01*
X131124188Y-37645518D01*
X131111928Y-37770000D01*
X105143072Y-37770000D01*
X105143072Y-37100000D01*
X105130812Y-36975518D01*
X105094502Y-36855820D01*
X105035537Y-36745506D01*
X104956185Y-36648815D01*
X104859494Y-36569463D01*
X104749180Y-36510498D01*
X104629482Y-36474188D01*
X104505000Y-36461928D01*
X102505000Y-36461928D01*
X102380518Y-36474188D01*
X102260820Y-36510498D01*
X102150506Y-36569463D01*
X102053815Y-36648815D01*
X101974463Y-36745506D01*
X101915498Y-36855820D01*
X101879188Y-36975518D01*
X101866928Y-37100000D01*
X67218135Y-37100000D01*
X67273491Y-37063013D01*
X67543013Y-36793491D01*
X67754775Y-36476566D01*
X67900639Y-36124419D01*
X67975000Y-35750581D01*
X67975000Y-35369419D01*
X67900639Y-34995581D01*
X67754775Y-34643434D01*
X67543013Y-34326509D01*
X67273491Y-34056987D01*
X66956566Y-33845225D01*
X66604419Y-33699361D01*
X66230581Y-33625000D01*
X65849419Y-33625000D01*
X65475581Y-33699361D01*
X65123434Y-33845225D01*
X64806509Y-34056987D01*
X64536987Y-34326509D01*
X64325225Y-34643434D01*
X64179361Y-34995581D01*
X64105000Y-35369419D01*
X61087000Y-35369419D01*
X61087000Y-33147000D01*
X140843000Y-33147000D01*
X140843000Y-91313000D01*
G37*
G04 #@! TD.AperFunction*
M02*
