G04 #@! TF.GenerationSoftware,KiCad,Pcbnew,(5.1.10)-1*
G04 #@! TF.CreationDate,2021-09-16T20:11:19-04:00*
G04 #@! TF.ProjectId,Space Invaders,53706163-6520-4496-9e76-61646572732e,rev?*
G04 #@! TF.SameCoordinates,Original*
G04 #@! TF.FileFunction,Legend,Top*
G04 #@! TF.FilePolarity,Positive*
%FSLAX46Y46*%
G04 Gerber Fmt 4.6, Leading zero omitted, Abs format (unit mm)*
G04 Created by KiCad (PCBNEW (5.1.10)-1) date 2021-09-16 20:11:19*
%MOMM*%
%LPD*%
G01*
G04 APERTURE LIST*
%ADD10C,0.150000*%
%ADD11C,0.120000*%
%ADD12C,3.000000*%
%ADD13O,1.600000X1.600000*%
%ADD14R,1.600000X1.600000*%
%ADD15C,2.600000*%
%ADD16R,2.600000X2.600000*%
%ADD17C,1.440000*%
%ADD18O,2.000000X1.905000*%
%ADD19R,2.000000X1.905000*%
%ADD20O,1.800000X1.275000*%
%ADD21R,1.800000X1.275000*%
%ADD22C,1.600000*%
%ADD23O,1.905000X2.000000*%
%ADD24R,1.905000X2.000000*%
%ADD25R,1.050000X1.500000*%
%ADD26O,1.050000X1.500000*%
%ADD27O,2.000000X2.000000*%
%ADD28C,2.000000*%
%ADD29O,3.200000X3.200000*%
%ADD30R,3.200000X3.200000*%
%ADD31C,2.400000*%
%ADD32R,2.400000X2.400000*%
%ADD33R,2.000000X2.000000*%
%ADD34O,1.700000X1.700000*%
%ADD35R,1.700000X1.700000*%
G04 APERTURE END LIST*
D10*
X73297023Y-61412380D02*
X72963690Y-60936190D01*
X72725595Y-61412380D02*
X72725595Y-60412380D01*
X73106547Y-60412380D01*
X73201785Y-60460000D01*
X73249404Y-60507619D01*
X73297023Y-60602857D01*
X73297023Y-60745714D01*
X73249404Y-60840952D01*
X73201785Y-60888571D01*
X73106547Y-60936190D01*
X72725595Y-60936190D01*
X73725595Y-61412380D02*
X73725595Y-60745714D01*
X73725595Y-60412380D02*
X73677976Y-60460000D01*
X73725595Y-60507619D01*
X73773214Y-60460000D01*
X73725595Y-60412380D01*
X73725595Y-60507619D01*
X74201785Y-60745714D02*
X74201785Y-61412380D01*
X74201785Y-60840952D02*
X74249404Y-60793333D01*
X74344642Y-60745714D01*
X74487500Y-60745714D01*
X74582738Y-60793333D01*
X74630357Y-60888571D01*
X74630357Y-61412380D01*
X75535119Y-60745714D02*
X75535119Y-61555238D01*
X75487500Y-61650476D01*
X75439880Y-61698095D01*
X75344642Y-61745714D01*
X75201785Y-61745714D01*
X75106547Y-61698095D01*
X75535119Y-61364761D02*
X75439880Y-61412380D01*
X75249404Y-61412380D01*
X75154166Y-61364761D01*
X75106547Y-61317142D01*
X75058928Y-61221904D01*
X75058928Y-60936190D01*
X75106547Y-60840952D01*
X75154166Y-60793333D01*
X75249404Y-60745714D01*
X75439880Y-60745714D01*
X75535119Y-60793333D01*
X77249404Y-61412380D02*
X76773214Y-61412380D01*
X76773214Y-60412380D01*
X77582738Y-61412380D02*
X77582738Y-60745714D01*
X77582738Y-60412380D02*
X77535119Y-60460000D01*
X77582738Y-60507619D01*
X77630357Y-60460000D01*
X77582738Y-60412380D01*
X77582738Y-60507619D01*
X78487500Y-60745714D02*
X78487500Y-61555238D01*
X78439880Y-61650476D01*
X78392261Y-61698095D01*
X78297023Y-61745714D01*
X78154166Y-61745714D01*
X78058928Y-61698095D01*
X78487500Y-61364761D02*
X78392261Y-61412380D01*
X78201785Y-61412380D01*
X78106547Y-61364761D01*
X78058928Y-61317142D01*
X78011309Y-61221904D01*
X78011309Y-60936190D01*
X78058928Y-60840952D01*
X78106547Y-60793333D01*
X78201785Y-60745714D01*
X78392261Y-60745714D01*
X78487500Y-60793333D01*
X78963690Y-61412380D02*
X78963690Y-60412380D01*
X79392261Y-61412380D02*
X79392261Y-60888571D01*
X79344642Y-60793333D01*
X79249404Y-60745714D01*
X79106547Y-60745714D01*
X79011309Y-60793333D01*
X78963690Y-60840952D01*
X79725595Y-60745714D02*
X80106547Y-60745714D01*
X79868452Y-60412380D02*
X79868452Y-61269523D01*
X79916071Y-61364761D01*
X80011309Y-61412380D01*
X80106547Y-61412380D01*
X81201785Y-61412380D02*
X81201785Y-60412380D01*
X81439880Y-60412380D01*
X81582738Y-60460000D01*
X81677976Y-60555238D01*
X81725595Y-60650476D01*
X81773214Y-60840952D01*
X81773214Y-60983809D01*
X81725595Y-61174285D01*
X81677976Y-61269523D01*
X81582738Y-61364761D01*
X81439880Y-61412380D01*
X81201785Y-61412380D01*
X73297023Y-66492380D02*
X72963690Y-66016190D01*
X72725595Y-66492380D02*
X72725595Y-65492380D01*
X73106547Y-65492380D01*
X73201785Y-65540000D01*
X73249404Y-65587619D01*
X73297023Y-65682857D01*
X73297023Y-65825714D01*
X73249404Y-65920952D01*
X73201785Y-65968571D01*
X73106547Y-66016190D01*
X72725595Y-66016190D01*
X73725595Y-66492380D02*
X73725595Y-65825714D01*
X73725595Y-65492380D02*
X73677976Y-65540000D01*
X73725595Y-65587619D01*
X73773214Y-65540000D01*
X73725595Y-65492380D01*
X73725595Y-65587619D01*
X74201785Y-65825714D02*
X74201785Y-66492380D01*
X74201785Y-65920952D02*
X74249404Y-65873333D01*
X74344642Y-65825714D01*
X74487500Y-65825714D01*
X74582738Y-65873333D01*
X74630357Y-65968571D01*
X74630357Y-66492380D01*
X75535119Y-65825714D02*
X75535119Y-66635238D01*
X75487500Y-66730476D01*
X75439880Y-66778095D01*
X75344642Y-66825714D01*
X75201785Y-66825714D01*
X75106547Y-66778095D01*
X75535119Y-66444761D02*
X75439880Y-66492380D01*
X75249404Y-66492380D01*
X75154166Y-66444761D01*
X75106547Y-66397142D01*
X75058928Y-66301904D01*
X75058928Y-66016190D01*
X75106547Y-65920952D01*
X75154166Y-65873333D01*
X75249404Y-65825714D01*
X75439880Y-65825714D01*
X75535119Y-65873333D01*
X77249404Y-66492380D02*
X76773214Y-66492380D01*
X76773214Y-65492380D01*
X77582738Y-66492380D02*
X77582738Y-65825714D01*
X77582738Y-65492380D02*
X77535119Y-65540000D01*
X77582738Y-65587619D01*
X77630357Y-65540000D01*
X77582738Y-65492380D01*
X77582738Y-65587619D01*
X78487500Y-65825714D02*
X78487500Y-66635238D01*
X78439880Y-66730476D01*
X78392261Y-66778095D01*
X78297023Y-66825714D01*
X78154166Y-66825714D01*
X78058928Y-66778095D01*
X78487500Y-66444761D02*
X78392261Y-66492380D01*
X78201785Y-66492380D01*
X78106547Y-66444761D01*
X78058928Y-66397142D01*
X78011309Y-66301904D01*
X78011309Y-66016190D01*
X78058928Y-65920952D01*
X78106547Y-65873333D01*
X78201785Y-65825714D01*
X78392261Y-65825714D01*
X78487500Y-65873333D01*
X78963690Y-66492380D02*
X78963690Y-65492380D01*
X79392261Y-66492380D02*
X79392261Y-65968571D01*
X79344642Y-65873333D01*
X79249404Y-65825714D01*
X79106547Y-65825714D01*
X79011309Y-65873333D01*
X78963690Y-65920952D01*
X79725595Y-65825714D02*
X80106547Y-65825714D01*
X79868452Y-65492380D02*
X79868452Y-66349523D01*
X79916071Y-66444761D01*
X80011309Y-66492380D01*
X80106547Y-66492380D01*
X81773214Y-66397142D02*
X81725595Y-66444761D01*
X81582738Y-66492380D01*
X81487500Y-66492380D01*
X81344642Y-66444761D01*
X81249404Y-66349523D01*
X81201785Y-66254285D01*
X81154166Y-66063809D01*
X81154166Y-65920952D01*
X81201785Y-65730476D01*
X81249404Y-65635238D01*
X81344642Y-65540000D01*
X81487500Y-65492380D01*
X81582738Y-65492380D01*
X81725595Y-65540000D01*
X81773214Y-65587619D01*
X73297023Y-71572380D02*
X72963690Y-71096190D01*
X72725595Y-71572380D02*
X72725595Y-70572380D01*
X73106547Y-70572380D01*
X73201785Y-70620000D01*
X73249404Y-70667619D01*
X73297023Y-70762857D01*
X73297023Y-70905714D01*
X73249404Y-71000952D01*
X73201785Y-71048571D01*
X73106547Y-71096190D01*
X72725595Y-71096190D01*
X73725595Y-71572380D02*
X73725595Y-70905714D01*
X73725595Y-70572380D02*
X73677976Y-70620000D01*
X73725595Y-70667619D01*
X73773214Y-70620000D01*
X73725595Y-70572380D01*
X73725595Y-70667619D01*
X74201785Y-70905714D02*
X74201785Y-71572380D01*
X74201785Y-71000952D02*
X74249404Y-70953333D01*
X74344642Y-70905714D01*
X74487500Y-70905714D01*
X74582738Y-70953333D01*
X74630357Y-71048571D01*
X74630357Y-71572380D01*
X75535119Y-70905714D02*
X75535119Y-71715238D01*
X75487500Y-71810476D01*
X75439880Y-71858095D01*
X75344642Y-71905714D01*
X75201785Y-71905714D01*
X75106547Y-71858095D01*
X75535119Y-71524761D02*
X75439880Y-71572380D01*
X75249404Y-71572380D01*
X75154166Y-71524761D01*
X75106547Y-71477142D01*
X75058928Y-71381904D01*
X75058928Y-71096190D01*
X75106547Y-71000952D01*
X75154166Y-70953333D01*
X75249404Y-70905714D01*
X75439880Y-70905714D01*
X75535119Y-70953333D01*
X77249404Y-71572380D02*
X76773214Y-71572380D01*
X76773214Y-70572380D01*
X77582738Y-71572380D02*
X77582738Y-70905714D01*
X77582738Y-70572380D02*
X77535119Y-70620000D01*
X77582738Y-70667619D01*
X77630357Y-70620000D01*
X77582738Y-70572380D01*
X77582738Y-70667619D01*
X78487500Y-70905714D02*
X78487500Y-71715238D01*
X78439880Y-71810476D01*
X78392261Y-71858095D01*
X78297023Y-71905714D01*
X78154166Y-71905714D01*
X78058928Y-71858095D01*
X78487500Y-71524761D02*
X78392261Y-71572380D01*
X78201785Y-71572380D01*
X78106547Y-71524761D01*
X78058928Y-71477142D01*
X78011309Y-71381904D01*
X78011309Y-71096190D01*
X78058928Y-71000952D01*
X78106547Y-70953333D01*
X78201785Y-70905714D01*
X78392261Y-70905714D01*
X78487500Y-70953333D01*
X78963690Y-71572380D02*
X78963690Y-70572380D01*
X79392261Y-71572380D02*
X79392261Y-71048571D01*
X79344642Y-70953333D01*
X79249404Y-70905714D01*
X79106547Y-70905714D01*
X79011309Y-70953333D01*
X78963690Y-71000952D01*
X79725595Y-70905714D02*
X80106547Y-70905714D01*
X79868452Y-70572380D02*
X79868452Y-71429523D01*
X79916071Y-71524761D01*
X80011309Y-71572380D01*
X80106547Y-71572380D01*
X81535119Y-71048571D02*
X81677976Y-71096190D01*
X81725595Y-71143809D01*
X81773214Y-71239047D01*
X81773214Y-71381904D01*
X81725595Y-71477142D01*
X81677976Y-71524761D01*
X81582738Y-71572380D01*
X81201785Y-71572380D01*
X81201785Y-70572380D01*
X81535119Y-70572380D01*
X81630357Y-70620000D01*
X81677976Y-70667619D01*
X81725595Y-70762857D01*
X81725595Y-70858095D01*
X81677976Y-70953333D01*
X81630357Y-71000952D01*
X81535119Y-71048571D01*
X81201785Y-71048571D01*
X73297023Y-76652380D02*
X72963690Y-76176190D01*
X72725595Y-76652380D02*
X72725595Y-75652380D01*
X73106547Y-75652380D01*
X73201785Y-75700000D01*
X73249404Y-75747619D01*
X73297023Y-75842857D01*
X73297023Y-75985714D01*
X73249404Y-76080952D01*
X73201785Y-76128571D01*
X73106547Y-76176190D01*
X72725595Y-76176190D01*
X73725595Y-76652380D02*
X73725595Y-75985714D01*
X73725595Y-75652380D02*
X73677976Y-75700000D01*
X73725595Y-75747619D01*
X73773214Y-75700000D01*
X73725595Y-75652380D01*
X73725595Y-75747619D01*
X74201785Y-75985714D02*
X74201785Y-76652380D01*
X74201785Y-76080952D02*
X74249404Y-76033333D01*
X74344642Y-75985714D01*
X74487500Y-75985714D01*
X74582738Y-76033333D01*
X74630357Y-76128571D01*
X74630357Y-76652380D01*
X75535119Y-75985714D02*
X75535119Y-76795238D01*
X75487500Y-76890476D01*
X75439880Y-76938095D01*
X75344642Y-76985714D01*
X75201785Y-76985714D01*
X75106547Y-76938095D01*
X75535119Y-76604761D02*
X75439880Y-76652380D01*
X75249404Y-76652380D01*
X75154166Y-76604761D01*
X75106547Y-76557142D01*
X75058928Y-76461904D01*
X75058928Y-76176190D01*
X75106547Y-76080952D01*
X75154166Y-76033333D01*
X75249404Y-75985714D01*
X75439880Y-75985714D01*
X75535119Y-76033333D01*
X77249404Y-76652380D02*
X76773214Y-76652380D01*
X76773214Y-75652380D01*
X77582738Y-76652380D02*
X77582738Y-75985714D01*
X77582738Y-75652380D02*
X77535119Y-75700000D01*
X77582738Y-75747619D01*
X77630357Y-75700000D01*
X77582738Y-75652380D01*
X77582738Y-75747619D01*
X78487500Y-75985714D02*
X78487500Y-76795238D01*
X78439880Y-76890476D01*
X78392261Y-76938095D01*
X78297023Y-76985714D01*
X78154166Y-76985714D01*
X78058928Y-76938095D01*
X78487500Y-76604761D02*
X78392261Y-76652380D01*
X78201785Y-76652380D01*
X78106547Y-76604761D01*
X78058928Y-76557142D01*
X78011309Y-76461904D01*
X78011309Y-76176190D01*
X78058928Y-76080952D01*
X78106547Y-76033333D01*
X78201785Y-75985714D01*
X78392261Y-75985714D01*
X78487500Y-76033333D01*
X78963690Y-76652380D02*
X78963690Y-75652380D01*
X79392261Y-76652380D02*
X79392261Y-76128571D01*
X79344642Y-76033333D01*
X79249404Y-75985714D01*
X79106547Y-75985714D01*
X79011309Y-76033333D01*
X78963690Y-76080952D01*
X79725595Y-75985714D02*
X80106547Y-75985714D01*
X79868452Y-75652380D02*
X79868452Y-76509523D01*
X79916071Y-76604761D01*
X80011309Y-76652380D01*
X80106547Y-76652380D01*
X81154166Y-76366666D02*
X81630357Y-76366666D01*
X81058928Y-76652380D02*
X81392261Y-75652380D01*
X81725595Y-76652380D01*
X72582738Y-80732380D02*
X72916071Y-81732380D01*
X73249404Y-80732380D01*
X73725595Y-81732380D02*
X73630357Y-81684761D01*
X73582738Y-81637142D01*
X73535119Y-81541904D01*
X73535119Y-81256190D01*
X73582738Y-81160952D01*
X73630357Y-81113333D01*
X73725595Y-81065714D01*
X73868452Y-81065714D01*
X73963690Y-81113333D01*
X74011309Y-81160952D01*
X74058928Y-81256190D01*
X74058928Y-81541904D01*
X74011309Y-81637142D01*
X73963690Y-81684761D01*
X73868452Y-81732380D01*
X73725595Y-81732380D01*
X74630357Y-81732380D02*
X74535119Y-81684761D01*
X74487500Y-81589523D01*
X74487500Y-80732380D01*
X75439880Y-81065714D02*
X75439880Y-81732380D01*
X75011309Y-81065714D02*
X75011309Y-81589523D01*
X75058928Y-81684761D01*
X75154166Y-81732380D01*
X75297023Y-81732380D01*
X75392261Y-81684761D01*
X75439880Y-81637142D01*
X75916071Y-81732380D02*
X75916071Y-81065714D01*
X75916071Y-81160952D02*
X75963690Y-81113333D01*
X76058928Y-81065714D01*
X76201785Y-81065714D01*
X76297023Y-81113333D01*
X76344642Y-81208571D01*
X76344642Y-81732380D01*
X76344642Y-81208571D02*
X76392261Y-81113333D01*
X76487500Y-81065714D01*
X76630357Y-81065714D01*
X76725595Y-81113333D01*
X76773214Y-81208571D01*
X76773214Y-81732380D01*
X77630357Y-81684761D02*
X77535119Y-81732380D01*
X77344642Y-81732380D01*
X77249404Y-81684761D01*
X77201785Y-81589523D01*
X77201785Y-81208571D01*
X77249404Y-81113333D01*
X77344642Y-81065714D01*
X77535119Y-81065714D01*
X77630357Y-81113333D01*
X77677976Y-81208571D01*
X77677976Y-81303809D01*
X77201785Y-81399047D01*
X79439880Y-81637142D02*
X79392261Y-81684761D01*
X79249404Y-81732380D01*
X79154166Y-81732380D01*
X79011309Y-81684761D01*
X78916071Y-81589523D01*
X78868452Y-81494285D01*
X78820833Y-81303809D01*
X78820833Y-81160952D01*
X78868452Y-80970476D01*
X78916071Y-80875238D01*
X79011309Y-80780000D01*
X79154166Y-80732380D01*
X79249404Y-80732380D01*
X79392261Y-80780000D01*
X79439880Y-80827619D01*
X80011309Y-81732380D02*
X79916071Y-81684761D01*
X79868452Y-81637142D01*
X79820833Y-81541904D01*
X79820833Y-81256190D01*
X79868452Y-81160952D01*
X79916071Y-81113333D01*
X80011309Y-81065714D01*
X80154166Y-81065714D01*
X80249404Y-81113333D01*
X80297023Y-81160952D01*
X80344642Y-81256190D01*
X80344642Y-81541904D01*
X80297023Y-81637142D01*
X80249404Y-81684761D01*
X80154166Y-81732380D01*
X80011309Y-81732380D01*
X80773214Y-81065714D02*
X80773214Y-81732380D01*
X80773214Y-81160952D02*
X80820833Y-81113333D01*
X80916071Y-81065714D01*
X81058928Y-81065714D01*
X81154166Y-81113333D01*
X81201785Y-81208571D01*
X81201785Y-81732380D01*
X81535119Y-81065714D02*
X81916071Y-81065714D01*
X81677976Y-80732380D02*
X81677976Y-81589523D01*
X81725595Y-81684761D01*
X81820833Y-81732380D01*
X81916071Y-81732380D01*
X82249404Y-81732380D02*
X82249404Y-81065714D01*
X82249404Y-81256190D02*
X82297023Y-81160952D01*
X82344642Y-81113333D01*
X82439880Y-81065714D01*
X82535119Y-81065714D01*
X83011309Y-81732380D02*
X82916071Y-81684761D01*
X82868452Y-81637142D01*
X82820833Y-81541904D01*
X82820833Y-81256190D01*
X82868452Y-81160952D01*
X82916071Y-81113333D01*
X83011309Y-81065714D01*
X83154166Y-81065714D01*
X83249404Y-81113333D01*
X83297023Y-81160952D01*
X83344642Y-81256190D01*
X83344642Y-81541904D01*
X83297023Y-81637142D01*
X83249404Y-81684761D01*
X83154166Y-81732380D01*
X83011309Y-81732380D01*
X83916071Y-81732380D02*
X83820833Y-81684761D01*
X83773214Y-81589523D01*
X83773214Y-80732380D01*
X72677976Y-86764761D02*
X72820833Y-86812380D01*
X73058928Y-86812380D01*
X73154166Y-86764761D01*
X73201785Y-86717142D01*
X73249404Y-86621904D01*
X73249404Y-86526666D01*
X73201785Y-86431428D01*
X73154166Y-86383809D01*
X73058928Y-86336190D01*
X72868452Y-86288571D01*
X72773214Y-86240952D01*
X72725595Y-86193333D01*
X72677976Y-86098095D01*
X72677976Y-86002857D01*
X72725595Y-85907619D01*
X72773214Y-85860000D01*
X72868452Y-85812380D01*
X73106547Y-85812380D01*
X73249404Y-85860000D01*
X73677976Y-86145714D02*
X73677976Y-87145714D01*
X73677976Y-86193333D02*
X73773214Y-86145714D01*
X73963690Y-86145714D01*
X74058928Y-86193333D01*
X74106547Y-86240952D01*
X74154166Y-86336190D01*
X74154166Y-86621904D01*
X74106547Y-86717142D01*
X74058928Y-86764761D01*
X73963690Y-86812380D01*
X73773214Y-86812380D01*
X73677976Y-86764761D01*
X74963690Y-86764761D02*
X74868452Y-86812380D01*
X74677976Y-86812380D01*
X74582738Y-86764761D01*
X74535119Y-86669523D01*
X74535119Y-86288571D01*
X74582738Y-86193333D01*
X74677976Y-86145714D01*
X74868452Y-86145714D01*
X74963690Y-86193333D01*
X75011309Y-86288571D01*
X75011309Y-86383809D01*
X74535119Y-86479047D01*
X75868452Y-86812380D02*
X75868452Y-86288571D01*
X75820833Y-86193333D01*
X75725595Y-86145714D01*
X75535119Y-86145714D01*
X75439880Y-86193333D01*
X75868452Y-86764761D02*
X75773214Y-86812380D01*
X75535119Y-86812380D01*
X75439880Y-86764761D01*
X75392261Y-86669523D01*
X75392261Y-86574285D01*
X75439880Y-86479047D01*
X75535119Y-86431428D01*
X75773214Y-86431428D01*
X75868452Y-86383809D01*
X76344642Y-86812380D02*
X76344642Y-85812380D01*
X76439880Y-86431428D02*
X76725595Y-86812380D01*
X76725595Y-86145714D02*
X76344642Y-86526666D01*
X77535119Y-86764761D02*
X77439880Y-86812380D01*
X77249404Y-86812380D01*
X77154166Y-86764761D01*
X77106547Y-86669523D01*
X77106547Y-86288571D01*
X77154166Y-86193333D01*
X77249404Y-86145714D01*
X77439880Y-86145714D01*
X77535119Y-86193333D01*
X77582738Y-86288571D01*
X77582738Y-86383809D01*
X77106547Y-86479047D01*
X78011309Y-86812380D02*
X78011309Y-86145714D01*
X78011309Y-86336190D02*
X78058928Y-86240952D01*
X78106547Y-86193333D01*
X78201785Y-86145714D01*
X78297023Y-86145714D01*
X79582738Y-85812380D02*
X79773214Y-85812380D01*
X79868452Y-85860000D01*
X79963690Y-85955238D01*
X80011309Y-86145714D01*
X80011309Y-86479047D01*
X79963690Y-86669523D01*
X79868452Y-86764761D01*
X79773214Y-86812380D01*
X79582738Y-86812380D01*
X79487500Y-86764761D01*
X79392261Y-86669523D01*
X79344642Y-86479047D01*
X79344642Y-86145714D01*
X79392261Y-85955238D01*
X79487500Y-85860000D01*
X79582738Y-85812380D01*
X80868452Y-86145714D02*
X80868452Y-86812380D01*
X80439880Y-86145714D02*
X80439880Y-86669523D01*
X80487500Y-86764761D01*
X80582738Y-86812380D01*
X80725595Y-86812380D01*
X80820833Y-86764761D01*
X80868452Y-86717142D01*
X81201785Y-86145714D02*
X81582738Y-86145714D01*
X81344642Y-85812380D02*
X81344642Y-86669523D01*
X81392261Y-86764761D01*
X81487500Y-86812380D01*
X81582738Y-86812380D01*
X73058928Y-55808571D02*
X72725595Y-55808571D01*
X72725595Y-56332380D02*
X72725595Y-55332380D01*
X73201785Y-55332380D01*
X73725595Y-56332380D02*
X73630357Y-56284761D01*
X73582738Y-56189523D01*
X73582738Y-55332380D01*
X74535119Y-56332380D02*
X74535119Y-55808571D01*
X74487500Y-55713333D01*
X74392261Y-55665714D01*
X74201785Y-55665714D01*
X74106547Y-55713333D01*
X74535119Y-56284761D02*
X74439880Y-56332380D01*
X74201785Y-56332380D01*
X74106547Y-56284761D01*
X74058928Y-56189523D01*
X74058928Y-56094285D01*
X74106547Y-55999047D01*
X74201785Y-55951428D01*
X74439880Y-55951428D01*
X74535119Y-55903809D01*
X74963690Y-56284761D02*
X75058928Y-56332380D01*
X75249404Y-56332380D01*
X75344642Y-56284761D01*
X75392261Y-56189523D01*
X75392261Y-56141904D01*
X75344642Y-56046666D01*
X75249404Y-55999047D01*
X75106547Y-55999047D01*
X75011309Y-55951428D01*
X74963690Y-55856190D01*
X74963690Y-55808571D01*
X75011309Y-55713333D01*
X75106547Y-55665714D01*
X75249404Y-55665714D01*
X75344642Y-55713333D01*
X75820833Y-56332380D02*
X75820833Y-55332380D01*
X76249404Y-56332380D02*
X76249404Y-55808571D01*
X76201785Y-55713333D01*
X76106547Y-55665714D01*
X75963690Y-55665714D01*
X75868452Y-55713333D01*
X75820833Y-55760952D01*
X76725595Y-56332380D02*
X76725595Y-55665714D01*
X76725595Y-55332380D02*
X76677976Y-55380000D01*
X76725595Y-55427619D01*
X76773214Y-55380000D01*
X76725595Y-55332380D01*
X76725595Y-55427619D01*
X77201785Y-55665714D02*
X77201785Y-56332380D01*
X77201785Y-55760952D02*
X77249404Y-55713333D01*
X77344642Y-55665714D01*
X77487500Y-55665714D01*
X77582738Y-55713333D01*
X77630357Y-55808571D01*
X77630357Y-56332380D01*
X78535119Y-55665714D02*
X78535119Y-56475238D01*
X78487500Y-56570476D01*
X78439880Y-56618095D01*
X78344642Y-56665714D01*
X78201785Y-56665714D01*
X78106547Y-56618095D01*
X78535119Y-56284761D02*
X78439880Y-56332380D01*
X78249404Y-56332380D01*
X78154166Y-56284761D01*
X78106547Y-56237142D01*
X78058928Y-56141904D01*
X78058928Y-55856190D01*
X78106547Y-55760952D01*
X78154166Y-55713333D01*
X78249404Y-55665714D01*
X78439880Y-55665714D01*
X78535119Y-55713333D01*
X80249404Y-56332380D02*
X79773214Y-56332380D01*
X79773214Y-55332380D01*
X80582738Y-56332380D02*
X80582738Y-55665714D01*
X80582738Y-55332380D02*
X80535119Y-55380000D01*
X80582738Y-55427619D01*
X80630357Y-55380000D01*
X80582738Y-55332380D01*
X80582738Y-55427619D01*
X81487500Y-55665714D02*
X81487500Y-56475238D01*
X81439880Y-56570476D01*
X81392261Y-56618095D01*
X81297023Y-56665714D01*
X81154166Y-56665714D01*
X81058928Y-56618095D01*
X81487500Y-56284761D02*
X81392261Y-56332380D01*
X81201785Y-56332380D01*
X81106547Y-56284761D01*
X81058928Y-56237142D01*
X81011309Y-56141904D01*
X81011309Y-55856190D01*
X81058928Y-55760952D01*
X81106547Y-55713333D01*
X81201785Y-55665714D01*
X81392261Y-55665714D01*
X81487500Y-55713333D01*
X81963690Y-56332380D02*
X81963690Y-55332380D01*
X82392261Y-56332380D02*
X82392261Y-55808571D01*
X82344642Y-55713333D01*
X82249404Y-55665714D01*
X82106547Y-55665714D01*
X82011309Y-55713333D01*
X81963690Y-55760952D01*
X82725595Y-55665714D02*
X83106547Y-55665714D01*
X82868452Y-55332380D02*
X82868452Y-56189523D01*
X82916071Y-56284761D01*
X83011309Y-56332380D01*
X83106547Y-56332380D01*
X83392261Y-56284761D02*
X83487500Y-56332380D01*
X83677976Y-56332380D01*
X83773214Y-56284761D01*
X83820833Y-56189523D01*
X83820833Y-56141904D01*
X83773214Y-56046666D01*
X83677976Y-55999047D01*
X83535119Y-55999047D01*
X83439880Y-55951428D01*
X83392261Y-55856190D01*
X83392261Y-55808571D01*
X83439880Y-55713333D01*
X83535119Y-55665714D01*
X83677976Y-55665714D01*
X83773214Y-55713333D01*
X72677976Y-50966666D02*
X73154166Y-50966666D01*
X72582738Y-51252380D02*
X72916071Y-50252380D01*
X73249404Y-51252380D01*
X73725595Y-51252380D02*
X73630357Y-51204761D01*
X73582738Y-51109523D01*
X73582738Y-50252380D01*
X74106547Y-51252380D02*
X74106547Y-50585714D01*
X74106547Y-50252380D02*
X74058928Y-50300000D01*
X74106547Y-50347619D01*
X74154166Y-50300000D01*
X74106547Y-50252380D01*
X74106547Y-50347619D01*
X74963690Y-51204761D02*
X74868452Y-51252380D01*
X74677976Y-51252380D01*
X74582738Y-51204761D01*
X74535119Y-51109523D01*
X74535119Y-50728571D01*
X74582738Y-50633333D01*
X74677976Y-50585714D01*
X74868452Y-50585714D01*
X74963690Y-50633333D01*
X75011309Y-50728571D01*
X75011309Y-50823809D01*
X74535119Y-50919047D01*
X75439880Y-50585714D02*
X75439880Y-51252380D01*
X75439880Y-50680952D02*
X75487500Y-50633333D01*
X75582738Y-50585714D01*
X75725595Y-50585714D01*
X75820833Y-50633333D01*
X75868452Y-50728571D01*
X75868452Y-51252380D01*
X77106547Y-50728571D02*
X77439880Y-50728571D01*
X77582738Y-51252380D02*
X77106547Y-51252380D01*
X77106547Y-50252380D01*
X77582738Y-50252380D01*
X77916071Y-50585714D02*
X78154166Y-51252380D01*
X78392261Y-50585714D02*
X78154166Y-51252380D01*
X78058928Y-51490476D01*
X78011309Y-51538095D01*
X77916071Y-51585714D01*
X79154166Y-51204761D02*
X79058928Y-51252380D01*
X78868452Y-51252380D01*
X78773214Y-51204761D01*
X78725595Y-51109523D01*
X78725595Y-50728571D01*
X78773214Y-50633333D01*
X78868452Y-50585714D01*
X79058928Y-50585714D01*
X79154166Y-50633333D01*
X79201785Y-50728571D01*
X79201785Y-50823809D01*
X78725595Y-50919047D01*
X79582738Y-51204761D02*
X79677976Y-51252380D01*
X79868452Y-51252380D01*
X79963690Y-51204761D01*
X80011309Y-51109523D01*
X80011309Y-51061904D01*
X79963690Y-50966666D01*
X79868452Y-50919047D01*
X79725595Y-50919047D01*
X79630357Y-50871428D01*
X79582738Y-50776190D01*
X79582738Y-50728571D01*
X79630357Y-50633333D01*
X79725595Y-50585714D01*
X79868452Y-50585714D01*
X79963690Y-50633333D01*
X73249404Y-45220000D02*
X73154166Y-45172380D01*
X73011309Y-45172380D01*
X72868452Y-45220000D01*
X72773214Y-45315238D01*
X72725595Y-45410476D01*
X72677976Y-45600952D01*
X72677976Y-45743809D01*
X72725595Y-45934285D01*
X72773214Y-46029523D01*
X72868452Y-46124761D01*
X73011309Y-46172380D01*
X73106547Y-46172380D01*
X73249404Y-46124761D01*
X73297023Y-46077142D01*
X73297023Y-45743809D01*
X73106547Y-45743809D01*
X73725595Y-46172380D02*
X73725595Y-45505714D01*
X73725595Y-45696190D02*
X73773214Y-45600952D01*
X73820833Y-45553333D01*
X73916071Y-45505714D01*
X74011309Y-45505714D01*
X74487500Y-46172380D02*
X74392261Y-46124761D01*
X74344642Y-46077142D01*
X74297023Y-45981904D01*
X74297023Y-45696190D01*
X74344642Y-45600952D01*
X74392261Y-45553333D01*
X74487500Y-45505714D01*
X74630357Y-45505714D01*
X74725595Y-45553333D01*
X74773214Y-45600952D01*
X74820833Y-45696190D01*
X74820833Y-45981904D01*
X74773214Y-46077142D01*
X74725595Y-46124761D01*
X74630357Y-46172380D01*
X74487500Y-46172380D01*
X75677976Y-45505714D02*
X75677976Y-46172380D01*
X75249404Y-45505714D02*
X75249404Y-46029523D01*
X75297023Y-46124761D01*
X75392261Y-46172380D01*
X75535119Y-46172380D01*
X75630357Y-46124761D01*
X75677976Y-46077142D01*
X76154166Y-45505714D02*
X76154166Y-46172380D01*
X76154166Y-45600952D02*
X76201785Y-45553333D01*
X76297023Y-45505714D01*
X76439880Y-45505714D01*
X76535119Y-45553333D01*
X76582738Y-45648571D01*
X76582738Y-46172380D01*
X77487500Y-46172380D02*
X77487500Y-45172380D01*
X77487500Y-46124761D02*
X77392261Y-46172380D01*
X77201785Y-46172380D01*
X77106547Y-46124761D01*
X77058928Y-46077142D01*
X77011309Y-45981904D01*
X77011309Y-45696190D01*
X77058928Y-45600952D01*
X77106547Y-45553333D01*
X77201785Y-45505714D01*
X77392261Y-45505714D01*
X77487500Y-45553333D01*
X73058928Y-40568571D02*
X73201785Y-40616190D01*
X73249404Y-40663809D01*
X73297023Y-40759047D01*
X73297023Y-40901904D01*
X73249404Y-40997142D01*
X73201785Y-41044761D01*
X73106547Y-41092380D01*
X72725595Y-41092380D01*
X72725595Y-40092380D01*
X73058928Y-40092380D01*
X73154166Y-40140000D01*
X73201785Y-40187619D01*
X73249404Y-40282857D01*
X73249404Y-40378095D01*
X73201785Y-40473333D01*
X73154166Y-40520952D01*
X73058928Y-40568571D01*
X72725595Y-40568571D01*
X74154166Y-41092380D02*
X74154166Y-40568571D01*
X74106547Y-40473333D01*
X74011309Y-40425714D01*
X73820833Y-40425714D01*
X73725595Y-40473333D01*
X74154166Y-41044761D02*
X74058928Y-41092380D01*
X73820833Y-41092380D01*
X73725595Y-41044761D01*
X73677976Y-40949523D01*
X73677976Y-40854285D01*
X73725595Y-40759047D01*
X73820833Y-40711428D01*
X74058928Y-40711428D01*
X74154166Y-40663809D01*
X74535119Y-40425714D02*
X74773214Y-41092380D01*
X75011309Y-40425714D02*
X74773214Y-41092380D01*
X74677976Y-41330476D01*
X74630357Y-41378095D01*
X74535119Y-41425714D01*
X75535119Y-41092380D02*
X75439880Y-41044761D01*
X75392261Y-40997142D01*
X75344642Y-40901904D01*
X75344642Y-40616190D01*
X75392261Y-40520952D01*
X75439880Y-40473333D01*
X75535119Y-40425714D01*
X75677976Y-40425714D01*
X75773214Y-40473333D01*
X75820833Y-40520952D01*
X75868452Y-40616190D01*
X75868452Y-40901904D01*
X75820833Y-40997142D01*
X75773214Y-41044761D01*
X75677976Y-41092380D01*
X75535119Y-41092380D01*
X76297023Y-40425714D02*
X76297023Y-41092380D01*
X76297023Y-40520952D02*
X76344642Y-40473333D01*
X76439880Y-40425714D01*
X76582738Y-40425714D01*
X76677976Y-40473333D01*
X76725595Y-40568571D01*
X76725595Y-41092380D01*
X77582738Y-41044761D02*
X77487500Y-41092380D01*
X77297023Y-41092380D01*
X77201785Y-41044761D01*
X77154166Y-40949523D01*
X77154166Y-40568571D01*
X77201785Y-40473333D01*
X77297023Y-40425714D01*
X77487500Y-40425714D01*
X77582738Y-40473333D01*
X77630357Y-40568571D01*
X77630357Y-40663809D01*
X77154166Y-40759047D01*
X77916071Y-40425714D02*
X78297023Y-40425714D01*
X78058928Y-40092380D02*
X78058928Y-40949523D01*
X78106547Y-41044761D01*
X78201785Y-41092380D01*
X78297023Y-41092380D01*
X79344642Y-41044761D02*
X79487500Y-41092380D01*
X79725595Y-41092380D01*
X79820833Y-41044761D01*
X79868452Y-40997142D01*
X79916071Y-40901904D01*
X79916071Y-40806666D01*
X79868452Y-40711428D01*
X79820833Y-40663809D01*
X79725595Y-40616190D01*
X79535119Y-40568571D01*
X79439880Y-40520952D01*
X79392261Y-40473333D01*
X79344642Y-40378095D01*
X79344642Y-40282857D01*
X79392261Y-40187619D01*
X79439880Y-40140000D01*
X79535119Y-40092380D01*
X79773214Y-40092380D01*
X79916071Y-40140000D01*
X80773214Y-40425714D02*
X80773214Y-41092380D01*
X80344642Y-40425714D02*
X80344642Y-40949523D01*
X80392261Y-41044761D01*
X80487500Y-41092380D01*
X80630357Y-41092380D01*
X80725595Y-41044761D01*
X80773214Y-40997142D01*
X81249404Y-40425714D02*
X81249404Y-41425714D01*
X81249404Y-40473333D02*
X81344642Y-40425714D01*
X81535119Y-40425714D01*
X81630357Y-40473333D01*
X81677976Y-40520952D01*
X81725595Y-40616190D01*
X81725595Y-40901904D01*
X81677976Y-40997142D01*
X81630357Y-41044761D01*
X81535119Y-41092380D01*
X81344642Y-41092380D01*
X81249404Y-41044761D01*
X82154166Y-40425714D02*
X82154166Y-41425714D01*
X82154166Y-40473333D02*
X82249404Y-40425714D01*
X82439880Y-40425714D01*
X82535119Y-40473333D01*
X82582738Y-40520952D01*
X82630357Y-40616190D01*
X82630357Y-40901904D01*
X82582738Y-40997142D01*
X82535119Y-41044761D01*
X82439880Y-41092380D01*
X82249404Y-41092380D01*
X82154166Y-41044761D01*
X83201785Y-41092380D02*
X83106547Y-41044761D01*
X83058928Y-40949523D01*
X83058928Y-40092380D01*
X83487500Y-40425714D02*
X83725595Y-41092380D01*
X83963690Y-40425714D02*
X83725595Y-41092380D01*
X83630357Y-41330476D01*
X83582738Y-41378095D01*
X83487500Y-41425714D01*
X73249404Y-36012380D02*
X72677976Y-36012380D01*
X72963690Y-36012380D02*
X72963690Y-35012380D01*
X72868452Y-35155238D01*
X72773214Y-35250476D01*
X72677976Y-35298095D01*
X73630357Y-35107619D02*
X73677976Y-35060000D01*
X73773214Y-35012380D01*
X74011309Y-35012380D01*
X74106547Y-35060000D01*
X74154166Y-35107619D01*
X74201785Y-35202857D01*
X74201785Y-35298095D01*
X74154166Y-35440952D01*
X73582738Y-36012380D01*
X74201785Y-36012380D01*
X74487500Y-35012380D02*
X74820833Y-36012380D01*
X75154166Y-35012380D01*
X76201785Y-35964761D02*
X76344642Y-36012380D01*
X76582738Y-36012380D01*
X76677976Y-35964761D01*
X76725595Y-35917142D01*
X76773214Y-35821904D01*
X76773214Y-35726666D01*
X76725595Y-35631428D01*
X76677976Y-35583809D01*
X76582738Y-35536190D01*
X76392261Y-35488571D01*
X76297023Y-35440952D01*
X76249404Y-35393333D01*
X76201785Y-35298095D01*
X76201785Y-35202857D01*
X76249404Y-35107619D01*
X76297023Y-35060000D01*
X76392261Y-35012380D01*
X76630357Y-35012380D01*
X76773214Y-35060000D01*
X77630357Y-35345714D02*
X77630357Y-36012380D01*
X77201785Y-35345714D02*
X77201785Y-35869523D01*
X77249404Y-35964761D01*
X77344642Y-36012380D01*
X77487500Y-36012380D01*
X77582738Y-35964761D01*
X77630357Y-35917142D01*
X78106547Y-35345714D02*
X78106547Y-36345714D01*
X78106547Y-35393333D02*
X78201785Y-35345714D01*
X78392261Y-35345714D01*
X78487500Y-35393333D01*
X78535119Y-35440952D01*
X78582738Y-35536190D01*
X78582738Y-35821904D01*
X78535119Y-35917142D01*
X78487500Y-35964761D01*
X78392261Y-36012380D01*
X78201785Y-36012380D01*
X78106547Y-35964761D01*
X79011309Y-35345714D02*
X79011309Y-36345714D01*
X79011309Y-35393333D02*
X79106547Y-35345714D01*
X79297023Y-35345714D01*
X79392261Y-35393333D01*
X79439880Y-35440952D01*
X79487500Y-35536190D01*
X79487500Y-35821904D01*
X79439880Y-35917142D01*
X79392261Y-35964761D01*
X79297023Y-36012380D01*
X79106547Y-36012380D01*
X79011309Y-35964761D01*
X80058928Y-36012380D02*
X79963690Y-35964761D01*
X79916071Y-35869523D01*
X79916071Y-35012380D01*
X80344642Y-35345714D02*
X80582738Y-36012380D01*
X80820833Y-35345714D02*
X80582738Y-36012380D01*
X80487500Y-36250476D01*
X80439880Y-36298095D01*
X80344642Y-36345714D01*
D11*
X135100000Y-76200000D02*
G75*
G03*
X135100000Y-76200000I-1750000J0D01*
G01*
X139760000Y-84090000D02*
X139760000Y-82440000D01*
X139760000Y-82440000D02*
X129480000Y-82440000D01*
X129480000Y-82440000D02*
X129480000Y-87740000D01*
X129480000Y-87740000D02*
X139760000Y-87740000D01*
X139760000Y-87740000D02*
X139760000Y-86090000D01*
X139820000Y-79950000D02*
X129420000Y-79950000D01*
X129420000Y-79950000D02*
X129420000Y-90230000D01*
X129420000Y-90230000D02*
X139820000Y-90230000D01*
X139820000Y-90230000D02*
X139820000Y-79950000D01*
X139760000Y-86090000D02*
G75*
G02*
X139760000Y-84090000I0J1000000D01*
G01*
X123250000Y-84090000D02*
X123250000Y-82440000D01*
X123250000Y-82440000D02*
X112970000Y-82440000D01*
X112970000Y-82440000D02*
X112970000Y-87740000D01*
X112970000Y-87740000D02*
X123250000Y-87740000D01*
X123250000Y-87740000D02*
X123250000Y-86090000D01*
X123310000Y-79950000D02*
X112910000Y-79950000D01*
X112910000Y-79950000D02*
X112910000Y-90230000D01*
X112910000Y-90230000D02*
X123310000Y-90230000D01*
X123310000Y-90230000D02*
X123310000Y-79950000D01*
X123250000Y-86090000D02*
G75*
G02*
X123250000Y-84090000I0J1000000D01*
G01*
X123250000Y-68850000D02*
X123250000Y-67200000D01*
X123250000Y-67200000D02*
X105350000Y-67200000D01*
X105350000Y-67200000D02*
X105350000Y-72500000D01*
X105350000Y-72500000D02*
X123250000Y-72500000D01*
X123250000Y-72500000D02*
X123250000Y-70850000D01*
X123310000Y-64710000D02*
X105290000Y-64710000D01*
X105290000Y-64710000D02*
X105290000Y-74990000D01*
X105290000Y-74990000D02*
X123310000Y-74990000D01*
X123310000Y-74990000D02*
X123310000Y-64710000D01*
X123250000Y-70850000D02*
G75*
G02*
X123250000Y-68850000I0J1000000D01*
G01*
X68220000Y-86360000D02*
G75*
G03*
X68220000Y-86360000I-2180000J0D01*
G01*
X68220000Y-81280000D02*
G75*
G03*
X68220000Y-81280000I-2180000J0D01*
G01*
X68220000Y-76200000D02*
G75*
G03*
X68220000Y-76200000I-2180000J0D01*
G01*
X68220000Y-71120000D02*
G75*
G03*
X68220000Y-71120000I-2180000J0D01*
G01*
X68220000Y-66040000D02*
G75*
G03*
X68220000Y-66040000I-2180000J0D01*
G01*
X68220000Y-60960000D02*
G75*
G03*
X68220000Y-60960000I-2180000J0D01*
G01*
X68220000Y-55880000D02*
G75*
G03*
X68220000Y-55880000I-2180000J0D01*
G01*
X68220000Y-50800000D02*
G75*
G03*
X68220000Y-50800000I-2180000J0D01*
G01*
X68220000Y-45720000D02*
G75*
G03*
X68220000Y-45720000I-2180000J0D01*
G01*
X68220000Y-40640000D02*
G75*
G03*
X68220000Y-40640000I-2180000J0D01*
G01*
X68220000Y-35560000D02*
G75*
G03*
X68220000Y-35560000I-2180000J0D01*
G01*
X70840000Y-88960000D02*
X70840000Y-32960000D01*
X68340000Y-88960000D02*
X68340000Y-32960000D01*
X62140000Y-88960000D02*
X62140000Y-32960000D01*
X60080000Y-88960000D02*
X60080000Y-32960000D01*
X71400000Y-88960000D02*
X71400000Y-32960000D01*
X60080000Y-88960000D02*
X71400000Y-88960000D01*
X60080000Y-32960000D02*
X71400000Y-32960000D01*
X64652000Y-84706000D02*
X64759000Y-84813000D01*
X67587000Y-87642000D02*
X67694000Y-87748000D01*
X64386000Y-84972000D02*
X64493000Y-85079000D01*
X67321000Y-87908000D02*
X67428000Y-88014000D01*
X64652000Y-79626000D02*
X65048000Y-80021000D01*
X67314000Y-82287000D02*
X67694000Y-82667000D01*
X64386000Y-79892000D02*
X64766000Y-80272000D01*
X67032000Y-82538000D02*
X67428000Y-82933000D01*
X64652000Y-74546000D02*
X65048000Y-74941000D01*
X67314000Y-77207000D02*
X67694000Y-77587000D01*
X64386000Y-74812000D02*
X64766000Y-75192000D01*
X67032000Y-77458000D02*
X67428000Y-77853000D01*
X64652000Y-69466000D02*
X65048000Y-69861000D01*
X67314000Y-72127000D02*
X67694000Y-72507000D01*
X64386000Y-69732000D02*
X64766000Y-70112000D01*
X67032000Y-72378000D02*
X67428000Y-72773000D01*
X64652000Y-64386000D02*
X65048000Y-64781000D01*
X67314000Y-67047000D02*
X67694000Y-67427000D01*
X64386000Y-64652000D02*
X64766000Y-65032000D01*
X67032000Y-67298000D02*
X67428000Y-67693000D01*
X64652000Y-59306000D02*
X65048000Y-59701000D01*
X67314000Y-61967000D02*
X67694000Y-62347000D01*
X64386000Y-59572000D02*
X64766000Y-59952000D01*
X67032000Y-62218000D02*
X67428000Y-62613000D01*
X64652000Y-54226000D02*
X65048000Y-54621000D01*
X67314000Y-56887000D02*
X67694000Y-57267000D01*
X64386000Y-54492000D02*
X64766000Y-54872000D01*
X67032000Y-57138000D02*
X67428000Y-57533000D01*
X64652000Y-49146000D02*
X65048000Y-49541000D01*
X67314000Y-51807000D02*
X67694000Y-52187000D01*
X64386000Y-49412000D02*
X64766000Y-49792000D01*
X67032000Y-52058000D02*
X67428000Y-52453000D01*
X64652000Y-44066000D02*
X65048000Y-44461000D01*
X67314000Y-46727000D02*
X67694000Y-47107000D01*
X64386000Y-44332000D02*
X64766000Y-44712000D01*
X67032000Y-46978000D02*
X67428000Y-47373000D01*
X64652000Y-38986000D02*
X65048000Y-39381000D01*
X67314000Y-41647000D02*
X67694000Y-42027000D01*
X64386000Y-39252000D02*
X64766000Y-39632000D01*
X67032000Y-41898000D02*
X67428000Y-42293000D01*
X64652000Y-33906000D02*
X65048000Y-34301000D01*
X67314000Y-36567000D02*
X67694000Y-36947000D01*
X64386000Y-34172000D02*
X64766000Y-34552000D01*
X67032000Y-36818000D02*
X67428000Y-37213000D01*
X70900000Y-89200000D02*
X71640000Y-89200000D01*
X71640000Y-89200000D02*
X71640000Y-88700000D01*
X135710000Y-64575000D02*
X125940000Y-64575000D01*
X135710000Y-54805000D02*
X125940000Y-54805000D01*
X135710000Y-64575000D02*
X135710000Y-54805000D01*
X125940000Y-64575000D02*
X125940000Y-54805000D01*
X141700000Y-54570000D02*
X141700000Y-64810000D01*
X137059000Y-54570000D02*
X137059000Y-64810000D01*
X141700000Y-54570000D02*
X137059000Y-54570000D01*
X141700000Y-64810000D02*
X137059000Y-64810000D01*
X140190000Y-54570000D02*
X140190000Y-64810000D01*
X141700000Y-57840000D02*
X140190000Y-57840000D01*
X141700000Y-61541000D02*
X140190000Y-61541000D01*
X141700000Y-37649000D02*
X141700000Y-47890000D01*
X137059000Y-37649000D02*
X137059000Y-47890000D01*
X141700000Y-37649000D02*
X137059000Y-37649000D01*
X141700000Y-47890000D02*
X137059000Y-47890000D01*
X140190000Y-37649000D02*
X140190000Y-47890000D01*
X141700000Y-40920000D02*
X140190000Y-40920000D01*
X141700000Y-44620000D02*
X140190000Y-44620000D01*
X114840000Y-46890000D02*
X114840000Y-49630000D01*
X114840000Y-49630000D02*
X121380000Y-49630000D01*
X121380000Y-49630000D02*
X121380000Y-46890000D01*
X121380000Y-46890000D02*
X114840000Y-46890000D01*
X114070000Y-48260000D02*
X114840000Y-48260000D01*
X122150000Y-48260000D02*
X121380000Y-48260000D01*
X121820000Y-60420000D02*
X124560000Y-60420000D01*
X124560000Y-60420000D02*
X124560000Y-53880000D01*
X124560000Y-53880000D02*
X121820000Y-53880000D01*
X121820000Y-53880000D02*
X121820000Y-60420000D01*
X123190000Y-61190000D02*
X123190000Y-60420000D01*
X123190000Y-53110000D02*
X123190000Y-53880000D01*
X127540000Y-50700000D02*
X127540000Y-53440000D01*
X127540000Y-53440000D02*
X134080000Y-53440000D01*
X134080000Y-53440000D02*
X134080000Y-50700000D01*
X134080000Y-50700000D02*
X127540000Y-50700000D01*
X126770000Y-52070000D02*
X127540000Y-52070000D01*
X134850000Y-52070000D02*
X134080000Y-52070000D01*
X113130000Y-53880000D02*
X110390000Y-53880000D01*
X110390000Y-53880000D02*
X110390000Y-60420000D01*
X110390000Y-60420000D02*
X113130000Y-60420000D01*
X113130000Y-60420000D02*
X113130000Y-53880000D01*
X111760000Y-53110000D02*
X111760000Y-53880000D01*
X111760000Y-61190000D02*
X111760000Y-60420000D01*
X109320000Y-53880000D02*
X106580000Y-53880000D01*
X106580000Y-53880000D02*
X106580000Y-60420000D01*
X106580000Y-60420000D02*
X109320000Y-60420000D01*
X109320000Y-60420000D02*
X109320000Y-53880000D01*
X107950000Y-53110000D02*
X107950000Y-53880000D01*
X107950000Y-61190000D02*
X107950000Y-60420000D01*
X116940000Y-53880000D02*
X114200000Y-53880000D01*
X114200000Y-53880000D02*
X114200000Y-60420000D01*
X114200000Y-60420000D02*
X116940000Y-60420000D01*
X116940000Y-60420000D02*
X116940000Y-53880000D01*
X115570000Y-53110000D02*
X115570000Y-53880000D01*
X115570000Y-61190000D02*
X115570000Y-60420000D01*
X109120000Y-87090000D02*
X111860000Y-87090000D01*
X111860000Y-87090000D02*
X111860000Y-80550000D01*
X111860000Y-80550000D02*
X109120000Y-80550000D01*
X109120000Y-80550000D02*
X109120000Y-87090000D01*
X110490000Y-87860000D02*
X110490000Y-87090000D01*
X110490000Y-79780000D02*
X110490000Y-80550000D01*
X105510000Y-53880000D02*
X102770000Y-53880000D01*
X102770000Y-53880000D02*
X102770000Y-60420000D01*
X102770000Y-60420000D02*
X105510000Y-60420000D01*
X105510000Y-60420000D02*
X105510000Y-53880000D01*
X104140000Y-53110000D02*
X104140000Y-53880000D01*
X104140000Y-61190000D02*
X104140000Y-60420000D01*
X120750000Y-53880000D02*
X118010000Y-53880000D01*
X118010000Y-53880000D02*
X118010000Y-60420000D01*
X118010000Y-60420000D02*
X120750000Y-60420000D01*
X120750000Y-60420000D02*
X120750000Y-53880000D01*
X119380000Y-53110000D02*
X119380000Y-53880000D01*
X119380000Y-61190000D02*
X119380000Y-60420000D01*
X105310000Y-87090000D02*
X108050000Y-87090000D01*
X108050000Y-87090000D02*
X108050000Y-80550000D01*
X108050000Y-80550000D02*
X105310000Y-80550000D01*
X105310000Y-80550000D02*
X105310000Y-87090000D01*
X106680000Y-87860000D02*
X106680000Y-87090000D01*
X106680000Y-79780000D02*
X106680000Y-80550000D01*
X97690000Y-84550000D02*
X100430000Y-84550000D01*
X100430000Y-84550000D02*
X100430000Y-78010000D01*
X100430000Y-78010000D02*
X97690000Y-78010000D01*
X97690000Y-78010000D02*
X97690000Y-84550000D01*
X99060000Y-85320000D02*
X99060000Y-84550000D01*
X99060000Y-77240000D02*
X99060000Y-78010000D01*
X104240000Y-78010000D02*
X101500000Y-78010000D01*
X101500000Y-78010000D02*
X101500000Y-84550000D01*
X101500000Y-84550000D02*
X104240000Y-84550000D01*
X104240000Y-84550000D02*
X104240000Y-78010000D01*
X102870000Y-77240000D02*
X102870000Y-78010000D01*
X102870000Y-85320000D02*
X102870000Y-84550000D01*
X125630000Y-88360000D02*
X128370000Y-88360000D01*
X128370000Y-88360000D02*
X128370000Y-81820000D01*
X128370000Y-81820000D02*
X125630000Y-81820000D01*
X125630000Y-81820000D02*
X125630000Y-88360000D01*
X127000000Y-89130000D02*
X127000000Y-88360000D01*
X127000000Y-81050000D02*
X127000000Y-81820000D01*
X95290000Y-62960000D02*
X85050000Y-62960000D01*
X95290000Y-58319000D02*
X85050000Y-58319000D01*
X95290000Y-62960000D02*
X95290000Y-58319000D01*
X85050000Y-62960000D02*
X85050000Y-58319000D01*
X95290000Y-61450000D02*
X85050000Y-61450000D01*
X92020000Y-62960000D02*
X92020000Y-61450000D01*
X88319000Y-62960000D02*
X88319000Y-61450000D01*
X95290000Y-69310000D02*
X85050000Y-69310000D01*
X95290000Y-64669000D02*
X85050000Y-64669000D01*
X95290000Y-69310000D02*
X95290000Y-64669000D01*
X85050000Y-69310000D02*
X85050000Y-64669000D01*
X95290000Y-67800000D02*
X85050000Y-67800000D01*
X92020000Y-69310000D02*
X92020000Y-67800000D01*
X88319000Y-69310000D02*
X88319000Y-67800000D01*
X90910000Y-57730000D02*
X94510000Y-57730000D01*
X94548478Y-57718478D02*
G75*
G03*
X92710000Y-53280000I-1838478J1838478D01*
G01*
X90871522Y-57718478D02*
G75*
G02*
X92710000Y-53280000I1838478J1838478D01*
G01*
X95290000Y-75660000D02*
X85050000Y-75660000D01*
X95290000Y-71019000D02*
X85050000Y-71019000D01*
X95290000Y-75660000D02*
X95290000Y-71019000D01*
X85050000Y-75660000D02*
X85050000Y-71019000D01*
X95290000Y-74150000D02*
X85050000Y-74150000D01*
X92020000Y-75660000D02*
X92020000Y-74150000D01*
X88319000Y-75660000D02*
X88319000Y-74150000D01*
X95990000Y-52650000D02*
X99590000Y-52650000D01*
X99628478Y-52638478D02*
G75*
G03*
X97790000Y-48200000I-1838478J1838478D01*
G01*
X95951522Y-52638478D02*
G75*
G02*
X97790000Y-48200000I1838478J1838478D01*
G01*
X95290000Y-82010000D02*
X85050000Y-82010000D01*
X95290000Y-77369000D02*
X85050000Y-77369000D01*
X95290000Y-82010000D02*
X95290000Y-77369000D01*
X85050000Y-82010000D02*
X85050000Y-77369000D01*
X95290000Y-80500000D02*
X85050000Y-80500000D01*
X92020000Y-82010000D02*
X92020000Y-80500000D01*
X88319000Y-82010000D02*
X88319000Y-80500000D01*
X121710000Y-46570000D02*
X121710000Y-42330000D01*
X121710000Y-42330000D02*
X111970000Y-42330000D01*
X111970000Y-42330000D02*
X111970000Y-46570000D01*
X111970000Y-46570000D02*
X121710000Y-46570000D01*
X123220000Y-44450000D02*
X121710000Y-44450000D01*
X110460000Y-44450000D02*
X111970000Y-44450000D01*
X130600000Y-42090000D02*
X130600000Y-36650000D01*
X130600000Y-36650000D02*
X120860000Y-36650000D01*
X120860000Y-36650000D02*
X120860000Y-42090000D01*
X120860000Y-42090000D02*
X130600000Y-42090000D01*
X131510000Y-39370000D02*
X130600000Y-39370000D01*
X119950000Y-39370000D02*
X120860000Y-39370000D01*
X129055000Y-42090000D02*
X129055000Y-36650000D01*
X128935000Y-42090000D02*
X128935000Y-36650000D01*
X129175000Y-42090000D02*
X129175000Y-36650000D01*
X97175000Y-43140000D02*
G75*
G03*
X97175000Y-43140000I-6370000J0D01*
G01*
X97135000Y-43140000D02*
X84475000Y-43140000D01*
X97135000Y-43180000D02*
X84475000Y-43180000D01*
X97135000Y-43220000D02*
X84475000Y-43220000D01*
X97134000Y-43260000D02*
X84476000Y-43260000D01*
X97133000Y-43300000D02*
X84477000Y-43300000D01*
X97132000Y-43340000D02*
X84478000Y-43340000D01*
X97131000Y-43380000D02*
X84479000Y-43380000D01*
X97129000Y-43420000D02*
X84481000Y-43420000D01*
X97127000Y-43460000D02*
X84483000Y-43460000D01*
X97125000Y-43500000D02*
X84485000Y-43500000D01*
X97123000Y-43540000D02*
X84487000Y-43540000D01*
X97120000Y-43580000D02*
X84490000Y-43580000D01*
X97117000Y-43620000D02*
X84493000Y-43620000D01*
X97114000Y-43660000D02*
X84496000Y-43660000D01*
X97111000Y-43700000D02*
X84499000Y-43700000D01*
X97107000Y-43740000D02*
X84503000Y-43740000D01*
X97103000Y-43780000D02*
X84507000Y-43780000D01*
X97099000Y-43820000D02*
X84511000Y-43820000D01*
X97095000Y-43861000D02*
X84515000Y-43861000D01*
X97090000Y-43901000D02*
X84520000Y-43901000D01*
X97085000Y-43941000D02*
X84525000Y-43941000D01*
X97080000Y-43981000D02*
X84530000Y-43981000D01*
X97074000Y-44021000D02*
X84536000Y-44021000D01*
X97069000Y-44061000D02*
X84541000Y-44061000D01*
X97063000Y-44101000D02*
X84547000Y-44101000D01*
X97057000Y-44141000D02*
X84553000Y-44141000D01*
X97050000Y-44181000D02*
X84560000Y-44181000D01*
X97043000Y-44221000D02*
X92245000Y-44221000D01*
X89365000Y-44221000D02*
X84567000Y-44221000D01*
X97036000Y-44261000D02*
X92245000Y-44261000D01*
X89365000Y-44261000D02*
X84574000Y-44261000D01*
X97029000Y-44301000D02*
X92245000Y-44301000D01*
X89365000Y-44301000D02*
X84581000Y-44301000D01*
X97021000Y-44341000D02*
X92245000Y-44341000D01*
X89365000Y-44341000D02*
X84589000Y-44341000D01*
X97014000Y-44381000D02*
X92245000Y-44381000D01*
X89365000Y-44381000D02*
X84596000Y-44381000D01*
X97006000Y-44421000D02*
X92245000Y-44421000D01*
X89365000Y-44421000D02*
X84604000Y-44421000D01*
X96997000Y-44461000D02*
X92245000Y-44461000D01*
X89365000Y-44461000D02*
X84613000Y-44461000D01*
X96989000Y-44501000D02*
X92245000Y-44501000D01*
X89365000Y-44501000D02*
X84621000Y-44501000D01*
X96980000Y-44541000D02*
X92245000Y-44541000D01*
X89365000Y-44541000D02*
X84630000Y-44541000D01*
X96971000Y-44581000D02*
X92245000Y-44581000D01*
X89365000Y-44581000D02*
X84639000Y-44581000D01*
X96961000Y-44621000D02*
X92245000Y-44621000D01*
X89365000Y-44621000D02*
X84649000Y-44621000D01*
X96951000Y-44661000D02*
X92245000Y-44661000D01*
X89365000Y-44661000D02*
X84659000Y-44661000D01*
X96942000Y-44701000D02*
X92245000Y-44701000D01*
X89365000Y-44701000D02*
X84668000Y-44701000D01*
X96931000Y-44741000D02*
X92245000Y-44741000D01*
X89365000Y-44741000D02*
X84679000Y-44741000D01*
X96921000Y-44781000D02*
X92245000Y-44781000D01*
X89365000Y-44781000D02*
X84689000Y-44781000D01*
X96910000Y-44821000D02*
X92245000Y-44821000D01*
X89365000Y-44821000D02*
X84700000Y-44821000D01*
X96899000Y-44861000D02*
X92245000Y-44861000D01*
X89365000Y-44861000D02*
X84711000Y-44861000D01*
X96888000Y-44901000D02*
X92245000Y-44901000D01*
X89365000Y-44901000D02*
X84722000Y-44901000D01*
X96876000Y-44941000D02*
X92245000Y-44941000D01*
X89365000Y-44941000D02*
X84734000Y-44941000D01*
X96864000Y-44981000D02*
X92245000Y-44981000D01*
X89365000Y-44981000D02*
X84746000Y-44981000D01*
X96852000Y-45021000D02*
X92245000Y-45021000D01*
X89365000Y-45021000D02*
X84758000Y-45021000D01*
X96839000Y-45061000D02*
X92245000Y-45061000D01*
X89365000Y-45061000D02*
X84771000Y-45061000D01*
X96826000Y-45101000D02*
X92245000Y-45101000D01*
X89365000Y-45101000D02*
X84784000Y-45101000D01*
X96813000Y-45141000D02*
X92245000Y-45141000D01*
X89365000Y-45141000D02*
X84797000Y-45141000D01*
X96800000Y-45181000D02*
X92245000Y-45181000D01*
X89365000Y-45181000D02*
X84810000Y-45181000D01*
X96786000Y-45221000D02*
X92245000Y-45221000D01*
X89365000Y-45221000D02*
X84824000Y-45221000D01*
X96772000Y-45261000D02*
X92245000Y-45261000D01*
X89365000Y-45261000D02*
X84838000Y-45261000D01*
X96758000Y-45301000D02*
X92245000Y-45301000D01*
X89365000Y-45301000D02*
X84852000Y-45301000D01*
X96744000Y-45341000D02*
X92245000Y-45341000D01*
X89365000Y-45341000D02*
X84866000Y-45341000D01*
X96729000Y-45381000D02*
X92245000Y-45381000D01*
X89365000Y-45381000D02*
X84881000Y-45381000D01*
X96713000Y-45421000D02*
X92245000Y-45421000D01*
X89365000Y-45421000D02*
X84897000Y-45421000D01*
X96698000Y-45461000D02*
X92245000Y-45461000D01*
X89365000Y-45461000D02*
X84912000Y-45461000D01*
X96682000Y-45501000D02*
X92245000Y-45501000D01*
X89365000Y-45501000D02*
X84928000Y-45501000D01*
X96666000Y-45541000D02*
X92245000Y-45541000D01*
X89365000Y-45541000D02*
X84944000Y-45541000D01*
X96650000Y-45581000D02*
X92245000Y-45581000D01*
X89365000Y-45581000D02*
X84960000Y-45581000D01*
X96633000Y-45621000D02*
X92245000Y-45621000D01*
X89365000Y-45621000D02*
X84977000Y-45621000D01*
X96616000Y-45661000D02*
X92245000Y-45661000D01*
X89365000Y-45661000D02*
X84994000Y-45661000D01*
X96598000Y-45701000D02*
X92245000Y-45701000D01*
X89365000Y-45701000D02*
X85012000Y-45701000D01*
X96581000Y-45741000D02*
X92245000Y-45741000D01*
X89365000Y-45741000D02*
X85029000Y-45741000D01*
X96563000Y-45781000D02*
X92245000Y-45781000D01*
X89365000Y-45781000D02*
X85047000Y-45781000D01*
X96544000Y-45821000D02*
X92245000Y-45821000D01*
X89365000Y-45821000D02*
X85066000Y-45821000D01*
X96526000Y-45861000D02*
X92245000Y-45861000D01*
X89365000Y-45861000D02*
X85084000Y-45861000D01*
X96507000Y-45901000D02*
X92245000Y-45901000D01*
X89365000Y-45901000D02*
X85103000Y-45901000D01*
X96487000Y-45941000D02*
X92245000Y-45941000D01*
X89365000Y-45941000D02*
X85123000Y-45941000D01*
X96467000Y-45981000D02*
X92245000Y-45981000D01*
X89365000Y-45981000D02*
X85143000Y-45981000D01*
X96447000Y-46021000D02*
X92245000Y-46021000D01*
X89365000Y-46021000D02*
X85163000Y-46021000D01*
X96427000Y-46061000D02*
X92245000Y-46061000D01*
X89365000Y-46061000D02*
X85183000Y-46061000D01*
X96406000Y-46101000D02*
X92245000Y-46101000D01*
X89365000Y-46101000D02*
X85204000Y-46101000D01*
X96385000Y-46141000D02*
X92245000Y-46141000D01*
X89365000Y-46141000D02*
X85225000Y-46141000D01*
X96363000Y-46181000D02*
X92245000Y-46181000D01*
X89365000Y-46181000D02*
X85247000Y-46181000D01*
X96341000Y-46221000D02*
X92245000Y-46221000D01*
X89365000Y-46221000D02*
X85269000Y-46221000D01*
X96319000Y-46261000D02*
X92245000Y-46261000D01*
X89365000Y-46261000D02*
X85291000Y-46261000D01*
X96296000Y-46301000D02*
X92245000Y-46301000D01*
X89365000Y-46301000D02*
X85314000Y-46301000D01*
X96273000Y-46341000D02*
X92245000Y-46341000D01*
X89365000Y-46341000D02*
X85337000Y-46341000D01*
X96250000Y-46381000D02*
X92245000Y-46381000D01*
X89365000Y-46381000D02*
X85360000Y-46381000D01*
X96226000Y-46421000D02*
X92245000Y-46421000D01*
X89365000Y-46421000D02*
X85384000Y-46421000D01*
X96202000Y-46461000D02*
X92245000Y-46461000D01*
X89365000Y-46461000D02*
X85408000Y-46461000D01*
X96177000Y-46501000D02*
X92245000Y-46501000D01*
X89365000Y-46501000D02*
X85433000Y-46501000D01*
X96152000Y-46541000D02*
X92245000Y-46541000D01*
X89365000Y-46541000D02*
X85458000Y-46541000D01*
X96127000Y-46581000D02*
X92245000Y-46581000D01*
X89365000Y-46581000D02*
X85483000Y-46581000D01*
X96101000Y-46621000D02*
X92245000Y-46621000D01*
X89365000Y-46621000D02*
X85509000Y-46621000D01*
X96075000Y-46661000D02*
X92245000Y-46661000D01*
X89365000Y-46661000D02*
X85535000Y-46661000D01*
X96048000Y-46701000D02*
X92245000Y-46701000D01*
X89365000Y-46701000D02*
X85562000Y-46701000D01*
X96021000Y-46741000D02*
X92245000Y-46741000D01*
X89365000Y-46741000D02*
X85589000Y-46741000D01*
X95993000Y-46781000D02*
X92245000Y-46781000D01*
X89365000Y-46781000D02*
X85617000Y-46781000D01*
X95965000Y-46821000D02*
X92245000Y-46821000D01*
X89365000Y-46821000D02*
X85645000Y-46821000D01*
X95936000Y-46861000D02*
X92245000Y-46861000D01*
X89365000Y-46861000D02*
X85674000Y-46861000D01*
X95907000Y-46901000D02*
X92245000Y-46901000D01*
X89365000Y-46901000D02*
X85703000Y-46901000D01*
X95878000Y-46941000D02*
X92245000Y-46941000D01*
X89365000Y-46941000D02*
X85732000Y-46941000D01*
X95848000Y-46981000D02*
X92245000Y-46981000D01*
X89365000Y-46981000D02*
X85762000Y-46981000D01*
X95817000Y-47021000D02*
X92245000Y-47021000D01*
X89365000Y-47021000D02*
X85793000Y-47021000D01*
X95787000Y-47061000D02*
X92245000Y-47061000D01*
X89365000Y-47061000D02*
X85823000Y-47061000D01*
X95755000Y-47101000D02*
X85855000Y-47101000D01*
X95723000Y-47141000D02*
X85887000Y-47141000D01*
X95690000Y-47181000D02*
X85920000Y-47181000D01*
X95657000Y-47221000D02*
X85953000Y-47221000D01*
X95624000Y-47261000D02*
X85986000Y-47261000D01*
X95590000Y-47301000D02*
X86020000Y-47301000D01*
X95555000Y-47341000D02*
X86055000Y-47341000D01*
X95519000Y-47381000D02*
X86091000Y-47381000D01*
X95483000Y-47421000D02*
X86127000Y-47421000D01*
X95447000Y-47461000D02*
X86163000Y-47461000D01*
X95410000Y-47501000D02*
X86200000Y-47501000D01*
X95372000Y-47541000D02*
X86238000Y-47541000D01*
X95333000Y-47581000D02*
X86277000Y-47581000D01*
X95294000Y-47621000D02*
X86316000Y-47621000D01*
X95254000Y-47661000D02*
X86356000Y-47661000D01*
X95213000Y-47701000D02*
X86397000Y-47701000D01*
X95172000Y-47741000D02*
X86438000Y-47741000D01*
X95130000Y-47781000D02*
X86480000Y-47781000D01*
X95087000Y-47821000D02*
X86523000Y-47821000D01*
X95043000Y-47861000D02*
X86567000Y-47861000D01*
X94999000Y-47901000D02*
X86611000Y-47901000D01*
X94953000Y-47941000D02*
X86657000Y-47941000D01*
X94907000Y-47981000D02*
X86703000Y-47981000D01*
X94860000Y-48021000D02*
X86750000Y-48021000D01*
X94812000Y-48061000D02*
X86798000Y-48061000D01*
X94762000Y-48101000D02*
X86848000Y-48101000D01*
X94712000Y-48141000D02*
X86898000Y-48141000D01*
X94661000Y-48181000D02*
X86949000Y-48181000D01*
X94609000Y-48221000D02*
X87001000Y-48221000D01*
X94555000Y-48261000D02*
X87055000Y-48261000D01*
X94501000Y-48301000D02*
X87109000Y-48301000D01*
X94445000Y-48341000D02*
X87165000Y-48341000D01*
X94388000Y-48381000D02*
X87222000Y-48381000D01*
X94329000Y-48421000D02*
X87281000Y-48421000D01*
X94269000Y-48461000D02*
X87341000Y-48461000D01*
X94207000Y-48501000D02*
X87403000Y-48501000D01*
X94144000Y-48541000D02*
X87466000Y-48541000D01*
X94080000Y-48581000D02*
X87530000Y-48581000D01*
X94013000Y-48621000D02*
X87597000Y-48621000D01*
X93945000Y-48661000D02*
X87665000Y-48661000D01*
X93874000Y-48701000D02*
X87736000Y-48701000D01*
X93801000Y-48741000D02*
X87809000Y-48741000D01*
X93726000Y-48781000D02*
X87884000Y-48781000D01*
X93649000Y-48821000D02*
X87961000Y-48821000D01*
X93569000Y-48861000D02*
X88041000Y-48861000D01*
X93486000Y-48901000D02*
X88124000Y-48901000D01*
X93399000Y-48941000D02*
X88211000Y-48941000D01*
X93309000Y-48981000D02*
X88301000Y-48981000D01*
X93215000Y-49021000D02*
X88395000Y-49021000D01*
X93117000Y-49061000D02*
X88493000Y-49061000D01*
X93014000Y-49101000D02*
X88596000Y-49101000D01*
X92905000Y-49141000D02*
X88705000Y-49141000D01*
X92789000Y-49181000D02*
X88821000Y-49181000D01*
X92666000Y-49221000D02*
X88944000Y-49221000D01*
X92533000Y-49261000D02*
X89077000Y-49261000D01*
X92388000Y-49301000D02*
X89222000Y-49301000D01*
X92227000Y-49341000D02*
X89383000Y-49341000D01*
X92046000Y-49381000D02*
X89564000Y-49381000D01*
X91833000Y-49421000D02*
X89777000Y-49421000D01*
X91562000Y-49461000D02*
X90048000Y-49461000D01*
X91122000Y-49501000D02*
X90488000Y-49501000D01*
X94380000Y-36322918D02*
X94380000Y-37572918D01*
X95005000Y-36947918D02*
X93755000Y-36947918D01*
X137010000Y-52840000D02*
X137010000Y-48800000D01*
X139850000Y-52840000D02*
X139850000Y-48800000D01*
X137010000Y-52840000D02*
X137635000Y-52840000D01*
X139225000Y-52840000D02*
X139850000Y-52840000D01*
X137010000Y-48800000D02*
X137635000Y-48800000D01*
X139225000Y-48800000D02*
X139850000Y-48800000D01*
X108625000Y-40600000D02*
G75*
G03*
X108625000Y-40600000I-5120000J0D01*
G01*
X108585000Y-40600000D02*
X98425000Y-40600000D01*
X108585000Y-40640000D02*
X98425000Y-40640000D01*
X108585000Y-40680000D02*
X98425000Y-40680000D01*
X108584000Y-40720000D02*
X98426000Y-40720000D01*
X108583000Y-40760000D02*
X98427000Y-40760000D01*
X108582000Y-40800000D02*
X98428000Y-40800000D01*
X108580000Y-40840000D02*
X98430000Y-40840000D01*
X108578000Y-40880000D02*
X98432000Y-40880000D01*
X108575000Y-40920000D02*
X98435000Y-40920000D01*
X108573000Y-40960000D02*
X98437000Y-40960000D01*
X108570000Y-41000000D02*
X98440000Y-41000000D01*
X108567000Y-41040000D02*
X98443000Y-41040000D01*
X108563000Y-41080000D02*
X98447000Y-41080000D01*
X108559000Y-41120000D02*
X98451000Y-41120000D01*
X108555000Y-41160000D02*
X98455000Y-41160000D01*
X108550000Y-41200000D02*
X98460000Y-41200000D01*
X108545000Y-41240000D02*
X98465000Y-41240000D01*
X108540000Y-41280000D02*
X98470000Y-41280000D01*
X108535000Y-41321000D02*
X98475000Y-41321000D01*
X108529000Y-41361000D02*
X98481000Y-41361000D01*
X108523000Y-41401000D02*
X98487000Y-41401000D01*
X108516000Y-41441000D02*
X98494000Y-41441000D01*
X108509000Y-41481000D02*
X98501000Y-41481000D01*
X108502000Y-41521000D02*
X98508000Y-41521000D01*
X108495000Y-41561000D02*
X98515000Y-41561000D01*
X108487000Y-41601000D02*
X98523000Y-41601000D01*
X108479000Y-41641000D02*
X98531000Y-41641000D01*
X108470000Y-41681000D02*
X98540000Y-41681000D01*
X108461000Y-41721000D02*
X98549000Y-41721000D01*
X108452000Y-41761000D02*
X98558000Y-41761000D01*
X108443000Y-41801000D02*
X98567000Y-41801000D01*
X108433000Y-41841000D02*
X98577000Y-41841000D01*
X108423000Y-41881000D02*
X104746000Y-41881000D01*
X102264000Y-41881000D02*
X98587000Y-41881000D01*
X108412000Y-41921000D02*
X104746000Y-41921000D01*
X102264000Y-41921000D02*
X98598000Y-41921000D01*
X108402000Y-41961000D02*
X104746000Y-41961000D01*
X102264000Y-41961000D02*
X98608000Y-41961000D01*
X108390000Y-42001000D02*
X104746000Y-42001000D01*
X102264000Y-42001000D02*
X98620000Y-42001000D01*
X108379000Y-42041000D02*
X104746000Y-42041000D01*
X102264000Y-42041000D02*
X98631000Y-42041000D01*
X108367000Y-42081000D02*
X104746000Y-42081000D01*
X102264000Y-42081000D02*
X98643000Y-42081000D01*
X108355000Y-42121000D02*
X104746000Y-42121000D01*
X102264000Y-42121000D02*
X98655000Y-42121000D01*
X108342000Y-42161000D02*
X104746000Y-42161000D01*
X102264000Y-42161000D02*
X98668000Y-42161000D01*
X108329000Y-42201000D02*
X104746000Y-42201000D01*
X102264000Y-42201000D02*
X98681000Y-42201000D01*
X108316000Y-42241000D02*
X104746000Y-42241000D01*
X102264000Y-42241000D02*
X98694000Y-42241000D01*
X108302000Y-42281000D02*
X104746000Y-42281000D01*
X102264000Y-42281000D02*
X98708000Y-42281000D01*
X108288000Y-42321000D02*
X104746000Y-42321000D01*
X102264000Y-42321000D02*
X98722000Y-42321000D01*
X108273000Y-42361000D02*
X104746000Y-42361000D01*
X102264000Y-42361000D02*
X98737000Y-42361000D01*
X108259000Y-42401000D02*
X104746000Y-42401000D01*
X102264000Y-42401000D02*
X98751000Y-42401000D01*
X108243000Y-42441000D02*
X104746000Y-42441000D01*
X102264000Y-42441000D02*
X98767000Y-42441000D01*
X108228000Y-42481000D02*
X104746000Y-42481000D01*
X102264000Y-42481000D02*
X98782000Y-42481000D01*
X108212000Y-42521000D02*
X104746000Y-42521000D01*
X102264000Y-42521000D02*
X98798000Y-42521000D01*
X108195000Y-42561000D02*
X104746000Y-42561000D01*
X102264000Y-42561000D02*
X98815000Y-42561000D01*
X108179000Y-42601000D02*
X104746000Y-42601000D01*
X102264000Y-42601000D02*
X98831000Y-42601000D01*
X108162000Y-42641000D02*
X104746000Y-42641000D01*
X102264000Y-42641000D02*
X98848000Y-42641000D01*
X108144000Y-42681000D02*
X104746000Y-42681000D01*
X102264000Y-42681000D02*
X98866000Y-42681000D01*
X108126000Y-42721000D02*
X104746000Y-42721000D01*
X102264000Y-42721000D02*
X98884000Y-42721000D01*
X108108000Y-42761000D02*
X104746000Y-42761000D01*
X102264000Y-42761000D02*
X98902000Y-42761000D01*
X108089000Y-42801000D02*
X104746000Y-42801000D01*
X102264000Y-42801000D02*
X98921000Y-42801000D01*
X108069000Y-42841000D02*
X104746000Y-42841000D01*
X102264000Y-42841000D02*
X98941000Y-42841000D01*
X108050000Y-42881000D02*
X104746000Y-42881000D01*
X102264000Y-42881000D02*
X98960000Y-42881000D01*
X108030000Y-42921000D02*
X104746000Y-42921000D01*
X102264000Y-42921000D02*
X98980000Y-42921000D01*
X108009000Y-42961000D02*
X104746000Y-42961000D01*
X102264000Y-42961000D02*
X99001000Y-42961000D01*
X107988000Y-43001000D02*
X104746000Y-43001000D01*
X102264000Y-43001000D02*
X99022000Y-43001000D01*
X107967000Y-43041000D02*
X104746000Y-43041000D01*
X102264000Y-43041000D02*
X99043000Y-43041000D01*
X107945000Y-43081000D02*
X104746000Y-43081000D01*
X102264000Y-43081000D02*
X99065000Y-43081000D01*
X107922000Y-43121000D02*
X104746000Y-43121000D01*
X102264000Y-43121000D02*
X99088000Y-43121000D01*
X107900000Y-43161000D02*
X104746000Y-43161000D01*
X102264000Y-43161000D02*
X99110000Y-43161000D01*
X107876000Y-43201000D02*
X104746000Y-43201000D01*
X102264000Y-43201000D02*
X99134000Y-43201000D01*
X107852000Y-43241000D02*
X104746000Y-43241000D01*
X102264000Y-43241000D02*
X99158000Y-43241000D01*
X107828000Y-43281000D02*
X104746000Y-43281000D01*
X102264000Y-43281000D02*
X99182000Y-43281000D01*
X107803000Y-43321000D02*
X104746000Y-43321000D01*
X102264000Y-43321000D02*
X99207000Y-43321000D01*
X107778000Y-43361000D02*
X104746000Y-43361000D01*
X102264000Y-43361000D02*
X99232000Y-43361000D01*
X107752000Y-43401000D02*
X104746000Y-43401000D01*
X102264000Y-43401000D02*
X99258000Y-43401000D01*
X107726000Y-43441000D02*
X104746000Y-43441000D01*
X102264000Y-43441000D02*
X99284000Y-43441000D01*
X107699000Y-43481000D02*
X104746000Y-43481000D01*
X102264000Y-43481000D02*
X99311000Y-43481000D01*
X107671000Y-43521000D02*
X104746000Y-43521000D01*
X102264000Y-43521000D02*
X99339000Y-43521000D01*
X107643000Y-43561000D02*
X104746000Y-43561000D01*
X102264000Y-43561000D02*
X99367000Y-43561000D01*
X107615000Y-43601000D02*
X104746000Y-43601000D01*
X102264000Y-43601000D02*
X99395000Y-43601000D01*
X107585000Y-43641000D02*
X104746000Y-43641000D01*
X102264000Y-43641000D02*
X99425000Y-43641000D01*
X107555000Y-43681000D02*
X104746000Y-43681000D01*
X102264000Y-43681000D02*
X99455000Y-43681000D01*
X107525000Y-43721000D02*
X104746000Y-43721000D01*
X102264000Y-43721000D02*
X99485000Y-43721000D01*
X107494000Y-43761000D02*
X104746000Y-43761000D01*
X102264000Y-43761000D02*
X99516000Y-43761000D01*
X107462000Y-43801000D02*
X104746000Y-43801000D01*
X102264000Y-43801000D02*
X99548000Y-43801000D01*
X107430000Y-43841000D02*
X104746000Y-43841000D01*
X102264000Y-43841000D02*
X99580000Y-43841000D01*
X107397000Y-43881000D02*
X104746000Y-43881000D01*
X102264000Y-43881000D02*
X99613000Y-43881000D01*
X107363000Y-43921000D02*
X104746000Y-43921000D01*
X102264000Y-43921000D02*
X99647000Y-43921000D01*
X107329000Y-43961000D02*
X104746000Y-43961000D01*
X102264000Y-43961000D02*
X99681000Y-43961000D01*
X107294000Y-44001000D02*
X104746000Y-44001000D01*
X102264000Y-44001000D02*
X99716000Y-44001000D01*
X107258000Y-44041000D02*
X104746000Y-44041000D01*
X102264000Y-44041000D02*
X99752000Y-44041000D01*
X107221000Y-44081000D02*
X104746000Y-44081000D01*
X102264000Y-44081000D02*
X99789000Y-44081000D01*
X107184000Y-44121000D02*
X104746000Y-44121000D01*
X102264000Y-44121000D02*
X99826000Y-44121000D01*
X107145000Y-44161000D02*
X104746000Y-44161000D01*
X102264000Y-44161000D02*
X99865000Y-44161000D01*
X107106000Y-44201000D02*
X104746000Y-44201000D01*
X102264000Y-44201000D02*
X99904000Y-44201000D01*
X107066000Y-44241000D02*
X104746000Y-44241000D01*
X102264000Y-44241000D02*
X99944000Y-44241000D01*
X107025000Y-44281000D02*
X104746000Y-44281000D01*
X102264000Y-44281000D02*
X99985000Y-44281000D01*
X106983000Y-44321000D02*
X104746000Y-44321000D01*
X102264000Y-44321000D02*
X100027000Y-44321000D01*
X106941000Y-44361000D02*
X100069000Y-44361000D01*
X106897000Y-44401000D02*
X100113000Y-44401000D01*
X106852000Y-44441000D02*
X100158000Y-44441000D01*
X106806000Y-44481000D02*
X100204000Y-44481000D01*
X106759000Y-44521000D02*
X100251000Y-44521000D01*
X106711000Y-44561000D02*
X100299000Y-44561000D01*
X106661000Y-44601000D02*
X100349000Y-44601000D01*
X106611000Y-44641000D02*
X100399000Y-44641000D01*
X106559000Y-44681000D02*
X100451000Y-44681000D01*
X106505000Y-44721000D02*
X100505000Y-44721000D01*
X106450000Y-44761000D02*
X100560000Y-44761000D01*
X106394000Y-44801000D02*
X100616000Y-44801000D01*
X106335000Y-44841000D02*
X100675000Y-44841000D01*
X106275000Y-44881000D02*
X100735000Y-44881000D01*
X106214000Y-44921000D02*
X100796000Y-44921000D01*
X106150000Y-44961000D02*
X100860000Y-44961000D01*
X106084000Y-45001000D02*
X100926000Y-45001000D01*
X106015000Y-45041000D02*
X100995000Y-45041000D01*
X105944000Y-45081000D02*
X101066000Y-45081000D01*
X105870000Y-45121000D02*
X101140000Y-45121000D01*
X105794000Y-45161000D02*
X101216000Y-45161000D01*
X105714000Y-45201000D02*
X101296000Y-45201000D01*
X105630000Y-45241000D02*
X101380000Y-45241000D01*
X105542000Y-45281000D02*
X101468000Y-45281000D01*
X105449000Y-45321000D02*
X101561000Y-45321000D01*
X105351000Y-45361000D02*
X101659000Y-45361000D01*
X105247000Y-45401000D02*
X101763000Y-45401000D01*
X105135000Y-45441000D02*
X101875000Y-45441000D01*
X105015000Y-45481000D02*
X101995000Y-45481000D01*
X104883000Y-45521000D02*
X102127000Y-45521000D01*
X104735000Y-45561000D02*
X102275000Y-45561000D01*
X104567000Y-45601000D02*
X102443000Y-45601000D01*
X104367000Y-45641000D02*
X102643000Y-45641000D01*
X104104000Y-45681000D02*
X102906000Y-45681000D01*
X106380000Y-35120354D02*
X106380000Y-36120354D01*
X106880000Y-35620354D02*
X105880000Y-35620354D01*
X92230000Y-86360000D02*
G75*
G03*
X92230000Y-86360000I-4120000J0D01*
G01*
X88110000Y-82280000D02*
X88110000Y-90440000D01*
X88150000Y-82280000D02*
X88150000Y-90440000D01*
X88190000Y-82280000D02*
X88190000Y-90440000D01*
X88230000Y-82281000D02*
X88230000Y-90439000D01*
X88270000Y-82283000D02*
X88270000Y-90437000D01*
X88310000Y-82284000D02*
X88310000Y-90436000D01*
X88350000Y-82286000D02*
X88350000Y-90434000D01*
X88390000Y-82289000D02*
X88390000Y-90431000D01*
X88430000Y-82292000D02*
X88430000Y-90428000D01*
X88470000Y-82295000D02*
X88470000Y-90425000D01*
X88510000Y-82299000D02*
X88510000Y-90421000D01*
X88550000Y-82303000D02*
X88550000Y-90417000D01*
X88590000Y-82308000D02*
X88590000Y-90412000D01*
X88630000Y-82312000D02*
X88630000Y-90408000D01*
X88670000Y-82318000D02*
X88670000Y-90402000D01*
X88710000Y-82323000D02*
X88710000Y-90397000D01*
X88750000Y-82330000D02*
X88750000Y-90390000D01*
X88790000Y-82336000D02*
X88790000Y-90384000D01*
X88831000Y-82343000D02*
X88831000Y-85320000D01*
X88831000Y-87400000D02*
X88831000Y-90377000D01*
X88871000Y-82350000D02*
X88871000Y-85320000D01*
X88871000Y-87400000D02*
X88871000Y-90370000D01*
X88911000Y-82358000D02*
X88911000Y-85320000D01*
X88911000Y-87400000D02*
X88911000Y-90362000D01*
X88951000Y-82366000D02*
X88951000Y-85320000D01*
X88951000Y-87400000D02*
X88951000Y-90354000D01*
X88991000Y-82375000D02*
X88991000Y-85320000D01*
X88991000Y-87400000D02*
X88991000Y-90345000D01*
X89031000Y-82384000D02*
X89031000Y-85320000D01*
X89031000Y-87400000D02*
X89031000Y-90336000D01*
X89071000Y-82393000D02*
X89071000Y-85320000D01*
X89071000Y-87400000D02*
X89071000Y-90327000D01*
X89111000Y-82403000D02*
X89111000Y-85320000D01*
X89111000Y-87400000D02*
X89111000Y-90317000D01*
X89151000Y-82413000D02*
X89151000Y-85320000D01*
X89151000Y-87400000D02*
X89151000Y-90307000D01*
X89191000Y-82424000D02*
X89191000Y-85320000D01*
X89191000Y-87400000D02*
X89191000Y-90296000D01*
X89231000Y-82435000D02*
X89231000Y-85320000D01*
X89231000Y-87400000D02*
X89231000Y-90285000D01*
X89271000Y-82446000D02*
X89271000Y-85320000D01*
X89271000Y-87400000D02*
X89271000Y-90274000D01*
X89311000Y-82458000D02*
X89311000Y-85320000D01*
X89311000Y-87400000D02*
X89311000Y-90262000D01*
X89351000Y-82471000D02*
X89351000Y-85320000D01*
X89351000Y-87400000D02*
X89351000Y-90249000D01*
X89391000Y-82483000D02*
X89391000Y-85320000D01*
X89391000Y-87400000D02*
X89391000Y-90237000D01*
X89431000Y-82497000D02*
X89431000Y-85320000D01*
X89431000Y-87400000D02*
X89431000Y-90223000D01*
X89471000Y-82510000D02*
X89471000Y-85320000D01*
X89471000Y-87400000D02*
X89471000Y-90210000D01*
X89511000Y-82525000D02*
X89511000Y-85320000D01*
X89511000Y-87400000D02*
X89511000Y-90195000D01*
X89551000Y-82539000D02*
X89551000Y-85320000D01*
X89551000Y-87400000D02*
X89551000Y-90181000D01*
X89591000Y-82555000D02*
X89591000Y-85320000D01*
X89591000Y-87400000D02*
X89591000Y-90165000D01*
X89631000Y-82570000D02*
X89631000Y-85320000D01*
X89631000Y-87400000D02*
X89631000Y-90150000D01*
X89671000Y-82586000D02*
X89671000Y-85320000D01*
X89671000Y-87400000D02*
X89671000Y-90134000D01*
X89711000Y-82603000D02*
X89711000Y-85320000D01*
X89711000Y-87400000D02*
X89711000Y-90117000D01*
X89751000Y-82620000D02*
X89751000Y-85320000D01*
X89751000Y-87400000D02*
X89751000Y-90100000D01*
X89791000Y-82638000D02*
X89791000Y-85320000D01*
X89791000Y-87400000D02*
X89791000Y-90082000D01*
X89831000Y-82656000D02*
X89831000Y-85320000D01*
X89831000Y-87400000D02*
X89831000Y-90064000D01*
X89871000Y-82674000D02*
X89871000Y-85320000D01*
X89871000Y-87400000D02*
X89871000Y-90046000D01*
X89911000Y-82694000D02*
X89911000Y-85320000D01*
X89911000Y-87400000D02*
X89911000Y-90026000D01*
X89951000Y-82713000D02*
X89951000Y-85320000D01*
X89951000Y-87400000D02*
X89951000Y-90007000D01*
X89991000Y-82733000D02*
X89991000Y-85320000D01*
X89991000Y-87400000D02*
X89991000Y-89987000D01*
X90031000Y-82754000D02*
X90031000Y-85320000D01*
X90031000Y-87400000D02*
X90031000Y-89966000D01*
X90071000Y-82776000D02*
X90071000Y-85320000D01*
X90071000Y-87400000D02*
X90071000Y-89944000D01*
X90111000Y-82798000D02*
X90111000Y-85320000D01*
X90111000Y-87400000D02*
X90111000Y-89922000D01*
X90151000Y-82820000D02*
X90151000Y-85320000D01*
X90151000Y-87400000D02*
X90151000Y-89900000D01*
X90191000Y-82843000D02*
X90191000Y-85320000D01*
X90191000Y-87400000D02*
X90191000Y-89877000D01*
X90231000Y-82867000D02*
X90231000Y-85320000D01*
X90231000Y-87400000D02*
X90231000Y-89853000D01*
X90271000Y-82891000D02*
X90271000Y-85320000D01*
X90271000Y-87400000D02*
X90271000Y-89829000D01*
X90311000Y-82916000D02*
X90311000Y-85320000D01*
X90311000Y-87400000D02*
X90311000Y-89804000D01*
X90351000Y-82942000D02*
X90351000Y-85320000D01*
X90351000Y-87400000D02*
X90351000Y-89778000D01*
X90391000Y-82968000D02*
X90391000Y-85320000D01*
X90391000Y-87400000D02*
X90391000Y-89752000D01*
X90431000Y-82995000D02*
X90431000Y-85320000D01*
X90431000Y-87400000D02*
X90431000Y-89725000D01*
X90471000Y-83022000D02*
X90471000Y-85320000D01*
X90471000Y-87400000D02*
X90471000Y-89698000D01*
X90511000Y-83051000D02*
X90511000Y-85320000D01*
X90511000Y-87400000D02*
X90511000Y-89669000D01*
X90551000Y-83080000D02*
X90551000Y-85320000D01*
X90551000Y-87400000D02*
X90551000Y-89640000D01*
X90591000Y-83110000D02*
X90591000Y-85320000D01*
X90591000Y-87400000D02*
X90591000Y-89610000D01*
X90631000Y-83140000D02*
X90631000Y-85320000D01*
X90631000Y-87400000D02*
X90631000Y-89580000D01*
X90671000Y-83171000D02*
X90671000Y-85320000D01*
X90671000Y-87400000D02*
X90671000Y-89549000D01*
X90711000Y-83204000D02*
X90711000Y-85320000D01*
X90711000Y-87400000D02*
X90711000Y-89516000D01*
X90751000Y-83236000D02*
X90751000Y-85320000D01*
X90751000Y-87400000D02*
X90751000Y-89484000D01*
X90791000Y-83270000D02*
X90791000Y-85320000D01*
X90791000Y-87400000D02*
X90791000Y-89450000D01*
X90831000Y-83305000D02*
X90831000Y-85320000D01*
X90831000Y-87400000D02*
X90831000Y-89415000D01*
X90871000Y-83341000D02*
X90871000Y-85320000D01*
X90871000Y-87400000D02*
X90871000Y-89379000D01*
X90911000Y-83377000D02*
X90911000Y-89343000D01*
X90951000Y-83415000D02*
X90951000Y-89305000D01*
X90991000Y-83453000D02*
X90991000Y-89267000D01*
X91031000Y-83493000D02*
X91031000Y-89227000D01*
X91071000Y-83534000D02*
X91071000Y-89186000D01*
X91111000Y-83576000D02*
X91111000Y-89144000D01*
X91151000Y-83619000D02*
X91151000Y-89101000D01*
X91191000Y-83663000D02*
X91191000Y-89057000D01*
X91231000Y-83709000D02*
X91231000Y-89011000D01*
X91271000Y-83756000D02*
X91271000Y-88964000D01*
X91311000Y-83804000D02*
X91311000Y-88916000D01*
X91351000Y-83855000D02*
X91351000Y-88865000D01*
X91391000Y-83906000D02*
X91391000Y-88814000D01*
X91431000Y-83960000D02*
X91431000Y-88760000D01*
X91471000Y-84015000D02*
X91471000Y-88705000D01*
X91511000Y-84073000D02*
X91511000Y-88647000D01*
X91551000Y-84132000D02*
X91551000Y-88588000D01*
X91591000Y-84194000D02*
X91591000Y-88526000D01*
X91631000Y-84258000D02*
X91631000Y-88462000D01*
X91671000Y-84326000D02*
X91671000Y-88394000D01*
X91711000Y-84396000D02*
X91711000Y-88324000D01*
X91751000Y-84470000D02*
X91751000Y-88250000D01*
X91791000Y-84547000D02*
X91791000Y-88173000D01*
X91831000Y-84629000D02*
X91831000Y-88091000D01*
X91871000Y-84715000D02*
X91871000Y-88005000D01*
X91911000Y-84808000D02*
X91911000Y-87912000D01*
X91951000Y-84907000D02*
X91951000Y-87813000D01*
X91991000Y-85014000D02*
X91991000Y-87706000D01*
X92031000Y-85131000D02*
X92031000Y-87589000D01*
X92071000Y-85262000D02*
X92071000Y-87458000D01*
X92111000Y-85412000D02*
X92111000Y-87308000D01*
X92151000Y-85592000D02*
X92151000Y-87128000D01*
X92191000Y-85827000D02*
X92191000Y-86893000D01*
X83700302Y-84045000D02*
X84500302Y-84045000D01*
X84100302Y-83645000D02*
X84100302Y-84445000D01*
X102840000Y-90270000D02*
X97900000Y-90270000D01*
X102840000Y-87530000D02*
X97900000Y-87530000D01*
X102840000Y-90270000D02*
X102840000Y-89955000D01*
X102840000Y-87845000D02*
X102840000Y-87530000D01*
X97900000Y-90270000D02*
X97900000Y-89955000D01*
X97900000Y-87845000D02*
X97900000Y-87530000D01*
X104290000Y-70350000D02*
X104290000Y-74390000D01*
X101450000Y-70350000D02*
X101450000Y-74390000D01*
X104290000Y-70350000D02*
X103665000Y-70350000D01*
X102075000Y-70350000D02*
X101450000Y-70350000D01*
X104290000Y-74390000D02*
X103665000Y-74390000D01*
X102075000Y-74390000D02*
X101450000Y-74390000D01*
X128330000Y-76140000D02*
X128330000Y-77470000D01*
X127000000Y-76140000D02*
X128330000Y-76140000D01*
X125730000Y-76140000D02*
X125730000Y-78800000D01*
X125730000Y-78800000D02*
X115510000Y-78800000D01*
X125730000Y-76140000D02*
X115510000Y-76140000D01*
X115510000Y-76140000D02*
X115510000Y-78800000D01*
D10*
X132088095Y-73254380D02*
X132659523Y-73254380D01*
X132373809Y-74254380D02*
X132373809Y-73254380D01*
X132992857Y-74254380D02*
X132992857Y-73254380D01*
X133373809Y-73254380D01*
X133469047Y-73302000D01*
X133516666Y-73349619D01*
X133564285Y-73444857D01*
X133564285Y-73587714D01*
X133516666Y-73682952D01*
X133469047Y-73730571D01*
X133373809Y-73778190D01*
X132992857Y-73778190D01*
X134516666Y-74254380D02*
X133945238Y-74254380D01*
X134230952Y-74254380D02*
X134230952Y-73254380D01*
X134135714Y-73397238D01*
X134040476Y-73492476D01*
X133945238Y-73540095D01*
X137668095Y-78192380D02*
X137668095Y-79001904D01*
X137715714Y-79097142D01*
X137763333Y-79144761D01*
X137858571Y-79192380D01*
X138049047Y-79192380D01*
X138144285Y-79144761D01*
X138191904Y-79097142D01*
X138239523Y-79001904D01*
X138239523Y-78192380D01*
X138620476Y-78192380D02*
X139239523Y-78192380D01*
X138906190Y-78573333D01*
X139049047Y-78573333D01*
X139144285Y-78620952D01*
X139191904Y-78668571D01*
X139239523Y-78763809D01*
X139239523Y-79001904D01*
X139191904Y-79097142D01*
X139144285Y-79144761D01*
X139049047Y-79192380D01*
X138763333Y-79192380D01*
X138668095Y-79144761D01*
X138620476Y-79097142D01*
X112268095Y-78192380D02*
X112268095Y-79001904D01*
X112315714Y-79097142D01*
X112363333Y-79144761D01*
X112458571Y-79192380D01*
X112649047Y-79192380D01*
X112744285Y-79144761D01*
X112791904Y-79097142D01*
X112839523Y-79001904D01*
X112839523Y-78192380D01*
X113268095Y-78287619D02*
X113315714Y-78240000D01*
X113410952Y-78192380D01*
X113649047Y-78192380D01*
X113744285Y-78240000D01*
X113791904Y-78287619D01*
X113839523Y-78382857D01*
X113839523Y-78478095D01*
X113791904Y-78620952D01*
X113220476Y-79192380D01*
X113839523Y-79192380D01*
X103378095Y-65492380D02*
X103378095Y-66301904D01*
X103425714Y-66397142D01*
X103473333Y-66444761D01*
X103568571Y-66492380D01*
X103759047Y-66492380D01*
X103854285Y-66444761D01*
X103901904Y-66397142D01*
X103949523Y-66301904D01*
X103949523Y-65492380D01*
X104949523Y-66492380D02*
X104378095Y-66492380D01*
X104663809Y-66492380D02*
X104663809Y-65492380D01*
X104568571Y-65635238D01*
X104473333Y-65730476D01*
X104378095Y-65778095D01*
X65706666Y-89622380D02*
X65706666Y-90336666D01*
X65659047Y-90479523D01*
X65563809Y-90574761D01*
X65420952Y-90622380D01*
X65325714Y-90622380D01*
X66135238Y-89717619D02*
X66182857Y-89670000D01*
X66278095Y-89622380D01*
X66516190Y-89622380D01*
X66611428Y-89670000D01*
X66659047Y-89717619D01*
X66706666Y-89812857D01*
X66706666Y-89908095D01*
X66659047Y-90050952D01*
X66087619Y-90622380D01*
X66706666Y-90622380D01*
X130167142Y-66492380D02*
X129833809Y-66016190D01*
X129595714Y-66492380D02*
X129595714Y-65492380D01*
X129976666Y-65492380D01*
X130071904Y-65540000D01*
X130119523Y-65587619D01*
X130167142Y-65682857D01*
X130167142Y-65825714D01*
X130119523Y-65920952D01*
X130071904Y-65968571D01*
X129976666Y-66016190D01*
X129595714Y-66016190D01*
X131119523Y-66492380D02*
X130548095Y-66492380D01*
X130833809Y-66492380D02*
X130833809Y-65492380D01*
X130738571Y-65635238D01*
X130643333Y-65730476D01*
X130548095Y-65778095D01*
X131976666Y-65825714D02*
X131976666Y-66492380D01*
X131738571Y-65444761D02*
X131500476Y-66159047D01*
X132119523Y-66159047D01*
X137668095Y-65492380D02*
X137668095Y-66301904D01*
X137715714Y-66397142D01*
X137763333Y-66444761D01*
X137858571Y-66492380D01*
X138049047Y-66492380D01*
X138144285Y-66444761D01*
X138191904Y-66397142D01*
X138239523Y-66301904D01*
X138239523Y-65492380D01*
X139191904Y-65492380D02*
X138715714Y-65492380D01*
X138668095Y-65968571D01*
X138715714Y-65920952D01*
X138810952Y-65873333D01*
X139049047Y-65873333D01*
X139144285Y-65920952D01*
X139191904Y-65968571D01*
X139239523Y-66063809D01*
X139239523Y-66301904D01*
X139191904Y-66397142D01*
X139144285Y-66444761D01*
X139049047Y-66492380D01*
X138810952Y-66492380D01*
X138715714Y-66444761D01*
X138668095Y-66397142D01*
X137668095Y-36282380D02*
X137668095Y-37091904D01*
X137715714Y-37187142D01*
X137763333Y-37234761D01*
X137858571Y-37282380D01*
X138049047Y-37282380D01*
X138144285Y-37234761D01*
X138191904Y-37187142D01*
X138239523Y-37091904D01*
X138239523Y-36282380D01*
X139144285Y-36615714D02*
X139144285Y-37282380D01*
X138906190Y-36234761D02*
X138668095Y-36949047D01*
X139287142Y-36949047D01*
X125087142Y-48712380D02*
X124753809Y-48236190D01*
X124515714Y-48712380D02*
X124515714Y-47712380D01*
X124896666Y-47712380D01*
X124991904Y-47760000D01*
X125039523Y-47807619D01*
X125087142Y-47902857D01*
X125087142Y-48045714D01*
X125039523Y-48140952D01*
X124991904Y-48188571D01*
X124896666Y-48236190D01*
X124515714Y-48236190D01*
X126039523Y-48712380D02*
X125468095Y-48712380D01*
X125753809Y-48712380D02*
X125753809Y-47712380D01*
X125658571Y-47855238D01*
X125563333Y-47950476D01*
X125468095Y-47998095D01*
X126372857Y-47712380D02*
X126991904Y-47712380D01*
X126658571Y-48093333D01*
X126801428Y-48093333D01*
X126896666Y-48140952D01*
X126944285Y-48188571D01*
X126991904Y-48283809D01*
X126991904Y-48521904D01*
X126944285Y-48617142D01*
X126896666Y-48664761D01*
X126801428Y-48712380D01*
X126515714Y-48712380D01*
X126420476Y-48664761D01*
X126372857Y-48617142D01*
X123642380Y-57792857D02*
X123166190Y-58126190D01*
X123642380Y-58364285D02*
X122642380Y-58364285D01*
X122642380Y-57983333D01*
X122690000Y-57888095D01*
X122737619Y-57840476D01*
X122832857Y-57792857D01*
X122975714Y-57792857D01*
X123070952Y-57840476D01*
X123118571Y-57888095D01*
X123166190Y-57983333D01*
X123166190Y-58364285D01*
X123642380Y-56840476D02*
X123642380Y-57411904D01*
X123642380Y-57126190D02*
X122642380Y-57126190D01*
X122785238Y-57221428D01*
X122880476Y-57316666D01*
X122928095Y-57411904D01*
X122737619Y-56459523D02*
X122690000Y-56411904D01*
X122642380Y-56316666D01*
X122642380Y-56078571D01*
X122690000Y-55983333D01*
X122737619Y-55935714D01*
X122832857Y-55888095D01*
X122928095Y-55888095D01*
X123070952Y-55935714D01*
X123642380Y-56507142D01*
X123642380Y-55888095D01*
X130167142Y-49982380D02*
X129833809Y-49506190D01*
X129595714Y-49982380D02*
X129595714Y-48982380D01*
X129976666Y-48982380D01*
X130071904Y-49030000D01*
X130119523Y-49077619D01*
X130167142Y-49172857D01*
X130167142Y-49315714D01*
X130119523Y-49410952D01*
X130071904Y-49458571D01*
X129976666Y-49506190D01*
X129595714Y-49506190D01*
X131119523Y-49982380D02*
X130548095Y-49982380D01*
X130833809Y-49982380D02*
X130833809Y-48982380D01*
X130738571Y-49125238D01*
X130643333Y-49220476D01*
X130548095Y-49268095D01*
X132071904Y-49982380D02*
X131500476Y-49982380D01*
X131786190Y-49982380D02*
X131786190Y-48982380D01*
X131690952Y-49125238D01*
X131595714Y-49220476D01*
X131500476Y-49268095D01*
X112212380Y-57792857D02*
X111736190Y-58126190D01*
X112212380Y-58364285D02*
X111212380Y-58364285D01*
X111212380Y-57983333D01*
X111260000Y-57888095D01*
X111307619Y-57840476D01*
X111402857Y-57792857D01*
X111545714Y-57792857D01*
X111640952Y-57840476D01*
X111688571Y-57888095D01*
X111736190Y-57983333D01*
X111736190Y-58364285D01*
X112212380Y-56840476D02*
X112212380Y-57411904D01*
X112212380Y-57126190D02*
X111212380Y-57126190D01*
X111355238Y-57221428D01*
X111450476Y-57316666D01*
X111498095Y-57411904D01*
X111212380Y-56221428D02*
X111212380Y-56126190D01*
X111260000Y-56030952D01*
X111307619Y-55983333D01*
X111402857Y-55935714D01*
X111593333Y-55888095D01*
X111831428Y-55888095D01*
X112021904Y-55935714D01*
X112117142Y-55983333D01*
X112164761Y-56030952D01*
X112212380Y-56126190D01*
X112212380Y-56221428D01*
X112164761Y-56316666D01*
X112117142Y-56364285D01*
X112021904Y-56411904D01*
X111831428Y-56459523D01*
X111593333Y-56459523D01*
X111402857Y-56411904D01*
X111307619Y-56364285D01*
X111260000Y-56316666D01*
X111212380Y-56221428D01*
X107783333Y-49982380D02*
X107450000Y-49506190D01*
X107211904Y-49982380D02*
X107211904Y-48982380D01*
X107592857Y-48982380D01*
X107688095Y-49030000D01*
X107735714Y-49077619D01*
X107783333Y-49172857D01*
X107783333Y-49315714D01*
X107735714Y-49410952D01*
X107688095Y-49458571D01*
X107592857Y-49506190D01*
X107211904Y-49506190D01*
X108259523Y-49982380D02*
X108450000Y-49982380D01*
X108545238Y-49934761D01*
X108592857Y-49887142D01*
X108688095Y-49744285D01*
X108735714Y-49553809D01*
X108735714Y-49172857D01*
X108688095Y-49077619D01*
X108640476Y-49030000D01*
X108545238Y-48982380D01*
X108354761Y-48982380D01*
X108259523Y-49030000D01*
X108211904Y-49077619D01*
X108164285Y-49172857D01*
X108164285Y-49410952D01*
X108211904Y-49506190D01*
X108259523Y-49553809D01*
X108354761Y-49601428D01*
X108545238Y-49601428D01*
X108640476Y-49553809D01*
X108688095Y-49506190D01*
X108735714Y-49410952D01*
X116022380Y-57316666D02*
X115546190Y-57650000D01*
X116022380Y-57888095D02*
X115022380Y-57888095D01*
X115022380Y-57507142D01*
X115070000Y-57411904D01*
X115117619Y-57364285D01*
X115212857Y-57316666D01*
X115355714Y-57316666D01*
X115450952Y-57364285D01*
X115498571Y-57411904D01*
X115546190Y-57507142D01*
X115546190Y-57888095D01*
X115450952Y-56745238D02*
X115403333Y-56840476D01*
X115355714Y-56888095D01*
X115260476Y-56935714D01*
X115212857Y-56935714D01*
X115117619Y-56888095D01*
X115070000Y-56840476D01*
X115022380Y-56745238D01*
X115022380Y-56554761D01*
X115070000Y-56459523D01*
X115117619Y-56411904D01*
X115212857Y-56364285D01*
X115260476Y-56364285D01*
X115355714Y-56411904D01*
X115403333Y-56459523D01*
X115450952Y-56554761D01*
X115450952Y-56745238D01*
X115498571Y-56840476D01*
X115546190Y-56888095D01*
X115641428Y-56935714D01*
X115831904Y-56935714D01*
X115927142Y-56888095D01*
X115974761Y-56840476D01*
X116022380Y-56745238D01*
X116022380Y-56554761D01*
X115974761Y-56459523D01*
X115927142Y-56411904D01*
X115831904Y-56364285D01*
X115641428Y-56364285D01*
X115546190Y-56411904D01*
X115498571Y-56459523D01*
X115450952Y-56554761D01*
X110323333Y-76652380D02*
X109990000Y-76176190D01*
X109751904Y-76652380D02*
X109751904Y-75652380D01*
X110132857Y-75652380D01*
X110228095Y-75700000D01*
X110275714Y-75747619D01*
X110323333Y-75842857D01*
X110323333Y-75985714D01*
X110275714Y-76080952D01*
X110228095Y-76128571D01*
X110132857Y-76176190D01*
X109751904Y-76176190D01*
X110656666Y-75652380D02*
X111323333Y-75652380D01*
X110894761Y-76652380D01*
X103973333Y-49982380D02*
X103640000Y-49506190D01*
X103401904Y-49982380D02*
X103401904Y-48982380D01*
X103782857Y-48982380D01*
X103878095Y-49030000D01*
X103925714Y-49077619D01*
X103973333Y-49172857D01*
X103973333Y-49315714D01*
X103925714Y-49410952D01*
X103878095Y-49458571D01*
X103782857Y-49506190D01*
X103401904Y-49506190D01*
X104830476Y-48982380D02*
X104640000Y-48982380D01*
X104544761Y-49030000D01*
X104497142Y-49077619D01*
X104401904Y-49220476D01*
X104354285Y-49410952D01*
X104354285Y-49791904D01*
X104401904Y-49887142D01*
X104449523Y-49934761D01*
X104544761Y-49982380D01*
X104735238Y-49982380D01*
X104830476Y-49934761D01*
X104878095Y-49887142D01*
X104925714Y-49791904D01*
X104925714Y-49553809D01*
X104878095Y-49458571D01*
X104830476Y-49410952D01*
X104735238Y-49363333D01*
X104544761Y-49363333D01*
X104449523Y-49410952D01*
X104401904Y-49458571D01*
X104354285Y-49553809D01*
X119832380Y-57316666D02*
X119356190Y-57650000D01*
X119832380Y-57888095D02*
X118832380Y-57888095D01*
X118832380Y-57507142D01*
X118880000Y-57411904D01*
X118927619Y-57364285D01*
X119022857Y-57316666D01*
X119165714Y-57316666D01*
X119260952Y-57364285D01*
X119308571Y-57411904D01*
X119356190Y-57507142D01*
X119356190Y-57888095D01*
X118832380Y-56411904D02*
X118832380Y-56888095D01*
X119308571Y-56935714D01*
X119260952Y-56888095D01*
X119213333Y-56792857D01*
X119213333Y-56554761D01*
X119260952Y-56459523D01*
X119308571Y-56411904D01*
X119403809Y-56364285D01*
X119641904Y-56364285D01*
X119737142Y-56411904D01*
X119784761Y-56459523D01*
X119832380Y-56554761D01*
X119832380Y-56792857D01*
X119784761Y-56888095D01*
X119737142Y-56935714D01*
X106513333Y-76652380D02*
X106180000Y-76176190D01*
X105941904Y-76652380D02*
X105941904Y-75652380D01*
X106322857Y-75652380D01*
X106418095Y-75700000D01*
X106465714Y-75747619D01*
X106513333Y-75842857D01*
X106513333Y-75985714D01*
X106465714Y-76080952D01*
X106418095Y-76128571D01*
X106322857Y-76176190D01*
X105941904Y-76176190D01*
X107370476Y-75985714D02*
X107370476Y-76652380D01*
X107132380Y-75604761D02*
X106894285Y-76319047D01*
X107513333Y-76319047D01*
X96972380Y-81446666D02*
X96496190Y-81780000D01*
X96972380Y-82018095D02*
X95972380Y-82018095D01*
X95972380Y-81637142D01*
X96020000Y-81541904D01*
X96067619Y-81494285D01*
X96162857Y-81446666D01*
X96305714Y-81446666D01*
X96400952Y-81494285D01*
X96448571Y-81541904D01*
X96496190Y-81637142D01*
X96496190Y-82018095D01*
X95972380Y-81113333D02*
X95972380Y-80494285D01*
X96353333Y-80827619D01*
X96353333Y-80684761D01*
X96400952Y-80589523D01*
X96448571Y-80541904D01*
X96543809Y-80494285D01*
X96781904Y-80494285D01*
X96877142Y-80541904D01*
X96924761Y-80589523D01*
X96972380Y-80684761D01*
X96972380Y-80970476D01*
X96924761Y-81065714D01*
X96877142Y-81113333D01*
X103322380Y-81446666D02*
X102846190Y-81780000D01*
X103322380Y-82018095D02*
X102322380Y-82018095D01*
X102322380Y-81637142D01*
X102370000Y-81541904D01*
X102417619Y-81494285D01*
X102512857Y-81446666D01*
X102655714Y-81446666D01*
X102750952Y-81494285D01*
X102798571Y-81541904D01*
X102846190Y-81637142D01*
X102846190Y-82018095D01*
X102417619Y-81065714D02*
X102370000Y-81018095D01*
X102322380Y-80922857D01*
X102322380Y-80684761D01*
X102370000Y-80589523D01*
X102417619Y-80541904D01*
X102512857Y-80494285D01*
X102608095Y-80494285D01*
X102750952Y-80541904D01*
X103322380Y-81113333D01*
X103322380Y-80494285D01*
X124912380Y-85256666D02*
X124436190Y-85590000D01*
X124912380Y-85828095D02*
X123912380Y-85828095D01*
X123912380Y-85447142D01*
X123960000Y-85351904D01*
X124007619Y-85304285D01*
X124102857Y-85256666D01*
X124245714Y-85256666D01*
X124340952Y-85304285D01*
X124388571Y-85351904D01*
X124436190Y-85447142D01*
X124436190Y-85828095D01*
X124912380Y-84304285D02*
X124912380Y-84875714D01*
X124912380Y-84590000D02*
X123912380Y-84590000D01*
X124055238Y-84685238D01*
X124150476Y-84780476D01*
X124198095Y-84875714D01*
X96424761Y-60237619D02*
X96329523Y-60190000D01*
X96234285Y-60094761D01*
X96091428Y-59951904D01*
X95996190Y-59904285D01*
X95900952Y-59904285D01*
X95948571Y-60142380D02*
X95853333Y-60094761D01*
X95758095Y-59999523D01*
X95710476Y-59809047D01*
X95710476Y-59475714D01*
X95758095Y-59285238D01*
X95853333Y-59190000D01*
X95948571Y-59142380D01*
X96139047Y-59142380D01*
X96234285Y-59190000D01*
X96329523Y-59285238D01*
X96377142Y-59475714D01*
X96377142Y-59809047D01*
X96329523Y-59999523D01*
X96234285Y-60094761D01*
X96139047Y-60142380D01*
X95948571Y-60142380D01*
X97234285Y-59142380D02*
X97043809Y-59142380D01*
X96948571Y-59190000D01*
X96900952Y-59237619D01*
X96805714Y-59380476D01*
X96758095Y-59570952D01*
X96758095Y-59951904D01*
X96805714Y-60047142D01*
X96853333Y-60094761D01*
X96948571Y-60142380D01*
X97139047Y-60142380D01*
X97234285Y-60094761D01*
X97281904Y-60047142D01*
X97329523Y-59951904D01*
X97329523Y-59713809D01*
X97281904Y-59618571D01*
X97234285Y-59570952D01*
X97139047Y-59523333D01*
X96948571Y-59523333D01*
X96853333Y-59570952D01*
X96805714Y-59618571D01*
X96758095Y-59713809D01*
X96424761Y-66587619D02*
X96329523Y-66540000D01*
X96234285Y-66444761D01*
X96091428Y-66301904D01*
X95996190Y-66254285D01*
X95900952Y-66254285D01*
X95948571Y-66492380D02*
X95853333Y-66444761D01*
X95758095Y-66349523D01*
X95710476Y-66159047D01*
X95710476Y-65825714D01*
X95758095Y-65635238D01*
X95853333Y-65540000D01*
X95948571Y-65492380D01*
X96139047Y-65492380D01*
X96234285Y-65540000D01*
X96329523Y-65635238D01*
X96377142Y-65825714D01*
X96377142Y-66159047D01*
X96329523Y-66349523D01*
X96234285Y-66444761D01*
X96139047Y-66492380D01*
X95948571Y-66492380D01*
X97281904Y-65492380D02*
X96805714Y-65492380D01*
X96758095Y-65968571D01*
X96805714Y-65920952D01*
X96900952Y-65873333D01*
X97139047Y-65873333D01*
X97234285Y-65920952D01*
X97281904Y-65968571D01*
X97329523Y-66063809D01*
X97329523Y-66301904D01*
X97281904Y-66397142D01*
X97234285Y-66444761D01*
X97139047Y-66492380D01*
X96900952Y-66492380D01*
X96805714Y-66444761D01*
X96758095Y-66397142D01*
X92614761Y-52867619D02*
X92519523Y-52820000D01*
X92424285Y-52724761D01*
X92281428Y-52581904D01*
X92186190Y-52534285D01*
X92090952Y-52534285D01*
X92138571Y-52772380D02*
X92043333Y-52724761D01*
X91948095Y-52629523D01*
X91900476Y-52439047D01*
X91900476Y-52105714D01*
X91948095Y-51915238D01*
X92043333Y-51820000D01*
X92138571Y-51772380D01*
X92329047Y-51772380D01*
X92424285Y-51820000D01*
X92519523Y-51915238D01*
X92567142Y-52105714D01*
X92567142Y-52439047D01*
X92519523Y-52629523D01*
X92424285Y-52724761D01*
X92329047Y-52772380D01*
X92138571Y-52772380D01*
X93424285Y-52105714D02*
X93424285Y-52772380D01*
X93186190Y-51724761D02*
X92948095Y-52439047D01*
X93567142Y-52439047D01*
X96424761Y-72937619D02*
X96329523Y-72890000D01*
X96234285Y-72794761D01*
X96091428Y-72651904D01*
X95996190Y-72604285D01*
X95900952Y-72604285D01*
X95948571Y-72842380D02*
X95853333Y-72794761D01*
X95758095Y-72699523D01*
X95710476Y-72509047D01*
X95710476Y-72175714D01*
X95758095Y-71985238D01*
X95853333Y-71890000D01*
X95948571Y-71842380D01*
X96139047Y-71842380D01*
X96234285Y-71890000D01*
X96329523Y-71985238D01*
X96377142Y-72175714D01*
X96377142Y-72509047D01*
X96329523Y-72699523D01*
X96234285Y-72794761D01*
X96139047Y-72842380D01*
X95948571Y-72842380D01*
X96710476Y-71842380D02*
X97329523Y-71842380D01*
X96996190Y-72223333D01*
X97139047Y-72223333D01*
X97234285Y-72270952D01*
X97281904Y-72318571D01*
X97329523Y-72413809D01*
X97329523Y-72651904D01*
X97281904Y-72747142D01*
X97234285Y-72794761D01*
X97139047Y-72842380D01*
X96853333Y-72842380D01*
X96758095Y-72794761D01*
X96710476Y-72747142D01*
X97694761Y-47787619D02*
X97599523Y-47740000D01*
X97504285Y-47644761D01*
X97361428Y-47501904D01*
X97266190Y-47454285D01*
X97170952Y-47454285D01*
X97218571Y-47692380D02*
X97123333Y-47644761D01*
X97028095Y-47549523D01*
X96980476Y-47359047D01*
X96980476Y-47025714D01*
X97028095Y-46835238D01*
X97123333Y-46740000D01*
X97218571Y-46692380D01*
X97409047Y-46692380D01*
X97504285Y-46740000D01*
X97599523Y-46835238D01*
X97647142Y-47025714D01*
X97647142Y-47359047D01*
X97599523Y-47549523D01*
X97504285Y-47644761D01*
X97409047Y-47692380D01*
X97218571Y-47692380D01*
X98028095Y-46787619D02*
X98075714Y-46740000D01*
X98170952Y-46692380D01*
X98409047Y-46692380D01*
X98504285Y-46740000D01*
X98551904Y-46787619D01*
X98599523Y-46882857D01*
X98599523Y-46978095D01*
X98551904Y-47120952D01*
X97980476Y-47692380D01*
X98599523Y-47692380D01*
X96424761Y-79287619D02*
X96329523Y-79240000D01*
X96234285Y-79144761D01*
X96091428Y-79001904D01*
X95996190Y-78954285D01*
X95900952Y-78954285D01*
X95948571Y-79192380D02*
X95853333Y-79144761D01*
X95758095Y-79049523D01*
X95710476Y-78859047D01*
X95710476Y-78525714D01*
X95758095Y-78335238D01*
X95853333Y-78240000D01*
X95948571Y-78192380D01*
X96139047Y-78192380D01*
X96234285Y-78240000D01*
X96329523Y-78335238D01*
X96377142Y-78525714D01*
X96377142Y-78859047D01*
X96329523Y-79049523D01*
X96234285Y-79144761D01*
X96139047Y-79192380D01*
X95948571Y-79192380D01*
X97329523Y-79192380D02*
X96758095Y-79192380D01*
X97043809Y-79192380D02*
X97043809Y-78192380D01*
X96948571Y-78335238D01*
X96853333Y-78430476D01*
X96758095Y-78478095D01*
X126833333Y-44902380D02*
X126357142Y-44902380D01*
X126357142Y-43902380D01*
X127690476Y-44902380D02*
X127119047Y-44902380D01*
X127404761Y-44902380D02*
X127404761Y-43902380D01*
X127309523Y-44045238D01*
X127214285Y-44140476D01*
X127119047Y-44188095D01*
X124991904Y-36012380D02*
X124991904Y-35012380D01*
X125230000Y-35012380D01*
X125372857Y-35060000D01*
X125468095Y-35155238D01*
X125515714Y-35250476D01*
X125563333Y-35440952D01*
X125563333Y-35583809D01*
X125515714Y-35774285D01*
X125468095Y-35869523D01*
X125372857Y-35964761D01*
X125230000Y-36012380D01*
X124991904Y-36012380D01*
X126515714Y-36012380D02*
X125944285Y-36012380D01*
X126230000Y-36012380D02*
X126230000Y-35012380D01*
X126134761Y-35155238D01*
X126039523Y-35250476D01*
X125944285Y-35298095D01*
X133088095Y-37282380D02*
X133088095Y-36282380D01*
X133659523Y-37282380D02*
X133230952Y-36710952D01*
X133659523Y-36282380D02*
X133088095Y-36853809D01*
X96353333Y-38457142D02*
X96305714Y-38504761D01*
X96162857Y-38552380D01*
X96067619Y-38552380D01*
X95924761Y-38504761D01*
X95829523Y-38409523D01*
X95781904Y-38314285D01*
X95734285Y-38123809D01*
X95734285Y-37980952D01*
X95781904Y-37790476D01*
X95829523Y-37695238D01*
X95924761Y-37600000D01*
X96067619Y-37552380D01*
X96162857Y-37552380D01*
X96305714Y-37600000D01*
X96353333Y-37647619D01*
X97210476Y-37552380D02*
X97020000Y-37552380D01*
X96924761Y-37600000D01*
X96877142Y-37647619D01*
X96781904Y-37790476D01*
X96734285Y-37980952D01*
X96734285Y-38361904D01*
X96781904Y-38457142D01*
X96829523Y-38504761D01*
X96924761Y-38552380D01*
X97115238Y-38552380D01*
X97210476Y-38504761D01*
X97258095Y-38457142D01*
X97305714Y-38361904D01*
X97305714Y-38123809D01*
X97258095Y-38028571D01*
X97210476Y-37980952D01*
X97115238Y-37933333D01*
X96924761Y-37933333D01*
X96829523Y-37980952D01*
X96781904Y-38028571D01*
X96734285Y-38123809D01*
X136237142Y-49696666D02*
X136284761Y-49744285D01*
X136332380Y-49887142D01*
X136332380Y-49982380D01*
X136284761Y-50125238D01*
X136189523Y-50220476D01*
X136094285Y-50268095D01*
X135903809Y-50315714D01*
X135760952Y-50315714D01*
X135570476Y-50268095D01*
X135475238Y-50220476D01*
X135380000Y-50125238D01*
X135332380Y-49982380D01*
X135332380Y-49887142D01*
X135380000Y-49744285D01*
X135427619Y-49696666D01*
X135332380Y-48791904D02*
X135332380Y-49268095D01*
X135808571Y-49315714D01*
X135760952Y-49268095D01*
X135713333Y-49172857D01*
X135713333Y-48934761D01*
X135760952Y-48839523D01*
X135808571Y-48791904D01*
X135903809Y-48744285D01*
X136141904Y-48744285D01*
X136237142Y-48791904D01*
X136284761Y-48839523D01*
X136332380Y-48934761D01*
X136332380Y-49172857D01*
X136284761Y-49268095D01*
X136237142Y-49315714D01*
X109053333Y-37187142D02*
X109005714Y-37234761D01*
X108862857Y-37282380D01*
X108767619Y-37282380D01*
X108624761Y-37234761D01*
X108529523Y-37139523D01*
X108481904Y-37044285D01*
X108434285Y-36853809D01*
X108434285Y-36710952D01*
X108481904Y-36520476D01*
X108529523Y-36425238D01*
X108624761Y-36330000D01*
X108767619Y-36282380D01*
X108862857Y-36282380D01*
X109005714Y-36330000D01*
X109053333Y-36377619D01*
X109910476Y-36615714D02*
X109910476Y-37282380D01*
X109672380Y-36234761D02*
X109434285Y-36949047D01*
X110053333Y-36949047D01*
X93813333Y-86717142D02*
X93765714Y-86764761D01*
X93622857Y-86812380D01*
X93527619Y-86812380D01*
X93384761Y-86764761D01*
X93289523Y-86669523D01*
X93241904Y-86574285D01*
X93194285Y-86383809D01*
X93194285Y-86240952D01*
X93241904Y-86050476D01*
X93289523Y-85955238D01*
X93384761Y-85860000D01*
X93527619Y-85812380D01*
X93622857Y-85812380D01*
X93765714Y-85860000D01*
X93813333Y-85907619D01*
X94146666Y-85812380D02*
X94765714Y-85812380D01*
X94432380Y-86193333D01*
X94575238Y-86193333D01*
X94670476Y-86240952D01*
X94718095Y-86288571D01*
X94765714Y-86383809D01*
X94765714Y-86621904D01*
X94718095Y-86717142D01*
X94670476Y-86764761D01*
X94575238Y-86812380D01*
X94289523Y-86812380D01*
X94194285Y-86764761D01*
X94146666Y-86717142D01*
X95083333Y-89257142D02*
X95035714Y-89304761D01*
X94892857Y-89352380D01*
X94797619Y-89352380D01*
X94654761Y-89304761D01*
X94559523Y-89209523D01*
X94511904Y-89114285D01*
X94464285Y-88923809D01*
X94464285Y-88780952D01*
X94511904Y-88590476D01*
X94559523Y-88495238D01*
X94654761Y-88400000D01*
X94797619Y-88352380D01*
X94892857Y-88352380D01*
X95035714Y-88400000D01*
X95083333Y-88447619D01*
X95464285Y-88447619D02*
X95511904Y-88400000D01*
X95607142Y-88352380D01*
X95845238Y-88352380D01*
X95940476Y-88400000D01*
X95988095Y-88447619D01*
X96035714Y-88542857D01*
X96035714Y-88638095D01*
X95988095Y-88780952D01*
X95416666Y-89352380D01*
X96035714Y-89352380D01*
X100687142Y-72556666D02*
X100734761Y-72604285D01*
X100782380Y-72747142D01*
X100782380Y-72842380D01*
X100734761Y-72985238D01*
X100639523Y-73080476D01*
X100544285Y-73128095D01*
X100353809Y-73175714D01*
X100210952Y-73175714D01*
X100020476Y-73128095D01*
X99925238Y-73080476D01*
X99830000Y-72985238D01*
X99782380Y-72842380D01*
X99782380Y-72747142D01*
X99830000Y-72604285D01*
X99877619Y-72556666D01*
X100782380Y-71604285D02*
X100782380Y-72175714D01*
X100782380Y-71890000D02*
X99782380Y-71890000D01*
X99925238Y-71985238D01*
X100020476Y-72080476D01*
X100068095Y-72175714D01*
X126666666Y-74382380D02*
X126666666Y-75096666D01*
X126619047Y-75239523D01*
X126523809Y-75334761D01*
X126380952Y-75382380D01*
X126285714Y-75382380D01*
X127666666Y-75382380D02*
X127095238Y-75382380D01*
X127380952Y-75382380D02*
X127380952Y-74382380D01*
X127285714Y-74525238D01*
X127190476Y-74620476D01*
X127095238Y-74668095D01*
%LPC*%
D12*
X133350000Y-76200000D03*
D13*
X138430000Y-88900000D03*
X130810000Y-81280000D03*
X135890000Y-88900000D03*
X133350000Y-81280000D03*
X133350000Y-88900000D03*
X135890000Y-81280000D03*
X130810000Y-88900000D03*
D14*
X138430000Y-81280000D03*
D13*
X121920000Y-88900000D03*
X114300000Y-81280000D03*
X119380000Y-88900000D03*
X116840000Y-81280000D03*
X116840000Y-88900000D03*
X119380000Y-81280000D03*
X114300000Y-88900000D03*
D14*
X121920000Y-81280000D03*
D13*
X121920000Y-73660000D03*
X106680000Y-66040000D03*
X119380000Y-73660000D03*
X109220000Y-66040000D03*
X116840000Y-73660000D03*
X111760000Y-66040000D03*
X114300000Y-73660000D03*
X114300000Y-66040000D03*
X111760000Y-73660000D03*
X116840000Y-66040000D03*
X109220000Y-73660000D03*
X119380000Y-66040000D03*
X106680000Y-73660000D03*
D14*
X121920000Y-66040000D03*
D15*
X66040000Y-35560000D03*
X66040000Y-40640000D03*
X66040000Y-45720000D03*
X66040000Y-50800000D03*
X66040000Y-55880000D03*
X66040000Y-60960000D03*
X66040000Y-66040000D03*
X66040000Y-71120000D03*
X66040000Y-76200000D03*
X66040000Y-81280000D03*
D16*
X66040000Y-86360000D03*
D17*
X130810000Y-57150000D03*
X128270000Y-59690000D03*
X130810000Y-62230000D03*
D18*
X138430000Y-62230000D03*
X138430000Y-59690000D03*
D19*
X138430000Y-57150000D03*
D20*
X138430000Y-46170000D03*
X138430000Y-44470000D03*
X138430000Y-42770000D03*
X138430000Y-41070000D03*
D21*
X138430000Y-39370000D03*
D13*
X123190000Y-48260000D03*
D22*
X113030000Y-48260000D03*
D13*
X123190000Y-52070000D03*
D22*
X123190000Y-62230000D03*
D13*
X135890000Y-52070000D03*
D22*
X125730000Y-52070000D03*
D13*
X111760000Y-62230000D03*
D22*
X111760000Y-52070000D03*
D13*
X107950000Y-62230000D03*
D22*
X107950000Y-52070000D03*
D13*
X115570000Y-62230000D03*
D22*
X115570000Y-52070000D03*
D13*
X110490000Y-78740000D03*
D22*
X110490000Y-88900000D03*
D13*
X104140000Y-62230000D03*
D22*
X104140000Y-52070000D03*
D13*
X119380000Y-62230000D03*
D22*
X119380000Y-52070000D03*
D13*
X106680000Y-78740000D03*
D22*
X106680000Y-88900000D03*
D13*
X99060000Y-76200000D03*
D22*
X99060000Y-86360000D03*
D13*
X102870000Y-86360000D03*
D22*
X102870000Y-76200000D03*
D13*
X127000000Y-80010000D03*
D22*
X127000000Y-90170000D03*
D23*
X87630000Y-59690000D03*
X90170000Y-59690000D03*
D24*
X92710000Y-59690000D03*
D23*
X87630000Y-66040000D03*
X90170000Y-66040000D03*
D24*
X92710000Y-66040000D03*
D25*
X91440000Y-55880000D03*
D26*
X93980000Y-55880000D03*
X92710000Y-55880000D03*
D23*
X87630000Y-72390000D03*
X90170000Y-72390000D03*
D24*
X92710000Y-72390000D03*
D25*
X96520000Y-50800000D03*
D26*
X99060000Y-50800000D03*
X97790000Y-50800000D03*
D23*
X87630000Y-78740000D03*
X90170000Y-78740000D03*
D24*
X92710000Y-78740000D03*
D27*
X109220000Y-44450000D03*
D28*
X124460000Y-44450000D03*
D29*
X118110000Y-39370000D03*
D30*
X133350000Y-39370000D03*
D31*
X90805000Y-45640000D03*
D32*
X90805000Y-40640000D03*
D22*
X138430000Y-49570000D03*
X138430000Y-52070000D03*
D28*
X103505000Y-43100000D03*
D33*
X103505000Y-38100000D03*
D22*
X89860000Y-86360000D03*
D14*
X86360000Y-86360000D03*
D22*
X97870000Y-88900000D03*
X102870000Y-88900000D03*
X102870000Y-73620000D03*
X102870000Y-71120000D03*
D34*
X116840000Y-77470000D03*
X119380000Y-77470000D03*
X121920000Y-77470000D03*
X124460000Y-77470000D03*
D35*
X127000000Y-77470000D03*
M02*
